%TF.GenerationSoftware,KiCad,Pcbnew,8.0.1*%
%TF.CreationDate,2024-04-03T22:27:09-06:00*%
%TF.ProjectId,weather_station_pico,77656174-6865-4725-9f73-746174696f6e,rev?*%
%TF.SameCoordinates,Original*%
%TF.FileFunction,Paste,Bot*%
%TF.FilePolarity,Positive*%
%FSLAX46Y46*%
G04 Gerber Fmt 4.6, Leading zero omitted, Abs format (unit mm)*
G04 Created by KiCad (PCBNEW 8.0.1) date 2024-04-03 22:27:09*
%MOMM*%
%LPD*%
G01*
G04 APERTURE LIST*
G04 Aperture macros list*
%AMRoundRect*
0 Rectangle with rounded corners*
0 $1 Rounding radius*
0 $2 $3 $4 $5 $6 $7 $8 $9 X,Y pos of 4 corners*
0 Add a 4 corners polygon primitive as box body*
4,1,4,$2,$3,$4,$5,$6,$7,$8,$9,$2,$3,0*
0 Add four circle primitives for the rounded corners*
1,1,$1+$1,$2,$3*
1,1,$1+$1,$4,$5*
1,1,$1+$1,$6,$7*
1,1,$1+$1,$8,$9*
0 Add four rect primitives between the rounded corners*
20,1,$1+$1,$2,$3,$4,$5,0*
20,1,$1+$1,$4,$5,$6,$7,0*
20,1,$1+$1,$6,$7,$8,$9,0*
20,1,$1+$1,$8,$9,$2,$3,0*%
G04 Aperture macros list end*
%ADD10RoundRect,0.250000X-0.350000X-0.450000X0.350000X-0.450000X0.350000X0.450000X-0.350000X0.450000X0*%
%ADD11R,2.959999X1.270000*%
%ADD12R,0.990600X5.511800*%
%ADD13R,1.600200X2.997200*%
%ADD14R,0.660400X1.549400*%
%ADD15R,1.295400X1.905000*%
%ADD16R,3.000000X1.200000*%
%ADD17RoundRect,0.250000X-1.000000X-0.650000X1.000000X-0.650000X1.000000X0.650000X-1.000000X0.650000X0*%
%ADD18RoundRect,0.250000X-0.475000X0.337500X-0.475000X-0.337500X0.475000X-0.337500X0.475000X0.337500X0*%
%ADD19RoundRect,0.250000X0.337500X0.475000X-0.337500X0.475000X-0.337500X-0.475000X0.337500X-0.475000X0*%
%ADD20RoundRect,0.250000X-0.450000X0.350000X-0.450000X-0.350000X0.450000X-0.350000X0.450000X0.350000X0*%
%ADD21RoundRect,0.250000X0.450000X-0.350000X0.450000X0.350000X-0.450000X0.350000X-0.450000X-0.350000X0*%
%ADD22R,1.000000X1.050000*%
%ADD23R,1.050000X2.200000*%
%ADD24R,0.762000X5.003800*%
%ADD25R,8.788400X4.495800*%
G04 APERTURE END LIST*
D10*
%TO.C,R3*%
X131445000Y-93100000D03*
X133445000Y-93100000D03*
%TD*%
D11*
%TO.C,U1*%
X136864999Y-72820000D03*
X140445000Y-75360000D03*
X136864999Y-77900000D03*
X140445000Y-80440000D03*
X136864999Y-82980000D03*
X140445000Y-85520000D03*
X136864999Y-88060000D03*
X140445000Y-90600000D03*
X136864999Y-93140000D03*
X140445000Y-95680000D03*
X136864999Y-98220000D03*
X140445000Y-100760000D03*
X136864999Y-103300000D03*
X140445000Y-105840000D03*
X136864999Y-108380000D03*
X140445000Y-110920000D03*
X136864999Y-113460000D03*
X140445000Y-116000000D03*
X136864999Y-118540000D03*
X140445000Y-121080000D03*
X158225000Y-121080000D03*
X154644999Y-118540000D03*
X158225000Y-116000000D03*
X154644999Y-113460000D03*
X158225000Y-110920000D03*
X154644999Y-108380000D03*
X158225000Y-105840000D03*
X154644999Y-103300000D03*
X158225000Y-100760000D03*
X154644999Y-98220000D03*
X158225000Y-95680000D03*
X154644999Y-93140000D03*
X158225000Y-90600000D03*
X154644999Y-88060000D03*
X158225000Y-85520000D03*
X154644999Y-82980000D03*
X158225000Y-80440000D03*
X154644999Y-77900000D03*
X158225000Y-75360000D03*
X154644999Y-72820000D03*
%TD*%
D10*
%TO.C,R2*%
X133445000Y-88100000D03*
X131445000Y-88100000D03*
%TD*%
D12*
%TO.C,J7*%
X124445002Y-116900000D03*
X126445000Y-116900000D03*
X128445002Y-116900000D03*
X130445000Y-116900000D03*
D13*
X132845000Y-119150001D03*
X122045002Y-119150001D03*
%TD*%
D10*
%TO.C,R1*%
X131445000Y-85500000D03*
X133445000Y-85500000D03*
%TD*%
D14*
%TO.C,J4*%
X127945000Y-74017799D03*
X128945001Y-74017799D03*
X129944999Y-74017799D03*
X130945000Y-74017799D03*
D15*
X126645001Y-76597799D03*
X132244999Y-76597799D03*
%TD*%
D16*
%TO.C,U2*%
X154945000Y-124900000D03*
X154945000Y-126900000D03*
X154945000Y-128900000D03*
X154945000Y-130900000D03*
X154945000Y-132900000D03*
X154945000Y-134900000D03*
X154945000Y-136900000D03*
X154945000Y-138900000D03*
X139945000Y-138900000D03*
X139945000Y-136900000D03*
X139945000Y-134900000D03*
X139945000Y-132900000D03*
X139945000Y-130900000D03*
X139945000Y-128900000D03*
X139945000Y-126900000D03*
X139945000Y-124900000D03*
%TD*%
D17*
%TO.C,D1*%
X163445000Y-75400000D03*
X167445000Y-75400000D03*
%TD*%
D18*
%TO.C,C1*%
X135945000Y-130825000D03*
X135945000Y-132900000D03*
%TD*%
D14*
%TO.C,J2*%
X124945000Y-136017799D03*
X125945001Y-136017799D03*
X126944999Y-136017799D03*
X127945000Y-136017799D03*
D15*
X123645001Y-138597799D03*
X129244999Y-138597799D03*
%TD*%
D10*
%TO.C,R4*%
X131445000Y-95600000D03*
X133445000Y-95600000D03*
%TD*%
D19*
%TO.C,C3*%
X119082500Y-113200000D03*
X117007500Y-113200000D03*
%TD*%
D10*
%TO.C,R8*%
X164845000Y-112300000D03*
X166845000Y-112300000D03*
%TD*%
D20*
%TO.C,R6*%
X161445000Y-93700000D03*
X161445000Y-95700000D03*
%TD*%
D10*
%TO.C,R7*%
X131445000Y-80900000D03*
X133445000Y-80900000D03*
%TD*%
D21*
%TO.C,R5*%
X161445000Y-102900000D03*
X161445000Y-100900000D03*
%TD*%
D22*
%TO.C,J3*%
X137445000Y-140375000D03*
D23*
X135970000Y-141900000D03*
X138920000Y-141900000D03*
%TD*%
D18*
%TO.C,C2*%
X177045000Y-112362500D03*
X177045000Y-114437500D03*
%TD*%
D14*
%TO.C,J1*%
X166945000Y-136017799D03*
X167945001Y-136017799D03*
X168944999Y-136017799D03*
X169945000Y-136017799D03*
D15*
X165645001Y-138597799D03*
X171244999Y-138597799D03*
%TD*%
D12*
%TO.C,J8*%
X164845000Y-117649999D03*
X166844998Y-117649999D03*
X168845000Y-117649999D03*
X170844998Y-117649999D03*
D13*
X173244998Y-119900000D03*
X162445000Y-119900000D03*
%TD*%
D24*
%TO.C,J6*%
X115270000Y-107760902D03*
X116540000Y-107760902D03*
X117810000Y-107760902D03*
X119080000Y-107760902D03*
X120350000Y-107760902D03*
X121620000Y-107760902D03*
D25*
X118445000Y-91710901D03*
%TD*%
D24*
%TO.C,J5*%
X173270000Y-107760902D03*
X174540000Y-107760902D03*
X175810000Y-107760902D03*
X177080000Y-107760902D03*
X178350000Y-107760902D03*
X179620000Y-107760902D03*
D25*
X176445000Y-91710901D03*
%TD*%
M02*
