M48
; DRILL file {KiCad 8.0.1} date 2024-04-03T22:27:06-0600
; FORMAT={-:-/ absolute / inch / decimal}
; #@! TF.CreationDate,2024-04-03T22:27:06-06:00
; #@! TF.GenerationSoftware,Kicad,Pcbnew,8.0.1
; #@! TF.FileFunction,MixedPlating,1,2
FMAT,2
INCH
; #@! TA.AperFunction,Plated,PTH,ViaDrill
T1C0.0157
; #@! TA.AperFunction,Plated,PTH,ViaDrill
T2C0.0236
; #@! TA.AperFunction,Plated,PTH,ComponentDrill
T3C0.0394
; #@! TA.AperFunction,NonPlated,NPTH,ComponentDrill
T4C0.1260
%
G90
G05
T1
X4.49Y-5.1535
X4.49Y-5.2441
X4.49Y-5.4173
X4.49Y-5.5984
X4.5726Y-4.7953
X4.5963Y-5.0748
X4.6002Y-2.9331
X4.612Y-4.8937
X4.6238Y-3.3661
X4.6278Y-3.7717
X4.6553Y-2.8661
X4.6671Y-4.6339
X4.6829Y-5.248
X4.6829Y-5.4252
X4.6829Y-5.5984
X4.6868Y-4.1024
X4.6907Y-3.1102
X4.7459Y-3.0787
X4.7459Y-3.7795
X4.7498Y-3.3661
X4.7577Y-5.0787
X4.7892Y-4.4094
X4.7892Y-4.8976
X4.797Y-2.8661
X4.797Y-5.4567
X4.8089Y-3.1969
X4.8679Y-5.5433
X4.9033Y-3.0157
X4.9073Y-3.6102
X4.9073Y-3.8189
X4.9073Y-4.1496
X4.9112Y-2.9331
X4.9614Y-5.1506
X4.9781Y-3.9567
X4.9781Y-4.3071
X4.9939Y-3.1969
X4.9978Y-5.2559
X5.0175Y-3.8189
X5.0254Y-3.6102
X5.0451Y-3.0236
X5.053Y-4.4331
X5.0608Y-4.752
X5.0726Y-2.7992
X5.0726Y-5.2717
X5.0884Y-5.5394
X5.112Y-3.0197
X5.1199Y-3.185
X5.1199Y-3.3661
X5.1199Y-3.4685
X5.1199Y-3.6654
X5.1199Y-3.7677
X5.1199Y-3.9567
X5.1356Y-4.4252
X5.1553Y-5.4567
X5.1632Y-4.748
X5.175Y-2.7992
X5.2577Y-4.8858
X5.2734Y-4.0669
X5.2774Y-5.2323
X5.2774Y-5.4843
X5.2774Y-5.5866
X5.2931Y-3.0
X5.3246Y-5.0276
X5.3522Y-5.2992
X5.3758Y-5.3937
X5.3876Y-2.9803
X5.3876Y-3.1496
X5.3876Y-3.9882
X5.3876Y-4.1417
X5.3876Y-4.7244
X5.3876Y-4.8425
X5.4152Y-3.5669
X5.4152Y-4.5669
X5.4978Y-4.0669
X5.5096Y-3.0669
X5.5293Y-3.4843
X5.5293Y-4.4882
X5.5293Y-4.6457
X5.549Y-5.5866
X5.6278Y-5.3898
X5.6435Y-3.5709
X5.6435Y-5.185
X5.6632Y-3.9685
X5.6632Y-5.0748
X5.6671Y-4.1654
X5.6711Y-2.8976
X5.6711Y-3.1732
X5.6711Y-3.7126
X5.675Y-3.3701
X5.7656Y-4.2717
X5.7656Y-5.311
X5.8246Y-5.0748
X5.8285Y-4.3661
X5.8758Y-5.3976
X5.8915Y-4.4685
X5.8915Y-5.1496
X5.8994Y-2.8858
X5.9152Y-3.378
X5.9152Y-3.5354
X5.9506Y-4.6654
X5.9506Y-5.2323
X5.9545Y-3.7126
X5.9624Y-4.0669
X5.986Y-2.7992
X5.986Y-5.4685
X5.99Y-3.2638
X5.9939Y-4.7677
X5.9939Y-4.9961
X6.0884Y-2.9764
X6.0884Y-3.1575
X6.0923Y-3.9724
X6.1002Y-5.5512
X6.1278Y-3.5669
X6.2026Y-3.0669
X6.2144Y-5.1339
X6.2144Y-5.4685
X6.2183Y-4.0669
X6.2183Y-4.9213
X6.2301Y-3.4921
X6.3325Y-3.5669
X6.3915Y-3.122
X6.3915Y-4.9252
X6.3915Y-5.1299
X6.4152Y-2.815
X6.427Y-3.2677
X6.427Y-3.689
X6.427Y-4.0512
X6.427Y-4.3228
X6.4388Y-5.4567
X6.5215Y-5.5472
X6.5372Y-3.6181
X6.5687Y-4.8543
X6.612Y-5.2835
X6.6317Y-3.126
X6.6514Y-5.248
X6.6553Y-2.815
X6.6789Y-3.8543
X6.7026Y-3.6102
X6.7419Y-5.5472
X6.8167Y-5.4567
X6.8325Y-3.8701
X6.8915Y-5.2283
X6.9467Y-3.374
X6.9742Y-3.7677
X6.9742Y-4.0984
X7.0766Y-3.7677
X7.0766Y-4.6772
X7.0766Y-4.9724
X7.0766Y-5.315
X7.0766Y-5.5669
X7.0963Y-4.0315
T2
X6.8679Y-3.1949
X6.9663Y-2.8307
T3
X6.8648Y-2.9669
X6.8648Y-3.0669
X6.9648Y-2.9669
X6.9648Y-3.0669
X7.0648Y-2.9669
X7.0648Y-3.0669
T4
X4.9817Y-3.3854
X4.9817Y-5.0354
X6.6317Y-3.3854
X6.6317Y-5.0354
M30
