%TF.GenerationSoftware,KiCad,Pcbnew,8.0.1*%
%TF.CreationDate,2024-04-03T12:02:44-06:00*%
%TF.ProjectId,weather_station_pico,77656174-6865-4725-9f73-746174696f6e,rev?*%
%TF.SameCoordinates,Original*%
%TF.FileFunction,Legend,Top*%
%TF.FilePolarity,Positive*%
%FSLAX46Y46*%
G04 Gerber Fmt 4.6, Leading zero omitted, Abs format (unit mm)*
G04 Created by KiCad (PCBNEW 8.0.1) date 2024-04-03 12:02:44*
%MOMM*%
%LPD*%
G01*
G04 APERTURE LIST*
%ADD10C,0.100000*%
%ADD11C,0.150000*%
%ADD12C,0.080000*%
%ADD13C,0.508000*%
%ADD14C,0.120000*%
%ADD15C,0.127000*%
%ADD16C,0.200000*%
G04 APERTURE END LIST*
D10*
X102667931Y-99633609D02*
X102429836Y-99633609D01*
X102429836Y-99633609D02*
X102429836Y-99133609D01*
X102834598Y-99633609D02*
X102834598Y-99300276D01*
X102834598Y-99133609D02*
X102810789Y-99157419D01*
X102810789Y-99157419D02*
X102834598Y-99181228D01*
X102834598Y-99181228D02*
X102858408Y-99157419D01*
X102858408Y-99157419D02*
X102834598Y-99133609D01*
X102834598Y-99133609D02*
X102834598Y-99181228D01*
X103286979Y-99300276D02*
X103286979Y-99705038D01*
X103286979Y-99705038D02*
X103263169Y-99752657D01*
X103263169Y-99752657D02*
X103239360Y-99776466D01*
X103239360Y-99776466D02*
X103191741Y-99800276D01*
X103191741Y-99800276D02*
X103120312Y-99800276D01*
X103120312Y-99800276D02*
X103072693Y-99776466D01*
X103286979Y-99609800D02*
X103239360Y-99633609D01*
X103239360Y-99633609D02*
X103144122Y-99633609D01*
X103144122Y-99633609D02*
X103096503Y-99609800D01*
X103096503Y-99609800D02*
X103072693Y-99585990D01*
X103072693Y-99585990D02*
X103048884Y-99538371D01*
X103048884Y-99538371D02*
X103048884Y-99395514D01*
X103048884Y-99395514D02*
X103072693Y-99347895D01*
X103072693Y-99347895D02*
X103096503Y-99324085D01*
X103096503Y-99324085D02*
X103144122Y-99300276D01*
X103144122Y-99300276D02*
X103239360Y-99300276D01*
X103239360Y-99300276D02*
X103286979Y-99324085D01*
X103525074Y-99633609D02*
X103525074Y-99133609D01*
X103739360Y-99633609D02*
X103739360Y-99371704D01*
X103739360Y-99371704D02*
X103715550Y-99324085D01*
X103715550Y-99324085D02*
X103667931Y-99300276D01*
X103667931Y-99300276D02*
X103596503Y-99300276D01*
X103596503Y-99300276D02*
X103548884Y-99324085D01*
X103548884Y-99324085D02*
X103525074Y-99347895D01*
X103906027Y-99300276D02*
X104096503Y-99300276D01*
X103977455Y-99133609D02*
X103977455Y-99562180D01*
X103977455Y-99562180D02*
X104001265Y-99609800D01*
X104001265Y-99609800D02*
X104048884Y-99633609D01*
X104048884Y-99633609D02*
X104096503Y-99633609D01*
X104620312Y-99609800D02*
X104691740Y-99633609D01*
X104691740Y-99633609D02*
X104810788Y-99633609D01*
X104810788Y-99633609D02*
X104858407Y-99609800D01*
X104858407Y-99609800D02*
X104882216Y-99585990D01*
X104882216Y-99585990D02*
X104906026Y-99538371D01*
X104906026Y-99538371D02*
X104906026Y-99490752D01*
X104906026Y-99490752D02*
X104882216Y-99443133D01*
X104882216Y-99443133D02*
X104858407Y-99419323D01*
X104858407Y-99419323D02*
X104810788Y-99395514D01*
X104810788Y-99395514D02*
X104715550Y-99371704D01*
X104715550Y-99371704D02*
X104667931Y-99347895D01*
X104667931Y-99347895D02*
X104644121Y-99324085D01*
X104644121Y-99324085D02*
X104620312Y-99276466D01*
X104620312Y-99276466D02*
X104620312Y-99228847D01*
X104620312Y-99228847D02*
X104644121Y-99181228D01*
X104644121Y-99181228D02*
X104667931Y-99157419D01*
X104667931Y-99157419D02*
X104715550Y-99133609D01*
X104715550Y-99133609D02*
X104834597Y-99133609D01*
X104834597Y-99133609D02*
X104906026Y-99157419D01*
X105310787Y-99609800D02*
X105263168Y-99633609D01*
X105263168Y-99633609D02*
X105167930Y-99633609D01*
X105167930Y-99633609D02*
X105120311Y-99609800D01*
X105120311Y-99609800D02*
X105096502Y-99562180D01*
X105096502Y-99562180D02*
X105096502Y-99371704D01*
X105096502Y-99371704D02*
X105120311Y-99324085D01*
X105120311Y-99324085D02*
X105167930Y-99300276D01*
X105167930Y-99300276D02*
X105263168Y-99300276D01*
X105263168Y-99300276D02*
X105310787Y-99324085D01*
X105310787Y-99324085D02*
X105334597Y-99371704D01*
X105334597Y-99371704D02*
X105334597Y-99419323D01*
X105334597Y-99419323D02*
X105096502Y-99466942D01*
X105548882Y-99300276D02*
X105548882Y-99633609D01*
X105548882Y-99347895D02*
X105572692Y-99324085D01*
X105572692Y-99324085D02*
X105620311Y-99300276D01*
X105620311Y-99300276D02*
X105691739Y-99300276D01*
X105691739Y-99300276D02*
X105739358Y-99324085D01*
X105739358Y-99324085D02*
X105763168Y-99371704D01*
X105763168Y-99371704D02*
X105763168Y-99633609D01*
X105977454Y-99609800D02*
X106025073Y-99633609D01*
X106025073Y-99633609D02*
X106120311Y-99633609D01*
X106120311Y-99633609D02*
X106167930Y-99609800D01*
X106167930Y-99609800D02*
X106191739Y-99562180D01*
X106191739Y-99562180D02*
X106191739Y-99538371D01*
X106191739Y-99538371D02*
X106167930Y-99490752D01*
X106167930Y-99490752D02*
X106120311Y-99466942D01*
X106120311Y-99466942D02*
X106048882Y-99466942D01*
X106048882Y-99466942D02*
X106001263Y-99443133D01*
X106001263Y-99443133D02*
X105977454Y-99395514D01*
X105977454Y-99395514D02*
X105977454Y-99371704D01*
X105977454Y-99371704D02*
X106001263Y-99324085D01*
X106001263Y-99324085D02*
X106048882Y-99300276D01*
X106048882Y-99300276D02*
X106120311Y-99300276D01*
X106120311Y-99300276D02*
X106167930Y-99324085D01*
X106477454Y-99633609D02*
X106429835Y-99609800D01*
X106429835Y-99609800D02*
X106406025Y-99585990D01*
X106406025Y-99585990D02*
X106382216Y-99538371D01*
X106382216Y-99538371D02*
X106382216Y-99395514D01*
X106382216Y-99395514D02*
X106406025Y-99347895D01*
X106406025Y-99347895D02*
X106429835Y-99324085D01*
X106429835Y-99324085D02*
X106477454Y-99300276D01*
X106477454Y-99300276D02*
X106548882Y-99300276D01*
X106548882Y-99300276D02*
X106596501Y-99324085D01*
X106596501Y-99324085D02*
X106620311Y-99347895D01*
X106620311Y-99347895D02*
X106644120Y-99395514D01*
X106644120Y-99395514D02*
X106644120Y-99538371D01*
X106644120Y-99538371D02*
X106620311Y-99585990D01*
X106620311Y-99585990D02*
X106596501Y-99609800D01*
X106596501Y-99609800D02*
X106548882Y-99633609D01*
X106548882Y-99633609D02*
X106477454Y-99633609D01*
X106858406Y-99633609D02*
X106858406Y-99300276D01*
X106858406Y-99395514D02*
X106882216Y-99347895D01*
X106882216Y-99347895D02*
X106906025Y-99324085D01*
X106906025Y-99324085D02*
X106953644Y-99300276D01*
X106953644Y-99300276D02*
X107001263Y-99300276D01*
D11*
X167538095Y-69654819D02*
X167538095Y-68654819D01*
X167538095Y-69131009D02*
X168109523Y-69131009D01*
X168109523Y-69654819D02*
X168109523Y-68654819D01*
X168538095Y-68750057D02*
X168585714Y-68702438D01*
X168585714Y-68702438D02*
X168680952Y-68654819D01*
X168680952Y-68654819D02*
X168919047Y-68654819D01*
X168919047Y-68654819D02*
X169014285Y-68702438D01*
X169014285Y-68702438D02*
X169061904Y-68750057D01*
X169061904Y-68750057D02*
X169109523Y-68845295D01*
X169109523Y-68845295D02*
X169109523Y-68940533D01*
X169109523Y-68940533D02*
X169061904Y-69083390D01*
X169061904Y-69083390D02*
X168490476Y-69654819D01*
X168490476Y-69654819D02*
X169109523Y-69654819D01*
X171229819Y-77503333D02*
X171944104Y-77503333D01*
X171944104Y-77503333D02*
X172086961Y-77550952D01*
X172086961Y-77550952D02*
X172182200Y-77646190D01*
X172182200Y-77646190D02*
X172229819Y-77789047D01*
X172229819Y-77789047D02*
X172229819Y-77884285D01*
X172229819Y-76979523D02*
X172229819Y-76789047D01*
X172229819Y-76789047D02*
X172182200Y-76693809D01*
X172182200Y-76693809D02*
X172134580Y-76646190D01*
X172134580Y-76646190D02*
X171991723Y-76550952D01*
X171991723Y-76550952D02*
X171801247Y-76503333D01*
X171801247Y-76503333D02*
X171420295Y-76503333D01*
X171420295Y-76503333D02*
X171325057Y-76550952D01*
X171325057Y-76550952D02*
X171277438Y-76598571D01*
X171277438Y-76598571D02*
X171229819Y-76693809D01*
X171229819Y-76693809D02*
X171229819Y-76884285D01*
X171229819Y-76884285D02*
X171277438Y-76979523D01*
X171277438Y-76979523D02*
X171325057Y-77027142D01*
X171325057Y-77027142D02*
X171420295Y-77074761D01*
X171420295Y-77074761D02*
X171658390Y-77074761D01*
X171658390Y-77074761D02*
X171753628Y-77027142D01*
X171753628Y-77027142D02*
X171801247Y-76979523D01*
X171801247Y-76979523D02*
X171848866Y-76884285D01*
X171848866Y-76884285D02*
X171848866Y-76693809D01*
X171848866Y-76693809D02*
X171801247Y-76598571D01*
X171801247Y-76598571D02*
X171753628Y-76550952D01*
X171753628Y-76550952D02*
X171658390Y-76503333D01*
X125628095Y-111564819D02*
X125628095Y-110564819D01*
X125628095Y-111041009D02*
X126199523Y-111041009D01*
X126199523Y-111564819D02*
X126199523Y-110564819D01*
X126580476Y-110564819D02*
X127199523Y-110564819D01*
X127199523Y-110564819D02*
X126866190Y-110945771D01*
X126866190Y-110945771D02*
X127009047Y-110945771D01*
X127009047Y-110945771D02*
X127104285Y-110993390D01*
X127104285Y-110993390D02*
X127151904Y-111041009D01*
X127151904Y-111041009D02*
X127199523Y-111136247D01*
X127199523Y-111136247D02*
X127199523Y-111374342D01*
X127199523Y-111374342D02*
X127151904Y-111469580D01*
X127151904Y-111469580D02*
X127104285Y-111517200D01*
X127104285Y-111517200D02*
X127009047Y-111564819D01*
X127009047Y-111564819D02*
X126723333Y-111564819D01*
X126723333Y-111564819D02*
X126628095Y-111517200D01*
X126628095Y-111517200D02*
X126580476Y-111469580D01*
X102240833Y-105579580D02*
X102193214Y-105627200D01*
X102193214Y-105627200D02*
X102050357Y-105674819D01*
X102050357Y-105674819D02*
X101955119Y-105674819D01*
X101955119Y-105674819D02*
X101812262Y-105627200D01*
X101812262Y-105627200D02*
X101717024Y-105531961D01*
X101717024Y-105531961D02*
X101669405Y-105436723D01*
X101669405Y-105436723D02*
X101621786Y-105246247D01*
X101621786Y-105246247D02*
X101621786Y-105103390D01*
X101621786Y-105103390D02*
X101669405Y-104912914D01*
X101669405Y-104912914D02*
X101717024Y-104817676D01*
X101717024Y-104817676D02*
X101812262Y-104722438D01*
X101812262Y-104722438D02*
X101955119Y-104674819D01*
X101955119Y-104674819D02*
X102050357Y-104674819D01*
X102050357Y-104674819D02*
X102193214Y-104722438D01*
X102193214Y-104722438D02*
X102240833Y-104770057D01*
X103097976Y-105008152D02*
X103097976Y-105674819D01*
X102859881Y-104627200D02*
X102621786Y-105341485D01*
X102621786Y-105341485D02*
X103240833Y-105341485D01*
D12*
X105772078Y-102759809D02*
X106031125Y-102759809D01*
X106031125Y-102759809D02*
X106061601Y-102744571D01*
X106061601Y-102744571D02*
X106076840Y-102729333D01*
X106076840Y-102729333D02*
X106092078Y-102698857D01*
X106092078Y-102698857D02*
X106092078Y-102637904D01*
X106092078Y-102637904D02*
X106076840Y-102607428D01*
X106076840Y-102607428D02*
X106061601Y-102592190D01*
X106061601Y-102592190D02*
X106031125Y-102576952D01*
X106031125Y-102576952D02*
X105772078Y-102576952D01*
X105772078Y-102455047D02*
X105772078Y-102256952D01*
X105772078Y-102256952D02*
X105893982Y-102363619D01*
X105893982Y-102363619D02*
X105893982Y-102317904D01*
X105893982Y-102317904D02*
X105909220Y-102287428D01*
X105909220Y-102287428D02*
X105924459Y-102272190D01*
X105924459Y-102272190D02*
X105954935Y-102256952D01*
X105954935Y-102256952D02*
X106031125Y-102256952D01*
X106031125Y-102256952D02*
X106061601Y-102272190D01*
X106061601Y-102272190D02*
X106076840Y-102287428D01*
X106076840Y-102287428D02*
X106092078Y-102317904D01*
X106092078Y-102317904D02*
X106092078Y-102409333D01*
X106092078Y-102409333D02*
X106076840Y-102439809D01*
X106076840Y-102439809D02*
X106061601Y-102455047D01*
D11*
X167538095Y-111437819D02*
X167538095Y-110437819D01*
X167538095Y-110914009D02*
X168109523Y-110914009D01*
X168109523Y-111437819D02*
X168109523Y-110437819D01*
X169014285Y-110771152D02*
X169014285Y-111437819D01*
X168776190Y-110390200D02*
X168538095Y-111104485D01*
X168538095Y-111104485D02*
X169157142Y-111104485D01*
X138699429Y-143656709D02*
X138699429Y-144114301D01*
X138699429Y-144114301D02*
X138668923Y-144205819D01*
X138668923Y-144205819D02*
X138607911Y-144266832D01*
X138607911Y-144266832D02*
X138516392Y-144297338D01*
X138516392Y-144297338D02*
X138455380Y-144297338D01*
X138943478Y-143656709D02*
X139340058Y-143656709D01*
X139340058Y-143656709D02*
X139126515Y-143900758D01*
X139126515Y-143900758D02*
X139218033Y-143900758D01*
X139218033Y-143900758D02*
X139279046Y-143931264D01*
X139279046Y-143931264D02*
X139309552Y-143961770D01*
X139309552Y-143961770D02*
X139340058Y-144022782D01*
X139340058Y-144022782D02*
X139340058Y-144175313D01*
X139340058Y-144175313D02*
X139309552Y-144236325D01*
X139309552Y-144236325D02*
X139279046Y-144266832D01*
X139279046Y-144266832D02*
X139218033Y-144297338D01*
X139218033Y-144297338D02*
X139034996Y-144297338D01*
X139034996Y-144297338D02*
X138973984Y-144266832D01*
X138973984Y-144266832D02*
X138943478Y-144236325D01*
X105549819Y-107266666D02*
X105073628Y-107599999D01*
X105549819Y-107838094D02*
X104549819Y-107838094D01*
X104549819Y-107838094D02*
X104549819Y-107457142D01*
X104549819Y-107457142D02*
X104597438Y-107361904D01*
X104597438Y-107361904D02*
X104645057Y-107314285D01*
X104645057Y-107314285D02*
X104740295Y-107266666D01*
X104740295Y-107266666D02*
X104883152Y-107266666D01*
X104883152Y-107266666D02*
X104978390Y-107314285D01*
X104978390Y-107314285D02*
X105026009Y-107361904D01*
X105026009Y-107361904D02*
X105073628Y-107457142D01*
X105073628Y-107457142D02*
X105073628Y-107838094D01*
X105549819Y-106790475D02*
X105549819Y-106599999D01*
X105549819Y-106599999D02*
X105502200Y-106504761D01*
X105502200Y-106504761D02*
X105454580Y-106457142D01*
X105454580Y-106457142D02*
X105311723Y-106361904D01*
X105311723Y-106361904D02*
X105121247Y-106314285D01*
X105121247Y-106314285D02*
X104740295Y-106314285D01*
X104740295Y-106314285D02*
X104645057Y-106361904D01*
X104645057Y-106361904D02*
X104597438Y-106409523D01*
X104597438Y-106409523D02*
X104549819Y-106504761D01*
X104549819Y-106504761D02*
X104549819Y-106695237D01*
X104549819Y-106695237D02*
X104597438Y-106790475D01*
X104597438Y-106790475D02*
X104645057Y-106838094D01*
X104645057Y-106838094D02*
X104740295Y-106885713D01*
X104740295Y-106885713D02*
X104978390Y-106885713D01*
X104978390Y-106885713D02*
X105073628Y-106838094D01*
X105073628Y-106838094D02*
X105121247Y-106790475D01*
X105121247Y-106790475D02*
X105168866Y-106695237D01*
X105168866Y-106695237D02*
X105168866Y-106504761D01*
X105168866Y-106504761D02*
X105121247Y-106409523D01*
X105121247Y-106409523D02*
X105073628Y-106361904D01*
X105073628Y-106361904D02*
X104978390Y-106314285D01*
D13*
%TO.C,J2*%
X114166800Y-131017799D02*
G75*
G02*
X113404800Y-131017799I-381000J0D01*
G01*
X113404800Y-131017799D02*
G75*
G02*
X114166800Y-131017799I381000J0D01*
G01*
D14*
%TO.C,J9*%
X173215000Y-74570000D02*
X174545000Y-74570000D01*
X173215000Y-75900000D02*
X173215000Y-74570000D01*
X173215000Y-77170000D02*
X175815000Y-77170000D01*
X173215000Y-79770000D02*
X173215000Y-77170000D01*
X173215000Y-79770000D02*
X180955000Y-79770000D01*
X175815000Y-74570000D02*
X180955000Y-74570000D01*
X175815000Y-77170000D02*
X175815000Y-74570000D01*
X180955000Y-79770000D02*
X180955000Y-74570000D01*
%TO.C,C4*%
X102146248Y-107635000D02*
X102668752Y-107635000D01*
X102146248Y-106165000D02*
X102668752Y-106165000D01*
D15*
%TO.C,U3*%
X105495000Y-101850000D02*
X105495000Y-103950000D01*
X103395000Y-101850000D02*
X103395000Y-103950000D01*
D16*
X105245000Y-101100000D02*
G75*
G02*
X105045000Y-101100000I-100000J0D01*
G01*
X105045000Y-101100000D02*
G75*
G02*
X105245000Y-101100000I100000J0D01*
G01*
D15*
%TO.C,J3*%
X140445000Y-143100000D02*
X137445000Y-143100000D01*
D14*
%TO.C,R9*%
X107480000Y-107327064D02*
X107480000Y-106872936D01*
X106010000Y-107327064D02*
X106010000Y-106872936D01*
D13*
%TO.C,J1*%
X132485200Y-134782201D02*
G75*
G02*
X131723200Y-134782201I-381000J0D01*
G01*
X131723200Y-134782201D02*
G75*
G02*
X132485200Y-134782201I381000J0D01*
G01*
%TO.C,J5*%
X186811000Y-94849999D02*
G75*
G02*
X186049000Y-94849999I-381000J0D01*
G01*
X186049000Y-94849999D02*
G75*
G02*
X186811000Y-94849999I381000J0D01*
G01*
%TO.C,J6*%
X122511000Y-94649999D02*
G75*
G02*
X121749000Y-94649999I-381000J0D01*
G01*
X121749000Y-94649999D02*
G75*
G02*
X122511000Y-94649999I381000J0D01*
G01*
%TO.C,J4*%
X114266801Y-119320000D02*
G75*
G02*
X113504801Y-119320000I-381000J0D01*
G01*
X113504801Y-119320000D02*
G75*
G02*
X114266801Y-119320000I381000J0D01*
G01*
%TO.C,J7*%
X114695001Y-83900000D02*
G75*
G02*
X113933001Y-83900000I-381000J0D01*
G01*
X113933001Y-83900000D02*
G75*
G02*
X114695001Y-83900000I381000J0D01*
G01*
%TO.C,J8*%
X166095001Y-84900000D02*
G75*
G02*
X165333001Y-84900000I-381000J0D01*
G01*
X165333001Y-84900000D02*
G75*
G02*
X166095001Y-84900000I381000J0D01*
G01*
%TD*%
M02*
