%TF.GenerationSoftware,KiCad,Pcbnew,8.0.1*%
%TF.CreationDate,2024-04-03T22:27:09-06:00*%
%TF.ProjectId,weather_station_pico,77656174-6865-4725-9f73-746174696f6e,rev?*%
%TF.SameCoordinates,Original*%
%TF.FileFunction,Legend,Top*%
%TF.FilePolarity,Positive*%
%FSLAX46Y46*%
G04 Gerber Fmt 4.6, Leading zero omitted, Abs format (unit mm)*
G04 Created by KiCad (PCBNEW 8.0.1) date 2024-04-03 22:27:09*
%MOMM*%
%LPD*%
G01*
G04 APERTURE LIST*
%ADD10C,0.150000*%
%ADD11C,0.080000*%
%ADD12C,0.120000*%
%ADD13C,0.508000*%
%ADD14C,0.127000*%
%ADD15C,0.200000*%
G04 APERTURE END LIST*
D10*
X171049819Y-76963333D02*
X171764104Y-76963333D01*
X171764104Y-76963333D02*
X171906961Y-77010952D01*
X171906961Y-77010952D02*
X172002200Y-77106190D01*
X172002200Y-77106190D02*
X172049819Y-77249047D01*
X172049819Y-77249047D02*
X172049819Y-77344285D01*
X172049819Y-76439523D02*
X172049819Y-76249047D01*
X172049819Y-76249047D02*
X172002200Y-76153809D01*
X172002200Y-76153809D02*
X171954580Y-76106190D01*
X171954580Y-76106190D02*
X171811723Y-76010952D01*
X171811723Y-76010952D02*
X171621247Y-75963333D01*
X171621247Y-75963333D02*
X171240295Y-75963333D01*
X171240295Y-75963333D02*
X171145057Y-76010952D01*
X171145057Y-76010952D02*
X171097438Y-76058571D01*
X171097438Y-76058571D02*
X171049819Y-76153809D01*
X171049819Y-76153809D02*
X171049819Y-76344285D01*
X171049819Y-76344285D02*
X171097438Y-76439523D01*
X171097438Y-76439523D02*
X171145057Y-76487142D01*
X171145057Y-76487142D02*
X171240295Y-76534761D01*
X171240295Y-76534761D02*
X171478390Y-76534761D01*
X171478390Y-76534761D02*
X171573628Y-76487142D01*
X171573628Y-76487142D02*
X171621247Y-76439523D01*
X171621247Y-76439523D02*
X171668866Y-76344285D01*
X171668866Y-76344285D02*
X171668866Y-76153809D01*
X171668866Y-76153809D02*
X171621247Y-76058571D01*
X171621247Y-76058571D02*
X171573628Y-76010952D01*
X171573628Y-76010952D02*
X171478390Y-75963333D01*
X114978333Y-79804819D02*
X114645000Y-79328628D01*
X114406905Y-79804819D02*
X114406905Y-78804819D01*
X114406905Y-78804819D02*
X114787857Y-78804819D01*
X114787857Y-78804819D02*
X114883095Y-78852438D01*
X114883095Y-78852438D02*
X114930714Y-78900057D01*
X114930714Y-78900057D02*
X114978333Y-78995295D01*
X114978333Y-78995295D02*
X114978333Y-79138152D01*
X114978333Y-79138152D02*
X114930714Y-79233390D01*
X114930714Y-79233390D02*
X114883095Y-79281009D01*
X114883095Y-79281009D02*
X114787857Y-79328628D01*
X114787857Y-79328628D02*
X114406905Y-79328628D01*
X115454524Y-79804819D02*
X115645000Y-79804819D01*
X115645000Y-79804819D02*
X115740238Y-79757200D01*
X115740238Y-79757200D02*
X115787857Y-79709580D01*
X115787857Y-79709580D02*
X115883095Y-79566723D01*
X115883095Y-79566723D02*
X115930714Y-79376247D01*
X115930714Y-79376247D02*
X115930714Y-78995295D01*
X115930714Y-78995295D02*
X115883095Y-78900057D01*
X115883095Y-78900057D02*
X115835476Y-78852438D01*
X115835476Y-78852438D02*
X115740238Y-78804819D01*
X115740238Y-78804819D02*
X115549762Y-78804819D01*
X115549762Y-78804819D02*
X115454524Y-78852438D01*
X115454524Y-78852438D02*
X115406905Y-78900057D01*
X115406905Y-78900057D02*
X115359286Y-78995295D01*
X115359286Y-78995295D02*
X115359286Y-79233390D01*
X115359286Y-79233390D02*
X115406905Y-79328628D01*
X115406905Y-79328628D02*
X115454524Y-79376247D01*
X115454524Y-79376247D02*
X115549762Y-79423866D01*
X115549762Y-79423866D02*
X115740238Y-79423866D01*
X115740238Y-79423866D02*
X115835476Y-79376247D01*
X115835476Y-79376247D02*
X115883095Y-79328628D01*
X115883095Y-79328628D02*
X115930714Y-79233390D01*
X115115833Y-71479580D02*
X115068214Y-71527200D01*
X115068214Y-71527200D02*
X114925357Y-71574819D01*
X114925357Y-71574819D02*
X114830119Y-71574819D01*
X114830119Y-71574819D02*
X114687262Y-71527200D01*
X114687262Y-71527200D02*
X114592024Y-71431961D01*
X114592024Y-71431961D02*
X114544405Y-71336723D01*
X114544405Y-71336723D02*
X114496786Y-71146247D01*
X114496786Y-71146247D02*
X114496786Y-71003390D01*
X114496786Y-71003390D02*
X114544405Y-70812914D01*
X114544405Y-70812914D02*
X114592024Y-70717676D01*
X114592024Y-70717676D02*
X114687262Y-70622438D01*
X114687262Y-70622438D02*
X114830119Y-70574819D01*
X114830119Y-70574819D02*
X114925357Y-70574819D01*
X114925357Y-70574819D02*
X115068214Y-70622438D01*
X115068214Y-70622438D02*
X115115833Y-70670057D01*
X115972976Y-70908152D02*
X115972976Y-71574819D01*
X115734881Y-70527200D02*
X115496786Y-71241485D01*
X115496786Y-71241485D02*
X116115833Y-71241485D01*
D11*
X116668878Y-77143809D02*
X116927925Y-77143809D01*
X116927925Y-77143809D02*
X116958401Y-77128571D01*
X116958401Y-77128571D02*
X116973640Y-77113333D01*
X116973640Y-77113333D02*
X116988878Y-77082857D01*
X116988878Y-77082857D02*
X116988878Y-77021904D01*
X116988878Y-77021904D02*
X116973640Y-76991428D01*
X116973640Y-76991428D02*
X116958401Y-76976190D01*
X116958401Y-76976190D02*
X116927925Y-76960952D01*
X116927925Y-76960952D02*
X116668878Y-76960952D01*
X116668878Y-76839047D02*
X116668878Y-76640952D01*
X116668878Y-76640952D02*
X116790782Y-76747619D01*
X116790782Y-76747619D02*
X116790782Y-76701904D01*
X116790782Y-76701904D02*
X116806020Y-76671428D01*
X116806020Y-76671428D02*
X116821259Y-76656190D01*
X116821259Y-76656190D02*
X116851735Y-76640952D01*
X116851735Y-76640952D02*
X116927925Y-76640952D01*
X116927925Y-76640952D02*
X116958401Y-76656190D01*
X116958401Y-76656190D02*
X116973640Y-76671428D01*
X116973640Y-76671428D02*
X116988878Y-76701904D01*
X116988878Y-76701904D02*
X116988878Y-76793333D01*
X116988878Y-76793333D02*
X116973640Y-76823809D01*
X116973640Y-76823809D02*
X116958401Y-76839047D01*
D12*
%TO.C,J9*%
X173035000Y-79230000D02*
X180775000Y-79230000D01*
X173035000Y-79230000D02*
X173035000Y-76630000D01*
X180775000Y-79230000D02*
X180775000Y-74030000D01*
X173035000Y-76630000D02*
X175635000Y-76630000D01*
X175635000Y-76630000D02*
X175635000Y-74030000D01*
X173035000Y-75360000D02*
X173035000Y-74030000D01*
X173035000Y-74030000D02*
X174365000Y-74030000D01*
X175635000Y-74030000D02*
X180775000Y-74030000D01*
%TO.C,R9*%
X114917936Y-81735000D02*
X115372064Y-81735000D01*
X114917936Y-80265000D02*
X115372064Y-80265000D01*
%TO.C,C4*%
X115021248Y-72065000D02*
X115543752Y-72065000D01*
X115021248Y-73535000D02*
X115543752Y-73535000D01*
D13*
%TO.C,J7*%
X121095001Y-116900000D02*
G75*
G02*
X120333001Y-116900000I-381000J0D01*
G01*
X120333001Y-116900000D02*
G75*
G02*
X121095001Y-116900000I381000J0D01*
G01*
%TO.C,J4*%
X126066800Y-74017799D02*
G75*
G02*
X125304800Y-74017799I-381000J0D01*
G01*
X125304800Y-74017799D02*
G75*
G02*
X126066800Y-74017799I381000J0D01*
G01*
D14*
%TO.C,U3*%
X117895000Y-75850000D02*
X117895000Y-77950000D01*
X115795000Y-75850000D02*
X115795000Y-77950000D01*
D15*
X117645000Y-75100000D02*
G75*
G02*
X117445000Y-75100000I-100000J0D01*
G01*
X117445000Y-75100000D02*
G75*
G02*
X117645000Y-75100000I100000J0D01*
G01*
D13*
%TO.C,J2*%
X123066800Y-136017799D02*
G75*
G02*
X122304800Y-136017799I-381000J0D01*
G01*
X122304800Y-136017799D02*
G75*
G02*
X123066800Y-136017799I381000J0D01*
G01*
%TO.C,J1*%
X165066800Y-136017799D02*
G75*
G02*
X164304800Y-136017799I-381000J0D01*
G01*
X164304800Y-136017799D02*
G75*
G02*
X165066800Y-136017799I381000J0D01*
G01*
%TO.C,J8*%
X161494999Y-117649999D02*
G75*
G02*
X160732999Y-117649999I-381000J0D01*
G01*
X160732999Y-117649999D02*
G75*
G02*
X161494999Y-117649999I381000J0D01*
G01*
%TO.C,J6*%
X111841000Y-107760902D02*
G75*
G02*
X111079000Y-107760902I-381000J0D01*
G01*
X111079000Y-107760902D02*
G75*
G02*
X111841000Y-107760902I381000J0D01*
G01*
%TO.C,J5*%
X169841000Y-107760902D02*
G75*
G02*
X169079000Y-107760902I-381000J0D01*
G01*
X169079000Y-107760902D02*
G75*
G02*
X169841000Y-107760902I381000J0D01*
G01*
%TD*%
M02*
