%TF.GenerationSoftware,KiCad,Pcbnew,8.0.1*%
%TF.CreationDate,2024-04-03T22:27:09-06:00*%
%TF.ProjectId,weather_station_pico,77656174-6865-4725-9f73-746174696f6e,rev?*%
%TF.SameCoordinates,Original*%
%TF.FileFunction,Legend,Bot*%
%TF.FilePolarity,Positive*%
%FSLAX46Y46*%
G04 Gerber Fmt 4.6, Leading zero omitted, Abs format (unit mm)*
G04 Created by KiCad (PCBNEW 8.0.1) date 2024-04-03 22:27:09*
%MOMM*%
%LPD*%
G01*
G04 APERTURE LIST*
%ADD10C,0.150000*%
%ADD11C,0.120000*%
%ADD12C,0.127000*%
%ADD13C,0.152400*%
%ADD14C,0.508000*%
%ADD15C,0.203200*%
%ADD16C,0.200000*%
G04 APERTURE END LIST*
D10*
X132611666Y-95204819D02*
X132944999Y-94728628D01*
X133183094Y-95204819D02*
X133183094Y-94204819D01*
X133183094Y-94204819D02*
X132802142Y-94204819D01*
X132802142Y-94204819D02*
X132706904Y-94252438D01*
X132706904Y-94252438D02*
X132659285Y-94300057D01*
X132659285Y-94300057D02*
X132611666Y-94395295D01*
X132611666Y-94395295D02*
X132611666Y-94538152D01*
X132611666Y-94538152D02*
X132659285Y-94633390D01*
X132659285Y-94633390D02*
X132706904Y-94681009D01*
X132706904Y-94681009D02*
X132802142Y-94728628D01*
X132802142Y-94728628D02*
X133183094Y-94728628D01*
X132278332Y-94204819D02*
X131659285Y-94204819D01*
X131659285Y-94204819D02*
X131992618Y-94585771D01*
X131992618Y-94585771D02*
X131849761Y-94585771D01*
X131849761Y-94585771D02*
X131754523Y-94633390D01*
X131754523Y-94633390D02*
X131706904Y-94681009D01*
X131706904Y-94681009D02*
X131659285Y-94776247D01*
X131659285Y-94776247D02*
X131659285Y-95014342D01*
X131659285Y-95014342D02*
X131706904Y-95109580D01*
X131706904Y-95109580D02*
X131754523Y-95157200D01*
X131754523Y-95157200D02*
X131849761Y-95204819D01*
X131849761Y-95204819D02*
X132135475Y-95204819D01*
X132135475Y-95204819D02*
X132230713Y-95157200D01*
X132230713Y-95157200D02*
X132278332Y-95109580D01*
X148062903Y-92594819D02*
X148062903Y-93404342D01*
X148062903Y-93404342D02*
X148015284Y-93499580D01*
X148015284Y-93499580D02*
X147967665Y-93547200D01*
X147967665Y-93547200D02*
X147872427Y-93594819D01*
X147872427Y-93594819D02*
X147681951Y-93594819D01*
X147681951Y-93594819D02*
X147586713Y-93547200D01*
X147586713Y-93547200D02*
X147539094Y-93499580D01*
X147539094Y-93499580D02*
X147491475Y-93404342D01*
X147491475Y-93404342D02*
X147491475Y-92594819D01*
X146491475Y-93594819D02*
X147062903Y-93594819D01*
X146777189Y-93594819D02*
X146777189Y-92594819D01*
X146777189Y-92594819D02*
X146872427Y-92737676D01*
X146872427Y-92737676D02*
X146967665Y-92832914D01*
X146967665Y-92832914D02*
X147062903Y-92880533D01*
X149745475Y-78608819D02*
X150078808Y-78132628D01*
X150316903Y-78608819D02*
X150316903Y-77608819D01*
X150316903Y-77608819D02*
X149935951Y-77608819D01*
X149935951Y-77608819D02*
X149840713Y-77656438D01*
X149840713Y-77656438D02*
X149793094Y-77704057D01*
X149793094Y-77704057D02*
X149745475Y-77799295D01*
X149745475Y-77799295D02*
X149745475Y-77942152D01*
X149745475Y-77942152D02*
X149793094Y-78037390D01*
X149793094Y-78037390D02*
X149840713Y-78085009D01*
X149840713Y-78085009D02*
X149935951Y-78132628D01*
X149935951Y-78132628D02*
X150316903Y-78132628D01*
X149316903Y-78608819D02*
X149316903Y-77608819D01*
X149316903Y-77608819D02*
X148935951Y-77608819D01*
X148935951Y-77608819D02*
X148840713Y-77656438D01*
X148840713Y-77656438D02*
X148793094Y-77704057D01*
X148793094Y-77704057D02*
X148745475Y-77799295D01*
X148745475Y-77799295D02*
X148745475Y-77942152D01*
X148745475Y-77942152D02*
X148793094Y-78037390D01*
X148793094Y-78037390D02*
X148840713Y-78085009D01*
X148840713Y-78085009D02*
X148935951Y-78132628D01*
X148935951Y-78132628D02*
X149316903Y-78132628D01*
X147554998Y-78608819D02*
X147554998Y-77608819D01*
X147554998Y-77608819D02*
X147174046Y-77608819D01*
X147174046Y-77608819D02*
X147078808Y-77656438D01*
X147078808Y-77656438D02*
X147031189Y-77704057D01*
X147031189Y-77704057D02*
X146983570Y-77799295D01*
X146983570Y-77799295D02*
X146983570Y-77942152D01*
X146983570Y-77942152D02*
X147031189Y-78037390D01*
X147031189Y-78037390D02*
X147078808Y-78085009D01*
X147078808Y-78085009D02*
X147174046Y-78132628D01*
X147174046Y-78132628D02*
X147554998Y-78132628D01*
X146554998Y-78608819D02*
X146554998Y-77942152D01*
X146554998Y-77608819D02*
X146602617Y-77656438D01*
X146602617Y-77656438D02*
X146554998Y-77704057D01*
X146554998Y-77704057D02*
X146507379Y-77656438D01*
X146507379Y-77656438D02*
X146554998Y-77608819D01*
X146554998Y-77608819D02*
X146554998Y-77704057D01*
X145650237Y-78561200D02*
X145745475Y-78608819D01*
X145745475Y-78608819D02*
X145935951Y-78608819D01*
X145935951Y-78608819D02*
X146031189Y-78561200D01*
X146031189Y-78561200D02*
X146078808Y-78513580D01*
X146078808Y-78513580D02*
X146126427Y-78418342D01*
X146126427Y-78418342D02*
X146126427Y-78132628D01*
X146126427Y-78132628D02*
X146078808Y-78037390D01*
X146078808Y-78037390D02*
X146031189Y-77989771D01*
X146031189Y-77989771D02*
X145935951Y-77942152D01*
X145935951Y-77942152D02*
X145745475Y-77942152D01*
X145745475Y-77942152D02*
X145650237Y-77989771D01*
X145078808Y-78608819D02*
X145174046Y-78561200D01*
X145174046Y-78561200D02*
X145221665Y-78513580D01*
X145221665Y-78513580D02*
X145269284Y-78418342D01*
X145269284Y-78418342D02*
X145269284Y-78132628D01*
X145269284Y-78132628D02*
X145221665Y-78037390D01*
X145221665Y-78037390D02*
X145174046Y-77989771D01*
X145174046Y-77989771D02*
X145078808Y-77942152D01*
X145078808Y-77942152D02*
X144935951Y-77942152D01*
X144935951Y-77942152D02*
X144840713Y-77989771D01*
X144840713Y-77989771D02*
X144793094Y-78037390D01*
X144793094Y-78037390D02*
X144745475Y-78132628D01*
X144745475Y-78132628D02*
X144745475Y-78418342D01*
X144745475Y-78418342D02*
X144793094Y-78513580D01*
X144793094Y-78513580D02*
X144840713Y-78561200D01*
X144840713Y-78561200D02*
X144935951Y-78608819D01*
X144935951Y-78608819D02*
X145078808Y-78608819D01*
X132611666Y-90204819D02*
X132944999Y-89728628D01*
X133183094Y-90204819D02*
X133183094Y-89204819D01*
X133183094Y-89204819D02*
X132802142Y-89204819D01*
X132802142Y-89204819D02*
X132706904Y-89252438D01*
X132706904Y-89252438D02*
X132659285Y-89300057D01*
X132659285Y-89300057D02*
X132611666Y-89395295D01*
X132611666Y-89395295D02*
X132611666Y-89538152D01*
X132611666Y-89538152D02*
X132659285Y-89633390D01*
X132659285Y-89633390D02*
X132706904Y-89681009D01*
X132706904Y-89681009D02*
X132802142Y-89728628D01*
X132802142Y-89728628D02*
X133183094Y-89728628D01*
X132230713Y-89300057D02*
X132183094Y-89252438D01*
X132183094Y-89252438D02*
X132087856Y-89204819D01*
X132087856Y-89204819D02*
X131849761Y-89204819D01*
X131849761Y-89204819D02*
X131754523Y-89252438D01*
X131754523Y-89252438D02*
X131706904Y-89300057D01*
X131706904Y-89300057D02*
X131659285Y-89395295D01*
X131659285Y-89395295D02*
X131659285Y-89490533D01*
X131659285Y-89490533D02*
X131706904Y-89633390D01*
X131706904Y-89633390D02*
X132278332Y-90204819D01*
X132278332Y-90204819D02*
X131659285Y-90204819D01*
X127778334Y-116354819D02*
X127778334Y-117069104D01*
X127778334Y-117069104D02*
X127825953Y-117211961D01*
X127825953Y-117211961D02*
X127921191Y-117307200D01*
X127921191Y-117307200D02*
X128064048Y-117354819D01*
X128064048Y-117354819D02*
X128159286Y-117354819D01*
X127397381Y-116354819D02*
X126730715Y-116354819D01*
X126730715Y-116354819D02*
X127159286Y-117354819D01*
X132944999Y-123607200D02*
X132802142Y-123654819D01*
X132802142Y-123654819D02*
X132564047Y-123654819D01*
X132564047Y-123654819D02*
X132468809Y-123607200D01*
X132468809Y-123607200D02*
X132421190Y-123559580D01*
X132421190Y-123559580D02*
X132373571Y-123464342D01*
X132373571Y-123464342D02*
X132373571Y-123369104D01*
X132373571Y-123369104D02*
X132421190Y-123273866D01*
X132421190Y-123273866D02*
X132468809Y-123226247D01*
X132468809Y-123226247D02*
X132564047Y-123178628D01*
X132564047Y-123178628D02*
X132754523Y-123131009D01*
X132754523Y-123131009D02*
X132849761Y-123083390D01*
X132849761Y-123083390D02*
X132897380Y-123035771D01*
X132897380Y-123035771D02*
X132944999Y-122940533D01*
X132944999Y-122940533D02*
X132944999Y-122845295D01*
X132944999Y-122845295D02*
X132897380Y-122750057D01*
X132897380Y-122750057D02*
X132849761Y-122702438D01*
X132849761Y-122702438D02*
X132754523Y-122654819D01*
X132754523Y-122654819D02*
X132516428Y-122654819D01*
X132516428Y-122654819D02*
X132373571Y-122702438D01*
X131754523Y-122654819D02*
X131564047Y-122654819D01*
X131564047Y-122654819D02*
X131468809Y-122702438D01*
X131468809Y-122702438D02*
X131373571Y-122797676D01*
X131373571Y-122797676D02*
X131325952Y-122988152D01*
X131325952Y-122988152D02*
X131325952Y-123321485D01*
X131325952Y-123321485D02*
X131373571Y-123511961D01*
X131373571Y-123511961D02*
X131468809Y-123607200D01*
X131468809Y-123607200D02*
X131564047Y-123654819D01*
X131564047Y-123654819D02*
X131754523Y-123654819D01*
X131754523Y-123654819D02*
X131849761Y-123607200D01*
X131849761Y-123607200D02*
X131944999Y-123511961D01*
X131944999Y-123511961D02*
X131992618Y-123321485D01*
X131992618Y-123321485D02*
X131992618Y-122988152D01*
X131992618Y-122988152D02*
X131944999Y-122797676D01*
X131944999Y-122797676D02*
X131849761Y-122702438D01*
X131849761Y-122702438D02*
X131754523Y-122654819D01*
X130897380Y-123654819D02*
X130897380Y-122654819D01*
X129945000Y-123654819D02*
X130421190Y-123654819D01*
X130421190Y-123654819D02*
X130421190Y-122654819D01*
X129849762Y-123750057D02*
X129087857Y-123750057D01*
X128849761Y-123654819D02*
X128849761Y-122654819D01*
X128849761Y-122654819D02*
X128516428Y-123369104D01*
X128516428Y-123369104D02*
X128183095Y-122654819D01*
X128183095Y-122654819D02*
X128183095Y-123654819D01*
X127516428Y-122654819D02*
X127325952Y-122654819D01*
X127325952Y-122654819D02*
X127230714Y-122702438D01*
X127230714Y-122702438D02*
X127135476Y-122797676D01*
X127135476Y-122797676D02*
X127087857Y-122988152D01*
X127087857Y-122988152D02*
X127087857Y-123321485D01*
X127087857Y-123321485D02*
X127135476Y-123511961D01*
X127135476Y-123511961D02*
X127230714Y-123607200D01*
X127230714Y-123607200D02*
X127325952Y-123654819D01*
X127325952Y-123654819D02*
X127516428Y-123654819D01*
X127516428Y-123654819D02*
X127611666Y-123607200D01*
X127611666Y-123607200D02*
X127706904Y-123511961D01*
X127706904Y-123511961D02*
X127754523Y-123321485D01*
X127754523Y-123321485D02*
X127754523Y-122988152D01*
X127754523Y-122988152D02*
X127706904Y-122797676D01*
X127706904Y-122797676D02*
X127611666Y-122702438D01*
X127611666Y-122702438D02*
X127516428Y-122654819D01*
X126659285Y-123654819D02*
X126659285Y-122654819D01*
X126230714Y-123607200D02*
X126087857Y-123654819D01*
X126087857Y-123654819D02*
X125849762Y-123654819D01*
X125849762Y-123654819D02*
X125754524Y-123607200D01*
X125754524Y-123607200D02*
X125706905Y-123559580D01*
X125706905Y-123559580D02*
X125659286Y-123464342D01*
X125659286Y-123464342D02*
X125659286Y-123369104D01*
X125659286Y-123369104D02*
X125706905Y-123273866D01*
X125706905Y-123273866D02*
X125754524Y-123226247D01*
X125754524Y-123226247D02*
X125849762Y-123178628D01*
X125849762Y-123178628D02*
X126040238Y-123131009D01*
X126040238Y-123131009D02*
X126135476Y-123083390D01*
X126135476Y-123083390D02*
X126183095Y-123035771D01*
X126183095Y-123035771D02*
X126230714Y-122940533D01*
X126230714Y-122940533D02*
X126230714Y-122845295D01*
X126230714Y-122845295D02*
X126183095Y-122750057D01*
X126183095Y-122750057D02*
X126135476Y-122702438D01*
X126135476Y-122702438D02*
X126040238Y-122654819D01*
X126040238Y-122654819D02*
X125802143Y-122654819D01*
X125802143Y-122654819D02*
X125659286Y-122702438D01*
X125373571Y-122654819D02*
X124802143Y-122654819D01*
X125087857Y-123654819D02*
X125087857Y-122654819D01*
X124468809Y-122654819D02*
X124468809Y-123464342D01*
X124468809Y-123464342D02*
X124421190Y-123559580D01*
X124421190Y-123559580D02*
X124373571Y-123607200D01*
X124373571Y-123607200D02*
X124278333Y-123654819D01*
X124278333Y-123654819D02*
X124087857Y-123654819D01*
X124087857Y-123654819D02*
X123992619Y-123607200D01*
X123992619Y-123607200D02*
X123945000Y-123559580D01*
X123945000Y-123559580D02*
X123897381Y-123464342D01*
X123897381Y-123464342D02*
X123897381Y-122654819D01*
X122849762Y-123654819D02*
X123183095Y-123178628D01*
X123421190Y-123654819D02*
X123421190Y-122654819D01*
X123421190Y-122654819D02*
X123040238Y-122654819D01*
X123040238Y-122654819D02*
X122945000Y-122702438D01*
X122945000Y-122702438D02*
X122897381Y-122750057D01*
X122897381Y-122750057D02*
X122849762Y-122845295D01*
X122849762Y-122845295D02*
X122849762Y-122988152D01*
X122849762Y-122988152D02*
X122897381Y-123083390D01*
X122897381Y-123083390D02*
X122945000Y-123131009D01*
X122945000Y-123131009D02*
X123040238Y-123178628D01*
X123040238Y-123178628D02*
X123421190Y-123178628D01*
X122421190Y-123131009D02*
X122087857Y-123131009D01*
X121945000Y-123654819D02*
X122421190Y-123654819D01*
X122421190Y-123654819D02*
X122421190Y-122654819D01*
X122421190Y-122654819D02*
X121945000Y-122654819D01*
X132611666Y-87604819D02*
X132944999Y-87128628D01*
X133183094Y-87604819D02*
X133183094Y-86604819D01*
X133183094Y-86604819D02*
X132802142Y-86604819D01*
X132802142Y-86604819D02*
X132706904Y-86652438D01*
X132706904Y-86652438D02*
X132659285Y-86700057D01*
X132659285Y-86700057D02*
X132611666Y-86795295D01*
X132611666Y-86795295D02*
X132611666Y-86938152D01*
X132611666Y-86938152D02*
X132659285Y-87033390D01*
X132659285Y-87033390D02*
X132706904Y-87081009D01*
X132706904Y-87081009D02*
X132802142Y-87128628D01*
X132802142Y-87128628D02*
X133183094Y-87128628D01*
X131659285Y-87604819D02*
X132230713Y-87604819D01*
X131944999Y-87604819D02*
X131944999Y-86604819D01*
X131944999Y-86604819D02*
X132040237Y-86747676D01*
X132040237Y-86747676D02*
X132135475Y-86842914D01*
X132135475Y-86842914D02*
X132230713Y-86890533D01*
X129111666Y-74562979D02*
X129111666Y-73848694D01*
X129111666Y-73848694D02*
X129064047Y-73705837D01*
X129064047Y-73705837D02*
X128968809Y-73610599D01*
X128968809Y-73610599D02*
X128825952Y-73562979D01*
X128825952Y-73562979D02*
X128730714Y-73562979D01*
X130016428Y-74229646D02*
X130016428Y-73562979D01*
X129778333Y-74610599D02*
X129540238Y-73896313D01*
X129540238Y-73896313D02*
X130159285Y-73896313D01*
X131825952Y-72131009D02*
X131683095Y-72178628D01*
X131683095Y-72178628D02*
X131635476Y-72226247D01*
X131635476Y-72226247D02*
X131587857Y-72321485D01*
X131587857Y-72321485D02*
X131587857Y-72464342D01*
X131587857Y-72464342D02*
X131635476Y-72559580D01*
X131635476Y-72559580D02*
X131683095Y-72607200D01*
X131683095Y-72607200D02*
X131778333Y-72654819D01*
X131778333Y-72654819D02*
X132159285Y-72654819D01*
X132159285Y-72654819D02*
X132159285Y-71654819D01*
X132159285Y-71654819D02*
X131825952Y-71654819D01*
X131825952Y-71654819D02*
X131730714Y-71702438D01*
X131730714Y-71702438D02*
X131683095Y-71750057D01*
X131683095Y-71750057D02*
X131635476Y-71845295D01*
X131635476Y-71845295D02*
X131635476Y-71940533D01*
X131635476Y-71940533D02*
X131683095Y-72035771D01*
X131683095Y-72035771D02*
X131730714Y-72083390D01*
X131730714Y-72083390D02*
X131825952Y-72131009D01*
X131825952Y-72131009D02*
X132159285Y-72131009D01*
X131159285Y-72654819D02*
X131159285Y-71654819D01*
X131159285Y-71654819D02*
X130825952Y-72369104D01*
X130825952Y-72369104D02*
X130492619Y-71654819D01*
X130492619Y-71654819D02*
X130492619Y-72654819D01*
X130016428Y-72131009D02*
X129683095Y-72131009D01*
X129540238Y-72654819D02*
X130016428Y-72654819D01*
X130016428Y-72654819D02*
X130016428Y-71654819D01*
X130016428Y-71654819D02*
X129540238Y-71654819D01*
X129159285Y-71750057D02*
X129111666Y-71702438D01*
X129111666Y-71702438D02*
X129016428Y-71654819D01*
X129016428Y-71654819D02*
X128778333Y-71654819D01*
X128778333Y-71654819D02*
X128683095Y-71702438D01*
X128683095Y-71702438D02*
X128635476Y-71750057D01*
X128635476Y-71750057D02*
X128587857Y-71845295D01*
X128587857Y-71845295D02*
X128587857Y-71940533D01*
X128587857Y-71940533D02*
X128635476Y-72083390D01*
X128635476Y-72083390D02*
X129206904Y-72654819D01*
X129206904Y-72654819D02*
X128587857Y-72654819D01*
X128016428Y-72083390D02*
X128111666Y-72035771D01*
X128111666Y-72035771D02*
X128159285Y-71988152D01*
X128159285Y-71988152D02*
X128206904Y-71892914D01*
X128206904Y-71892914D02*
X128206904Y-71845295D01*
X128206904Y-71845295D02*
X128159285Y-71750057D01*
X128159285Y-71750057D02*
X128111666Y-71702438D01*
X128111666Y-71702438D02*
X128016428Y-71654819D01*
X128016428Y-71654819D02*
X127825952Y-71654819D01*
X127825952Y-71654819D02*
X127730714Y-71702438D01*
X127730714Y-71702438D02*
X127683095Y-71750057D01*
X127683095Y-71750057D02*
X127635476Y-71845295D01*
X127635476Y-71845295D02*
X127635476Y-71892914D01*
X127635476Y-71892914D02*
X127683095Y-71988152D01*
X127683095Y-71988152D02*
X127730714Y-72035771D01*
X127730714Y-72035771D02*
X127825952Y-72083390D01*
X127825952Y-72083390D02*
X128016428Y-72083390D01*
X128016428Y-72083390D02*
X128111666Y-72131009D01*
X128111666Y-72131009D02*
X128159285Y-72178628D01*
X128159285Y-72178628D02*
X128206904Y-72273866D01*
X128206904Y-72273866D02*
X128206904Y-72464342D01*
X128206904Y-72464342D02*
X128159285Y-72559580D01*
X128159285Y-72559580D02*
X128111666Y-72607200D01*
X128111666Y-72607200D02*
X128016428Y-72654819D01*
X128016428Y-72654819D02*
X127825952Y-72654819D01*
X127825952Y-72654819D02*
X127730714Y-72607200D01*
X127730714Y-72607200D02*
X127683095Y-72559580D01*
X127683095Y-72559580D02*
X127635476Y-72464342D01*
X127635476Y-72464342D02*
X127635476Y-72273866D01*
X127635476Y-72273866D02*
X127683095Y-72178628D01*
X127683095Y-72178628D02*
X127730714Y-72131009D01*
X127730714Y-72131009D02*
X127825952Y-72083390D01*
X127016428Y-71654819D02*
X126921190Y-71654819D01*
X126921190Y-71654819D02*
X126825952Y-71702438D01*
X126825952Y-71702438D02*
X126778333Y-71750057D01*
X126778333Y-71750057D02*
X126730714Y-71845295D01*
X126730714Y-71845295D02*
X126683095Y-72035771D01*
X126683095Y-72035771D02*
X126683095Y-72273866D01*
X126683095Y-72273866D02*
X126730714Y-72464342D01*
X126730714Y-72464342D02*
X126778333Y-72559580D01*
X126778333Y-72559580D02*
X126825952Y-72607200D01*
X126825952Y-72607200D02*
X126921190Y-72654819D01*
X126921190Y-72654819D02*
X127016428Y-72654819D01*
X127016428Y-72654819D02*
X127111666Y-72607200D01*
X127111666Y-72607200D02*
X127159285Y-72559580D01*
X127159285Y-72559580D02*
X127206904Y-72464342D01*
X127206904Y-72464342D02*
X127254523Y-72273866D01*
X127254523Y-72273866D02*
X127254523Y-72035771D01*
X127254523Y-72035771D02*
X127206904Y-71845295D01*
X127206904Y-71845295D02*
X127159285Y-71750057D01*
X127159285Y-71750057D02*
X127111666Y-71702438D01*
X127111666Y-71702438D02*
X127016428Y-71654819D01*
X154049288Y-121693006D02*
X154049288Y-122504659D01*
X154049288Y-122504659D02*
X154001544Y-122600147D01*
X154001544Y-122600147D02*
X153953800Y-122647892D01*
X153953800Y-122647892D02*
X153858311Y-122695636D01*
X153858311Y-122695636D02*
X153667334Y-122695636D01*
X153667334Y-122695636D02*
X153571845Y-122647892D01*
X153571845Y-122647892D02*
X153524101Y-122600147D01*
X153524101Y-122600147D02*
X153476357Y-122504659D01*
X153476357Y-122504659D02*
X153476357Y-121693006D01*
X153046658Y-121788494D02*
X152998914Y-121740750D01*
X152998914Y-121740750D02*
X152903426Y-121693006D01*
X152903426Y-121693006D02*
X152664704Y-121693006D01*
X152664704Y-121693006D02*
X152569216Y-121740750D01*
X152569216Y-121740750D02*
X152521471Y-121788494D01*
X152521471Y-121788494D02*
X152473727Y-121883983D01*
X152473727Y-121883983D02*
X152473727Y-121979472D01*
X152473727Y-121979472D02*
X152521471Y-122122704D01*
X152521471Y-122122704D02*
X153094403Y-122695636D01*
X153094403Y-122695636D02*
X152473727Y-122695636D01*
X149093186Y-141956320D02*
X149427600Y-141478585D01*
X149666468Y-141956320D02*
X149666468Y-140953076D01*
X149666468Y-140953076D02*
X149284280Y-140953076D01*
X149284280Y-140953076D02*
X149188733Y-141000850D01*
X149188733Y-141000850D02*
X149140959Y-141048623D01*
X149140959Y-141048623D02*
X149093186Y-141144170D01*
X149093186Y-141144170D02*
X149093186Y-141287491D01*
X149093186Y-141287491D02*
X149140959Y-141383038D01*
X149140959Y-141383038D02*
X149188733Y-141430811D01*
X149188733Y-141430811D02*
X149284280Y-141478585D01*
X149284280Y-141478585D02*
X149666468Y-141478585D01*
X148328809Y-141430811D02*
X148663224Y-141430811D01*
X148663224Y-141956320D02*
X148663224Y-140953076D01*
X148663224Y-140953076D02*
X148185489Y-140953076D01*
X147803301Y-141956320D02*
X147803301Y-140953076D01*
X147803301Y-140953076D02*
X147468886Y-141669679D01*
X147468886Y-141669679D02*
X147134472Y-140953076D01*
X147134472Y-140953076D02*
X147134472Y-141956320D01*
X146226774Y-140953076D02*
X146417868Y-140953076D01*
X146417868Y-140953076D02*
X146513415Y-141000850D01*
X146513415Y-141000850D02*
X146561189Y-141048623D01*
X146561189Y-141048623D02*
X146656736Y-141191944D01*
X146656736Y-141191944D02*
X146704509Y-141383038D01*
X146704509Y-141383038D02*
X146704509Y-141765226D01*
X146704509Y-141765226D02*
X146656736Y-141860773D01*
X146656736Y-141860773D02*
X146608962Y-141908547D01*
X146608962Y-141908547D02*
X146513415Y-141956320D01*
X146513415Y-141956320D02*
X146322321Y-141956320D01*
X146322321Y-141956320D02*
X146226774Y-141908547D01*
X146226774Y-141908547D02*
X146179001Y-141860773D01*
X146179001Y-141860773D02*
X146131227Y-141765226D01*
X146131227Y-141765226D02*
X146131227Y-141526358D01*
X146131227Y-141526358D02*
X146179001Y-141430811D01*
X146179001Y-141430811D02*
X146226774Y-141383038D01*
X146226774Y-141383038D02*
X146322321Y-141335264D01*
X146322321Y-141335264D02*
X146513415Y-141335264D01*
X146513415Y-141335264D02*
X146608962Y-141383038D01*
X146608962Y-141383038D02*
X146656736Y-141430811D01*
X146656736Y-141430811D02*
X146704509Y-141526358D01*
X145653492Y-141956320D02*
X145462398Y-141956320D01*
X145462398Y-141956320D02*
X145366851Y-141908547D01*
X145366851Y-141908547D02*
X145319078Y-141860773D01*
X145319078Y-141860773D02*
X145223531Y-141717452D01*
X145223531Y-141717452D02*
X145175757Y-141526358D01*
X145175757Y-141526358D02*
X145175757Y-141144170D01*
X145175757Y-141144170D02*
X145223531Y-141048623D01*
X145223531Y-141048623D02*
X145271304Y-141000850D01*
X145271304Y-141000850D02*
X145366851Y-140953076D01*
X145366851Y-140953076D02*
X145557945Y-140953076D01*
X145557945Y-140953076D02*
X145653492Y-141000850D01*
X145653492Y-141000850D02*
X145701266Y-141048623D01*
X145701266Y-141048623D02*
X145749039Y-141144170D01*
X145749039Y-141144170D02*
X145749039Y-141383038D01*
X145749039Y-141383038D02*
X145701266Y-141478585D01*
X145701266Y-141478585D02*
X145653492Y-141526358D01*
X145653492Y-141526358D02*
X145557945Y-141574132D01*
X145557945Y-141574132D02*
X145366851Y-141574132D01*
X145366851Y-141574132D02*
X145271304Y-141526358D01*
X145271304Y-141526358D02*
X145223531Y-141478585D01*
X145223531Y-141478585D02*
X145175757Y-141383038D01*
X166183094Y-78354819D02*
X166183094Y-77354819D01*
X166183094Y-77354819D02*
X165944999Y-77354819D01*
X165944999Y-77354819D02*
X165802142Y-77402438D01*
X165802142Y-77402438D02*
X165706904Y-77497676D01*
X165706904Y-77497676D02*
X165659285Y-77592914D01*
X165659285Y-77592914D02*
X165611666Y-77783390D01*
X165611666Y-77783390D02*
X165611666Y-77926247D01*
X165611666Y-77926247D02*
X165659285Y-78116723D01*
X165659285Y-78116723D02*
X165706904Y-78211961D01*
X165706904Y-78211961D02*
X165802142Y-78307200D01*
X165802142Y-78307200D02*
X165944999Y-78354819D01*
X165944999Y-78354819D02*
X166183094Y-78354819D01*
X164659285Y-78354819D02*
X165230713Y-78354819D01*
X164944999Y-78354819D02*
X164944999Y-77354819D01*
X164944999Y-77354819D02*
X165040237Y-77497676D01*
X165040237Y-77497676D02*
X165135475Y-77592914D01*
X165135475Y-77592914D02*
X165230713Y-77640533D01*
X134624580Y-131695833D02*
X134672200Y-131648214D01*
X134672200Y-131648214D02*
X134719819Y-131505357D01*
X134719819Y-131505357D02*
X134719819Y-131410119D01*
X134719819Y-131410119D02*
X134672200Y-131267262D01*
X134672200Y-131267262D02*
X134576961Y-131172024D01*
X134576961Y-131172024D02*
X134481723Y-131124405D01*
X134481723Y-131124405D02*
X134291247Y-131076786D01*
X134291247Y-131076786D02*
X134148390Y-131076786D01*
X134148390Y-131076786D02*
X133957914Y-131124405D01*
X133957914Y-131124405D02*
X133862676Y-131172024D01*
X133862676Y-131172024D02*
X133767438Y-131267262D01*
X133767438Y-131267262D02*
X133719819Y-131410119D01*
X133719819Y-131410119D02*
X133719819Y-131505357D01*
X133719819Y-131505357D02*
X133767438Y-131648214D01*
X133767438Y-131648214D02*
X133815057Y-131695833D01*
X134719819Y-132648214D02*
X134719819Y-132076786D01*
X134719819Y-132362500D02*
X133719819Y-132362500D01*
X133719819Y-132362500D02*
X133862676Y-132267262D01*
X133862676Y-132267262D02*
X133957914Y-132172024D01*
X133957914Y-132172024D02*
X134005533Y-132076786D01*
X126111666Y-136562979D02*
X126111666Y-135848694D01*
X126111666Y-135848694D02*
X126064047Y-135705837D01*
X126064047Y-135705837D02*
X125968809Y-135610599D01*
X125968809Y-135610599D02*
X125825952Y-135562979D01*
X125825952Y-135562979D02*
X125730714Y-135562979D01*
X126540238Y-136467741D02*
X126587857Y-136515360D01*
X126587857Y-136515360D02*
X126683095Y-136562979D01*
X126683095Y-136562979D02*
X126921190Y-136562979D01*
X126921190Y-136562979D02*
X127016428Y-136515360D01*
X127016428Y-136515360D02*
X127064047Y-136467741D01*
X127064047Y-136467741D02*
X127111666Y-136372503D01*
X127111666Y-136372503D02*
X127111666Y-136277265D01*
X127111666Y-136277265D02*
X127064047Y-136134408D01*
X127064047Y-136134408D02*
X126492619Y-135562979D01*
X126492619Y-135562979D02*
X127111666Y-135562979D01*
X129706904Y-142454819D02*
X129706904Y-141454819D01*
X129278333Y-141550057D02*
X129230714Y-141502438D01*
X129230714Y-141502438D02*
X129135476Y-141454819D01*
X129135476Y-141454819D02*
X128897381Y-141454819D01*
X128897381Y-141454819D02*
X128802143Y-141502438D01*
X128802143Y-141502438D02*
X128754524Y-141550057D01*
X128754524Y-141550057D02*
X128706905Y-141645295D01*
X128706905Y-141645295D02*
X128706905Y-141740533D01*
X128706905Y-141740533D02*
X128754524Y-141883390D01*
X128754524Y-141883390D02*
X129325952Y-142454819D01*
X129325952Y-142454819D02*
X128706905Y-142454819D01*
X127706905Y-142359580D02*
X127754524Y-142407200D01*
X127754524Y-142407200D02*
X127897381Y-142454819D01*
X127897381Y-142454819D02*
X127992619Y-142454819D01*
X127992619Y-142454819D02*
X128135476Y-142407200D01*
X128135476Y-142407200D02*
X128230714Y-142311961D01*
X128230714Y-142311961D02*
X128278333Y-142216723D01*
X128278333Y-142216723D02*
X128325952Y-142026247D01*
X128325952Y-142026247D02*
X128325952Y-141883390D01*
X128325952Y-141883390D02*
X128278333Y-141692914D01*
X128278333Y-141692914D02*
X128230714Y-141597676D01*
X128230714Y-141597676D02*
X128135476Y-141502438D01*
X128135476Y-141502438D02*
X127992619Y-141454819D01*
X127992619Y-141454819D02*
X127897381Y-141454819D01*
X127897381Y-141454819D02*
X127754524Y-141502438D01*
X127754524Y-141502438D02*
X127706905Y-141550057D01*
X127087857Y-141454819D02*
X126992619Y-141454819D01*
X126992619Y-141454819D02*
X126897381Y-141502438D01*
X126897381Y-141502438D02*
X126849762Y-141550057D01*
X126849762Y-141550057D02*
X126802143Y-141645295D01*
X126802143Y-141645295D02*
X126754524Y-141835771D01*
X126754524Y-141835771D02*
X126754524Y-142073866D01*
X126754524Y-142073866D02*
X126802143Y-142264342D01*
X126802143Y-142264342D02*
X126849762Y-142359580D01*
X126849762Y-142359580D02*
X126897381Y-142407200D01*
X126897381Y-142407200D02*
X126992619Y-142454819D01*
X126992619Y-142454819D02*
X127087857Y-142454819D01*
X127087857Y-142454819D02*
X127183095Y-142407200D01*
X127183095Y-142407200D02*
X127230714Y-142359580D01*
X127230714Y-142359580D02*
X127278333Y-142264342D01*
X127278333Y-142264342D02*
X127325952Y-142073866D01*
X127325952Y-142073866D02*
X127325952Y-141835771D01*
X127325952Y-141835771D02*
X127278333Y-141645295D01*
X127278333Y-141645295D02*
X127230714Y-141550057D01*
X127230714Y-141550057D02*
X127183095Y-141502438D01*
X127183095Y-141502438D02*
X127087857Y-141454819D01*
X126564048Y-142550057D02*
X125802143Y-142550057D01*
X125564047Y-141931009D02*
X125230714Y-141931009D01*
X125087857Y-142454819D02*
X125564047Y-142454819D01*
X125564047Y-142454819D02*
X125564047Y-141454819D01*
X125564047Y-141454819D02*
X125087857Y-141454819D01*
X124754523Y-141454819D02*
X124087857Y-142454819D01*
X124087857Y-141454819D02*
X124754523Y-142454819D01*
X123706904Y-142454819D02*
X123706904Y-141454819D01*
X123706904Y-141454819D02*
X123325952Y-141454819D01*
X123325952Y-141454819D02*
X123230714Y-141502438D01*
X123230714Y-141502438D02*
X123183095Y-141550057D01*
X123183095Y-141550057D02*
X123135476Y-141645295D01*
X123135476Y-141645295D02*
X123135476Y-141788152D01*
X123135476Y-141788152D02*
X123183095Y-141883390D01*
X123183095Y-141883390D02*
X123230714Y-141931009D01*
X123230714Y-141931009D02*
X123325952Y-141978628D01*
X123325952Y-141978628D02*
X123706904Y-141978628D01*
X132611666Y-97704819D02*
X132944999Y-97228628D01*
X133183094Y-97704819D02*
X133183094Y-96704819D01*
X133183094Y-96704819D02*
X132802142Y-96704819D01*
X132802142Y-96704819D02*
X132706904Y-96752438D01*
X132706904Y-96752438D02*
X132659285Y-96800057D01*
X132659285Y-96800057D02*
X132611666Y-96895295D01*
X132611666Y-96895295D02*
X132611666Y-97038152D01*
X132611666Y-97038152D02*
X132659285Y-97133390D01*
X132659285Y-97133390D02*
X132706904Y-97181009D01*
X132706904Y-97181009D02*
X132802142Y-97228628D01*
X132802142Y-97228628D02*
X133183094Y-97228628D01*
X131754523Y-97038152D02*
X131754523Y-97704819D01*
X131992618Y-96657200D02*
X132230713Y-97371485D01*
X132230713Y-97371485D02*
X131611666Y-97371485D01*
X118211666Y-111879580D02*
X118259285Y-111927200D01*
X118259285Y-111927200D02*
X118402142Y-111974819D01*
X118402142Y-111974819D02*
X118497380Y-111974819D01*
X118497380Y-111974819D02*
X118640237Y-111927200D01*
X118640237Y-111927200D02*
X118735475Y-111831961D01*
X118735475Y-111831961D02*
X118783094Y-111736723D01*
X118783094Y-111736723D02*
X118830713Y-111546247D01*
X118830713Y-111546247D02*
X118830713Y-111403390D01*
X118830713Y-111403390D02*
X118783094Y-111212914D01*
X118783094Y-111212914D02*
X118735475Y-111117676D01*
X118735475Y-111117676D02*
X118640237Y-111022438D01*
X118640237Y-111022438D02*
X118497380Y-110974819D01*
X118497380Y-110974819D02*
X118402142Y-110974819D01*
X118402142Y-110974819D02*
X118259285Y-111022438D01*
X118259285Y-111022438D02*
X118211666Y-111070057D01*
X117878332Y-110974819D02*
X117259285Y-110974819D01*
X117259285Y-110974819D02*
X117592618Y-111355771D01*
X117592618Y-111355771D02*
X117449761Y-111355771D01*
X117449761Y-111355771D02*
X117354523Y-111403390D01*
X117354523Y-111403390D02*
X117306904Y-111451009D01*
X117306904Y-111451009D02*
X117259285Y-111546247D01*
X117259285Y-111546247D02*
X117259285Y-111784342D01*
X117259285Y-111784342D02*
X117306904Y-111879580D01*
X117306904Y-111879580D02*
X117354523Y-111927200D01*
X117354523Y-111927200D02*
X117449761Y-111974819D01*
X117449761Y-111974819D02*
X117735475Y-111974819D01*
X117735475Y-111974819D02*
X117830713Y-111927200D01*
X117830713Y-111927200D02*
X117878332Y-111879580D01*
X166011666Y-114404819D02*
X166344999Y-113928628D01*
X166583094Y-114404819D02*
X166583094Y-113404819D01*
X166583094Y-113404819D02*
X166202142Y-113404819D01*
X166202142Y-113404819D02*
X166106904Y-113452438D01*
X166106904Y-113452438D02*
X166059285Y-113500057D01*
X166059285Y-113500057D02*
X166011666Y-113595295D01*
X166011666Y-113595295D02*
X166011666Y-113738152D01*
X166011666Y-113738152D02*
X166059285Y-113833390D01*
X166059285Y-113833390D02*
X166106904Y-113881009D01*
X166106904Y-113881009D02*
X166202142Y-113928628D01*
X166202142Y-113928628D02*
X166583094Y-113928628D01*
X165440237Y-113833390D02*
X165535475Y-113785771D01*
X165535475Y-113785771D02*
X165583094Y-113738152D01*
X165583094Y-113738152D02*
X165630713Y-113642914D01*
X165630713Y-113642914D02*
X165630713Y-113595295D01*
X165630713Y-113595295D02*
X165583094Y-113500057D01*
X165583094Y-113500057D02*
X165535475Y-113452438D01*
X165535475Y-113452438D02*
X165440237Y-113404819D01*
X165440237Y-113404819D02*
X165249761Y-113404819D01*
X165249761Y-113404819D02*
X165154523Y-113452438D01*
X165154523Y-113452438D02*
X165106904Y-113500057D01*
X165106904Y-113500057D02*
X165059285Y-113595295D01*
X165059285Y-113595295D02*
X165059285Y-113642914D01*
X165059285Y-113642914D02*
X165106904Y-113738152D01*
X165106904Y-113738152D02*
X165154523Y-113785771D01*
X165154523Y-113785771D02*
X165249761Y-113833390D01*
X165249761Y-113833390D02*
X165440237Y-113833390D01*
X165440237Y-113833390D02*
X165535475Y-113881009D01*
X165535475Y-113881009D02*
X165583094Y-113928628D01*
X165583094Y-113928628D02*
X165630713Y-114023866D01*
X165630713Y-114023866D02*
X165630713Y-114214342D01*
X165630713Y-114214342D02*
X165583094Y-114309580D01*
X165583094Y-114309580D02*
X165535475Y-114357200D01*
X165535475Y-114357200D02*
X165440237Y-114404819D01*
X165440237Y-114404819D02*
X165249761Y-114404819D01*
X165249761Y-114404819D02*
X165154523Y-114357200D01*
X165154523Y-114357200D02*
X165106904Y-114309580D01*
X165106904Y-114309580D02*
X165059285Y-114214342D01*
X165059285Y-114214342D02*
X165059285Y-114023866D01*
X165059285Y-114023866D02*
X165106904Y-113928628D01*
X165106904Y-113928628D02*
X165154523Y-113881009D01*
X165154523Y-113881009D02*
X165249761Y-113833390D01*
X160249819Y-94533333D02*
X159773628Y-94200000D01*
X160249819Y-93961905D02*
X159249819Y-93961905D01*
X159249819Y-93961905D02*
X159249819Y-94342857D01*
X159249819Y-94342857D02*
X159297438Y-94438095D01*
X159297438Y-94438095D02*
X159345057Y-94485714D01*
X159345057Y-94485714D02*
X159440295Y-94533333D01*
X159440295Y-94533333D02*
X159583152Y-94533333D01*
X159583152Y-94533333D02*
X159678390Y-94485714D01*
X159678390Y-94485714D02*
X159726009Y-94438095D01*
X159726009Y-94438095D02*
X159773628Y-94342857D01*
X159773628Y-94342857D02*
X159773628Y-93961905D01*
X159249819Y-95390476D02*
X159249819Y-95200000D01*
X159249819Y-95200000D02*
X159297438Y-95104762D01*
X159297438Y-95104762D02*
X159345057Y-95057143D01*
X159345057Y-95057143D02*
X159487914Y-94961905D01*
X159487914Y-94961905D02*
X159678390Y-94914286D01*
X159678390Y-94914286D02*
X160059342Y-94914286D01*
X160059342Y-94914286D02*
X160154580Y-94961905D01*
X160154580Y-94961905D02*
X160202200Y-95009524D01*
X160202200Y-95009524D02*
X160249819Y-95104762D01*
X160249819Y-95104762D02*
X160249819Y-95295238D01*
X160249819Y-95295238D02*
X160202200Y-95390476D01*
X160202200Y-95390476D02*
X160154580Y-95438095D01*
X160154580Y-95438095D02*
X160059342Y-95485714D01*
X160059342Y-95485714D02*
X159821247Y-95485714D01*
X159821247Y-95485714D02*
X159726009Y-95438095D01*
X159726009Y-95438095D02*
X159678390Y-95390476D01*
X159678390Y-95390476D02*
X159630771Y-95295238D01*
X159630771Y-95295238D02*
X159630771Y-95104762D01*
X159630771Y-95104762D02*
X159678390Y-95009524D01*
X159678390Y-95009524D02*
X159726009Y-94961905D01*
X159726009Y-94961905D02*
X159821247Y-94914286D01*
X132611666Y-83004819D02*
X132944999Y-82528628D01*
X133183094Y-83004819D02*
X133183094Y-82004819D01*
X133183094Y-82004819D02*
X132802142Y-82004819D01*
X132802142Y-82004819D02*
X132706904Y-82052438D01*
X132706904Y-82052438D02*
X132659285Y-82100057D01*
X132659285Y-82100057D02*
X132611666Y-82195295D01*
X132611666Y-82195295D02*
X132611666Y-82338152D01*
X132611666Y-82338152D02*
X132659285Y-82433390D01*
X132659285Y-82433390D02*
X132706904Y-82481009D01*
X132706904Y-82481009D02*
X132802142Y-82528628D01*
X132802142Y-82528628D02*
X133183094Y-82528628D01*
X132278332Y-82004819D02*
X131611666Y-82004819D01*
X131611666Y-82004819D02*
X132040237Y-83004819D01*
X163549819Y-101733333D02*
X163073628Y-101400000D01*
X163549819Y-101161905D02*
X162549819Y-101161905D01*
X162549819Y-101161905D02*
X162549819Y-101542857D01*
X162549819Y-101542857D02*
X162597438Y-101638095D01*
X162597438Y-101638095D02*
X162645057Y-101685714D01*
X162645057Y-101685714D02*
X162740295Y-101733333D01*
X162740295Y-101733333D02*
X162883152Y-101733333D01*
X162883152Y-101733333D02*
X162978390Y-101685714D01*
X162978390Y-101685714D02*
X163026009Y-101638095D01*
X163026009Y-101638095D02*
X163073628Y-101542857D01*
X163073628Y-101542857D02*
X163073628Y-101161905D01*
X162549819Y-102638095D02*
X162549819Y-102161905D01*
X162549819Y-102161905D02*
X163026009Y-102114286D01*
X163026009Y-102114286D02*
X162978390Y-102161905D01*
X162978390Y-102161905D02*
X162930771Y-102257143D01*
X162930771Y-102257143D02*
X162930771Y-102495238D01*
X162930771Y-102495238D02*
X162978390Y-102590476D01*
X162978390Y-102590476D02*
X163026009Y-102638095D01*
X163026009Y-102638095D02*
X163121247Y-102685714D01*
X163121247Y-102685714D02*
X163359342Y-102685714D01*
X163359342Y-102685714D02*
X163454580Y-102638095D01*
X163454580Y-102638095D02*
X163502200Y-102590476D01*
X163502200Y-102590476D02*
X163549819Y-102495238D01*
X163549819Y-102495238D02*
X163549819Y-102257143D01*
X163549819Y-102257143D02*
X163502200Y-102161905D01*
X163502200Y-102161905D02*
X163454580Y-102114286D01*
X134158542Y-140547939D02*
X134158542Y-141005531D01*
X134158542Y-141005531D02*
X134189048Y-141097049D01*
X134189048Y-141097049D02*
X134250060Y-141158062D01*
X134250060Y-141158062D02*
X134341579Y-141188568D01*
X134341579Y-141188568D02*
X134402591Y-141188568D01*
X133914493Y-140547939D02*
X133517913Y-140547939D01*
X133517913Y-140547939D02*
X133731456Y-140791988D01*
X133731456Y-140791988D02*
X133639938Y-140791988D01*
X133639938Y-140791988D02*
X133578926Y-140822494D01*
X133578926Y-140822494D02*
X133548419Y-140853000D01*
X133548419Y-140853000D02*
X133517913Y-140914012D01*
X133517913Y-140914012D02*
X133517913Y-141066543D01*
X133517913Y-141066543D02*
X133548419Y-141127555D01*
X133548419Y-141127555D02*
X133578926Y-141158062D01*
X133578926Y-141158062D02*
X133639938Y-141188568D01*
X133639938Y-141188568D02*
X133822975Y-141188568D01*
X133822975Y-141188568D02*
X133883987Y-141158062D01*
X133883987Y-141158062D02*
X133914493Y-141127555D01*
X175724580Y-113233333D02*
X175772200Y-113185714D01*
X175772200Y-113185714D02*
X175819819Y-113042857D01*
X175819819Y-113042857D02*
X175819819Y-112947619D01*
X175819819Y-112947619D02*
X175772200Y-112804762D01*
X175772200Y-112804762D02*
X175676961Y-112709524D01*
X175676961Y-112709524D02*
X175581723Y-112661905D01*
X175581723Y-112661905D02*
X175391247Y-112614286D01*
X175391247Y-112614286D02*
X175248390Y-112614286D01*
X175248390Y-112614286D02*
X175057914Y-112661905D01*
X175057914Y-112661905D02*
X174962676Y-112709524D01*
X174962676Y-112709524D02*
X174867438Y-112804762D01*
X174867438Y-112804762D02*
X174819819Y-112947619D01*
X174819819Y-112947619D02*
X174819819Y-113042857D01*
X174819819Y-113042857D02*
X174867438Y-113185714D01*
X174867438Y-113185714D02*
X174915057Y-113233333D01*
X174915057Y-113614286D02*
X174867438Y-113661905D01*
X174867438Y-113661905D02*
X174819819Y-113757143D01*
X174819819Y-113757143D02*
X174819819Y-113995238D01*
X174819819Y-113995238D02*
X174867438Y-114090476D01*
X174867438Y-114090476D02*
X174915057Y-114138095D01*
X174915057Y-114138095D02*
X175010295Y-114185714D01*
X175010295Y-114185714D02*
X175105533Y-114185714D01*
X175105533Y-114185714D02*
X175248390Y-114138095D01*
X175248390Y-114138095D02*
X175819819Y-113566667D01*
X175819819Y-113566667D02*
X175819819Y-114185714D01*
X168111666Y-136562979D02*
X168111666Y-135848694D01*
X168111666Y-135848694D02*
X168064047Y-135705837D01*
X168064047Y-135705837D02*
X167968809Y-135610599D01*
X167968809Y-135610599D02*
X167825952Y-135562979D01*
X167825952Y-135562979D02*
X167730714Y-135562979D01*
X169111666Y-135562979D02*
X168540238Y-135562979D01*
X168825952Y-135562979D02*
X168825952Y-136562979D01*
X168825952Y-136562979D02*
X168730714Y-136420122D01*
X168730714Y-136420122D02*
X168635476Y-136324884D01*
X168635476Y-136324884D02*
X168540238Y-136277265D01*
X171706904Y-142554819D02*
X171706904Y-141554819D01*
X171278333Y-141650057D02*
X171230714Y-141602438D01*
X171230714Y-141602438D02*
X171135476Y-141554819D01*
X171135476Y-141554819D02*
X170897381Y-141554819D01*
X170897381Y-141554819D02*
X170802143Y-141602438D01*
X170802143Y-141602438D02*
X170754524Y-141650057D01*
X170754524Y-141650057D02*
X170706905Y-141745295D01*
X170706905Y-141745295D02*
X170706905Y-141840533D01*
X170706905Y-141840533D02*
X170754524Y-141983390D01*
X170754524Y-141983390D02*
X171325952Y-142554819D01*
X171325952Y-142554819D02*
X170706905Y-142554819D01*
X169706905Y-142459580D02*
X169754524Y-142507200D01*
X169754524Y-142507200D02*
X169897381Y-142554819D01*
X169897381Y-142554819D02*
X169992619Y-142554819D01*
X169992619Y-142554819D02*
X170135476Y-142507200D01*
X170135476Y-142507200D02*
X170230714Y-142411961D01*
X170230714Y-142411961D02*
X170278333Y-142316723D01*
X170278333Y-142316723D02*
X170325952Y-142126247D01*
X170325952Y-142126247D02*
X170325952Y-141983390D01*
X170325952Y-141983390D02*
X170278333Y-141792914D01*
X170278333Y-141792914D02*
X170230714Y-141697676D01*
X170230714Y-141697676D02*
X170135476Y-141602438D01*
X170135476Y-141602438D02*
X169992619Y-141554819D01*
X169992619Y-141554819D02*
X169897381Y-141554819D01*
X169897381Y-141554819D02*
X169754524Y-141602438D01*
X169754524Y-141602438D02*
X169706905Y-141650057D01*
X168754524Y-142554819D02*
X169325952Y-142554819D01*
X169040238Y-142554819D02*
X169040238Y-141554819D01*
X169040238Y-141554819D02*
X169135476Y-141697676D01*
X169135476Y-141697676D02*
X169230714Y-141792914D01*
X169230714Y-141792914D02*
X169325952Y-141840533D01*
X168564048Y-142650057D02*
X167802143Y-142650057D01*
X167564047Y-142031009D02*
X167230714Y-142031009D01*
X167087857Y-142554819D02*
X167564047Y-142554819D01*
X167564047Y-142554819D02*
X167564047Y-141554819D01*
X167564047Y-141554819D02*
X167087857Y-141554819D01*
X166754523Y-141554819D02*
X166087857Y-142554819D01*
X166087857Y-141554819D02*
X166754523Y-142554819D01*
X165706904Y-142554819D02*
X165706904Y-141554819D01*
X165706904Y-141554819D02*
X165325952Y-141554819D01*
X165325952Y-141554819D02*
X165230714Y-141602438D01*
X165230714Y-141602438D02*
X165183095Y-141650057D01*
X165183095Y-141650057D02*
X165135476Y-141745295D01*
X165135476Y-141745295D02*
X165135476Y-141888152D01*
X165135476Y-141888152D02*
X165183095Y-141983390D01*
X165183095Y-141983390D02*
X165230714Y-142031009D01*
X165230714Y-142031009D02*
X165325952Y-142078628D01*
X165325952Y-142078628D02*
X165706904Y-142078628D01*
X168178332Y-117104818D02*
X168178332Y-117819103D01*
X168178332Y-117819103D02*
X168225951Y-117961960D01*
X168225951Y-117961960D02*
X168321189Y-118057199D01*
X168321189Y-118057199D02*
X168464046Y-118104818D01*
X168464046Y-118104818D02*
X168559284Y-118104818D01*
X167559284Y-117533389D02*
X167654522Y-117485770D01*
X167654522Y-117485770D02*
X167702141Y-117438151D01*
X167702141Y-117438151D02*
X167749760Y-117342913D01*
X167749760Y-117342913D02*
X167749760Y-117295294D01*
X167749760Y-117295294D02*
X167702141Y-117200056D01*
X167702141Y-117200056D02*
X167654522Y-117152437D01*
X167654522Y-117152437D02*
X167559284Y-117104818D01*
X167559284Y-117104818D02*
X167368808Y-117104818D01*
X167368808Y-117104818D02*
X167273570Y-117152437D01*
X167273570Y-117152437D02*
X167225951Y-117200056D01*
X167225951Y-117200056D02*
X167178332Y-117295294D01*
X167178332Y-117295294D02*
X167178332Y-117342913D01*
X167178332Y-117342913D02*
X167225951Y-117438151D01*
X167225951Y-117438151D02*
X167273570Y-117485770D01*
X167273570Y-117485770D02*
X167368808Y-117533389D01*
X167368808Y-117533389D02*
X167559284Y-117533389D01*
X167559284Y-117533389D02*
X167654522Y-117581008D01*
X167654522Y-117581008D02*
X167702141Y-117628627D01*
X167702141Y-117628627D02*
X167749760Y-117723865D01*
X167749760Y-117723865D02*
X167749760Y-117914341D01*
X167749760Y-117914341D02*
X167702141Y-118009579D01*
X167702141Y-118009579D02*
X167654522Y-118057199D01*
X167654522Y-118057199D02*
X167559284Y-118104818D01*
X167559284Y-118104818D02*
X167368808Y-118104818D01*
X167368808Y-118104818D02*
X167273570Y-118057199D01*
X167273570Y-118057199D02*
X167225951Y-118009579D01*
X167225951Y-118009579D02*
X167178332Y-117914341D01*
X167178332Y-117914341D02*
X167178332Y-117723865D01*
X167178332Y-117723865D02*
X167225951Y-117628627D01*
X167225951Y-117628627D02*
X167273570Y-117581008D01*
X167273570Y-117581008D02*
X167368808Y-117533389D01*
X171583094Y-124007200D02*
X171440237Y-124054819D01*
X171440237Y-124054819D02*
X171202142Y-124054819D01*
X171202142Y-124054819D02*
X171106904Y-124007200D01*
X171106904Y-124007200D02*
X171059285Y-123959580D01*
X171059285Y-123959580D02*
X171011666Y-123864342D01*
X171011666Y-123864342D02*
X171011666Y-123769104D01*
X171011666Y-123769104D02*
X171059285Y-123673866D01*
X171059285Y-123673866D02*
X171106904Y-123626247D01*
X171106904Y-123626247D02*
X171202142Y-123578628D01*
X171202142Y-123578628D02*
X171392618Y-123531009D01*
X171392618Y-123531009D02*
X171487856Y-123483390D01*
X171487856Y-123483390D02*
X171535475Y-123435771D01*
X171535475Y-123435771D02*
X171583094Y-123340533D01*
X171583094Y-123340533D02*
X171583094Y-123245295D01*
X171583094Y-123245295D02*
X171535475Y-123150057D01*
X171535475Y-123150057D02*
X171487856Y-123102438D01*
X171487856Y-123102438D02*
X171392618Y-123054819D01*
X171392618Y-123054819D02*
X171154523Y-123054819D01*
X171154523Y-123054819D02*
X171011666Y-123102438D01*
X170392618Y-123054819D02*
X170202142Y-123054819D01*
X170202142Y-123054819D02*
X170106904Y-123102438D01*
X170106904Y-123102438D02*
X170011666Y-123197676D01*
X170011666Y-123197676D02*
X169964047Y-123388152D01*
X169964047Y-123388152D02*
X169964047Y-123721485D01*
X169964047Y-123721485D02*
X170011666Y-123911961D01*
X170011666Y-123911961D02*
X170106904Y-124007200D01*
X170106904Y-124007200D02*
X170202142Y-124054819D01*
X170202142Y-124054819D02*
X170392618Y-124054819D01*
X170392618Y-124054819D02*
X170487856Y-124007200D01*
X170487856Y-124007200D02*
X170583094Y-123911961D01*
X170583094Y-123911961D02*
X170630713Y-123721485D01*
X170630713Y-123721485D02*
X170630713Y-123388152D01*
X170630713Y-123388152D02*
X170583094Y-123197676D01*
X170583094Y-123197676D02*
X170487856Y-123102438D01*
X170487856Y-123102438D02*
X170392618Y-123054819D01*
X169535475Y-124054819D02*
X169535475Y-123054819D01*
X168583095Y-124054819D02*
X169059285Y-124054819D01*
X169059285Y-124054819D02*
X169059285Y-123054819D01*
X168487857Y-124150057D02*
X167725952Y-124150057D01*
X167630713Y-123054819D02*
X167059285Y-123054819D01*
X167344999Y-124054819D02*
X167344999Y-123054819D01*
X166725951Y-123531009D02*
X166392618Y-123531009D01*
X166249761Y-124054819D02*
X166725951Y-124054819D01*
X166725951Y-124054819D02*
X166725951Y-123054819D01*
X166725951Y-123054819D02*
X166249761Y-123054819D01*
X165821189Y-124054819D02*
X165821189Y-123054819D01*
X165821189Y-123054819D02*
X165487856Y-123769104D01*
X165487856Y-123769104D02*
X165154523Y-123054819D01*
X165154523Y-123054819D02*
X165154523Y-124054819D01*
X164678332Y-124054819D02*
X164678332Y-123054819D01*
X164678332Y-123054819D02*
X164297380Y-123054819D01*
X164297380Y-123054819D02*
X164202142Y-123102438D01*
X164202142Y-123102438D02*
X164154523Y-123150057D01*
X164154523Y-123150057D02*
X164106904Y-123245295D01*
X164106904Y-123245295D02*
X164106904Y-123388152D01*
X164106904Y-123388152D02*
X164154523Y-123483390D01*
X164154523Y-123483390D02*
X164202142Y-123531009D01*
X164202142Y-123531009D02*
X164297380Y-123578628D01*
X164297380Y-123578628D02*
X164678332Y-123578628D01*
X118111666Y-108306082D02*
X118111666Y-107591797D01*
X118111666Y-107591797D02*
X118064047Y-107448940D01*
X118064047Y-107448940D02*
X117968809Y-107353702D01*
X117968809Y-107353702D02*
X117825952Y-107306082D01*
X117825952Y-107306082D02*
X117730714Y-107306082D01*
X119016428Y-108306082D02*
X118825952Y-108306082D01*
X118825952Y-108306082D02*
X118730714Y-108258463D01*
X118730714Y-108258463D02*
X118683095Y-108210844D01*
X118683095Y-108210844D02*
X118587857Y-108067987D01*
X118587857Y-108067987D02*
X118540238Y-107877511D01*
X118540238Y-107877511D02*
X118540238Y-107496559D01*
X118540238Y-107496559D02*
X118587857Y-107401321D01*
X118587857Y-107401321D02*
X118635476Y-107353702D01*
X118635476Y-107353702D02*
X118730714Y-107306082D01*
X118730714Y-107306082D02*
X118921190Y-107306082D01*
X118921190Y-107306082D02*
X119016428Y-107353702D01*
X119016428Y-107353702D02*
X119064047Y-107401321D01*
X119064047Y-107401321D02*
X119111666Y-107496559D01*
X119111666Y-107496559D02*
X119111666Y-107734654D01*
X119111666Y-107734654D02*
X119064047Y-107829892D01*
X119064047Y-107829892D02*
X119016428Y-107877511D01*
X119016428Y-107877511D02*
X118921190Y-107925130D01*
X118921190Y-107925130D02*
X118730714Y-107925130D01*
X118730714Y-107925130D02*
X118635476Y-107877511D01*
X118635476Y-107877511D02*
X118587857Y-107829892D01*
X118587857Y-107829892D02*
X118540238Y-107734654D01*
X122659285Y-88354819D02*
X122992618Y-87878628D01*
X123230713Y-88354819D02*
X123230713Y-87354819D01*
X123230713Y-87354819D02*
X122849761Y-87354819D01*
X122849761Y-87354819D02*
X122754523Y-87402438D01*
X122754523Y-87402438D02*
X122706904Y-87450057D01*
X122706904Y-87450057D02*
X122659285Y-87545295D01*
X122659285Y-87545295D02*
X122659285Y-87688152D01*
X122659285Y-87688152D02*
X122706904Y-87783390D01*
X122706904Y-87783390D02*
X122754523Y-87831009D01*
X122754523Y-87831009D02*
X122849761Y-87878628D01*
X122849761Y-87878628D02*
X123230713Y-87878628D01*
X122278332Y-88069104D02*
X121802142Y-88069104D01*
X122373570Y-88354819D02*
X122040237Y-87354819D01*
X122040237Y-87354819D02*
X121706904Y-88354819D01*
X121373570Y-88354819D02*
X121373570Y-87354819D01*
X120897380Y-88354819D02*
X120897380Y-87354819D01*
X120897380Y-87354819D02*
X120325952Y-88354819D01*
X120325952Y-88354819D02*
X120325952Y-87354819D01*
X120087857Y-88450057D02*
X119325952Y-88450057D01*
X119135475Y-88307200D02*
X118992618Y-88354819D01*
X118992618Y-88354819D02*
X118754523Y-88354819D01*
X118754523Y-88354819D02*
X118659285Y-88307200D01*
X118659285Y-88307200D02*
X118611666Y-88259580D01*
X118611666Y-88259580D02*
X118564047Y-88164342D01*
X118564047Y-88164342D02*
X118564047Y-88069104D01*
X118564047Y-88069104D02*
X118611666Y-87973866D01*
X118611666Y-87973866D02*
X118659285Y-87926247D01*
X118659285Y-87926247D02*
X118754523Y-87878628D01*
X118754523Y-87878628D02*
X118944999Y-87831009D01*
X118944999Y-87831009D02*
X119040237Y-87783390D01*
X119040237Y-87783390D02*
X119087856Y-87735771D01*
X119087856Y-87735771D02*
X119135475Y-87640533D01*
X119135475Y-87640533D02*
X119135475Y-87545295D01*
X119135475Y-87545295D02*
X119087856Y-87450057D01*
X119087856Y-87450057D02*
X119040237Y-87402438D01*
X119040237Y-87402438D02*
X118944999Y-87354819D01*
X118944999Y-87354819D02*
X118706904Y-87354819D01*
X118706904Y-87354819D02*
X118564047Y-87402438D01*
X118135475Y-87831009D02*
X117802142Y-87831009D01*
X117659285Y-88354819D02*
X118135475Y-88354819D01*
X118135475Y-88354819D02*
X118135475Y-87354819D01*
X118135475Y-87354819D02*
X117659285Y-87354819D01*
X117230713Y-88354819D02*
X117230713Y-87354819D01*
X117230713Y-87354819D02*
X116659285Y-88354819D01*
X116659285Y-88354819D02*
X116659285Y-87354819D01*
X116230713Y-88307200D02*
X116087856Y-88354819D01*
X116087856Y-88354819D02*
X115849761Y-88354819D01*
X115849761Y-88354819D02*
X115754523Y-88307200D01*
X115754523Y-88307200D02*
X115706904Y-88259580D01*
X115706904Y-88259580D02*
X115659285Y-88164342D01*
X115659285Y-88164342D02*
X115659285Y-88069104D01*
X115659285Y-88069104D02*
X115706904Y-87973866D01*
X115706904Y-87973866D02*
X115754523Y-87926247D01*
X115754523Y-87926247D02*
X115849761Y-87878628D01*
X115849761Y-87878628D02*
X116040237Y-87831009D01*
X116040237Y-87831009D02*
X116135475Y-87783390D01*
X116135475Y-87783390D02*
X116183094Y-87735771D01*
X116183094Y-87735771D02*
X116230713Y-87640533D01*
X116230713Y-87640533D02*
X116230713Y-87545295D01*
X116230713Y-87545295D02*
X116183094Y-87450057D01*
X116183094Y-87450057D02*
X116135475Y-87402438D01*
X116135475Y-87402438D02*
X116040237Y-87354819D01*
X116040237Y-87354819D02*
X115802142Y-87354819D01*
X115802142Y-87354819D02*
X115659285Y-87402438D01*
X115040237Y-87354819D02*
X114849761Y-87354819D01*
X114849761Y-87354819D02*
X114754523Y-87402438D01*
X114754523Y-87402438D02*
X114659285Y-87497676D01*
X114659285Y-87497676D02*
X114611666Y-87688152D01*
X114611666Y-87688152D02*
X114611666Y-88021485D01*
X114611666Y-88021485D02*
X114659285Y-88211961D01*
X114659285Y-88211961D02*
X114754523Y-88307200D01*
X114754523Y-88307200D02*
X114849761Y-88354819D01*
X114849761Y-88354819D02*
X115040237Y-88354819D01*
X115040237Y-88354819D02*
X115135475Y-88307200D01*
X115135475Y-88307200D02*
X115230713Y-88211961D01*
X115230713Y-88211961D02*
X115278332Y-88021485D01*
X115278332Y-88021485D02*
X115278332Y-87688152D01*
X115278332Y-87688152D02*
X115230713Y-87497676D01*
X115230713Y-87497676D02*
X115135475Y-87402438D01*
X115135475Y-87402438D02*
X115040237Y-87354819D01*
X113611666Y-88354819D02*
X113944999Y-87878628D01*
X114183094Y-88354819D02*
X114183094Y-87354819D01*
X114183094Y-87354819D02*
X113802142Y-87354819D01*
X113802142Y-87354819D02*
X113706904Y-87402438D01*
X113706904Y-87402438D02*
X113659285Y-87450057D01*
X113659285Y-87450057D02*
X113611666Y-87545295D01*
X113611666Y-87545295D02*
X113611666Y-87688152D01*
X113611666Y-87688152D02*
X113659285Y-87783390D01*
X113659285Y-87783390D02*
X113706904Y-87831009D01*
X113706904Y-87831009D02*
X113802142Y-87878628D01*
X113802142Y-87878628D02*
X114183094Y-87878628D01*
X176111666Y-108306082D02*
X176111666Y-107591797D01*
X176111666Y-107591797D02*
X176064047Y-107448940D01*
X176064047Y-107448940D02*
X175968809Y-107353702D01*
X175968809Y-107353702D02*
X175825952Y-107306082D01*
X175825952Y-107306082D02*
X175730714Y-107306082D01*
X177064047Y-108306082D02*
X176587857Y-108306082D01*
X176587857Y-108306082D02*
X176540238Y-107829892D01*
X176540238Y-107829892D02*
X176587857Y-107877511D01*
X176587857Y-107877511D02*
X176683095Y-107925130D01*
X176683095Y-107925130D02*
X176921190Y-107925130D01*
X176921190Y-107925130D02*
X177016428Y-107877511D01*
X177016428Y-107877511D02*
X177064047Y-107829892D01*
X177064047Y-107829892D02*
X177111666Y-107734654D01*
X177111666Y-107734654D02*
X177111666Y-107496559D01*
X177111666Y-107496559D02*
X177064047Y-107401321D01*
X177064047Y-107401321D02*
X177016428Y-107353702D01*
X177016428Y-107353702D02*
X176921190Y-107306082D01*
X176921190Y-107306082D02*
X176683095Y-107306082D01*
X176683095Y-107306082D02*
X176587857Y-107353702D01*
X176587857Y-107353702D02*
X176540238Y-107401321D01*
X181468808Y-87354819D02*
X181230713Y-88354819D01*
X181230713Y-88354819D02*
X181040237Y-87640533D01*
X181040237Y-87640533D02*
X180849761Y-88354819D01*
X180849761Y-88354819D02*
X180611666Y-87354819D01*
X180230713Y-88354819D02*
X180230713Y-87354819D01*
X179754523Y-88354819D02*
X179754523Y-87354819D01*
X179754523Y-87354819D02*
X179183095Y-88354819D01*
X179183095Y-88354819D02*
X179183095Y-87354819D01*
X178706904Y-88354819D02*
X178706904Y-87354819D01*
X178706904Y-87354819D02*
X178468809Y-87354819D01*
X178468809Y-87354819D02*
X178325952Y-87402438D01*
X178325952Y-87402438D02*
X178230714Y-87497676D01*
X178230714Y-87497676D02*
X178183095Y-87592914D01*
X178183095Y-87592914D02*
X178135476Y-87783390D01*
X178135476Y-87783390D02*
X178135476Y-87926247D01*
X178135476Y-87926247D02*
X178183095Y-88116723D01*
X178183095Y-88116723D02*
X178230714Y-88211961D01*
X178230714Y-88211961D02*
X178325952Y-88307200D01*
X178325952Y-88307200D02*
X178468809Y-88354819D01*
X178468809Y-88354819D02*
X178706904Y-88354819D01*
X177945000Y-88450057D02*
X177183095Y-88450057D01*
X176992618Y-88307200D02*
X176849761Y-88354819D01*
X176849761Y-88354819D02*
X176611666Y-88354819D01*
X176611666Y-88354819D02*
X176516428Y-88307200D01*
X176516428Y-88307200D02*
X176468809Y-88259580D01*
X176468809Y-88259580D02*
X176421190Y-88164342D01*
X176421190Y-88164342D02*
X176421190Y-88069104D01*
X176421190Y-88069104D02*
X176468809Y-87973866D01*
X176468809Y-87973866D02*
X176516428Y-87926247D01*
X176516428Y-87926247D02*
X176611666Y-87878628D01*
X176611666Y-87878628D02*
X176802142Y-87831009D01*
X176802142Y-87831009D02*
X176897380Y-87783390D01*
X176897380Y-87783390D02*
X176944999Y-87735771D01*
X176944999Y-87735771D02*
X176992618Y-87640533D01*
X176992618Y-87640533D02*
X176992618Y-87545295D01*
X176992618Y-87545295D02*
X176944999Y-87450057D01*
X176944999Y-87450057D02*
X176897380Y-87402438D01*
X176897380Y-87402438D02*
X176802142Y-87354819D01*
X176802142Y-87354819D02*
X176564047Y-87354819D01*
X176564047Y-87354819D02*
X176421190Y-87402438D01*
X175992618Y-87831009D02*
X175659285Y-87831009D01*
X175516428Y-88354819D02*
X175992618Y-88354819D01*
X175992618Y-88354819D02*
X175992618Y-87354819D01*
X175992618Y-87354819D02*
X175516428Y-87354819D01*
X175087856Y-88354819D02*
X175087856Y-87354819D01*
X175087856Y-87354819D02*
X174516428Y-88354819D01*
X174516428Y-88354819D02*
X174516428Y-87354819D01*
X174087856Y-88307200D02*
X173944999Y-88354819D01*
X173944999Y-88354819D02*
X173706904Y-88354819D01*
X173706904Y-88354819D02*
X173611666Y-88307200D01*
X173611666Y-88307200D02*
X173564047Y-88259580D01*
X173564047Y-88259580D02*
X173516428Y-88164342D01*
X173516428Y-88164342D02*
X173516428Y-88069104D01*
X173516428Y-88069104D02*
X173564047Y-87973866D01*
X173564047Y-87973866D02*
X173611666Y-87926247D01*
X173611666Y-87926247D02*
X173706904Y-87878628D01*
X173706904Y-87878628D02*
X173897380Y-87831009D01*
X173897380Y-87831009D02*
X173992618Y-87783390D01*
X173992618Y-87783390D02*
X174040237Y-87735771D01*
X174040237Y-87735771D02*
X174087856Y-87640533D01*
X174087856Y-87640533D02*
X174087856Y-87545295D01*
X174087856Y-87545295D02*
X174040237Y-87450057D01*
X174040237Y-87450057D02*
X173992618Y-87402438D01*
X173992618Y-87402438D02*
X173897380Y-87354819D01*
X173897380Y-87354819D02*
X173659285Y-87354819D01*
X173659285Y-87354819D02*
X173516428Y-87402438D01*
X172897380Y-87354819D02*
X172706904Y-87354819D01*
X172706904Y-87354819D02*
X172611666Y-87402438D01*
X172611666Y-87402438D02*
X172516428Y-87497676D01*
X172516428Y-87497676D02*
X172468809Y-87688152D01*
X172468809Y-87688152D02*
X172468809Y-88021485D01*
X172468809Y-88021485D02*
X172516428Y-88211961D01*
X172516428Y-88211961D02*
X172611666Y-88307200D01*
X172611666Y-88307200D02*
X172706904Y-88354819D01*
X172706904Y-88354819D02*
X172897380Y-88354819D01*
X172897380Y-88354819D02*
X172992618Y-88307200D01*
X172992618Y-88307200D02*
X173087856Y-88211961D01*
X173087856Y-88211961D02*
X173135475Y-88021485D01*
X173135475Y-88021485D02*
X173135475Y-87688152D01*
X173135475Y-87688152D02*
X173087856Y-87497676D01*
X173087856Y-87497676D02*
X172992618Y-87402438D01*
X172992618Y-87402438D02*
X172897380Y-87354819D01*
X171468809Y-88354819D02*
X171802142Y-87878628D01*
X172040237Y-88354819D02*
X172040237Y-87354819D01*
X172040237Y-87354819D02*
X171659285Y-87354819D01*
X171659285Y-87354819D02*
X171564047Y-87402438D01*
X171564047Y-87402438D02*
X171516428Y-87450057D01*
X171516428Y-87450057D02*
X171468809Y-87545295D01*
X171468809Y-87545295D02*
X171468809Y-87688152D01*
X171468809Y-87688152D02*
X171516428Y-87783390D01*
X171516428Y-87783390D02*
X171564047Y-87831009D01*
X171564047Y-87831009D02*
X171659285Y-87878628D01*
X171659285Y-87878628D02*
X172040237Y-87878628D01*
D11*
%TO.C,R3*%
X132672064Y-93835000D02*
X132217936Y-93835000D01*
X132672064Y-92365000D02*
X132217936Y-92365000D01*
D12*
%TO.C,U1*%
X158844998Y-74404960D02*
X158844998Y-71550051D01*
X158844998Y-79484960D02*
X158844998Y-76315040D01*
X158844998Y-84564960D02*
X158844998Y-81395040D01*
X158844998Y-89644960D02*
X158844998Y-86475040D01*
X158844998Y-94724960D02*
X158844998Y-91555040D01*
X158844998Y-99804960D02*
X158844998Y-96635040D01*
X158844998Y-104884960D02*
X158844998Y-101715040D01*
X158844998Y-109964960D02*
X158844998Y-106795040D01*
X158844998Y-115044960D02*
X158844998Y-111875040D01*
X158844998Y-120124960D02*
X158844998Y-116955040D01*
X158844998Y-122349949D02*
X158844998Y-122035040D01*
X154044997Y-122349949D02*
X158844998Y-122349949D01*
X158844998Y-71550051D02*
X154044997Y-71550051D01*
X154044997Y-71550051D02*
X154044997Y-71864960D01*
X154044997Y-73775040D02*
X154044997Y-76944960D01*
X154044997Y-78855040D02*
X154044997Y-82024960D01*
X154044997Y-83935040D02*
X154044997Y-87104960D01*
X154044997Y-89015040D02*
X154044997Y-92184960D01*
X154044997Y-94095040D02*
X154044997Y-97264960D01*
X154044997Y-99175040D02*
X154044997Y-102344960D01*
X154044997Y-104255040D02*
X154044997Y-107424960D01*
X154044997Y-109335040D02*
X154044997Y-112504960D01*
X154044997Y-114415040D02*
X154044997Y-117584960D01*
X154044997Y-119495040D02*
X154044997Y-122349949D01*
X141064998Y-74404960D02*
X141064998Y-71550051D01*
X141064998Y-79484960D02*
X141064998Y-76315040D01*
X141064998Y-84564960D02*
X141064998Y-81395040D01*
X141064998Y-89644960D02*
X141064998Y-86475040D01*
X141064998Y-94724960D02*
X141064998Y-91555040D01*
X141064998Y-99804960D02*
X141064998Y-96635040D01*
X141064998Y-104884960D02*
X141064998Y-101715040D01*
X141064998Y-109964960D02*
X141064998Y-106795040D01*
X141064998Y-115044960D02*
X141064998Y-111875040D01*
X141064998Y-120124960D02*
X141064998Y-116955040D01*
X141064998Y-122349949D02*
X141064998Y-122035040D01*
X136264997Y-122349949D02*
X141064998Y-122349949D01*
X136864998Y-71296051D02*
X137499998Y-70026050D01*
X136229998Y-70026050D02*
X136864998Y-71296051D01*
X141064998Y-71550051D02*
X136264997Y-71550051D01*
X136264997Y-71550051D02*
X136264997Y-71864960D01*
X136264997Y-73775040D02*
X136264997Y-76944960D01*
X136264997Y-78855040D02*
X136264997Y-82024960D01*
X136264997Y-83935040D02*
X136264997Y-87104960D01*
X136264997Y-89015040D02*
X136264997Y-92184960D01*
X136264997Y-94095040D02*
X136264997Y-97264960D01*
X136264997Y-99175040D02*
X136264997Y-102344960D01*
X136264997Y-104255040D02*
X136264997Y-107424960D01*
X136264997Y-109335040D02*
X136264997Y-112504960D01*
X136264997Y-114415040D02*
X136264997Y-117584960D01*
X136264997Y-119495040D02*
X136264997Y-122349949D01*
X137499998Y-70026050D02*
X136229998Y-70026050D01*
D11*
%TO.C,R2*%
X132672064Y-87365000D02*
X132217936Y-87365000D01*
X132672064Y-88835000D02*
X132217936Y-88835000D01*
D13*
%TO.C,J7*%
X133541001Y-117318661D02*
X133541001Y-114523000D01*
X133541001Y-121787399D02*
X133541001Y-120981341D01*
X121349001Y-121787399D02*
X133541001Y-121787399D01*
X133541001Y-114523000D02*
X131273040Y-114523000D01*
X129616960Y-114523000D02*
X129273042Y-114523000D01*
X127616962Y-114523000D02*
X127273040Y-114523000D01*
X125616960Y-114523000D02*
X125273042Y-114523000D01*
X123616962Y-114523000D02*
X121349001Y-114523000D01*
X121349001Y-114523000D02*
X121349001Y-117318661D01*
X121349001Y-120981341D02*
X121349001Y-121787399D01*
D14*
X121095001Y-116900000D02*
G75*
G02*
X120333001Y-116900000I-381000J0D01*
G01*
X120333001Y-116900000D02*
G75*
G02*
X121095001Y-116900000I381000J0D01*
G01*
D11*
%TO.C,R1*%
X132672064Y-86235000D02*
X132217936Y-86235000D01*
X132672064Y-84765000D02*
X132217936Y-84765000D01*
D13*
%TO.C,J4*%
X126320800Y-74325200D02*
X126320800Y-75312559D01*
X127282060Y-74325200D02*
X126320800Y-74325200D01*
X127625441Y-77474800D02*
X131264559Y-77474800D01*
X132569200Y-74325200D02*
X131607940Y-74325200D01*
X132569200Y-75312559D02*
X132569200Y-74325200D01*
D14*
X126066800Y-74017799D02*
G75*
G02*
X125304800Y-74017799I-381000J0D01*
G01*
X125304800Y-74017799D02*
G75*
G02*
X126066800Y-74017799I381000J0D01*
G01*
D15*
%TO.C,U2*%
X139445000Y-123900000D02*
X155445000Y-123900000D01*
X155445000Y-139900000D02*
X139445000Y-139900000D01*
D16*
X157070000Y-124915000D02*
G75*
G02*
X156870000Y-124915000I-100000J0D01*
G01*
X156870000Y-124915000D02*
G75*
G02*
X157070000Y-124915000I100000J0D01*
G01*
D11*
%TO.C,D1*%
X161935000Y-73750000D02*
X161935000Y-77050000D01*
X167445000Y-77050000D02*
X161935000Y-77050000D01*
X167445000Y-73750000D02*
X161935000Y-73750000D01*
%TO.C,C1*%
X135210000Y-132123752D02*
X135210000Y-131601248D01*
X136680000Y-132123752D02*
X136680000Y-131601248D01*
D13*
%TO.C,J2*%
X123320800Y-136325200D02*
X123320800Y-137312559D01*
X124282060Y-136325200D02*
X123320800Y-136325200D01*
X124625441Y-139474800D02*
X128264559Y-139474800D01*
X129569200Y-136325200D02*
X128607940Y-136325200D01*
X129569200Y-137312559D02*
X129569200Y-136325200D01*
D14*
X123066800Y-136017799D02*
G75*
G02*
X122304800Y-136017799I-381000J0D01*
G01*
X122304800Y-136017799D02*
G75*
G02*
X123066800Y-136017799I381000J0D01*
G01*
D11*
%TO.C,R4*%
X132672064Y-96335000D02*
X132217936Y-96335000D01*
X132672064Y-94865000D02*
X132217936Y-94865000D01*
%TO.C,C3*%
X117783748Y-112465000D02*
X118306252Y-112465000D01*
X117783748Y-113935000D02*
X118306252Y-113935000D01*
%TO.C,R8*%
X166072064Y-113035000D02*
X165617936Y-113035000D01*
X166072064Y-111565000D02*
X165617936Y-111565000D01*
%TO.C,R6*%
X160710000Y-94927064D02*
X160710000Y-94472936D01*
X162180000Y-94927064D02*
X162180000Y-94472936D01*
%TO.C,R7*%
X132672064Y-81635000D02*
X132217936Y-81635000D01*
X132672064Y-80165000D02*
X132217936Y-80165000D01*
%TO.C,R5*%
X162180000Y-101672936D02*
X162180000Y-102127064D01*
X160710000Y-101672936D02*
X160710000Y-102127064D01*
D12*
%TO.C,J3*%
X138945000Y-143400000D02*
X135945000Y-143400000D01*
D11*
%TO.C,C2*%
X176310000Y-113661252D02*
X176310000Y-113138748D01*
X177780000Y-113661252D02*
X177780000Y-113138748D01*
D13*
%TO.C,J1*%
X165320800Y-136325200D02*
X165320800Y-137312559D01*
X166282060Y-136325200D02*
X165320800Y-136325200D01*
X166625441Y-139474800D02*
X170264559Y-139474800D01*
X171569200Y-136325200D02*
X170607940Y-136325200D01*
X171569200Y-137312559D02*
X171569200Y-136325200D01*
D14*
X165066800Y-136017799D02*
G75*
G02*
X164304800Y-136017799I-381000J0D01*
G01*
X164304800Y-136017799D02*
G75*
G02*
X165066800Y-136017799I381000J0D01*
G01*
D13*
%TO.C,J8*%
X173940999Y-118068660D02*
X173940999Y-115272999D01*
X173940999Y-122537398D02*
X173940999Y-121731340D01*
X161748999Y-122537398D02*
X173940999Y-122537398D01*
X173940999Y-115272999D02*
X171673038Y-115272999D01*
X170016958Y-115272999D02*
X169673040Y-115272999D01*
X168016960Y-115272999D02*
X167673038Y-115272999D01*
X166016958Y-115272999D02*
X165673040Y-115272999D01*
X164016960Y-115272999D02*
X161748999Y-115272999D01*
X161748999Y-115272999D02*
X161748999Y-118068660D01*
X161748999Y-121731340D02*
X161748999Y-122537398D01*
D14*
X161494999Y-117649999D02*
G75*
G02*
X160732999Y-117649999I-381000J0D01*
G01*
X160732999Y-117649999D02*
G75*
G02*
X161494999Y-117649999I381000J0D01*
G01*
D13*
%TO.C,J6*%
X123652000Y-109767902D02*
X123652000Y-90032100D01*
X123652000Y-90032100D02*
X123171940Y-90032100D01*
X122333740Y-109767902D02*
X123652000Y-109767902D01*
X113718060Y-90032100D02*
X113238000Y-90032100D01*
X113238000Y-109767902D02*
X114556260Y-109767902D01*
X113238000Y-90032100D02*
X113238000Y-109767902D01*
D14*
X111841000Y-107760902D02*
G75*
G02*
X111079000Y-107760902I-381000J0D01*
G01*
X111079000Y-107760902D02*
G75*
G02*
X111841000Y-107760902I381000J0D01*
G01*
D13*
%TO.C,J5*%
X181652000Y-109767902D02*
X181652000Y-90032100D01*
X181652000Y-90032100D02*
X181171940Y-90032100D01*
X180333740Y-109767902D02*
X181652000Y-109767902D01*
X171718060Y-90032100D02*
X171238000Y-90032100D01*
X171238000Y-109767902D02*
X172556260Y-109767902D01*
X171238000Y-90032100D02*
X171238000Y-109767902D01*
D14*
X169841000Y-107760902D02*
G75*
G02*
X169079000Y-107760902I-381000J0D01*
G01*
X169079000Y-107760902D02*
G75*
G02*
X169841000Y-107760902I381000J0D01*
G01*
%TD*%
M02*
