%TF.GenerationSoftware,KiCad,Pcbnew,8.0.1*%
%TF.CreationDate,2024-04-03T12:02:44-06:00*%
%TF.ProjectId,weather_station_pico,77656174-6865-4725-9f73-746174696f6e,rev?*%
%TF.SameCoordinates,Original*%
%TF.FileFunction,Copper,L1,Top*%
%TF.FilePolarity,Positive*%
%FSLAX46Y46*%
G04 Gerber Fmt 4.6, Leading zero omitted, Abs format (unit mm)*
G04 Created by KiCad (PCBNEW 8.0.1) date 2024-04-03 12:02:44*
%MOMM*%
%LPD*%
G01*
G04 APERTURE LIST*
G04 Aperture macros list*
%AMRoundRect*
0 Rectangle with rounded corners*
0 $1 Rounding radius*
0 $2 $3 $4 $5 $6 $7 $8 $9 X,Y pos of 4 corners*
0 Add a 4 corners polygon primitive as box body*
4,1,4,$2,$3,$4,$5,$6,$7,$8,$9,$2,$3,0*
0 Add four circle primitives for the rounded corners*
1,1,$1+$1,$2,$3*
1,1,$1+$1,$4,$5*
1,1,$1+$1,$6,$7*
1,1,$1+$1,$8,$9*
0 Add four rect primitives between the rounded corners*
20,1,$1+$1,$2,$3,$4,$5,0*
20,1,$1+$1,$4,$5,$6,$7,0*
20,1,$1+$1,$6,$7,$8,$9,0*
20,1,$1+$1,$8,$9,$2,$3,0*%
G04 Aperture macros list end*
%TA.AperFunction,ComponentPad*%
%ADD10R,1.700000X1.700000*%
%TD*%
%TA.AperFunction,ComponentPad*%
%ADD11O,1.700000X1.700000*%
%TD*%
%TA.AperFunction,SMDPad,CuDef*%
%ADD12RoundRect,0.250000X-0.337500X-0.475000X0.337500X-0.475000X0.337500X0.475000X-0.337500X0.475000X0*%
%TD*%
%TA.AperFunction,SMDPad,CuDef*%
%ADD13RoundRect,0.025600X-0.134400X0.594400X-0.134400X-0.594400X0.134400X-0.594400X0.134400X0.594400X0*%
%TD*%
%TA.AperFunction,SMDPad,CuDef*%
%ADD14R,1.000000X1.050000*%
%TD*%
%TA.AperFunction,SMDPad,CuDef*%
%ADD15R,1.050000X2.200000*%
%TD*%
%TA.AperFunction,SMDPad,CuDef*%
%ADD16RoundRect,0.250000X0.450000X-0.350000X0.450000X0.350000X-0.450000X0.350000X-0.450000X-0.350000X0*%
%TD*%
%TA.AperFunction,ViaPad*%
%ADD17C,1.500000*%
%TD*%
%TA.AperFunction,ViaPad*%
%ADD18C,0.800000*%
%TD*%
%TA.AperFunction,Conductor*%
%ADD19C,1.000000*%
%TD*%
%TA.AperFunction,Conductor*%
%ADD20C,0.250000*%
%TD*%
%TA.AperFunction,Conductor*%
%ADD21C,0.500000*%
%TD*%
%TA.AperFunction,Conductor*%
%ADD22C,0.300000*%
%TD*%
G04 APERTURE END LIST*
D10*
%TO.P,J9,1,Pin_1*%
%TO.N,/Battery Charger/Load+*%
X174545000Y-75900000D03*
D11*
%TO.P,J9,2,Pin_2*%
%TO.N,GND*%
X174545000Y-78440000D03*
%TO.P,J9,3,Pin_3*%
X177085000Y-75900000D03*
%TO.P,J9,4,Pin_4*%
%TO.N,/Battery Charger/SET*%
X177085000Y-78440000D03*
%TO.P,J9,5,Pin_5*%
%TO.N,/Battery Charger/~{FAULT}*%
X179625000Y-75900000D03*
%TO.P,J9,6,Pin_6*%
%TO.N,/Battery Charger/~{CHRG}*%
X179625000Y-78440000D03*
%TD*%
D12*
%TO.P,C4,1*%
%TO.N,+3.3V*%
X101370000Y-106900000D03*
%TO.P,C4,2*%
%TO.N,GND*%
X103445000Y-106900000D03*
%TD*%
D13*
%TO.P,U3,1,SCL*%
%TO.N,/I2C0_SCL*%
X105095000Y-102155000D03*
%TO.P,U3,2,SDA*%
%TO.N,/I2C0_SDA*%
X104445000Y-102155000D03*
%TO.P,U3,3,VDD*%
%TO.N,+3.3V*%
X103795000Y-102155000D03*
%TO.P,U3,4,INT*%
%TO.N,/LIGHT_INTR*%
X103795000Y-103645000D03*
%TO.P,U3,5*%
%TO.N,N/C*%
X104445000Y-103645000D03*
%TO.P,U3,6,GND*%
%TO.N,GND*%
X105095000Y-103645000D03*
%TD*%
D14*
%TO.P,J3,1*%
%TO.N,Net-(U2-ANT)*%
X138945000Y-140075000D03*
D15*
%TO.P,J3,2*%
%TO.N,GND*%
X140420000Y-141600000D03*
%TO.P,J3,3*%
X137470000Y-141600000D03*
%TD*%
D16*
%TO.P,R9,1*%
%TO.N,+3.3V*%
X106745000Y-108100000D03*
%TO.P,R9,2*%
%TO.N,/LIGHT_INTR*%
X106745000Y-106100000D03*
%TD*%
D17*
%TO.N,GND*%
X182545000Y-81400000D03*
X177045000Y-73400000D03*
D18*
X139145000Y-114200000D03*
X136645000Y-112700000D03*
X139045000Y-111100000D03*
X135545000Y-101900000D03*
X135545000Y-98200000D03*
X132845000Y-100000000D03*
X138145000Y-100000000D03*
X153345000Y-98200000D03*
X150645000Y-100100000D03*
X155945000Y-100000000D03*
X135545000Y-76500000D03*
X135545000Y-72800000D03*
X132745000Y-74700000D03*
X138345000Y-74700000D03*
X153445000Y-76900000D03*
X153345000Y-72300000D03*
X155845000Y-74700000D03*
X111645000Y-81300000D03*
X102545000Y-104900000D03*
X129545000Y-138300000D03*
X113945000Y-115800000D03*
X121245000Y-110700000D03*
X115145000Y-107300000D03*
X103845000Y-97800000D03*
X105545000Y-95900000D03*
X117245000Y-90000000D03*
X114145000Y-80000000D03*
X172845000Y-111000000D03*
X179445000Y-116400000D03*
X179545000Y-107200000D03*
X185545000Y-110900000D03*
X153945000Y-112800000D03*
X159745000Y-112800000D03*
X156945000Y-110900000D03*
X132445000Y-90000000D03*
X125445000Y-82700000D03*
%TO.N,/I2C1_SDA*%
X127845000Y-131900000D03*
X130445000Y-90500000D03*
%TO.N,/I2C1_SCL*%
X126845000Y-133100000D03*
X126145000Y-91900000D03*
%TO.N,+3.3V*%
X128745000Y-93900000D03*
X101445000Y-108600000D03*
X106745000Y-109600000D03*
X128745000Y-105900000D03*
X128745000Y-124400000D03*
X128745000Y-127100000D03*
%TO.N,Net-(U2-ANT)*%
X138945000Y-138800000D03*
%TO.N,GND*%
X116445000Y-98700000D03*
%TO.N,+3.3V*%
X128745000Y-90100000D03*
X128745000Y-87000000D03*
X128745000Y-129200000D03*
%TO.N,/I2C0_SDA*%
X118145000Y-129200000D03*
X118145000Y-121200000D03*
%TO.N,/I2C0_SCL*%
X121945000Y-131100000D03*
X121945000Y-119400000D03*
%TO.N,/I2C0_SDA*%
X109945000Y-117300000D03*
%TO.N,/I2C0_SCL*%
X108445000Y-114200000D03*
%TO.N,/I2C0_SDA*%
X104345000Y-100200000D03*
X122045000Y-87800000D03*
X121045000Y-100200000D03*
%TO.N,/I2C0_SCL*%
X106545000Y-102200000D03*
X124045000Y-102200000D03*
X124045000Y-87800000D03*
%TO.N,+3.3V*%
X110645000Y-86400000D03*
X111345000Y-77500000D03*
X128745000Y-76500000D03*
X130745000Y-64400000D03*
X150245000Y-64400000D03*
X150345000Y-79800000D03*
%TO.N,/ONE_WIRE*%
X142545000Y-91200000D03*
X142545000Y-115300000D03*
%TO.N,/RAIN_COUNT*%
X112545000Y-86800000D03*
X112545000Y-78400000D03*
%TO.N,/LIGHT_INTR*%
X106745000Y-103700000D03*
X132645000Y-103700000D03*
X132645000Y-117800000D03*
%TO.N,/RFM69 Radio/RFM69_MOSI*%
X151145000Y-127300000D03*
X151045000Y-107800000D03*
%TO.N,/RFM69 Radio/RFM69_INTR*%
X144645000Y-102700000D03*
X144445000Y-127300000D03*
%TO.N,/RFM69 Radio/RFM69_RESET*%
X145845000Y-133300000D03*
X145845000Y-105200000D03*
%TO.N,/RFM69 Radio/RFM69_CLK*%
X147445000Y-110200000D03*
X147445000Y-129300000D03*
%TO.N,/RFM69 Radio/RFM69_CS*%
X149145000Y-115300000D03*
X149145000Y-131300000D03*
%TO.N,/RFM69 Radio/RFM69_MISO*%
X150345000Y-117900000D03*
X150445000Y-125100000D03*
%TO.N,/WINDSPEED_TGR*%
X165345000Y-104000000D03*
X164685000Y-92440000D03*
%TO.N,+3.3V*%
X171445000Y-97900000D03*
X171445000Y-100400000D03*
X171445000Y-94500000D03*
%TD*%
D19*
%TO.N,GND*%
X177505000Y-81400000D02*
X182545000Y-81400000D01*
X174545000Y-78440000D02*
X177505000Y-81400000D01*
D20*
%TO.N,Net-(U2-ANT)*%
X138945000Y-140075000D02*
X138945000Y-138800000D01*
%TO.N,/I2C1_SDA*%
X130445000Y-129300000D02*
X127845000Y-131900000D01*
X130445000Y-90500000D02*
X130445000Y-129300000D01*
%TO.N,/I2C1_SCL*%
X126845000Y-118900000D02*
X126845000Y-133100000D01*
X122645000Y-114700000D02*
X126845000Y-118900000D01*
X122645000Y-109400000D02*
X122645000Y-109600000D01*
X126145000Y-105900000D02*
X122645000Y-109400000D01*
X126145000Y-91900000D02*
X126145000Y-105900000D01*
X122645000Y-109600000D02*
X122645000Y-114700000D01*
D21*
%TO.N,+3.3V*%
X128745000Y-93900000D02*
X128745000Y-105900000D01*
X128745000Y-90100000D02*
X128745000Y-93900000D01*
X101445000Y-106975000D02*
X101370000Y-106900000D01*
X101445000Y-108600000D02*
X101445000Y-106975000D01*
X106745000Y-109600000D02*
X106745000Y-108100000D01*
X128745000Y-105900000D02*
X128745000Y-124400000D01*
X128745000Y-124400000D02*
X128745000Y-127100000D01*
X128745000Y-127100000D02*
X128745000Y-129200000D01*
X128745000Y-87000000D02*
X128745000Y-90100000D01*
X128745000Y-76500000D02*
X128745000Y-87000000D01*
D20*
%TO.N,/I2C0_SDA*%
X118145000Y-129200000D02*
X118145000Y-121200000D01*
%TO.N,/I2C0_SCL*%
X121945000Y-119400000D02*
X121945000Y-131100000D01*
X108445000Y-104100000D02*
X106545000Y-102200000D01*
X108445000Y-114200000D02*
X108445000Y-104100000D01*
%TO.N,/I2C0_SDA*%
X109945000Y-103400000D02*
X109945000Y-117300000D01*
X106745000Y-100200000D02*
X109945000Y-103400000D01*
X104345000Y-100200000D02*
X106745000Y-100200000D01*
%TO.N,/LIGHT_INTR*%
X105045000Y-106100000D02*
X106745000Y-106100000D01*
X103795000Y-104850000D02*
X105045000Y-106100000D01*
X103795000Y-103645000D02*
X103795000Y-104850000D01*
X106745000Y-103700000D02*
X106745000Y-106100000D01*
D22*
%TO.N,+3.3V*%
X102390000Y-102155000D02*
X103795000Y-102155000D01*
X101370000Y-106900000D02*
X101370000Y-103175000D01*
X101370000Y-103175000D02*
X102390000Y-102155000D01*
D20*
%TO.N,/I2C0_SDA*%
X104445000Y-100300000D02*
X104445000Y-102155000D01*
X104345000Y-100200000D02*
X104445000Y-100300000D01*
X122045000Y-87800000D02*
X121045000Y-88800000D01*
X121045000Y-88800000D02*
X121045000Y-100200000D01*
%TO.N,/I2C0_SCL*%
X124045000Y-87800000D02*
X124045000Y-102200000D01*
X106500000Y-102155000D02*
X105095000Y-102155000D01*
X106545000Y-102200000D02*
X106500000Y-102155000D01*
D21*
%TO.N,+3.3V*%
X111345000Y-77500000D02*
X110645000Y-78200000D01*
X110645000Y-78200000D02*
X110645000Y-86400000D01*
X130745000Y-74500000D02*
X128745000Y-76500000D01*
X130745000Y-64400000D02*
X130745000Y-74500000D01*
X150345000Y-64500000D02*
X150245000Y-64400000D01*
X150345000Y-79800000D02*
X150345000Y-64500000D01*
D20*
%TO.N,/RAIN_COUNT*%
X112545000Y-78400000D02*
X112545000Y-86800000D01*
%TO.N,/ONE_WIRE*%
X142545000Y-115000000D02*
X142545000Y-91200000D01*
X142545000Y-115300000D02*
X142545000Y-115000000D01*
%TO.N,/LIGHT_INTR*%
X132645000Y-117800000D02*
X132645000Y-103700000D01*
%TO.N,/RFM69 Radio/RFM69_MOSI*%
X151170000Y-107925000D02*
X151170000Y-127275000D01*
X151170000Y-127275000D02*
X151145000Y-127300000D01*
X151045000Y-107800000D02*
X151170000Y-107925000D01*
%TO.N,/RFM69 Radio/RFM69_INTR*%
X144645000Y-102700000D02*
X144645000Y-127100000D01*
X144645000Y-127100000D02*
X144445000Y-127300000D01*
%TO.N,/RFM69 Radio/RFM69_RESET*%
X145845000Y-105200000D02*
X145845000Y-133300000D01*
%TO.N,/RFM69 Radio/RFM69_CLK*%
X147445000Y-110200000D02*
X147445000Y-129300000D01*
%TO.N,/RFM69 Radio/RFM69_CS*%
X149145000Y-115800000D02*
X149145000Y-131300000D01*
X149145000Y-115300000D02*
X149145000Y-115800000D01*
%TO.N,/RFM69 Radio/RFM69_MISO*%
X150345000Y-125000000D02*
X150445000Y-125100000D01*
X150345000Y-117900000D02*
X150345000Y-125000000D01*
%TO.N,/WINDSPEED_TGR*%
X165345000Y-93100000D02*
X165345000Y-104000000D01*
X164685000Y-92440000D02*
X165345000Y-93100000D01*
D21*
%TO.N,+3.3V*%
X171445000Y-97900000D02*
X171445000Y-100400000D01*
X171445000Y-94500000D02*
X171445000Y-97900000D01*
%TD*%
%TA.AperFunction,Conductor*%
%TO.N,GND*%
G36*
X111574055Y-78434817D02*
G01*
X111629991Y-78476686D01*
X111654048Y-78538038D01*
X111659326Y-78588256D01*
X111659327Y-78588259D01*
X111717818Y-78768277D01*
X111717821Y-78768284D01*
X111812467Y-78932216D01*
X111819476Y-78940000D01*
X111887650Y-79015715D01*
X111917880Y-79078706D01*
X111919500Y-79098687D01*
X111919500Y-86101312D01*
X111899815Y-86168351D01*
X111887650Y-86184284D01*
X111812467Y-86267783D01*
X111769871Y-86341562D01*
X111719304Y-86389777D01*
X111650696Y-86402999D01*
X111585832Y-86377031D01*
X111545304Y-86320117D01*
X111539164Y-86292529D01*
X111530674Y-86211744D01*
X111472179Y-86031716D01*
X111412113Y-85927677D01*
X111395500Y-85865677D01*
X111395500Y-78562229D01*
X111415185Y-78495190D01*
X111431815Y-78474552D01*
X111435299Y-78471067D01*
X111443043Y-78463323D01*
X111504364Y-78429836D01*
X111574055Y-78434817D01*
G37*
%TD.AperFunction*%
%TA.AperFunction,Conductor*%
G36*
X148826564Y-58917418D02*
G01*
X148830103Y-58917520D01*
X150208795Y-58977162D01*
X150212245Y-58977361D01*
X151588645Y-59076709D01*
X151592118Y-59077010D01*
X152965111Y-59215985D01*
X152968577Y-59216387D01*
X154337009Y-59394872D01*
X154340457Y-59395373D01*
X155703108Y-59613210D01*
X155706560Y-59613813D01*
X157062388Y-59870831D01*
X157065816Y-59871532D01*
X158413706Y-60167523D01*
X158417083Y-60168316D01*
X159755810Y-60503009D01*
X159759236Y-60503917D01*
X161087797Y-60877061D01*
X161091203Y-60878071D01*
X162408424Y-61289335D01*
X162411754Y-61290427D01*
X163716639Y-61739501D01*
X163719935Y-61740689D01*
X164596474Y-62070895D01*
X165011267Y-62227155D01*
X165014593Y-62228463D01*
X166291354Y-62751934D01*
X166294636Y-62753335D01*
X167555798Y-63313389D01*
X167558963Y-63314848D01*
X168803547Y-63911055D01*
X168806719Y-63912632D01*
X170033495Y-64544401D01*
X170036603Y-64546058D01*
X170987426Y-65070921D01*
X171244703Y-65212940D01*
X171247794Y-65214705D01*
X172436199Y-65916139D01*
X172439196Y-65917967D01*
X173606862Y-66653338D01*
X173609850Y-66655281D01*
X174691981Y-67381161D01*
X174755805Y-67423973D01*
X174758736Y-67426000D01*
X175132674Y-67692773D01*
X175882109Y-68227430D01*
X175884988Y-68229548D01*
X176894008Y-68994214D01*
X176984736Y-69062970D01*
X176987553Y-69065169D01*
X178062859Y-69929965D01*
X178065612Y-69932245D01*
X179115556Y-70827674D01*
X179118241Y-70830032D01*
X180141907Y-71755313D01*
X180144524Y-71757747D01*
X181141150Y-72712191D01*
X181143695Y-72714700D01*
X181618123Y-73196014D01*
X182112391Y-73697457D01*
X182114815Y-73699988D01*
X182976925Y-74626567D01*
X183054807Y-74710273D01*
X183057197Y-74712917D01*
X183334665Y-75028926D01*
X183967653Y-75749838D01*
X183969972Y-75752557D01*
X184850168Y-76815282D01*
X184852408Y-76818067D01*
X185145767Y-77193797D01*
X185617340Y-77797783D01*
X185701634Y-77905745D01*
X185703787Y-77908588D01*
X185910733Y-78189999D01*
X186521271Y-79020226D01*
X186523347Y-79023135D01*
X187001280Y-79713901D01*
X187191105Y-79988259D01*
X187308490Y-80157917D01*
X187310477Y-80160879D01*
X187661279Y-80700500D01*
X188062595Y-81317822D01*
X188064499Y-81320846D01*
X188782940Y-82498945D01*
X188784757Y-82502023D01*
X189468960Y-83700354D01*
X189470687Y-83703482D01*
X190120085Y-84921058D01*
X190121721Y-84924236D01*
X190735741Y-86159978D01*
X190737284Y-86163200D01*
X191293362Y-87368284D01*
X191315452Y-87416154D01*
X191316870Y-87419346D01*
X191858723Y-88688518D01*
X191860061Y-88691783D01*
X192365086Y-89975972D01*
X192366346Y-89979317D01*
X192834142Y-91277500D01*
X192835305Y-91280879D01*
X193265504Y-92592024D01*
X193266569Y-92595436D01*
X193658790Y-93918384D01*
X193659757Y-93921824D01*
X194013714Y-95255615D01*
X194014580Y-95259082D01*
X194329931Y-96602428D01*
X194330698Y-96605919D01*
X194607220Y-97957865D01*
X194607885Y-97961376D01*
X194845318Y-99320649D01*
X194845883Y-99324178D01*
X195044059Y-100689815D01*
X195044521Y-100693359D01*
X195203254Y-102064091D01*
X195203614Y-102067647D01*
X195322780Y-103442406D01*
X195323037Y-103445970D01*
X195402536Y-104823590D01*
X195402690Y-104827161D01*
X195442462Y-106206685D01*
X195442513Y-106209811D01*
X195444998Y-106899553D01*
X195444998Y-106900447D01*
X195442513Y-107590188D01*
X195442462Y-107593314D01*
X195402690Y-108972838D01*
X195402536Y-108976409D01*
X195323037Y-110354029D01*
X195322780Y-110357593D01*
X195203614Y-111732352D01*
X195203254Y-111735908D01*
X195044521Y-113106640D01*
X195044059Y-113110184D01*
X194845883Y-114475821D01*
X194845318Y-114479350D01*
X194607885Y-115838623D01*
X194607220Y-115842134D01*
X194330698Y-117194080D01*
X194329931Y-117197571D01*
X194014580Y-118540917D01*
X194013714Y-118544384D01*
X193659757Y-119878175D01*
X193658790Y-119881615D01*
X193266569Y-121204563D01*
X193265504Y-121207975D01*
X192835305Y-122519120D01*
X192834142Y-122522499D01*
X192366346Y-123820682D01*
X192365086Y-123824027D01*
X191860061Y-125108216D01*
X191858712Y-125111505D01*
X191316881Y-126380628D01*
X191315452Y-126383845D01*
X190737285Y-127636798D01*
X190735741Y-127640021D01*
X190121721Y-128875763D01*
X190120085Y-128878941D01*
X189470687Y-130096517D01*
X189468960Y-130099645D01*
X188784757Y-131297976D01*
X188782940Y-131301054D01*
X188064499Y-132479153D01*
X188062595Y-132482177D01*
X187310481Y-133639114D01*
X187308490Y-133642082D01*
X186523347Y-134776864D01*
X186521271Y-134779773D01*
X185703792Y-135891405D01*
X185701634Y-135894254D01*
X184852408Y-136981932D01*
X184850168Y-136984717D01*
X183969972Y-138047442D01*
X183967653Y-138050161D01*
X183057203Y-139087075D01*
X183054807Y-139089726D01*
X182114839Y-140099986D01*
X182112367Y-140102567D01*
X181143695Y-141085299D01*
X181141150Y-141087808D01*
X180144524Y-142042252D01*
X180141907Y-142044686D01*
X179118241Y-142969967D01*
X179115556Y-142972325D01*
X178065612Y-143867754D01*
X178062859Y-143870034D01*
X176987553Y-144734830D01*
X176984736Y-144737029D01*
X175884988Y-145570451D01*
X175882109Y-145572569D01*
X174758744Y-146373993D01*
X174755805Y-146376026D01*
X173609858Y-147144713D01*
X173606862Y-147146661D01*
X172439223Y-147882015D01*
X172436172Y-147883876D01*
X171247807Y-148585287D01*
X171244703Y-148587059D01*
X170036625Y-149253929D01*
X170033472Y-149255610D01*
X168806720Y-149887366D01*
X168803520Y-149888957D01*
X167559016Y-150485126D01*
X167555770Y-150486623D01*
X166294640Y-151046662D01*
X166291354Y-151048065D01*
X165014593Y-151571536D01*
X165011267Y-151572844D01*
X163719968Y-152059298D01*
X163716606Y-152060510D01*
X162411786Y-152509561D01*
X162408390Y-152510675D01*
X161091213Y-152921925D01*
X161087787Y-152922941D01*
X159759250Y-153296078D01*
X159755795Y-153296994D01*
X158417134Y-153631671D01*
X158413655Y-153632488D01*
X157065852Y-153928459D01*
X157062351Y-153929175D01*
X155706594Y-154186180D01*
X155703073Y-154186795D01*
X154340501Y-154404619D01*
X154336965Y-154405133D01*
X152968619Y-154583607D01*
X152965069Y-154584018D01*
X151592162Y-154722985D01*
X151588601Y-154723293D01*
X150212304Y-154822634D01*
X150208736Y-154822840D01*
X148830119Y-154882478D01*
X148826547Y-154882581D01*
X147446787Y-154902467D01*
X147443213Y-154902467D01*
X146063452Y-154882581D01*
X146059880Y-154882478D01*
X144681263Y-154822840D01*
X144677695Y-154822634D01*
X143301398Y-154723293D01*
X143297837Y-154722985D01*
X141924930Y-154584018D01*
X141921380Y-154583607D01*
X140553034Y-154405133D01*
X140549498Y-154404619D01*
X139186926Y-154186795D01*
X139183405Y-154186180D01*
X137827648Y-153929175D01*
X137824147Y-153928459D01*
X136476344Y-153632488D01*
X136472865Y-153631671D01*
X135134204Y-153296994D01*
X135130749Y-153296078D01*
X133802212Y-152922941D01*
X133798786Y-152921925D01*
X132481609Y-152510675D01*
X132478213Y-152509561D01*
X131173393Y-152060510D01*
X131170031Y-152059298D01*
X129878732Y-151572844D01*
X129875406Y-151571536D01*
X128598645Y-151048065D01*
X128595359Y-151046662D01*
X127334229Y-150486623D01*
X127331006Y-150485136D01*
X126086479Y-149888957D01*
X126083279Y-149887366D01*
X124856527Y-149255610D01*
X124853374Y-149253929D01*
X123645296Y-148587059D01*
X123642192Y-148585287D01*
X122453827Y-147883876D01*
X122450776Y-147882015D01*
X121283137Y-147146661D01*
X121280141Y-147144713D01*
X120134194Y-146376026D01*
X120131255Y-146373993D01*
X119007890Y-145572569D01*
X119005011Y-145570451D01*
X117905263Y-144737029D01*
X117902446Y-144734830D01*
X116827140Y-143870034D01*
X116824387Y-143867754D01*
X115774443Y-142972325D01*
X115771758Y-142969967D01*
X114748092Y-142044686D01*
X114745475Y-142042252D01*
X114544726Y-141850000D01*
X136445000Y-141850000D01*
X136445000Y-142747844D01*
X136451401Y-142807372D01*
X136451403Y-142807379D01*
X136501645Y-142942086D01*
X136501649Y-142942093D01*
X136587809Y-143057187D01*
X136587812Y-143057190D01*
X136702906Y-143143350D01*
X136702913Y-143143354D01*
X136837620Y-143193596D01*
X136837627Y-143193598D01*
X136897155Y-143199999D01*
X136897172Y-143200000D01*
X137220000Y-143200000D01*
X137220000Y-141850000D01*
X137720000Y-141850000D01*
X137720000Y-143200000D01*
X138042828Y-143200000D01*
X138042844Y-143199999D01*
X138102372Y-143193598D01*
X138102379Y-143193596D01*
X138237086Y-143143354D01*
X138237093Y-143143350D01*
X138352187Y-143057190D01*
X138352190Y-143057187D01*
X138438350Y-142942093D01*
X138438354Y-142942086D01*
X138488596Y-142807379D01*
X138488598Y-142807372D01*
X138494999Y-142747844D01*
X138495000Y-142747827D01*
X138495000Y-141850000D01*
X139395000Y-141850000D01*
X139395000Y-142747844D01*
X139401401Y-142807372D01*
X139401403Y-142807379D01*
X139451645Y-142942086D01*
X139451649Y-142942093D01*
X139537809Y-143057187D01*
X139537812Y-143057190D01*
X139652906Y-143143350D01*
X139652913Y-143143354D01*
X139787620Y-143193596D01*
X139787627Y-143193598D01*
X139847155Y-143199999D01*
X139847172Y-143200000D01*
X140170000Y-143200000D01*
X140170000Y-141850000D01*
X140670000Y-141850000D01*
X140670000Y-143200000D01*
X140992828Y-143200000D01*
X140992844Y-143199999D01*
X141052372Y-143193598D01*
X141052379Y-143193596D01*
X141187086Y-143143354D01*
X141187093Y-143143350D01*
X141302187Y-143057190D01*
X141302190Y-143057187D01*
X141388350Y-142942093D01*
X141388354Y-142942086D01*
X141438596Y-142807379D01*
X141438598Y-142807372D01*
X141444999Y-142747844D01*
X141445000Y-142747827D01*
X141445000Y-141850000D01*
X140670000Y-141850000D01*
X140170000Y-141850000D01*
X139395000Y-141850000D01*
X138495000Y-141850000D01*
X137720000Y-141850000D01*
X137220000Y-141850000D01*
X136445000Y-141850000D01*
X114544726Y-141850000D01*
X114022629Y-141350000D01*
X136445000Y-141350000D01*
X137220000Y-141350000D01*
X137720000Y-141350000D01*
X138495000Y-141350000D01*
X138495000Y-141224499D01*
X138514685Y-141157460D01*
X138567489Y-141111705D01*
X138618996Y-141100499D01*
X139271000Y-141100499D01*
X139338039Y-141120184D01*
X139383794Y-141172988D01*
X139395000Y-141224499D01*
X139395000Y-141350000D01*
X140170000Y-141350000D01*
X140170000Y-140000000D01*
X140670000Y-140000000D01*
X140670000Y-141350000D01*
X141445000Y-141350000D01*
X141445000Y-140452172D01*
X141444999Y-140452155D01*
X141438598Y-140392627D01*
X141438596Y-140392620D01*
X141388354Y-140257913D01*
X141388350Y-140257906D01*
X141302190Y-140142812D01*
X141302187Y-140142809D01*
X141187093Y-140056649D01*
X141187086Y-140056645D01*
X141052379Y-140006403D01*
X141052372Y-140006401D01*
X140992844Y-140000000D01*
X140670000Y-140000000D01*
X140170000Y-140000000D01*
X140069499Y-140000000D01*
X140002460Y-139980315D01*
X139956705Y-139927511D01*
X139945499Y-139876000D01*
X139945499Y-139502129D01*
X139945498Y-139502123D01*
X139945497Y-139502116D01*
X139939091Y-139442517D01*
X139888796Y-139307669D01*
X139888795Y-139307668D01*
X139888793Y-139307664D01*
X139814428Y-139208326D01*
X139790010Y-139142862D01*
X139795762Y-139095702D01*
X139830674Y-138988256D01*
X139850460Y-138800000D01*
X139830674Y-138611744D01*
X139772179Y-138431716D01*
X139677533Y-138267784D01*
X139550871Y-138127112D01*
X139550870Y-138127111D01*
X139397734Y-138015851D01*
X139397729Y-138015848D01*
X139224807Y-137938857D01*
X139224802Y-137938855D01*
X139079001Y-137907865D01*
X139039646Y-137899500D01*
X138850354Y-137899500D01*
X138817897Y-137906398D01*
X138665197Y-137938855D01*
X138665192Y-137938857D01*
X138492270Y-138015848D01*
X138492265Y-138015851D01*
X138339129Y-138127111D01*
X138212466Y-138267785D01*
X138117821Y-138431715D01*
X138117818Y-138431722D01*
X138059327Y-138611740D01*
X138059326Y-138611744D01*
X138039540Y-138800000D01*
X138059326Y-138988256D01*
X138091434Y-139087075D01*
X138094236Y-139095697D01*
X138096231Y-139165538D01*
X138075572Y-139208326D01*
X138001204Y-139307668D01*
X138001202Y-139307671D01*
X137950908Y-139442517D01*
X137944501Y-139502116D01*
X137944501Y-139502123D01*
X137944500Y-139502135D01*
X137944500Y-139876000D01*
X137924815Y-139943039D01*
X137872011Y-139988794D01*
X137820500Y-140000000D01*
X137720000Y-140000000D01*
X137720000Y-141350000D01*
X137220000Y-141350000D01*
X137220000Y-140000000D01*
X136897155Y-140000000D01*
X136837627Y-140006401D01*
X136837620Y-140006403D01*
X136702913Y-140056645D01*
X136702906Y-140056649D01*
X136587812Y-140142809D01*
X136587809Y-140142812D01*
X136501649Y-140257906D01*
X136501645Y-140257913D01*
X136451403Y-140392620D01*
X136451401Y-140392627D01*
X136445000Y-140452155D01*
X136445000Y-141350000D01*
X114022629Y-141350000D01*
X113748849Y-141087808D01*
X113746304Y-141085299D01*
X113122235Y-140452172D01*
X112777607Y-140102540D01*
X112775185Y-140100012D01*
X111835182Y-139089715D01*
X111832796Y-139087075D01*
X110922346Y-138050161D01*
X110920027Y-138047442D01*
X110039831Y-136984717D01*
X110037591Y-136981932D01*
X109188365Y-135894254D01*
X109186207Y-135891405D01*
X108368728Y-134779773D01*
X108366652Y-134776864D01*
X107887370Y-134084148D01*
X107581494Y-133642060D01*
X107579518Y-133639114D01*
X106827382Y-132482143D01*
X106825521Y-132479187D01*
X106107051Y-131301040D01*
X106105242Y-131297976D01*
X105992205Y-131100000D01*
X121039540Y-131100000D01*
X121059326Y-131288256D01*
X121059327Y-131288259D01*
X121117818Y-131468277D01*
X121117821Y-131468284D01*
X121212467Y-131632216D01*
X121244937Y-131668277D01*
X121339129Y-131772888D01*
X121492265Y-131884148D01*
X121492270Y-131884151D01*
X121665192Y-131961142D01*
X121665197Y-131961144D01*
X121850354Y-132000500D01*
X121850355Y-132000500D01*
X122039644Y-132000500D01*
X122039646Y-132000500D01*
X122224803Y-131961144D01*
X122397730Y-131884151D01*
X122550871Y-131772888D01*
X122677533Y-131632216D01*
X122772179Y-131468284D01*
X122830674Y-131288256D01*
X122850460Y-131100000D01*
X122830674Y-130911744D01*
X122772179Y-130731716D01*
X122677533Y-130567784D01*
X122602350Y-130484284D01*
X122572120Y-130421292D01*
X122570500Y-130401312D01*
X122570500Y-120098687D01*
X122590185Y-120031648D01*
X122602350Y-120015715D01*
X122620891Y-119995122D01*
X122677533Y-119932216D01*
X122772179Y-119768284D01*
X122830674Y-119588256D01*
X122850460Y-119400000D01*
X122830674Y-119211744D01*
X122772179Y-119031716D01*
X122677533Y-118867784D01*
X122550871Y-118727112D01*
X122550870Y-118727111D01*
X122397734Y-118615851D01*
X122397729Y-118615848D01*
X122224807Y-118538857D01*
X122224802Y-118538855D01*
X122079001Y-118507865D01*
X122039646Y-118499500D01*
X121850354Y-118499500D01*
X121817897Y-118506398D01*
X121665197Y-118538855D01*
X121665192Y-118538857D01*
X121492270Y-118615848D01*
X121492265Y-118615851D01*
X121339129Y-118727111D01*
X121212466Y-118867785D01*
X121117821Y-119031715D01*
X121117818Y-119031722D01*
X121059327Y-119211740D01*
X121059326Y-119211744D01*
X121039540Y-119400000D01*
X121059326Y-119588256D01*
X121059327Y-119588259D01*
X121117818Y-119768277D01*
X121117821Y-119768284D01*
X121212467Y-119932216D01*
X121255772Y-119980310D01*
X121287650Y-120015715D01*
X121317880Y-120078706D01*
X121319500Y-120098687D01*
X121319500Y-130401312D01*
X121299815Y-130468351D01*
X121287650Y-130484284D01*
X121212466Y-130567784D01*
X121117821Y-130731715D01*
X121117818Y-130731722D01*
X121059327Y-130911740D01*
X121059326Y-130911744D01*
X121039540Y-131100000D01*
X105992205Y-131100000D01*
X105947573Y-131021831D01*
X105421035Y-130099638D01*
X105419312Y-130096517D01*
X105301640Y-129875891D01*
X104941152Y-129200000D01*
X117239540Y-129200000D01*
X117259326Y-129388256D01*
X117259327Y-129388259D01*
X117317818Y-129568277D01*
X117317821Y-129568284D01*
X117412467Y-129732216D01*
X117481471Y-129808852D01*
X117539129Y-129872888D01*
X117692265Y-129984148D01*
X117692270Y-129984151D01*
X117865192Y-130061142D01*
X117865197Y-130061144D01*
X118050354Y-130100500D01*
X118050355Y-130100500D01*
X118239644Y-130100500D01*
X118239646Y-130100500D01*
X118424803Y-130061144D01*
X118597730Y-129984151D01*
X118750871Y-129872888D01*
X118877533Y-129732216D01*
X118972179Y-129568284D01*
X119030674Y-129388256D01*
X119050460Y-129200000D01*
X119030674Y-129011744D01*
X118972179Y-128831716D01*
X118877533Y-128667784D01*
X118860541Y-128648912D01*
X118802350Y-128584284D01*
X118772120Y-128521292D01*
X118770500Y-128501312D01*
X118770500Y-121898687D01*
X118790185Y-121831648D01*
X118802350Y-121815715D01*
X118820891Y-121795122D01*
X118877533Y-121732216D01*
X118972179Y-121568284D01*
X119030674Y-121388256D01*
X119050460Y-121200000D01*
X119030674Y-121011744D01*
X118972179Y-120831716D01*
X118877533Y-120667784D01*
X118750871Y-120527112D01*
X118750870Y-120527111D01*
X118597734Y-120415851D01*
X118597729Y-120415848D01*
X118424807Y-120338857D01*
X118424802Y-120338855D01*
X118279001Y-120307865D01*
X118239646Y-120299500D01*
X118050354Y-120299500D01*
X118017897Y-120306398D01*
X117865197Y-120338855D01*
X117865192Y-120338857D01*
X117692270Y-120415848D01*
X117692265Y-120415851D01*
X117539129Y-120527111D01*
X117412466Y-120667785D01*
X117317821Y-120831715D01*
X117317818Y-120831722D01*
X117259327Y-121011740D01*
X117259326Y-121011744D01*
X117239540Y-121200000D01*
X117259326Y-121388256D01*
X117259327Y-121388259D01*
X117317818Y-121568277D01*
X117317821Y-121568284D01*
X117412467Y-121732216D01*
X117455772Y-121780310D01*
X117487650Y-121815715D01*
X117517880Y-121878706D01*
X117519500Y-121898687D01*
X117519500Y-128501312D01*
X117499815Y-128568351D01*
X117487650Y-128584284D01*
X117412466Y-128667784D01*
X117317821Y-128831715D01*
X117317818Y-128831722D01*
X117270607Y-128977024D01*
X117259326Y-129011744D01*
X117239540Y-129200000D01*
X104941152Y-129200000D01*
X104769913Y-128878939D01*
X104768278Y-128875763D01*
X104713074Y-128764663D01*
X104154244Y-127639992D01*
X104152728Y-127636828D01*
X103574525Y-126383795D01*
X103573143Y-126380685D01*
X103031262Y-125111446D01*
X103029938Y-125108216D01*
X102524903Y-123824001D01*
X102523653Y-123820682D01*
X102055857Y-122522499D01*
X102054694Y-122519120D01*
X101624495Y-121207975D01*
X101623430Y-121204563D01*
X101464289Y-120667785D01*
X101231198Y-119881577D01*
X101230252Y-119878212D01*
X100876278Y-118544357D01*
X100875419Y-118540917D01*
X100874935Y-118538857D01*
X100560063Y-117197552D01*
X100559301Y-117194080D01*
X100557297Y-117184284D01*
X100282778Y-115842130D01*
X100282114Y-115838623D01*
X100044675Y-114479315D01*
X100044116Y-114475821D01*
X100035421Y-114415906D01*
X99845936Y-113110156D01*
X99845478Y-113106640D01*
X99828555Y-112960500D01*
X99686739Y-111735854D01*
X99686390Y-111732406D01*
X99567216Y-110357557D01*
X99566964Y-110354065D01*
X99487463Y-108976409D01*
X99487309Y-108972838D01*
X99447544Y-107593542D01*
X99447492Y-107589969D01*
X99447492Y-107425001D01*
X100282000Y-107425001D01*
X100282001Y-107425019D01*
X100292500Y-107527796D01*
X100292501Y-107527799D01*
X100315500Y-107597203D01*
X100347686Y-107694334D01*
X100439596Y-107843345D01*
X100439789Y-107843657D01*
X100563845Y-107967713D01*
X100613529Y-107998358D01*
X100660254Y-108050306D01*
X100671477Y-108119268D01*
X100655821Y-108165896D01*
X100617820Y-108231716D01*
X100585166Y-108332216D01*
X100559326Y-108411744D01*
X100539540Y-108600000D01*
X100559326Y-108788256D01*
X100559327Y-108788259D01*
X100617818Y-108968277D01*
X100617821Y-108968284D01*
X100712467Y-109132216D01*
X100827074Y-109259500D01*
X100839129Y-109272888D01*
X100992265Y-109384148D01*
X100992270Y-109384151D01*
X101165192Y-109461142D01*
X101165197Y-109461144D01*
X101350354Y-109500500D01*
X101350355Y-109500500D01*
X101539644Y-109500500D01*
X101539646Y-109500500D01*
X101724803Y-109461144D01*
X101897730Y-109384151D01*
X102050871Y-109272888D01*
X102177533Y-109132216D01*
X102272179Y-108968284D01*
X102330674Y-108788256D01*
X102350460Y-108600000D01*
X102330674Y-108411744D01*
X102272179Y-108231716D01*
X102212113Y-108127677D01*
X102195500Y-108065677D01*
X102195500Y-107999730D01*
X102215185Y-107932691D01*
X102231819Y-107912049D01*
X102300212Y-107843656D01*
X102302252Y-107840347D01*
X102304245Y-107838555D01*
X102304693Y-107837989D01*
X102304789Y-107838065D01*
X102354194Y-107793623D01*
X102423156Y-107782395D01*
X102487240Y-107810234D01*
X102513329Y-107840339D01*
X102515181Y-107843341D01*
X102515183Y-107843344D01*
X102639154Y-107967315D01*
X102788375Y-108059356D01*
X102788380Y-108059358D01*
X102954802Y-108114505D01*
X102954809Y-108114506D01*
X103057519Y-108124999D01*
X103194999Y-108124999D01*
X103195000Y-108124998D01*
X103195000Y-107150000D01*
X103695000Y-107150000D01*
X103695000Y-108124999D01*
X103832472Y-108124999D01*
X103832486Y-108124998D01*
X103935197Y-108114505D01*
X104101619Y-108059358D01*
X104101624Y-108059356D01*
X104250845Y-107967315D01*
X104374815Y-107843345D01*
X104466856Y-107694124D01*
X104466858Y-107694119D01*
X104522005Y-107527697D01*
X104522006Y-107527690D01*
X104532499Y-107424986D01*
X104532500Y-107424973D01*
X104532500Y-107150000D01*
X103695000Y-107150000D01*
X103195000Y-107150000D01*
X103195000Y-105675000D01*
X103057527Y-105675000D01*
X103057512Y-105675001D01*
X102954802Y-105685494D01*
X102788380Y-105740641D01*
X102788375Y-105740643D01*
X102639154Y-105832684D01*
X102515183Y-105956655D01*
X102515179Y-105956660D01*
X102513326Y-105959665D01*
X102511518Y-105961290D01*
X102510702Y-105962323D01*
X102510525Y-105962183D01*
X102461374Y-106006385D01*
X102392411Y-106017601D01*
X102328331Y-105989752D01*
X102302253Y-105959653D01*
X102302237Y-105959628D01*
X102300212Y-105956344D01*
X102176156Y-105832288D01*
X102079402Y-105772610D01*
X102032679Y-105720663D01*
X102020500Y-105667072D01*
X102020500Y-103495808D01*
X102040185Y-103428769D01*
X102056819Y-103408127D01*
X102623127Y-102841819D01*
X102684450Y-102808334D01*
X102710808Y-102805500D01*
X103019205Y-102805500D01*
X103086244Y-102825185D01*
X103131999Y-102877989D01*
X103142321Y-102944283D01*
X103134500Y-103009413D01*
X103134500Y-103009417D01*
X103134500Y-103009418D01*
X103134500Y-104280580D01*
X103144652Y-104365132D01*
X103144653Y-104365133D01*
X103160854Y-104406216D01*
X103169500Y-104451705D01*
X103169500Y-104911611D01*
X103193535Y-105032444D01*
X103193540Y-105032461D01*
X103240685Y-105146281D01*
X103240687Y-105146285D01*
X103240688Y-105146286D01*
X103248034Y-105157279D01*
X103248037Y-105157289D01*
X103248040Y-105157288D01*
X103309141Y-105248732D01*
X103309144Y-105248736D01*
X103400586Y-105340178D01*
X103400608Y-105340198D01*
X103658681Y-105598271D01*
X103692166Y-105659594D01*
X103695000Y-105685952D01*
X103695000Y-106650000D01*
X104532498Y-106650000D01*
X104544559Y-106637939D01*
X104605882Y-106604453D01*
X104675573Y-106609437D01*
X104701126Y-106622513D01*
X104723190Y-106637256D01*
X104748710Y-106654309D01*
X104748713Y-106654311D01*
X104748715Y-106654312D01*
X104813357Y-106681087D01*
X104813358Y-106681088D01*
X104813359Y-106681088D01*
X104862548Y-106701463D01*
X104922971Y-106713481D01*
X104983393Y-106725500D01*
X104983394Y-106725500D01*
X105513942Y-106725500D01*
X105580981Y-106745185D01*
X105619479Y-106784401D01*
X105691057Y-106900447D01*
X105702289Y-106918657D01*
X105795951Y-107012319D01*
X105829436Y-107073642D01*
X105824452Y-107143334D01*
X105795951Y-107187681D01*
X105702289Y-107281342D01*
X105610187Y-107430663D01*
X105610186Y-107430666D01*
X105555001Y-107597203D01*
X105555001Y-107597204D01*
X105555000Y-107597204D01*
X105544500Y-107699983D01*
X105544500Y-108500001D01*
X105544501Y-108500019D01*
X105555000Y-108602796D01*
X105555001Y-108602799D01*
X105610185Y-108769331D01*
X105610186Y-108769334D01*
X105699504Y-108914143D01*
X105702289Y-108918657D01*
X105826342Y-109042710D01*
X105826341Y-109042710D01*
X105826343Y-109042711D01*
X105826344Y-109042712D01*
X105871847Y-109070778D01*
X105918571Y-109122726D01*
X105929794Y-109191689D01*
X105920035Y-109226740D01*
X105917823Y-109231709D01*
X105868292Y-109384151D01*
X105859326Y-109411744D01*
X105839540Y-109600000D01*
X105859326Y-109788256D01*
X105859327Y-109788259D01*
X105917818Y-109968277D01*
X105917821Y-109968284D01*
X106012467Y-110132216D01*
X106139129Y-110272888D01*
X106292265Y-110384148D01*
X106292270Y-110384151D01*
X106465192Y-110461142D01*
X106465197Y-110461144D01*
X106650354Y-110500500D01*
X106650355Y-110500500D01*
X106839644Y-110500500D01*
X106839646Y-110500500D01*
X107024803Y-110461144D01*
X107197730Y-110384151D01*
X107350871Y-110272888D01*
X107477533Y-110132216D01*
X107572179Y-109968284D01*
X107577569Y-109951696D01*
X107617006Y-109894021D01*
X107681365Y-109866822D01*
X107750211Y-109878736D01*
X107801687Y-109925980D01*
X107819500Y-109990014D01*
X107819500Y-113501312D01*
X107799815Y-113568351D01*
X107787650Y-113584284D01*
X107712466Y-113667784D01*
X107617821Y-113831715D01*
X107617818Y-113831722D01*
X107570500Y-113977354D01*
X107559326Y-114011744D01*
X107539540Y-114200000D01*
X107559326Y-114388256D01*
X107559327Y-114388259D01*
X107617818Y-114568277D01*
X107617821Y-114568284D01*
X107712467Y-114732216D01*
X107839129Y-114872888D01*
X107992265Y-114984148D01*
X107992270Y-114984151D01*
X108165192Y-115061142D01*
X108165197Y-115061144D01*
X108350354Y-115100500D01*
X108350355Y-115100500D01*
X108539644Y-115100500D01*
X108539646Y-115100500D01*
X108724803Y-115061144D01*
X108897730Y-114984151D01*
X109050871Y-114872888D01*
X109103350Y-114814603D01*
X109162837Y-114777955D01*
X109232694Y-114779286D01*
X109290742Y-114818172D01*
X109318552Y-114882269D01*
X109319500Y-114897576D01*
X109319500Y-116601312D01*
X109299815Y-116668351D01*
X109287650Y-116684284D01*
X109212466Y-116767784D01*
X109117821Y-116931715D01*
X109117818Y-116931722D01*
X109062594Y-117101685D01*
X109059326Y-117111744D01*
X109039540Y-117300000D01*
X109059326Y-117488256D01*
X109059327Y-117488259D01*
X109117818Y-117668277D01*
X109117821Y-117668284D01*
X109212467Y-117832216D01*
X109339129Y-117972888D01*
X109492265Y-118084148D01*
X109492270Y-118084151D01*
X109665192Y-118161142D01*
X109665197Y-118161144D01*
X109850354Y-118200500D01*
X109850355Y-118200500D01*
X110039644Y-118200500D01*
X110039646Y-118200500D01*
X110224803Y-118161144D01*
X110397730Y-118084151D01*
X110550871Y-117972888D01*
X110677533Y-117832216D01*
X110772179Y-117668284D01*
X110830674Y-117488256D01*
X110850460Y-117300000D01*
X110830674Y-117111744D01*
X110772179Y-116931716D01*
X110677533Y-116767784D01*
X110602350Y-116684284D01*
X110572120Y-116621292D01*
X110570500Y-116601312D01*
X110570500Y-114761610D01*
X122019500Y-114761610D01*
X122043535Y-114882444D01*
X122043538Y-114882454D01*
X122057347Y-114915792D01*
X122057347Y-114915793D01*
X122090685Y-114996280D01*
X122090687Y-114996283D01*
X122090688Y-114996286D01*
X122115338Y-115033177D01*
X122124914Y-115047507D01*
X122124915Y-115047509D01*
X122159141Y-115098733D01*
X122250586Y-115190178D01*
X122250608Y-115190198D01*
X126183181Y-119122771D01*
X126216666Y-119184094D01*
X126219500Y-119210452D01*
X126219500Y-132401312D01*
X126199815Y-132468351D01*
X126187650Y-132484284D01*
X126112466Y-132567784D01*
X126017821Y-132731715D01*
X126017818Y-132731722D01*
X125959327Y-132911740D01*
X125959326Y-132911744D01*
X125939540Y-133100000D01*
X125959326Y-133288256D01*
X125959327Y-133288259D01*
X126017818Y-133468277D01*
X126017821Y-133468284D01*
X126112467Y-133632216D01*
X126144937Y-133668277D01*
X126239129Y-133772888D01*
X126392265Y-133884148D01*
X126392270Y-133884151D01*
X126565192Y-133961142D01*
X126565197Y-133961144D01*
X126750354Y-134000500D01*
X126750355Y-134000500D01*
X126939644Y-134000500D01*
X126939646Y-134000500D01*
X127124803Y-133961144D01*
X127297730Y-133884151D01*
X127450871Y-133772888D01*
X127577533Y-133632216D01*
X127672179Y-133468284D01*
X127730674Y-133288256D01*
X127750460Y-133100000D01*
X127733376Y-132937458D01*
X127745945Y-132868732D01*
X127793677Y-132817708D01*
X127856697Y-132800500D01*
X127939644Y-132800500D01*
X127939646Y-132800500D01*
X128124803Y-132761144D01*
X128297730Y-132684151D01*
X128450871Y-132572888D01*
X128577533Y-132432216D01*
X128672179Y-132268284D01*
X128730674Y-132088256D01*
X128748321Y-131920345D01*
X128774905Y-131855732D01*
X128783952Y-131845636D01*
X130843729Y-129785860D01*
X130843733Y-129785858D01*
X130930858Y-129698733D01*
X130999311Y-129596286D01*
X131046463Y-129482452D01*
X131070500Y-129361606D01*
X131070500Y-127300000D01*
X143539540Y-127300000D01*
X143559326Y-127488256D01*
X143559327Y-127488259D01*
X143617818Y-127668277D01*
X143617821Y-127668284D01*
X143712467Y-127832216D01*
X143836472Y-127969937D01*
X143839129Y-127972888D01*
X143992265Y-128084148D01*
X143992270Y-128084151D01*
X144165192Y-128161142D01*
X144165197Y-128161144D01*
X144350354Y-128200500D01*
X144350355Y-128200500D01*
X144539644Y-128200500D01*
X144539646Y-128200500D01*
X144724803Y-128161144D01*
X144897730Y-128084151D01*
X145022616Y-127993416D01*
X145088421Y-127969937D01*
X145156475Y-127985762D01*
X145205170Y-128035868D01*
X145219500Y-128093735D01*
X145219500Y-132601312D01*
X145199815Y-132668351D01*
X145187650Y-132684284D01*
X145112466Y-132767784D01*
X145017821Y-132931715D01*
X145017818Y-132931722D01*
X144963142Y-133100000D01*
X144959326Y-133111744D01*
X144939540Y-133300000D01*
X144959326Y-133488256D01*
X144959327Y-133488259D01*
X145017818Y-133668277D01*
X145017821Y-133668284D01*
X145112467Y-133832216D01*
X145159227Y-133884148D01*
X145239129Y-133972888D01*
X145392265Y-134084148D01*
X145392270Y-134084151D01*
X145565192Y-134161142D01*
X145565197Y-134161144D01*
X145750354Y-134200500D01*
X145750355Y-134200500D01*
X145939644Y-134200500D01*
X145939646Y-134200500D01*
X146124803Y-134161144D01*
X146297730Y-134084151D01*
X146450871Y-133972888D01*
X146577533Y-133832216D01*
X146672179Y-133668284D01*
X146730674Y-133488256D01*
X146750460Y-133300000D01*
X146730674Y-133111744D01*
X146672179Y-132931716D01*
X146577533Y-132767784D01*
X146545063Y-132731722D01*
X146502350Y-132684284D01*
X146472120Y-132621292D01*
X146470500Y-132601312D01*
X146470500Y-129875891D01*
X146490185Y-129808852D01*
X146542989Y-129763097D01*
X146612147Y-129753153D01*
X146675703Y-129782178D01*
X146701888Y-129813892D01*
X146712467Y-129832216D01*
X146839129Y-129972888D01*
X146992265Y-130084148D01*
X146992270Y-130084151D01*
X147165192Y-130161142D01*
X147165197Y-130161144D01*
X147350354Y-130200500D01*
X147350355Y-130200500D01*
X147539644Y-130200500D01*
X147539646Y-130200500D01*
X147724803Y-130161144D01*
X147897730Y-130084151D01*
X148050871Y-129972888D01*
X148177533Y-129832216D01*
X148272179Y-129668284D01*
X148277569Y-129651696D01*
X148317006Y-129594021D01*
X148381365Y-129566822D01*
X148450211Y-129578736D01*
X148501687Y-129625980D01*
X148519500Y-129690014D01*
X148519500Y-130601312D01*
X148499815Y-130668351D01*
X148487650Y-130684284D01*
X148412466Y-130767784D01*
X148317821Y-130931715D01*
X148317818Y-130931722D01*
X148263142Y-131100000D01*
X148259326Y-131111744D01*
X148239540Y-131300000D01*
X148259326Y-131488256D01*
X148259327Y-131488259D01*
X148317818Y-131668277D01*
X148317821Y-131668284D01*
X148412467Y-131832216D01*
X148491821Y-131920347D01*
X148539129Y-131972888D01*
X148692265Y-132084148D01*
X148692270Y-132084151D01*
X148865192Y-132161142D01*
X148865197Y-132161144D01*
X149050354Y-132200500D01*
X149050355Y-132200500D01*
X149239644Y-132200500D01*
X149239646Y-132200500D01*
X149424803Y-132161144D01*
X149597730Y-132084151D01*
X149750871Y-131972888D01*
X149877533Y-131832216D01*
X149972179Y-131668284D01*
X150030674Y-131488256D01*
X150050460Y-131300000D01*
X150030674Y-131111744D01*
X149972179Y-130931716D01*
X149877533Y-130767784D01*
X149845063Y-130731722D01*
X149802350Y-130684284D01*
X149772120Y-130621292D01*
X149770500Y-130601312D01*
X149770500Y-125966389D01*
X149790185Y-125899350D01*
X149842989Y-125853595D01*
X149912147Y-125843651D01*
X149967385Y-125866071D01*
X149992269Y-125884150D01*
X149992270Y-125884151D01*
X150165192Y-125961142D01*
X150165197Y-125961144D01*
X150350354Y-126000500D01*
X150350355Y-126000500D01*
X150420500Y-126000500D01*
X150487539Y-126020185D01*
X150533294Y-126072989D01*
X150544500Y-126124500D01*
X150544500Y-126573547D01*
X150524815Y-126640586D01*
X150512650Y-126656519D01*
X150412466Y-126767785D01*
X150317821Y-126931715D01*
X150317818Y-126931722D01*
X150263142Y-127100000D01*
X150259326Y-127111744D01*
X150239540Y-127300000D01*
X150259326Y-127488256D01*
X150259327Y-127488259D01*
X150317818Y-127668277D01*
X150317821Y-127668284D01*
X150412467Y-127832216D01*
X150536472Y-127969937D01*
X150539129Y-127972888D01*
X150692265Y-128084148D01*
X150692270Y-128084151D01*
X150865192Y-128161142D01*
X150865197Y-128161144D01*
X151050354Y-128200500D01*
X151050355Y-128200500D01*
X151239644Y-128200500D01*
X151239646Y-128200500D01*
X151424803Y-128161144D01*
X151597730Y-128084151D01*
X151750871Y-127972888D01*
X151877533Y-127832216D01*
X151972179Y-127668284D01*
X152030674Y-127488256D01*
X152050460Y-127300000D01*
X152030674Y-127111744D01*
X151972179Y-126931716D01*
X151877533Y-126767784D01*
X151827350Y-126712050D01*
X151797120Y-126649058D01*
X151795500Y-126629078D01*
X151795500Y-111104288D01*
X166449500Y-111104288D01*
X166481161Y-111344785D01*
X166543947Y-111579104D01*
X166607425Y-111732352D01*
X166636776Y-111803212D01*
X166758064Y-112013289D01*
X166758066Y-112013292D01*
X166758067Y-112013293D01*
X166905733Y-112205736D01*
X166905739Y-112205743D01*
X167077256Y-112377260D01*
X167077262Y-112377265D01*
X167269711Y-112524936D01*
X167479788Y-112646224D01*
X167703900Y-112739054D01*
X167938211Y-112801838D01*
X168118586Y-112825584D01*
X168178711Y-112833500D01*
X168178712Y-112833500D01*
X168421289Y-112833500D01*
X168469388Y-112827167D01*
X168661789Y-112801838D01*
X168896100Y-112739054D01*
X169120212Y-112646224D01*
X169330289Y-112524936D01*
X169522738Y-112377265D01*
X169694265Y-112205738D01*
X169841936Y-112013289D01*
X169963224Y-111803212D01*
X170056054Y-111579100D01*
X170118838Y-111344789D01*
X170150500Y-111104288D01*
X170150500Y-110861712D01*
X170144444Y-110815715D01*
X170135558Y-110748214D01*
X170118838Y-110621211D01*
X170056054Y-110386900D01*
X169963224Y-110162788D01*
X169841936Y-109952711D01*
X169749098Y-109831722D01*
X169694266Y-109760263D01*
X169694260Y-109760256D01*
X169522743Y-109588739D01*
X169522736Y-109588733D01*
X169330293Y-109441067D01*
X169330292Y-109441066D01*
X169330289Y-109441064D01*
X169120212Y-109319776D01*
X169120205Y-109319773D01*
X168896104Y-109226947D01*
X168661785Y-109164161D01*
X168421289Y-109132500D01*
X168421288Y-109132500D01*
X168178712Y-109132500D01*
X168178711Y-109132500D01*
X167938214Y-109164161D01*
X167703895Y-109226947D01*
X167479794Y-109319773D01*
X167479785Y-109319777D01*
X167269706Y-109441067D01*
X167077263Y-109588733D01*
X167077256Y-109588739D01*
X166905739Y-109760256D01*
X166905733Y-109760263D01*
X166758067Y-109952706D01*
X166636777Y-110162785D01*
X166636773Y-110162794D01*
X166543947Y-110386895D01*
X166481161Y-110621214D01*
X166449500Y-110861711D01*
X166449500Y-111104288D01*
X151795500Y-111104288D01*
X151795500Y-108334321D01*
X151812113Y-108272321D01*
X151872179Y-108168284D01*
X151930674Y-107988256D01*
X151950460Y-107800000D01*
X151930674Y-107611744D01*
X151872179Y-107431716D01*
X151777533Y-107267784D01*
X151650871Y-107127112D01*
X151650870Y-107127111D01*
X151497734Y-107015851D01*
X151497729Y-107015848D01*
X151324807Y-106938857D01*
X151324802Y-106938855D01*
X151179001Y-106907865D01*
X151139646Y-106899500D01*
X150950354Y-106899500D01*
X150917897Y-106906398D01*
X150765197Y-106938855D01*
X150765192Y-106938857D01*
X150592270Y-107015848D01*
X150592265Y-107015851D01*
X150439129Y-107127111D01*
X150312466Y-107267785D01*
X150217821Y-107431715D01*
X150217818Y-107431722D01*
X150164050Y-107597204D01*
X150159326Y-107611744D01*
X150139540Y-107800000D01*
X150159326Y-107988256D01*
X150159327Y-107988259D01*
X150217818Y-108168277D01*
X150217821Y-108168284D01*
X150312467Y-108332216D01*
X150384071Y-108411740D01*
X150439129Y-108472888D01*
X150439133Y-108472891D01*
X150493384Y-108512306D01*
X150536050Y-108567635D01*
X150544500Y-108612625D01*
X150544500Y-116875500D01*
X150524815Y-116942539D01*
X150472011Y-116988294D01*
X150420500Y-116999500D01*
X150250354Y-116999500D01*
X150217897Y-117006398D01*
X150065197Y-117038855D01*
X150065192Y-117038857D01*
X149944936Y-117092400D01*
X149875686Y-117101685D01*
X149812409Y-117072057D01*
X149775196Y-117012922D01*
X149770500Y-116979121D01*
X149770500Y-115998687D01*
X149790185Y-115931648D01*
X149802350Y-115915715D01*
X149820891Y-115895122D01*
X149877533Y-115832216D01*
X149972179Y-115668284D01*
X150030674Y-115488256D01*
X150050460Y-115300000D01*
X150030674Y-115111744D01*
X149972179Y-114931716D01*
X149877533Y-114767784D01*
X149750871Y-114627112D01*
X149750870Y-114627111D01*
X149597734Y-114515851D01*
X149597729Y-114515848D01*
X149424807Y-114438857D01*
X149424802Y-114438855D01*
X149279001Y-114407865D01*
X149239646Y-114399500D01*
X149050354Y-114399500D01*
X149017897Y-114406398D01*
X148865197Y-114438855D01*
X148865192Y-114438857D01*
X148692270Y-114515848D01*
X148692265Y-114515851D01*
X148539129Y-114627111D01*
X148412466Y-114767785D01*
X148317821Y-114931715D01*
X148317819Y-114931719D01*
X148312431Y-114948304D01*
X148272993Y-115005979D01*
X148208634Y-115033177D01*
X148139788Y-115021262D01*
X148088312Y-114974017D01*
X148070500Y-114909985D01*
X148070500Y-110898687D01*
X148090185Y-110831648D01*
X148102350Y-110815715D01*
X148138207Y-110775891D01*
X148177533Y-110732216D01*
X148272179Y-110568284D01*
X148330674Y-110388256D01*
X148350460Y-110200000D01*
X148330674Y-110011744D01*
X148272179Y-109831716D01*
X148177533Y-109667784D01*
X148050871Y-109527112D01*
X148014243Y-109500500D01*
X147897734Y-109415851D01*
X147897729Y-109415848D01*
X147724807Y-109338857D01*
X147724802Y-109338855D01*
X147579001Y-109307865D01*
X147539646Y-109299500D01*
X147350354Y-109299500D01*
X147317897Y-109306398D01*
X147165197Y-109338855D01*
X147165192Y-109338857D01*
X146992270Y-109415848D01*
X146992265Y-109415851D01*
X146839129Y-109527111D01*
X146712467Y-109667783D01*
X146701887Y-109686109D01*
X146651319Y-109734324D01*
X146582712Y-109747546D01*
X146517847Y-109721578D01*
X146477320Y-109664663D01*
X146470500Y-109624108D01*
X146470500Y-105898687D01*
X146490185Y-105831648D01*
X146502350Y-105815715D01*
X146520891Y-105795122D01*
X146577533Y-105732216D01*
X146672179Y-105568284D01*
X146730674Y-105388256D01*
X146750460Y-105200000D01*
X146730674Y-105011744D01*
X146672179Y-104831716D01*
X146577533Y-104667784D01*
X146450871Y-104527112D01*
X146450870Y-104527111D01*
X146297734Y-104415851D01*
X146297729Y-104415848D01*
X146124807Y-104338857D01*
X146124802Y-104338855D01*
X145979001Y-104307865D01*
X145939646Y-104299500D01*
X145750354Y-104299500D01*
X145717897Y-104306398D01*
X145565197Y-104338855D01*
X145565192Y-104338857D01*
X145444936Y-104392400D01*
X145375686Y-104401685D01*
X145312409Y-104372057D01*
X145275196Y-104312922D01*
X145270500Y-104279121D01*
X145270500Y-103398687D01*
X145290185Y-103331648D01*
X145302350Y-103315715D01*
X145347701Y-103265347D01*
X145377533Y-103232216D01*
X145472179Y-103068284D01*
X145530674Y-102888256D01*
X145550460Y-102700000D01*
X145530674Y-102511744D01*
X145472179Y-102331716D01*
X145377533Y-102167784D01*
X145250871Y-102027112D01*
X145229719Y-102011744D01*
X145097734Y-101915851D01*
X145097729Y-101915848D01*
X144924807Y-101838857D01*
X144924802Y-101838855D01*
X144779001Y-101807865D01*
X144739646Y-101799500D01*
X144550354Y-101799500D01*
X144517897Y-101806398D01*
X144365197Y-101838855D01*
X144365192Y-101838857D01*
X144192270Y-101915848D01*
X144192265Y-101915851D01*
X144039129Y-102027111D01*
X143912466Y-102167785D01*
X143817821Y-102331715D01*
X143817818Y-102331722D01*
X143759327Y-102511740D01*
X143759326Y-102511744D01*
X143739540Y-102700000D01*
X143759326Y-102888256D01*
X143759327Y-102888259D01*
X143817818Y-103068277D01*
X143817821Y-103068284D01*
X143912467Y-103232216D01*
X143942299Y-103265347D01*
X143987650Y-103315715D01*
X144017880Y-103378706D01*
X144019500Y-103398687D01*
X144019500Y-126432883D01*
X143999815Y-126499922D01*
X143968386Y-126533201D01*
X143839127Y-126627113D01*
X143712466Y-126767785D01*
X143617821Y-126931715D01*
X143617818Y-126931722D01*
X143563142Y-127100000D01*
X143559326Y-127111744D01*
X143539540Y-127300000D01*
X131070500Y-127300000D01*
X131070500Y-117800000D01*
X131739540Y-117800000D01*
X131759326Y-117988256D01*
X131759327Y-117988259D01*
X131817818Y-118168277D01*
X131817821Y-118168284D01*
X131912467Y-118332216D01*
X131986231Y-118414139D01*
X132039129Y-118472888D01*
X132192265Y-118584148D01*
X132192270Y-118584151D01*
X132365192Y-118661142D01*
X132365197Y-118661144D01*
X132550354Y-118700500D01*
X132550355Y-118700500D01*
X132739644Y-118700500D01*
X132739646Y-118700500D01*
X132924803Y-118661144D01*
X133097730Y-118584151D01*
X133250871Y-118472888D01*
X133377533Y-118332216D01*
X133472179Y-118168284D01*
X133530674Y-117988256D01*
X133550460Y-117800000D01*
X133530674Y-117611744D01*
X133472179Y-117431716D01*
X133377533Y-117267784D01*
X133320389Y-117204319D01*
X133302350Y-117184284D01*
X133272120Y-117121292D01*
X133270500Y-117101312D01*
X133270500Y-115300000D01*
X141639540Y-115300000D01*
X141659326Y-115488256D01*
X141659327Y-115488259D01*
X141717818Y-115668277D01*
X141717821Y-115668284D01*
X141812467Y-115832216D01*
X141887650Y-115915715D01*
X141939129Y-115972888D01*
X142092265Y-116084148D01*
X142092270Y-116084151D01*
X142265192Y-116161142D01*
X142265197Y-116161144D01*
X142450354Y-116200500D01*
X142450355Y-116200500D01*
X142639644Y-116200500D01*
X142639646Y-116200500D01*
X142824803Y-116161144D01*
X142997730Y-116084151D01*
X143150871Y-115972888D01*
X143277533Y-115832216D01*
X143372179Y-115668284D01*
X143430674Y-115488256D01*
X143450460Y-115300000D01*
X143430674Y-115111744D01*
X143372179Y-114931716D01*
X143277533Y-114767784D01*
X143271970Y-114761606D01*
X143202350Y-114684284D01*
X143172120Y-114621292D01*
X143170500Y-114601312D01*
X143170500Y-92440000D01*
X163779540Y-92440000D01*
X163799326Y-92628256D01*
X163799327Y-92628259D01*
X163857818Y-92808277D01*
X163857821Y-92808284D01*
X163952467Y-92972216D01*
X164012056Y-93038396D01*
X164079129Y-93112888D01*
X164232265Y-93224148D01*
X164232270Y-93224151D01*
X164405192Y-93301142D01*
X164405197Y-93301144D01*
X164590354Y-93340500D01*
X164595500Y-93340500D01*
X164662539Y-93360185D01*
X164708294Y-93412989D01*
X164719500Y-93464500D01*
X164719500Y-103301312D01*
X164699815Y-103368351D01*
X164687650Y-103384284D01*
X164612466Y-103467784D01*
X164517821Y-103631715D01*
X164517818Y-103631722D01*
X164459327Y-103811740D01*
X164459326Y-103811744D01*
X164439540Y-104000000D01*
X164459326Y-104188256D01*
X164459327Y-104188259D01*
X164517818Y-104368277D01*
X164517821Y-104368284D01*
X164612467Y-104532216D01*
X164686922Y-104614906D01*
X164739129Y-104672888D01*
X164892265Y-104784148D01*
X164892270Y-104784151D01*
X165065192Y-104861142D01*
X165065197Y-104861144D01*
X165250354Y-104900500D01*
X165250355Y-104900500D01*
X165439644Y-104900500D01*
X165439646Y-104900500D01*
X165624803Y-104861144D01*
X165797730Y-104784151D01*
X165950871Y-104672888D01*
X166077533Y-104532216D01*
X166172179Y-104368284D01*
X166230674Y-104188256D01*
X166250460Y-104000000D01*
X166230674Y-103811744D01*
X166172179Y-103631716D01*
X166077533Y-103467784D01*
X166057855Y-103445929D01*
X166002350Y-103384284D01*
X165972120Y-103321292D01*
X165970500Y-103301312D01*
X165970500Y-100400000D01*
X170539540Y-100400000D01*
X170559326Y-100588256D01*
X170559327Y-100588259D01*
X170617818Y-100768277D01*
X170617821Y-100768284D01*
X170712467Y-100932216D01*
X170793263Y-101021949D01*
X170839129Y-101072888D01*
X170992265Y-101184148D01*
X170992270Y-101184151D01*
X171165192Y-101261142D01*
X171165197Y-101261144D01*
X171350354Y-101300500D01*
X171350355Y-101300500D01*
X171539644Y-101300500D01*
X171539646Y-101300500D01*
X171724803Y-101261144D01*
X171897730Y-101184151D01*
X172050871Y-101072888D01*
X172177533Y-100932216D01*
X172272179Y-100768284D01*
X172330674Y-100588256D01*
X172350460Y-100400000D01*
X172330674Y-100211744D01*
X172272179Y-100031716D01*
X172212113Y-99927677D01*
X172195500Y-99865677D01*
X172195500Y-98434321D01*
X172212113Y-98372321D01*
X172272179Y-98268284D01*
X172330674Y-98088256D01*
X172350460Y-97900000D01*
X172330674Y-97711744D01*
X172272179Y-97531716D01*
X172212113Y-97427677D01*
X172195500Y-97365677D01*
X172195500Y-95034321D01*
X172212113Y-94972321D01*
X172272179Y-94868284D01*
X172330674Y-94688256D01*
X172350460Y-94500000D01*
X172330674Y-94311744D01*
X172272179Y-94131716D01*
X172177533Y-93967784D01*
X172050871Y-93827112D01*
X172050870Y-93827111D01*
X171897734Y-93715851D01*
X171897729Y-93715848D01*
X171724807Y-93638857D01*
X171724802Y-93638855D01*
X171559396Y-93603698D01*
X171539646Y-93599500D01*
X171350354Y-93599500D01*
X171330604Y-93603698D01*
X171165197Y-93638855D01*
X171165192Y-93638857D01*
X170992270Y-93715848D01*
X170992265Y-93715851D01*
X170839129Y-93827111D01*
X170712466Y-93967785D01*
X170617821Y-94131715D01*
X170617818Y-94131722D01*
X170559327Y-94311740D01*
X170559326Y-94311744D01*
X170539540Y-94500000D01*
X170559326Y-94688256D01*
X170559327Y-94688259D01*
X170617818Y-94868277D01*
X170617821Y-94868284D01*
X170677887Y-94972321D01*
X170694500Y-95034321D01*
X170694500Y-97365677D01*
X170677887Y-97427677D01*
X170617821Y-97531714D01*
X170559327Y-97711740D01*
X170559326Y-97711744D01*
X170539540Y-97900000D01*
X170559326Y-98088256D01*
X170559327Y-98088259D01*
X170617818Y-98268277D01*
X170617821Y-98268284D01*
X170677887Y-98372321D01*
X170694500Y-98434321D01*
X170694500Y-99865677D01*
X170677887Y-99927677D01*
X170617821Y-100031714D01*
X170563142Y-100200000D01*
X170559326Y-100211744D01*
X170539540Y-100400000D01*
X165970500Y-100400000D01*
X165970500Y-93038396D01*
X165970500Y-93038394D01*
X165946463Y-92917548D01*
X165946461Y-92917543D01*
X165926962Y-92870468D01*
X165926947Y-92870435D01*
X165926932Y-92870397D01*
X165899312Y-92803715D01*
X165899310Y-92803712D01*
X165899309Y-92803709D01*
X165875402Y-92767931D01*
X165875401Y-92767930D01*
X165830858Y-92701266D01*
X165740637Y-92611045D01*
X165740606Y-92611016D01*
X165623960Y-92494370D01*
X165590475Y-92433047D01*
X165588323Y-92419671D01*
X165570674Y-92251744D01*
X165512179Y-92071716D01*
X165417533Y-91907784D01*
X165290871Y-91767112D01*
X165242838Y-91732214D01*
X165137734Y-91655851D01*
X165137729Y-91655848D01*
X164964807Y-91578857D01*
X164964802Y-91578855D01*
X164819001Y-91547865D01*
X164779646Y-91539500D01*
X164590354Y-91539500D01*
X164557897Y-91546398D01*
X164405197Y-91578855D01*
X164405192Y-91578857D01*
X164232270Y-91655848D01*
X164232265Y-91655851D01*
X164079129Y-91767111D01*
X163952466Y-91907785D01*
X163857821Y-92071715D01*
X163857818Y-92071722D01*
X163799327Y-92251740D01*
X163799326Y-92251744D01*
X163779540Y-92440000D01*
X143170500Y-92440000D01*
X143170500Y-91898687D01*
X143190185Y-91831648D01*
X143202350Y-91815715D01*
X143220891Y-91795122D01*
X143277533Y-91732216D01*
X143372179Y-91568284D01*
X143430674Y-91388256D01*
X143450460Y-91200000D01*
X143430674Y-91011744D01*
X143372179Y-90831716D01*
X143277533Y-90667784D01*
X143150871Y-90527112D01*
X143150870Y-90527111D01*
X142997734Y-90415851D01*
X142997729Y-90415848D01*
X142824807Y-90338857D01*
X142824802Y-90338855D01*
X142679001Y-90307865D01*
X142639646Y-90299500D01*
X142450354Y-90299500D01*
X142417897Y-90306398D01*
X142265197Y-90338855D01*
X142265192Y-90338857D01*
X142092270Y-90415848D01*
X142092265Y-90415851D01*
X141939129Y-90527111D01*
X141812466Y-90667785D01*
X141717821Y-90831715D01*
X141717818Y-90831722D01*
X141665890Y-90991542D01*
X141659326Y-91011744D01*
X141639540Y-91200000D01*
X141659326Y-91388256D01*
X141659327Y-91388259D01*
X141717818Y-91568277D01*
X141717821Y-91568284D01*
X141812467Y-91732216D01*
X141843887Y-91767111D01*
X141887650Y-91815715D01*
X141917880Y-91878706D01*
X141919500Y-91898687D01*
X141919500Y-114601312D01*
X141899815Y-114668351D01*
X141887650Y-114684284D01*
X141812466Y-114767784D01*
X141717821Y-114931715D01*
X141717818Y-114931722D01*
X141662979Y-115100500D01*
X141659326Y-115111744D01*
X141639540Y-115300000D01*
X133270500Y-115300000D01*
X133270500Y-104398687D01*
X133290185Y-104331648D01*
X133302350Y-104315715D01*
X133333985Y-104280580D01*
X133377533Y-104232216D01*
X133472179Y-104068284D01*
X133530674Y-103888256D01*
X133550460Y-103700000D01*
X133530674Y-103511744D01*
X133472179Y-103331716D01*
X133377533Y-103167784D01*
X133250871Y-103027112D01*
X133232012Y-103013410D01*
X133097734Y-102915851D01*
X133097729Y-102915848D01*
X132924807Y-102838857D01*
X132924802Y-102838855D01*
X132767874Y-102805500D01*
X132739646Y-102799500D01*
X132550354Y-102799500D01*
X132522126Y-102805500D01*
X132365197Y-102838855D01*
X132365192Y-102838857D01*
X132192270Y-102915848D01*
X132192265Y-102915851D01*
X132039129Y-103027111D01*
X131912466Y-103167785D01*
X131817821Y-103331715D01*
X131817818Y-103331722D01*
X131764504Y-103495808D01*
X131759326Y-103511744D01*
X131739540Y-103700000D01*
X131759326Y-103888256D01*
X131759327Y-103888259D01*
X131817818Y-104068277D01*
X131817821Y-104068284D01*
X131912467Y-104232216D01*
X131954701Y-104279121D01*
X131987650Y-104315715D01*
X132017880Y-104378706D01*
X132019500Y-104398687D01*
X132019500Y-117101312D01*
X131999815Y-117168351D01*
X131987650Y-117184284D01*
X131912466Y-117267784D01*
X131817821Y-117431715D01*
X131817818Y-117431722D01*
X131759327Y-117611740D01*
X131759326Y-117611744D01*
X131739540Y-117800000D01*
X131070500Y-117800000D01*
X131070500Y-91198687D01*
X131090185Y-91131648D01*
X131102350Y-91115715D01*
X131120891Y-91095122D01*
X131177533Y-91032216D01*
X131272179Y-90868284D01*
X131330674Y-90688256D01*
X131350460Y-90500000D01*
X131330674Y-90311744D01*
X131272179Y-90131716D01*
X131177533Y-89967784D01*
X131050871Y-89827112D01*
X131034769Y-89815413D01*
X130897734Y-89715851D01*
X130897729Y-89715848D01*
X130724807Y-89638857D01*
X130724802Y-89638855D01*
X130579001Y-89607865D01*
X130539646Y-89599500D01*
X130350354Y-89599500D01*
X130317897Y-89606398D01*
X130165197Y-89638855D01*
X130165192Y-89638857D01*
X129992270Y-89715848D01*
X129992265Y-89715851D01*
X129839129Y-89827111D01*
X129839127Y-89827113D01*
X129809453Y-89860069D01*
X129749966Y-89896716D01*
X129680109Y-89895385D01*
X129622062Y-89856497D01*
X129599374Y-89815413D01*
X129572178Y-89731714D01*
X129512113Y-89627677D01*
X129495500Y-89565677D01*
X129495500Y-87534321D01*
X129512113Y-87472321D01*
X129535553Y-87431722D01*
X129572179Y-87368284D01*
X129630674Y-87188256D01*
X129650460Y-87000000D01*
X129630674Y-86811744D01*
X129572179Y-86631716D01*
X129560646Y-86611740D01*
X129512113Y-86527677D01*
X129495500Y-86465677D01*
X129495500Y-77034321D01*
X129512113Y-76972321D01*
X129514732Y-76967785D01*
X129572179Y-76868284D01*
X129627522Y-76697956D01*
X129657768Y-76648598D01*
X131327951Y-74978416D01*
X131354990Y-74937949D01*
X131410084Y-74855495D01*
X131466658Y-74718913D01*
X131485121Y-74626094D01*
X131495500Y-74573920D01*
X131495500Y-64934321D01*
X131512113Y-64872321D01*
X131572179Y-64768284D01*
X131630674Y-64588256D01*
X131650460Y-64400000D01*
X149339540Y-64400000D01*
X149359326Y-64588256D01*
X149359327Y-64588259D01*
X149417818Y-64768277D01*
X149417821Y-64768284D01*
X149512466Y-64932215D01*
X149562649Y-64987948D01*
X149592880Y-65050940D01*
X149594500Y-65070921D01*
X149594500Y-79265677D01*
X149577887Y-79327677D01*
X149517821Y-79431714D01*
X149459327Y-79611740D01*
X149459326Y-79611744D01*
X149439540Y-79800000D01*
X149459326Y-79988256D01*
X149459327Y-79988259D01*
X149517818Y-80168277D01*
X149517821Y-80168284D01*
X149612467Y-80332216D01*
X149739129Y-80472888D01*
X149892265Y-80584148D01*
X149892270Y-80584151D01*
X150065192Y-80661142D01*
X150065197Y-80661144D01*
X150250354Y-80700500D01*
X150250355Y-80700500D01*
X150439644Y-80700500D01*
X150439646Y-80700500D01*
X150624803Y-80661144D01*
X150797730Y-80584151D01*
X150950871Y-80472888D01*
X151077533Y-80332216D01*
X151172179Y-80168284D01*
X151230674Y-79988256D01*
X151250460Y-79800000D01*
X151230674Y-79611744D01*
X151172179Y-79431716D01*
X151112113Y-79327677D01*
X151095500Y-79265677D01*
X151095500Y-76797870D01*
X173194500Y-76797870D01*
X173194501Y-76797876D01*
X173200908Y-76857483D01*
X173251202Y-76992328D01*
X173251206Y-76992335D01*
X173337452Y-77107544D01*
X173337455Y-77107547D01*
X173452664Y-77193793D01*
X173452671Y-77193797D01*
X173452674Y-77193798D01*
X173584598Y-77243002D01*
X173640531Y-77284873D01*
X173664949Y-77350337D01*
X173650098Y-77418610D01*
X173628947Y-77446865D01*
X173506886Y-77568926D01*
X173371400Y-77762420D01*
X173371399Y-77762422D01*
X173271570Y-77976507D01*
X173271567Y-77976513D01*
X173214364Y-78189999D01*
X173214364Y-78190000D01*
X174111988Y-78190000D01*
X174079075Y-78247007D01*
X174045000Y-78374174D01*
X174045000Y-78505826D01*
X174079075Y-78632993D01*
X174111988Y-78690000D01*
X173214364Y-78690000D01*
X173271567Y-78903486D01*
X173271570Y-78903492D01*
X173371399Y-79117578D01*
X173506894Y-79311082D01*
X173673917Y-79478105D01*
X173867421Y-79613600D01*
X174081507Y-79713429D01*
X174081516Y-79713433D01*
X174295000Y-79770634D01*
X174295000Y-78873012D01*
X174352007Y-78905925D01*
X174479174Y-78940000D01*
X174610826Y-78940000D01*
X174737993Y-78905925D01*
X174795000Y-78873012D01*
X174795000Y-79770633D01*
X175008483Y-79713433D01*
X175008492Y-79713429D01*
X175222578Y-79613600D01*
X175416082Y-79478105D01*
X175583105Y-79311082D01*
X175713119Y-79125405D01*
X175767696Y-79081781D01*
X175837195Y-79074588D01*
X175899549Y-79106110D01*
X175916269Y-79125405D01*
X176046505Y-79311401D01*
X176213599Y-79478495D01*
X176310384Y-79546265D01*
X176407165Y-79614032D01*
X176407167Y-79614033D01*
X176407170Y-79614035D01*
X176621337Y-79713903D01*
X176849592Y-79775063D01*
X177037918Y-79791539D01*
X177084999Y-79795659D01*
X177085000Y-79795659D01*
X177085001Y-79795659D01*
X177124234Y-79792226D01*
X177320408Y-79775063D01*
X177548663Y-79713903D01*
X177762830Y-79614035D01*
X177956401Y-79478495D01*
X178123495Y-79311401D01*
X178253425Y-79125842D01*
X178308002Y-79082217D01*
X178377500Y-79075023D01*
X178439855Y-79106546D01*
X178456575Y-79125842D01*
X178586500Y-79311395D01*
X178586505Y-79311401D01*
X178753599Y-79478495D01*
X178850384Y-79546265D01*
X178947165Y-79614032D01*
X178947167Y-79614033D01*
X178947170Y-79614035D01*
X179161337Y-79713903D01*
X179389592Y-79775063D01*
X179577918Y-79791539D01*
X179624999Y-79795659D01*
X179625000Y-79795659D01*
X179625001Y-79795659D01*
X179664234Y-79792226D01*
X179860408Y-79775063D01*
X180088663Y-79713903D01*
X180302830Y-79614035D01*
X180496401Y-79478495D01*
X180663495Y-79311401D01*
X180799035Y-79117830D01*
X180898903Y-78903663D01*
X180960063Y-78675408D01*
X180980659Y-78440000D01*
X180960063Y-78204592D01*
X180900176Y-77981087D01*
X180898905Y-77976344D01*
X180898904Y-77976343D01*
X180898903Y-77976337D01*
X180799035Y-77762171D01*
X180793731Y-77754595D01*
X180663494Y-77568597D01*
X180496402Y-77401506D01*
X180496396Y-77401501D01*
X180310842Y-77271575D01*
X180267217Y-77216998D01*
X180260023Y-77147500D01*
X180291546Y-77085145D01*
X180310842Y-77068425D01*
X180359547Y-77034321D01*
X180496401Y-76938495D01*
X180663495Y-76771401D01*
X180799035Y-76577830D01*
X180898903Y-76363663D01*
X180960063Y-76135408D01*
X180980659Y-75900000D01*
X180960063Y-75664592D01*
X180898903Y-75436337D01*
X180799035Y-75222171D01*
X180793731Y-75214595D01*
X180663494Y-75028597D01*
X180496402Y-74861506D01*
X180496395Y-74861501D01*
X180302834Y-74725967D01*
X180302830Y-74725965D01*
X180302828Y-74725964D01*
X180088663Y-74626097D01*
X180088659Y-74626096D01*
X180088655Y-74626094D01*
X179860413Y-74564938D01*
X179860403Y-74564936D01*
X179625001Y-74544341D01*
X179624999Y-74544341D01*
X179389596Y-74564936D01*
X179389586Y-74564938D01*
X179161344Y-74626094D01*
X179161335Y-74626098D01*
X178947171Y-74725964D01*
X178947169Y-74725965D01*
X178753597Y-74861505D01*
X178586508Y-75028594D01*
X178456269Y-75214595D01*
X178401692Y-75258219D01*
X178332193Y-75265412D01*
X178269839Y-75233890D01*
X178253119Y-75214594D01*
X178123113Y-75028926D01*
X178123108Y-75028920D01*
X177956082Y-74861894D01*
X177762578Y-74726399D01*
X177548492Y-74626570D01*
X177548486Y-74626567D01*
X177335000Y-74569364D01*
X177335000Y-75466988D01*
X177277993Y-75434075D01*
X177150826Y-75400000D01*
X177019174Y-75400000D01*
X176892007Y-75434075D01*
X176835000Y-75466988D01*
X176835000Y-74569364D01*
X176834999Y-74569364D01*
X176621513Y-74626567D01*
X176621507Y-74626570D01*
X176407422Y-74726399D01*
X176407420Y-74726400D01*
X176213926Y-74861886D01*
X176091865Y-74983947D01*
X176030542Y-75017431D01*
X175960850Y-75012447D01*
X175904917Y-74970575D01*
X175888002Y-74939598D01*
X175838797Y-74807671D01*
X175838793Y-74807664D01*
X175752547Y-74692455D01*
X175752544Y-74692452D01*
X175637335Y-74606206D01*
X175637328Y-74606202D01*
X175502482Y-74555908D01*
X175502483Y-74555908D01*
X175442883Y-74549501D01*
X175442881Y-74549500D01*
X175442873Y-74549500D01*
X175442864Y-74549500D01*
X173647129Y-74549500D01*
X173647123Y-74549501D01*
X173587516Y-74555908D01*
X173452671Y-74606202D01*
X173452664Y-74606206D01*
X173337455Y-74692452D01*
X173337452Y-74692455D01*
X173251206Y-74807664D01*
X173251202Y-74807671D01*
X173200908Y-74942517D01*
X173194501Y-75002116D01*
X173194500Y-75002135D01*
X173194500Y-76797870D01*
X151095500Y-76797870D01*
X151095500Y-69321288D01*
X166449500Y-69321288D01*
X166481161Y-69561785D01*
X166543947Y-69796104D01*
X166600335Y-69932235D01*
X166636776Y-70020212D01*
X166758064Y-70230289D01*
X166758066Y-70230292D01*
X166758067Y-70230293D01*
X166905733Y-70422736D01*
X166905739Y-70422743D01*
X167077256Y-70594260D01*
X167077262Y-70594265D01*
X167269711Y-70741936D01*
X167479788Y-70863224D01*
X167703900Y-70956054D01*
X167938211Y-71018838D01*
X168118586Y-71042584D01*
X168178711Y-71050500D01*
X168178712Y-71050500D01*
X168421289Y-71050500D01*
X168469388Y-71044167D01*
X168661789Y-71018838D01*
X168896100Y-70956054D01*
X169120212Y-70863224D01*
X169330289Y-70741936D01*
X169522738Y-70594265D01*
X169694265Y-70422738D01*
X169841936Y-70230289D01*
X169963224Y-70020212D01*
X170056054Y-69796100D01*
X170118838Y-69561789D01*
X170150500Y-69321288D01*
X170150500Y-69078712D01*
X170148712Y-69065134D01*
X170118838Y-68838214D01*
X170118838Y-68838211D01*
X170056054Y-68603900D01*
X169963224Y-68379788D01*
X169841936Y-68169711D01*
X169694265Y-67977262D01*
X169694260Y-67977256D01*
X169522743Y-67805739D01*
X169522736Y-67805733D01*
X169330293Y-67658067D01*
X169330292Y-67658066D01*
X169330289Y-67658064D01*
X169120212Y-67536776D01*
X169120205Y-67536773D01*
X168896104Y-67443947D01*
X168661785Y-67381161D01*
X168421289Y-67349500D01*
X168421288Y-67349500D01*
X168178712Y-67349500D01*
X168178711Y-67349500D01*
X167938214Y-67381161D01*
X167703895Y-67443947D01*
X167479794Y-67536773D01*
X167479785Y-67536777D01*
X167269706Y-67658067D01*
X167077263Y-67805733D01*
X167077256Y-67805739D01*
X166905739Y-67977256D01*
X166905733Y-67977263D01*
X166758067Y-68169706D01*
X166636777Y-68379785D01*
X166636773Y-68379794D01*
X166543947Y-68603895D01*
X166481161Y-68838214D01*
X166449500Y-69078711D01*
X166449500Y-69321288D01*
X151095500Y-69321288D01*
X151095500Y-64716149D01*
X151101569Y-64677831D01*
X151103407Y-64672171D01*
X151130674Y-64588256D01*
X151150460Y-64400000D01*
X151130674Y-64211744D01*
X151072179Y-64031716D01*
X150977533Y-63867784D01*
X150850871Y-63727112D01*
X150850870Y-63727111D01*
X150697734Y-63615851D01*
X150697729Y-63615848D01*
X150524807Y-63538857D01*
X150524802Y-63538855D01*
X150379001Y-63507865D01*
X150339646Y-63499500D01*
X150150354Y-63499500D01*
X150117897Y-63506398D01*
X149965197Y-63538855D01*
X149965192Y-63538857D01*
X149792270Y-63615848D01*
X149792265Y-63615851D01*
X149639129Y-63727111D01*
X149512466Y-63867785D01*
X149417821Y-64031715D01*
X149417818Y-64031722D01*
X149359327Y-64211740D01*
X149359326Y-64211744D01*
X149339540Y-64400000D01*
X131650460Y-64400000D01*
X131630674Y-64211744D01*
X131572179Y-64031716D01*
X131477533Y-63867784D01*
X131350871Y-63727112D01*
X131350870Y-63727111D01*
X131197734Y-63615851D01*
X131197729Y-63615848D01*
X131024807Y-63538857D01*
X131024802Y-63538855D01*
X130879001Y-63507865D01*
X130839646Y-63499500D01*
X130650354Y-63499500D01*
X130617897Y-63506398D01*
X130465197Y-63538855D01*
X130465192Y-63538857D01*
X130292270Y-63615848D01*
X130292265Y-63615851D01*
X130139129Y-63727111D01*
X130012466Y-63867785D01*
X129917821Y-64031715D01*
X129917818Y-64031722D01*
X129859327Y-64211740D01*
X129859326Y-64211744D01*
X129839540Y-64400000D01*
X129859326Y-64588256D01*
X129859327Y-64588259D01*
X129917818Y-64768277D01*
X129917821Y-64768284D01*
X129977887Y-64872321D01*
X129994500Y-64934321D01*
X129994500Y-74137769D01*
X129974815Y-74204808D01*
X129958181Y-74225450D01*
X128592228Y-75591402D01*
X128530905Y-75624887D01*
X128530329Y-75625011D01*
X128465196Y-75638856D01*
X128465192Y-75638857D01*
X128292270Y-75715848D01*
X128292265Y-75715851D01*
X128139129Y-75827111D01*
X128012466Y-75967785D01*
X127917821Y-76131715D01*
X127917818Y-76131722D01*
X127859327Y-76311740D01*
X127859326Y-76311744D01*
X127839540Y-76500000D01*
X127859326Y-76688256D01*
X127859327Y-76688259D01*
X127917818Y-76868277D01*
X127917821Y-76868284D01*
X127975267Y-76967784D01*
X127977887Y-76972321D01*
X127994500Y-77034321D01*
X127994500Y-86465677D01*
X127977887Y-86527677D01*
X127917821Y-86631714D01*
X127873449Y-86768277D01*
X127859326Y-86811744D01*
X127839540Y-87000000D01*
X127859326Y-87188256D01*
X127859327Y-87188259D01*
X127917818Y-87368277D01*
X127917821Y-87368284D01*
X127954443Y-87431716D01*
X127977887Y-87472321D01*
X127994500Y-87534321D01*
X127994500Y-89565677D01*
X127977887Y-89627677D01*
X127917821Y-89731714D01*
X127886824Y-89827113D01*
X127859326Y-89911744D01*
X127839540Y-90100000D01*
X127859326Y-90288256D01*
X127859327Y-90288259D01*
X127917818Y-90468277D01*
X127917821Y-90468284D01*
X127977887Y-90572321D01*
X127994500Y-90634321D01*
X127994500Y-93365677D01*
X127977887Y-93427677D01*
X127917821Y-93531714D01*
X127859327Y-93711740D01*
X127859326Y-93711744D01*
X127839540Y-93900000D01*
X127859326Y-94088256D01*
X127859327Y-94088259D01*
X127917818Y-94268277D01*
X127917821Y-94268284D01*
X127977887Y-94372321D01*
X127994500Y-94434321D01*
X127994500Y-105365677D01*
X127977887Y-105427677D01*
X127917821Y-105531714D01*
X127870541Y-105677228D01*
X127859326Y-105711744D01*
X127839540Y-105900000D01*
X127859326Y-106088256D01*
X127859327Y-106088259D01*
X127917818Y-106268277D01*
X127917821Y-106268284D01*
X127977887Y-106372321D01*
X127994500Y-106434321D01*
X127994500Y-109798134D01*
X127974815Y-109865173D01*
X127922011Y-109910928D01*
X127852853Y-109920872D01*
X127789297Y-109891847D01*
X127782819Y-109885815D01*
X127612743Y-109715739D01*
X127612736Y-109715733D01*
X127420293Y-109568067D01*
X127420292Y-109568066D01*
X127420289Y-109568064D01*
X127210212Y-109446776D01*
X127210205Y-109446773D01*
X126986104Y-109353947D01*
X126858566Y-109319773D01*
X126751789Y-109291162D01*
X126751788Y-109291161D01*
X126751785Y-109291161D01*
X126511289Y-109259500D01*
X126511288Y-109259500D01*
X126268712Y-109259500D01*
X126268711Y-109259500D01*
X126028214Y-109291161D01*
X125793895Y-109353947D01*
X125569794Y-109446773D01*
X125569785Y-109446777D01*
X125359706Y-109568067D01*
X125167263Y-109715733D01*
X125167256Y-109715739D01*
X124995739Y-109887256D01*
X124995733Y-109887263D01*
X124848067Y-110079706D01*
X124726777Y-110289785D01*
X124726773Y-110289794D01*
X124633947Y-110513895D01*
X124571161Y-110748214D01*
X124539500Y-110988711D01*
X124539500Y-111231288D01*
X124571161Y-111471785D01*
X124633947Y-111706104D01*
X124726773Y-111930205D01*
X124726776Y-111930212D01*
X124848064Y-112140289D01*
X124848066Y-112140292D01*
X124848067Y-112140293D01*
X124995733Y-112332736D01*
X124995739Y-112332743D01*
X125167256Y-112504260D01*
X125167262Y-112504265D01*
X125359711Y-112651936D01*
X125569788Y-112773224D01*
X125793900Y-112866054D01*
X126028211Y-112928838D01*
X126208586Y-112952584D01*
X126268711Y-112960500D01*
X126268712Y-112960500D01*
X126511289Y-112960500D01*
X126559388Y-112954167D01*
X126751789Y-112928838D01*
X126986100Y-112866054D01*
X127210212Y-112773224D01*
X127420289Y-112651936D01*
X127612738Y-112504265D01*
X127695137Y-112421866D01*
X127782819Y-112334185D01*
X127844142Y-112300700D01*
X127913834Y-112305684D01*
X127969767Y-112347556D01*
X127994184Y-112413020D01*
X127994500Y-112421866D01*
X127994500Y-123865677D01*
X127977887Y-123927677D01*
X127917821Y-124031714D01*
X127859327Y-124211740D01*
X127859326Y-124211744D01*
X127839540Y-124400000D01*
X127859326Y-124588256D01*
X127859327Y-124588259D01*
X127917818Y-124768277D01*
X127917821Y-124768284D01*
X127977887Y-124872321D01*
X127994500Y-124934321D01*
X127994500Y-126565677D01*
X127977887Y-126627677D01*
X127917821Y-126731714D01*
X127859327Y-126911740D01*
X127859326Y-126911744D01*
X127839540Y-127100000D01*
X127859326Y-127288256D01*
X127859327Y-127288259D01*
X127917818Y-127468277D01*
X127917821Y-127468284D01*
X127977887Y-127572321D01*
X127994500Y-127634321D01*
X127994500Y-128665677D01*
X127977887Y-128727677D01*
X127917821Y-128831714D01*
X127879939Y-128948304D01*
X127859326Y-129011744D01*
X127839540Y-129200000D01*
X127859326Y-129388256D01*
X127859327Y-129388259D01*
X127917818Y-129568277D01*
X127917821Y-129568284D01*
X128012467Y-129732216D01*
X128081471Y-129808852D01*
X128139129Y-129872888D01*
X128292265Y-129984148D01*
X128292270Y-129984151D01*
X128465192Y-130061142D01*
X128465193Y-130061142D01*
X128465197Y-130061144D01*
X128509811Y-130070627D01*
X128517315Y-130072222D01*
X128578797Y-130105414D01*
X128612574Y-130166577D01*
X128607922Y-130236291D01*
X128579216Y-130281193D01*
X127897229Y-130963181D01*
X127835906Y-130996666D01*
X127809548Y-130999500D01*
X127750352Y-130999500D01*
X127620280Y-131027147D01*
X127550613Y-131021831D01*
X127494880Y-130979693D01*
X127470775Y-130914113D01*
X127470500Y-130905857D01*
X127470500Y-118838396D01*
X127470500Y-118838394D01*
X127446463Y-118717548D01*
X127446461Y-118717543D01*
X127426962Y-118670468D01*
X127426947Y-118670435D01*
X127426932Y-118670397D01*
X127399312Y-118603715D01*
X127355974Y-118538856D01*
X127355974Y-118538855D01*
X127355972Y-118538854D01*
X127330858Y-118501267D01*
X127330857Y-118501265D01*
X127240637Y-118411045D01*
X127240606Y-118411016D01*
X123306819Y-114477229D01*
X123273334Y-114415906D01*
X123270500Y-114389548D01*
X123270500Y-109710452D01*
X123290185Y-109643413D01*
X123306819Y-109622771D01*
X124941334Y-107988256D01*
X126630857Y-106298734D01*
X126641737Y-106282452D01*
X126699311Y-106196286D01*
X126746463Y-106082452D01*
X126770500Y-105961606D01*
X126770500Y-92598687D01*
X126790185Y-92531648D01*
X126802350Y-92515715D01*
X126821569Y-92494370D01*
X126877533Y-92432216D01*
X126972179Y-92268284D01*
X127030674Y-92088256D01*
X127050460Y-91900000D01*
X127030674Y-91711744D01*
X126972179Y-91531716D01*
X126877533Y-91367784D01*
X126750871Y-91227112D01*
X126750870Y-91227111D01*
X126597734Y-91115851D01*
X126597729Y-91115848D01*
X126424807Y-91038857D01*
X126424802Y-91038855D01*
X126248989Y-91001486D01*
X126239646Y-90999500D01*
X126050354Y-90999500D01*
X126041011Y-91001486D01*
X125865197Y-91038855D01*
X125865192Y-91038857D01*
X125692270Y-91115848D01*
X125692265Y-91115851D01*
X125539129Y-91227111D01*
X125412466Y-91367785D01*
X125317821Y-91531715D01*
X125317818Y-91531722D01*
X125259327Y-91711740D01*
X125259326Y-91711744D01*
X125239540Y-91900000D01*
X125259326Y-92088256D01*
X125259327Y-92088259D01*
X125317818Y-92268277D01*
X125317821Y-92268284D01*
X125412467Y-92432216D01*
X125419476Y-92440000D01*
X125487650Y-92515715D01*
X125517880Y-92578706D01*
X125519500Y-92598687D01*
X125519500Y-105589547D01*
X125499815Y-105656586D01*
X125483181Y-105677228D01*
X122246269Y-108914140D01*
X122246267Y-108914142D01*
X122202704Y-108957704D01*
X122159142Y-109001266D01*
X122131449Y-109042712D01*
X122131448Y-109042711D01*
X122090689Y-109103711D01*
X122090688Y-109103712D01*
X122078164Y-109133950D01*
X122065650Y-109164162D01*
X122043538Y-109217544D01*
X122043535Y-109217556D01*
X122019500Y-109338389D01*
X122019500Y-114761610D01*
X110570500Y-114761610D01*
X110570500Y-103338393D01*
X110570499Y-103338389D01*
X110569172Y-103331716D01*
X110546463Y-103217548D01*
X110508020Y-103124739D01*
X110499312Y-103103716D01*
X110499307Y-103103707D01*
X110430859Y-103001268D01*
X110413739Y-102984148D01*
X110343733Y-102914142D01*
X110343732Y-102914141D01*
X107629590Y-100200000D01*
X120139540Y-100200000D01*
X120159326Y-100388256D01*
X120159327Y-100388259D01*
X120217818Y-100568277D01*
X120217821Y-100568284D01*
X120312467Y-100732216D01*
X120344937Y-100768277D01*
X120439129Y-100872888D01*
X120592265Y-100984148D01*
X120592270Y-100984151D01*
X120765192Y-101061142D01*
X120765197Y-101061144D01*
X120950354Y-101100500D01*
X120950355Y-101100500D01*
X121139644Y-101100500D01*
X121139646Y-101100500D01*
X121324803Y-101061144D01*
X121497730Y-100984151D01*
X121650871Y-100872888D01*
X121777533Y-100732216D01*
X121872179Y-100568284D01*
X121930674Y-100388256D01*
X121950460Y-100200000D01*
X121930674Y-100011744D01*
X121872179Y-99831716D01*
X121777533Y-99667784D01*
X121757637Y-99645687D01*
X121702350Y-99584284D01*
X121672120Y-99521292D01*
X121670500Y-99501312D01*
X121670500Y-89110452D01*
X121690185Y-89043413D01*
X121706819Y-89022771D01*
X121992772Y-88736819D01*
X122054095Y-88703334D01*
X122080453Y-88700500D01*
X122139644Y-88700500D01*
X122139646Y-88700500D01*
X122324803Y-88661144D01*
X122497730Y-88584151D01*
X122650871Y-88472888D01*
X122777533Y-88332216D01*
X122872179Y-88168284D01*
X122927069Y-87999351D01*
X122966506Y-87941675D01*
X123030865Y-87914477D01*
X123099711Y-87926392D01*
X123151187Y-87973636D01*
X123162931Y-87999351D01*
X123217818Y-88168277D01*
X123217821Y-88168284D01*
X123312467Y-88332216D01*
X123355772Y-88380310D01*
X123387650Y-88415715D01*
X123417880Y-88478706D01*
X123419500Y-88498687D01*
X123419500Y-101501312D01*
X123399815Y-101568351D01*
X123387650Y-101584284D01*
X123312466Y-101667784D01*
X123217821Y-101831715D01*
X123217818Y-101831722D01*
X123166552Y-101989505D01*
X123159326Y-102011744D01*
X123139540Y-102200000D01*
X123159326Y-102388256D01*
X123159327Y-102388259D01*
X123217818Y-102568277D01*
X123217821Y-102568284D01*
X123312467Y-102732216D01*
X123433708Y-102866867D01*
X123439129Y-102872888D01*
X123592265Y-102984148D01*
X123592270Y-102984151D01*
X123765192Y-103061142D01*
X123765197Y-103061144D01*
X123950354Y-103100500D01*
X123950355Y-103100500D01*
X124139644Y-103100500D01*
X124139646Y-103100500D01*
X124324803Y-103061144D01*
X124497730Y-102984151D01*
X124650871Y-102872888D01*
X124777533Y-102732216D01*
X124872179Y-102568284D01*
X124930674Y-102388256D01*
X124950460Y-102200000D01*
X124930674Y-102011744D01*
X124872179Y-101831716D01*
X124777533Y-101667784D01*
X124702350Y-101584284D01*
X124672120Y-101521292D01*
X124670500Y-101501312D01*
X124670500Y-88498687D01*
X124690185Y-88431648D01*
X124702350Y-88415715D01*
X124720891Y-88395122D01*
X124777533Y-88332216D01*
X124872179Y-88168284D01*
X124930674Y-87988256D01*
X124950460Y-87800000D01*
X124930674Y-87611744D01*
X124872179Y-87431716D01*
X124777533Y-87267784D01*
X124650871Y-87127112D01*
X124650870Y-87127111D01*
X124497734Y-87015851D01*
X124497729Y-87015848D01*
X124324807Y-86938857D01*
X124324802Y-86938855D01*
X124177170Y-86907476D01*
X124139646Y-86899500D01*
X123950354Y-86899500D01*
X123917897Y-86906398D01*
X123765197Y-86938855D01*
X123765192Y-86938857D01*
X123592270Y-87015848D01*
X123592265Y-87015851D01*
X123439129Y-87127111D01*
X123312466Y-87267785D01*
X123217821Y-87431715D01*
X123217818Y-87431722D01*
X123162931Y-87600648D01*
X123123493Y-87658324D01*
X123059135Y-87685522D01*
X122990288Y-87673607D01*
X122938813Y-87626363D01*
X122927069Y-87600648D01*
X122872181Y-87431722D01*
X122872180Y-87431721D01*
X122872179Y-87431716D01*
X122777533Y-87267784D01*
X122650871Y-87127112D01*
X122650870Y-87127111D01*
X122497734Y-87015851D01*
X122497729Y-87015848D01*
X122324807Y-86938857D01*
X122324802Y-86938855D01*
X122177170Y-86907476D01*
X122139646Y-86899500D01*
X121950354Y-86899500D01*
X121917897Y-86906398D01*
X121765197Y-86938855D01*
X121765192Y-86938857D01*
X121592270Y-87015848D01*
X121592265Y-87015851D01*
X121439129Y-87127111D01*
X121312466Y-87267785D01*
X121217821Y-87431715D01*
X121217818Y-87431722D01*
X121162931Y-87600648D01*
X121159326Y-87611744D01*
X121154134Y-87661144D01*
X121141679Y-87779649D01*
X121115094Y-87844263D01*
X121106039Y-87854368D01*
X120646269Y-88314140D01*
X120559144Y-88401264D01*
X120559138Y-88401272D01*
X120490690Y-88503708D01*
X120490688Y-88503713D01*
X120457370Y-88584152D01*
X120457369Y-88584154D01*
X120443539Y-88617539D01*
X120443538Y-88617544D01*
X120443537Y-88617547D01*
X120443537Y-88617548D01*
X120419814Y-88736819D01*
X120419500Y-88738396D01*
X120419500Y-99501312D01*
X120399815Y-99568351D01*
X120387650Y-99584284D01*
X120312466Y-99667784D01*
X120217821Y-99831715D01*
X120217818Y-99831722D01*
X120195990Y-99898903D01*
X120159326Y-100011744D01*
X120139540Y-100200000D01*
X107629590Y-100200000D01*
X107237927Y-99808337D01*
X107237925Y-99808334D01*
X107237925Y-99808335D01*
X107230858Y-99801268D01*
X107230858Y-99801267D01*
X107143733Y-99714142D01*
X107143732Y-99714141D01*
X107143731Y-99714140D01*
X107084405Y-99674500D01*
X107041286Y-99645688D01*
X106960792Y-99612347D01*
X106927453Y-99598537D01*
X106917427Y-99596543D01*
X106867029Y-99586518D01*
X106806610Y-99574500D01*
X106806607Y-99574500D01*
X106806606Y-99574500D01*
X105048748Y-99574500D01*
X104981709Y-99554815D01*
X104956600Y-99533474D01*
X104950873Y-99527114D01*
X104950869Y-99527110D01*
X104797734Y-99415851D01*
X104797729Y-99415848D01*
X104624807Y-99338857D01*
X104624802Y-99338855D01*
X104479001Y-99307865D01*
X104439646Y-99299500D01*
X104250354Y-99299500D01*
X104217897Y-99306398D01*
X104065197Y-99338855D01*
X104065192Y-99338857D01*
X103892270Y-99415848D01*
X103892265Y-99415851D01*
X103739129Y-99527111D01*
X103612466Y-99667785D01*
X103517821Y-99831715D01*
X103517818Y-99831722D01*
X103495990Y-99898903D01*
X103459326Y-100011744D01*
X103439540Y-100200000D01*
X103459326Y-100388256D01*
X103459327Y-100388259D01*
X103517818Y-100568277D01*
X103517821Y-100568284D01*
X103612467Y-100732216D01*
X103644937Y-100768277D01*
X103698859Y-100828164D01*
X103729089Y-100891155D01*
X103720464Y-100960491D01*
X103675722Y-101014156D01*
X103621492Y-101034252D01*
X103619418Y-101034500D01*
X103619414Y-101034501D01*
X103589459Y-101038097D01*
X103534868Y-101044652D01*
X103400327Y-101097708D01*
X103285093Y-101185093D01*
X103197708Y-101300327D01*
X103148154Y-101425990D01*
X103105248Y-101481134D01*
X103039340Y-101504327D01*
X103032799Y-101504500D01*
X102325929Y-101504500D01*
X102250955Y-101519414D01*
X102212256Y-101527112D01*
X102203234Y-101528906D01*
X102200255Y-101529499D01*
X102081874Y-101578534D01*
X101975326Y-101649726D01*
X100864726Y-102760326D01*
X100864723Y-102760331D01*
X100812256Y-102838856D01*
X100798271Y-102859786D01*
X100798269Y-102859788D01*
X100793538Y-102866867D01*
X100793535Y-102866873D01*
X100744499Y-102985255D01*
X100744497Y-102985261D01*
X100719500Y-103110928D01*
X100719500Y-105667072D01*
X100699815Y-105734111D01*
X100660598Y-105772609D01*
X100601055Y-105809336D01*
X100563842Y-105832289D01*
X100439789Y-105956342D01*
X100347687Y-106105663D01*
X100347686Y-106105666D01*
X100292501Y-106272203D01*
X100292501Y-106272204D01*
X100292500Y-106272204D01*
X100282000Y-106374983D01*
X100282000Y-107425001D01*
X99447492Y-107425001D01*
X99447492Y-106210030D01*
X99447544Y-106206457D01*
X99464371Y-105622779D01*
X99487309Y-104827159D01*
X99487463Y-104823590D01*
X99490844Y-104765000D01*
X99566964Y-103445929D01*
X99567216Y-103442447D01*
X99686391Y-102067586D01*
X99686738Y-102064152D01*
X99845482Y-100693322D01*
X99845935Y-100689852D01*
X100044122Y-99324135D01*
X100044673Y-99320694D01*
X100282117Y-97961358D01*
X100282779Y-97957865D01*
X100559308Y-96605885D01*
X100560060Y-96602462D01*
X100875430Y-95259037D01*
X100876274Y-95255658D01*
X101230257Y-93921769D01*
X101231193Y-93918440D01*
X101623433Y-92595424D01*
X101624495Y-92592024D01*
X101730717Y-92268284D01*
X102054697Y-91280867D01*
X102055857Y-91277500D01*
X102091457Y-91178707D01*
X102523671Y-89979267D01*
X102524894Y-89976021D01*
X103029954Y-88691741D01*
X103031251Y-88688577D01*
X103573154Y-87419288D01*
X103574513Y-87416230D01*
X104043445Y-86400000D01*
X109739540Y-86400000D01*
X109759326Y-86588256D01*
X109759327Y-86588259D01*
X109817818Y-86768277D01*
X109817821Y-86768284D01*
X109912467Y-86932216D01*
X109987770Y-87015848D01*
X110039129Y-87072888D01*
X110192265Y-87184148D01*
X110192270Y-87184151D01*
X110365192Y-87261142D01*
X110365197Y-87261144D01*
X110550354Y-87300500D01*
X110550355Y-87300500D01*
X110739644Y-87300500D01*
X110739646Y-87300500D01*
X110924803Y-87261144D01*
X111097730Y-87184151D01*
X111250871Y-87072888D01*
X111377533Y-86932216D01*
X111420129Y-86858436D01*
X111470694Y-86810223D01*
X111539301Y-86796999D01*
X111604166Y-86822967D01*
X111644695Y-86879880D01*
X111650835Y-86907475D01*
X111659326Y-86988256D01*
X111659327Y-86988259D01*
X111717818Y-87168277D01*
X111717821Y-87168284D01*
X111812467Y-87332216D01*
X111902063Y-87431722D01*
X111939129Y-87472888D01*
X112092265Y-87584148D01*
X112092270Y-87584151D01*
X112265192Y-87661142D01*
X112265197Y-87661144D01*
X112450354Y-87700500D01*
X112450355Y-87700500D01*
X112639644Y-87700500D01*
X112639646Y-87700500D01*
X112824803Y-87661144D01*
X112997730Y-87584151D01*
X113150871Y-87472888D01*
X113277533Y-87332216D01*
X113372179Y-87168284D01*
X113430674Y-86988256D01*
X113450460Y-86800000D01*
X113430674Y-86611744D01*
X113372179Y-86431716D01*
X113277533Y-86267784D01*
X113277532Y-86267783D01*
X113202350Y-86184284D01*
X113172120Y-86121292D01*
X113170500Y-86101312D01*
X113170500Y-79098687D01*
X113190185Y-79031648D01*
X113202350Y-79015715D01*
X113220891Y-78995122D01*
X113277533Y-78932216D01*
X113372179Y-78768284D01*
X113430674Y-78588256D01*
X113450460Y-78400000D01*
X113430674Y-78211744D01*
X113376112Y-78043823D01*
X113372181Y-78031722D01*
X113372180Y-78031721D01*
X113372179Y-78031716D01*
X113277533Y-77867784D01*
X113150871Y-77727112D01*
X113150870Y-77727111D01*
X112997734Y-77615851D01*
X112997729Y-77615848D01*
X112824807Y-77538857D01*
X112824802Y-77538855D01*
X112675505Y-77507122D01*
X112639646Y-77499500D01*
X112450354Y-77499500D01*
X112389480Y-77512438D01*
X112319815Y-77507122D01*
X112264082Y-77464984D01*
X112240381Y-77404111D01*
X112230674Y-77311744D01*
X112172179Y-77131716D01*
X112077533Y-76967784D01*
X111950871Y-76827112D01*
X111934634Y-76815315D01*
X111797734Y-76715851D01*
X111797729Y-76715848D01*
X111624807Y-76638857D01*
X111624802Y-76638855D01*
X111479001Y-76607865D01*
X111439646Y-76599500D01*
X111250354Y-76599500D01*
X111217897Y-76606398D01*
X111065197Y-76638855D01*
X111065192Y-76638857D01*
X110892270Y-76715848D01*
X110892265Y-76715851D01*
X110739129Y-76827111D01*
X110612466Y-76967785D01*
X110517821Y-77131715D01*
X110517819Y-77131719D01*
X110462479Y-77302039D01*
X110432229Y-77351401D01*
X110062049Y-77721581D01*
X110012812Y-77795271D01*
X109979921Y-77844496D01*
X109979914Y-77844508D01*
X109923342Y-77981086D01*
X109923340Y-77981092D01*
X109894500Y-78126079D01*
X109894500Y-85865677D01*
X109877887Y-85927677D01*
X109817821Y-86031714D01*
X109775117Y-86163144D01*
X109759326Y-86211744D01*
X109739540Y-86400000D01*
X104043445Y-86400000D01*
X104152741Y-86163144D01*
X104154230Y-86160034D01*
X104768293Y-84924205D01*
X104769898Y-84921088D01*
X105419332Y-83703444D01*
X105421018Y-83700391D01*
X106105268Y-82501978D01*
X106107032Y-82498989D01*
X106825541Y-81320780D01*
X106827362Y-81317887D01*
X107579554Y-80160831D01*
X107581472Y-80157971D01*
X108366674Y-79023103D01*
X108368704Y-79020259D01*
X109186245Y-77908542D01*
X109188327Y-77905794D01*
X110037618Y-76818033D01*
X110039803Y-76815315D01*
X110920055Y-75752523D01*
X110922317Y-75749871D01*
X111832836Y-74712878D01*
X111835151Y-74710318D01*
X112775218Y-73699952D01*
X112777573Y-73697493D01*
X113746315Y-72714689D01*
X113748849Y-72712191D01*
X114745475Y-71757747D01*
X114748092Y-71755313D01*
X115771784Y-70830008D01*
X115774416Y-70827697D01*
X116824399Y-69932235D01*
X116827140Y-69929965D01*
X116993586Y-69796104D01*
X117390009Y-69477288D01*
X124666500Y-69477288D01*
X124698161Y-69717785D01*
X124760947Y-69952104D01*
X124853773Y-70176205D01*
X124853776Y-70176212D01*
X124975064Y-70386289D01*
X124975066Y-70386292D01*
X124975067Y-70386293D01*
X125122733Y-70578736D01*
X125122739Y-70578743D01*
X125294256Y-70750260D01*
X125294262Y-70750265D01*
X125486711Y-70897936D01*
X125696788Y-71019224D01*
X125920900Y-71112054D01*
X126155211Y-71174838D01*
X126335586Y-71198584D01*
X126395711Y-71206500D01*
X126395712Y-71206500D01*
X126638289Y-71206500D01*
X126686388Y-71200167D01*
X126878789Y-71174838D01*
X127113100Y-71112054D01*
X127337212Y-71019224D01*
X127547289Y-70897936D01*
X127739738Y-70750265D01*
X127911265Y-70578738D01*
X128058936Y-70386289D01*
X128180224Y-70176212D01*
X128273054Y-69952100D01*
X128335838Y-69717789D01*
X128367500Y-69477288D01*
X128367500Y-69234712D01*
X128335838Y-68994211D01*
X128273054Y-68759900D01*
X128180224Y-68535788D01*
X128058936Y-68325711D01*
X127983536Y-68227447D01*
X127911266Y-68133263D01*
X127911260Y-68133256D01*
X127739743Y-67961739D01*
X127739736Y-67961733D01*
X127547293Y-67814067D01*
X127547292Y-67814066D01*
X127547289Y-67814064D01*
X127337212Y-67692776D01*
X127337205Y-67692773D01*
X127113104Y-67599947D01*
X126878785Y-67537161D01*
X126638289Y-67505500D01*
X126638288Y-67505500D01*
X126395712Y-67505500D01*
X126395711Y-67505500D01*
X126155214Y-67537161D01*
X125920895Y-67599947D01*
X125696794Y-67692773D01*
X125696785Y-67692777D01*
X125486706Y-67814067D01*
X125294263Y-67961733D01*
X125294256Y-67961739D01*
X125122739Y-68133256D01*
X125122733Y-68133263D01*
X124975067Y-68325706D01*
X124853777Y-68535785D01*
X124853773Y-68535794D01*
X124760947Y-68759895D01*
X124698161Y-68994214D01*
X124666500Y-69234711D01*
X124666500Y-69477288D01*
X117390009Y-69477288D01*
X117902490Y-69065134D01*
X117905217Y-69063005D01*
X119005035Y-68229529D01*
X119007865Y-68227447D01*
X120131295Y-67425977D01*
X120134153Y-67424000D01*
X121280180Y-66655260D01*
X121283097Y-66653363D01*
X122450834Y-65917948D01*
X122453769Y-65916157D01*
X123642234Y-65214687D01*
X123645253Y-65212964D01*
X124853424Y-64546042D01*
X124856475Y-64544416D01*
X126083308Y-63912618D01*
X126086425Y-63911068D01*
X127331062Y-63314836D01*
X127334174Y-63313401D01*
X128595388Y-62753324D01*
X128598615Y-62751946D01*
X129875414Y-62228459D01*
X129878732Y-62227155D01*
X131170086Y-61740681D01*
X131173338Y-61739508D01*
X132478266Y-61290420D01*
X132481555Y-61289341D01*
X133798815Y-60878065D01*
X133802183Y-60877066D01*
X135130780Y-60503912D01*
X135134171Y-60503013D01*
X136472931Y-60168312D01*
X136476278Y-60167526D01*
X137824197Y-59871529D01*
X137827598Y-59870834D01*
X139183451Y-59613810D01*
X139186879Y-59613212D01*
X140549552Y-59395372D01*
X140552981Y-59394873D01*
X141921429Y-59216386D01*
X141924880Y-59215986D01*
X143297887Y-59077009D01*
X143301348Y-59076710D01*
X144677758Y-58977361D01*
X144681200Y-58977162D01*
X146059898Y-58917520D01*
X146063433Y-58917418D01*
X147443265Y-58897533D01*
X147446735Y-58897533D01*
X148826564Y-58917418D01*
G37*
%TD.AperFunction*%
%TD*%
M02*
