M48
; DRILL file {KiCad 8.0.1} date 2024-04-05T12:57:01-0600
; FORMAT={-:-/ absolute / inch / decimal}
; #@! TF.CreationDate,2024-04-05T12:57:01-06:00
; #@! TF.GenerationSoftware,Kicad,Pcbnew,8.0.1
; #@! TF.FileFunction,MixedPlating,1,2
FMAT,2
INCH
; #@! TA.AperFunction,Plated,PTH,ViaDrill
T1C0.0157
; #@! TA.AperFunction,Plated,PTH,ViaDrill
T2C0.0197
; #@! TA.AperFunction,Plated,PTH,ViaDrill
T3C0.0236
; #@! TA.AperFunction,Plated,PTH,ComponentDrill
T4C0.0394
; #@! TA.AperFunction,NonPlated,NPTH,ComponentDrill
T5C0.1260
%
G90
G05
T1
X4.5057Y-3.2638
X4.5057Y-3.3819
X4.5057Y-3.7362
X4.5057Y-4.0512
X4.5057Y-4.3661
X4.5057Y-4.6024
X4.5057Y-4.8386
X4.5057Y-5.0748
X4.6238Y-3.7756
X4.6238Y-5.5866
X4.6868Y-4.752
X4.6868Y-5.1457
X4.7026Y-4.4449
X4.7262Y-5.1929
X4.7419Y-3.2638
X4.7419Y-3.3819
X4.7774Y-3.1673
X4.7813Y-4.7402
X4.797Y-4.4331
X4.801Y-3.8898
X4.9388Y-5.5866
X4.9565Y-3.5827
X5.0096Y-2.9961
X5.0864Y-2.9409
X5.1238Y-2.7992
X5.2065Y-3.1654
X5.2222Y-3.4449
X5.2537Y-3.122
X5.2537Y-3.3189
X5.2616Y-3.8898
X5.2813Y-3.437
X5.6356Y-5.0748
X5.6396Y-4.1654
X5.6474Y-5.5866
X5.6868Y-3.7756
X5.7104Y-4.2677
X5.7104Y-5.3071
X5.7557Y-3.124
X5.7813Y-4.3661
X5.7813Y-5.0787
X5.8443Y-3.4606
X5.8522Y-5.1575
X5.8561Y-4.4685
X5.8758Y-3.3346
X5.8797Y-3.8799
X5.923Y-5.5866
X5.9545Y-4.6669
X5.9624Y-3.8248
X5.9644Y-3.6673
X5.9781Y-5.2323
X5.99Y-4.7677
X5.99Y-4.9961
X6.0805Y-3.5787
X6.238Y-5.5866
X6.2774Y-3.4606
X6.3167Y-2.8701
X6.3207Y-5.5787
X6.4033Y-5.4823
X6.4348Y-3.185
X6.4348Y-5.626
X6.5293Y-5.3504
X6.553Y-2.8701
X6.6041Y-3.8504
X6.675Y-3.0925
X6.7104Y-3.185
X6.7104Y-5.626
X6.7872Y-3.8583
X6.8128Y-5.5236
X6.8679Y-4.9961
X6.8915Y-3.9449
X6.986Y-5.626
X7.1041Y-3.4213
X7.1041Y-3.6575
X7.1041Y-4.0118
X7.1041Y-4.9961
X7.1041Y-5.2717
X7.1041Y-5.5079
T2
X4.553Y-5.2756
X4.5569Y-2.7972
X4.6848Y-4.0591
X4.8325Y-3.0787
X4.8364Y-2.8543
X4.9073Y-4.7894
X5.0018Y-4.1417
X5.1238Y-3.063
X5.1238Y-3.3661
X5.1238Y-3.5118
X5.1238Y-3.6654
X5.1238Y-3.811
X5.1238Y-3.9705
X5.1238Y-4.4291
X5.1238Y-5.1496
X5.1868Y-4.6083
X5.1986Y-3.0748
X5.2656Y-4.565
X5.3896Y-4.1673
X5.4073Y-2.9626
X5.5411Y-4.0669
X5.549Y-2.8445
X5.7144Y-3.2677
X5.7144Y-3.5295
X5.8581Y-3.122
X5.9033Y-4.065
X6.0884Y-3.1673
X6.2301Y-4.6693
X6.238Y-4.9173
X6.3502Y-3.5689
X6.4841Y-4.0453
X6.486Y-3.2677
X6.486Y-3.8445
X6.486Y-4.7717
X6.486Y-5.2087
X6.5844Y-4.1358
X6.6691Y-5.3307
X6.7321Y-4.061
X6.8148Y-4.0394
X6.8423Y-4.439
X7.0156Y-4.8465
X7.0628Y-4.4075
X7.1041Y-2.9587
T3
X5.1967Y-5.5866
X5.4781Y-5.5866
X5.6297Y-5.3898
X6.2537Y-5.4646
X6.9033Y-3.3583
X7.0057Y-2.9803
T4
X6.9041Y-2.8307
X6.9041Y-3.1244
X6.9041Y-3.2244
X7.0041Y-2.8307
X7.0041Y-3.1244
X7.0041Y-3.2244
X7.1041Y-2.8307
X7.1041Y-3.1244
X7.1041Y-3.2244
T5
X4.9817Y-3.3854
X4.9817Y-5.0354
X6.6317Y-3.3854
X6.6317Y-5.0354
M30
