%TF.GenerationSoftware,KiCad,Pcbnew,8.0.1*%
%TF.CreationDate,2024-04-03T22:27:09-06:00*%
%TF.ProjectId,weather_station_pico,77656174-6865-4725-9f73-746174696f6e,rev?*%
%TF.SameCoordinates,Original*%
%TF.FileFunction,Copper,L1,Top*%
%TF.FilePolarity,Positive*%
%FSLAX46Y46*%
G04 Gerber Fmt 4.6, Leading zero omitted, Abs format (unit mm)*
G04 Created by KiCad (PCBNEW 8.0.1) date 2024-04-03 22:27:09*
%MOMM*%
%LPD*%
G01*
G04 APERTURE LIST*
G04 Aperture macros list*
%AMRoundRect*
0 Rectangle with rounded corners*
0 $1 Rounding radius*
0 $2 $3 $4 $5 $6 $7 $8 $9 X,Y pos of 4 corners*
0 Add a 4 corners polygon primitive as box body*
4,1,4,$2,$3,$4,$5,$6,$7,$8,$9,$2,$3,0*
0 Add four circle primitives for the rounded corners*
1,1,$1+$1,$2,$3*
1,1,$1+$1,$4,$5*
1,1,$1+$1,$6,$7*
1,1,$1+$1,$8,$9*
0 Add four rect primitives between the rounded corners*
20,1,$1+$1,$2,$3,$4,$5,0*
20,1,$1+$1,$4,$5,$6,$7,0*
20,1,$1+$1,$6,$7,$8,$9,0*
20,1,$1+$1,$8,$9,$2,$3,0*%
G04 Aperture macros list end*
%TA.AperFunction,ComponentPad*%
%ADD10R,1.700000X1.700000*%
%TD*%
%TA.AperFunction,ComponentPad*%
%ADD11O,1.700000X1.700000*%
%TD*%
%TA.AperFunction,SMDPad,CuDef*%
%ADD12RoundRect,0.250000X-0.350000X-0.450000X0.350000X-0.450000X0.350000X0.450000X-0.350000X0.450000X0*%
%TD*%
%TA.AperFunction,SMDPad,CuDef*%
%ADD13RoundRect,0.250000X-0.337500X-0.475000X0.337500X-0.475000X0.337500X0.475000X-0.337500X0.475000X0*%
%TD*%
%TA.AperFunction,SMDPad,CuDef*%
%ADD14RoundRect,0.025600X-0.134400X0.594400X-0.134400X-0.594400X0.134400X-0.594400X0.134400X0.594400X0*%
%TD*%
%TA.AperFunction,ViaPad*%
%ADD15C,0.800000*%
%TD*%
%TA.AperFunction,ViaPad*%
%ADD16C,1.500000*%
%TD*%
%TA.AperFunction,Conductor*%
%ADD17C,0.250000*%
%TD*%
%TA.AperFunction,Conductor*%
%ADD18C,0.300000*%
%TD*%
%TA.AperFunction,Conductor*%
%ADD19C,0.500000*%
%TD*%
%TA.AperFunction,Conductor*%
%ADD20C,1.000000*%
%TD*%
G04 APERTURE END LIST*
D10*
%TO.P,J9,1,Pin_1*%
%TO.N,/Battery Charger/Load+*%
X174365000Y-75360000D03*
D11*
%TO.P,J9,2,Pin_2*%
%TO.N,GND*%
X174365000Y-77900000D03*
%TO.P,J9,3,Pin_3*%
X176905000Y-75360000D03*
%TO.P,J9,4,Pin_4*%
%TO.N,/Battery Charger/SET*%
X176905000Y-77900000D03*
%TO.P,J9,5,Pin_5*%
%TO.N,/Battery Charger/~{FAULT}*%
X179445000Y-75360000D03*
%TO.P,J9,6,Pin_6*%
%TO.N,/Battery Charger/~{CHRG}*%
X179445000Y-77900000D03*
%TD*%
D12*
%TO.P,R9,2*%
%TO.N,/LIGHT_INTR*%
X116145000Y-81000000D03*
%TO.P,R9,1*%
%TO.N,+3.3V*%
X114145000Y-81000000D03*
%TD*%
D13*
%TO.P,C4,1*%
%TO.N,+3.3V*%
X114245000Y-72800000D03*
%TO.P,C4,2*%
%TO.N,GND*%
X116320000Y-72800000D03*
%TD*%
D14*
%TO.P,U3,1,SCL*%
%TO.N,/I2C0_SCL*%
X117495000Y-76155000D03*
%TO.P,U3,2,SDA*%
%TO.N,/I2C0_SDA*%
X116845000Y-76155000D03*
%TO.P,U3,3,VDD*%
%TO.N,+3.3V*%
X116195000Y-76155000D03*
%TO.P,U3,4,INT*%
%TO.N,/LIGHT_INTR*%
X116195000Y-77645000D03*
%TO.P,U3,5*%
%TO.N,N/C*%
X116845000Y-77645000D03*
%TO.P,U3,6,GND*%
%TO.N,GND*%
X117495000Y-77645000D03*
%TD*%
D15*
%TO.N,GND*%
X179745000Y-141400000D03*
X179745000Y-135000000D03*
X179745000Y-126300000D03*
X179745000Y-118800000D03*
X168445000Y-79400000D03*
X162345000Y-79300000D03*
X169045000Y-71500000D03*
X162945000Y-71500000D03*
X121845000Y-72800000D03*
X118245000Y-72800000D03*
X139945000Y-77900000D03*
X136845000Y-80000000D03*
X136845000Y-75700000D03*
X134445000Y-76200000D03*
X124545000Y-76600000D03*
X118545000Y-117700000D03*
X121645000Y-112000000D03*
X120645000Y-85500000D03*
X117445000Y-85500000D03*
X120545000Y-96000000D03*
X117545000Y-95800000D03*
X133945000Y-103300000D03*
X139645000Y-103300000D03*
X136845000Y-101300000D03*
X136845000Y-105200000D03*
X140445000Y-118000000D03*
X140445000Y-114000000D03*
X137545000Y-116000000D03*
X135245000Y-127700000D03*
X133545000Y-124100000D03*
X120845000Y-129000000D03*
X116745000Y-128900000D03*
X121645000Y-124400000D03*
X117145000Y-124300000D03*
X118945000Y-142200000D03*
X118945000Y-137800000D03*
X118945000Y-133300000D03*
X114045000Y-142200000D03*
X114045000Y-137600000D03*
X114045000Y-133200000D03*
X129245000Y-140700000D03*
X123645000Y-140800000D03*
X121845000Y-138600000D03*
X130945000Y-138600000D03*
X134045000Y-132900000D03*
X135945000Y-134600000D03*
X154945000Y-141000000D03*
X157845000Y-138900000D03*
X152045000Y-138900000D03*
X157845000Y-130400000D03*
X162345000Y-130300000D03*
X162345000Y-125100000D03*
X157945000Y-125000000D03*
X155645000Y-90600000D03*
X160845000Y-90600000D03*
X158245000Y-88700000D03*
X154645000Y-80200000D03*
X154645000Y-75600000D03*
X157545000Y-77900000D03*
X173545000Y-98300000D03*
X180245000Y-102400000D03*
X179745000Y-95700000D03*
X170245000Y-91700000D03*
X176445000Y-85700000D03*
X149245000Y-137100000D03*
X165645000Y-140900000D03*
X171245000Y-140900000D03*
X173145000Y-138600000D03*
X163545000Y-138600000D03*
X136545000Y-137000000D03*
X142945000Y-136900000D03*
X143345000Y-131700000D03*
X140945000Y-141900000D03*
X134045000Y-139300000D03*
X134045000Y-141900000D03*
X127445000Y-97000000D03*
X124645000Y-97000000D03*
X124645000Y-105400000D03*
X127645000Y-91700000D03*
X124645000Y-91700000D03*
X149845000Y-73300000D03*
X150245000Y-89800000D03*
X150245000Y-85800000D03*
X144145000Y-85600000D03*
X144045000Y-80600000D03*
X144045000Y-73600000D03*
X137545000Y-90600000D03*
X143345000Y-90700000D03*
X140445000Y-88500000D03*
X157945000Y-103300000D03*
X151445000Y-103300000D03*
X154745000Y-100900000D03*
X143845000Y-100800000D03*
X151245000Y-94300000D03*
X144045000Y-94300000D03*
%TO.N,/I2C1_SCL*%
X169645000Y-97900000D03*
%TO.N,/I2C1_SDA*%
X166045000Y-91900000D03*
X168945000Y-133300000D03*
%TO.N,/I2C1_SCL*%
X175045000Y-132800000D03*
%TO.N,+3.3V*%
X167945000Y-134200000D03*
X166845000Y-123300000D03*
%TO.N,/ONE_WIRE*%
X136845000Y-120000000D03*
X136845000Y-123000000D03*
%TO.N,+3.3V*%
X163245000Y-109800000D03*
X163245000Y-93700000D03*
X163245000Y-102900000D03*
X163245000Y-83000000D03*
%TO.N,/I2C0_SCL*%
X120545000Y-78200000D03*
%TO.N,/I2C0_SDA*%
X124745000Y-74500000D03*
X116845000Y-74500000D03*
%TO.N,+3.3V*%
X126445000Y-100500000D03*
X126445000Y-109400000D03*
X130045000Y-100500000D03*
%TO.N,/I2C0_SCL*%
X130445000Y-112400000D03*
X129845000Y-76700000D03*
%TO.N,/I2C0_SDA*%
X128345000Y-112600000D03*
X122145000Y-81200000D03*
X126845000Y-81200000D03*
X128145000Y-76800000D03*
%TO.N,+3.3V*%
X126020000Y-130825000D03*
%TO.N,/I2C0_SDA*%
X126944999Y-133500000D03*
X128545000Y-120700000D03*
%TO.N,/I2C0_SCL*%
X128845000Y-133900000D03*
X131145000Y-120600000D03*
%TO.N,+3.3V*%
X130045000Y-95700000D03*
X130045000Y-93100000D03*
X130045000Y-88100000D03*
X130045000Y-85500000D03*
X130045000Y-80900000D03*
X131445000Y-71100000D03*
%TO.N,/LIGHT_INTR*%
X116145000Y-121800000D03*
%TO.N,/RAIN_COUNT*%
X119145000Y-79000000D03*
X119045000Y-104200000D03*
%TO.N,/WINDSPEED_TGR*%
X177145000Y-95700000D03*
X177145000Y-104100000D03*
%TO.N,/RFM69 Radio/RFM69_INTR*%
X143945000Y-105800000D03*
X143845000Y-128900000D03*
%TO.N,/RFM69 Radio/RFM69_RESET*%
X146445000Y-134900000D03*
X146445000Y-108500000D03*
%TO.N,/RFM69 Radio/RFM69_MOSI*%
X147945000Y-128900000D03*
X148045000Y-110900000D03*
%TO.N,/RFM69 Radio/RFM69_CLK*%
X149645000Y-130800000D03*
X149645000Y-113500000D03*
%TO.N,/RFM69 Radio/RFM69_CS*%
X151145000Y-132900000D03*
X151145000Y-118500000D03*
%TO.N,/RFM69 Radio/RFM69_MISO*%
X152245000Y-126900000D03*
X152245000Y-121100000D03*
%TO.N,+3.3V*%
X114045000Y-130900000D03*
X128845000Y-71100000D03*
X152045000Y-71100000D03*
X152145000Y-82900000D03*
D16*
%TO.N,GND*%
X174445000Y-81150000D03*
X176945000Y-71900000D03*
%TD*%
D17*
%TO.N,/I2C0_SCL*%
X132545000Y-122000000D02*
X131145000Y-120600000D01*
X132545000Y-130300000D02*
X132545000Y-122000000D01*
X128945000Y-133900000D02*
X132545000Y-130300000D01*
X128845000Y-133900000D02*
X128945000Y-133900000D01*
%TO.N,/I2C0_SDA*%
X130545000Y-122700000D02*
X128545000Y-120700000D01*
X130545000Y-129900000D02*
X130545000Y-122700000D01*
X126944999Y-133500000D02*
X130545000Y-129900000D01*
D18*
%TO.N,/I2C1_SDA*%
X172245000Y-130000000D02*
X168945000Y-133300000D01*
X166045000Y-118000000D02*
X172245000Y-124200000D01*
X172245000Y-124200000D02*
X172245000Y-130000000D01*
X166045000Y-91900000D02*
X166045000Y-118000000D01*
%TO.N,/I2C1_SCL*%
X175045000Y-121800000D02*
X175045000Y-132800000D01*
X169645000Y-116400000D02*
X175045000Y-121800000D01*
X169645000Y-97900000D02*
X169645000Y-116400000D01*
D19*
%TO.N,+3.3V*%
X167945000Y-132500000D02*
X167945000Y-134200000D01*
X166845000Y-123300000D02*
X165345000Y-124800000D01*
X165345000Y-124800000D02*
X165345000Y-129900000D01*
X165345000Y-129900000D02*
X167945000Y-132500000D01*
D17*
%TO.N,/ONE_WIRE*%
X136845000Y-123000000D02*
X136845000Y-120000000D01*
%TO.N,/I2C0_SDA*%
X125845000Y-74500000D02*
X128145000Y-76800000D01*
X124745000Y-74500000D02*
X125845000Y-74500000D01*
X116845000Y-74500000D02*
X116845000Y-76155000D01*
%TO.N,/I2C0_SCL*%
X118500000Y-76155000D02*
X117495000Y-76155000D01*
X120545000Y-78200000D02*
X118500000Y-76155000D01*
D19*
%TO.N,+3.3V*%
X114245000Y-76200000D02*
X114245000Y-80900000D01*
D18*
X114290000Y-76155000D02*
X116195000Y-76155000D01*
X114245000Y-76200000D02*
X114290000Y-76155000D01*
D19*
X114245000Y-72800000D02*
X114245000Y-76200000D01*
X114245000Y-80900000D02*
X114145000Y-81000000D01*
D17*
%TO.N,/LIGHT_INTR*%
X116195000Y-80950000D02*
X116145000Y-81000000D01*
X116195000Y-77645000D02*
X116195000Y-80950000D01*
D19*
%TO.N,+3.3V*%
X114045000Y-81100000D02*
X114145000Y-81000000D01*
D17*
%TO.N,/LIGHT_INTR*%
X116045000Y-81100000D02*
X116145000Y-81000000D01*
X116145000Y-121800000D02*
X116045000Y-121700000D01*
X116045000Y-121700000D02*
X116045000Y-81100000D01*
D19*
%TO.N,+3.3V*%
X114045000Y-130900000D02*
X114045000Y-81100000D01*
X163245000Y-109700000D02*
X163245000Y-109800000D01*
X163245000Y-93700000D02*
X163245000Y-102900000D01*
X163245000Y-83000000D02*
X163245000Y-93700000D01*
X163245000Y-102900000D02*
X163245000Y-109700000D01*
D18*
%TO.N,/WINDSPEED_TGR*%
X177145000Y-103200000D02*
X177145000Y-104100000D01*
X177145000Y-95700000D02*
X177145000Y-103200000D01*
D19*
%TO.N,+3.3V*%
X126445000Y-109400000D02*
X126445000Y-100500000D01*
X130045000Y-100100000D02*
X130045000Y-100500000D01*
D17*
%TO.N,/I2C0_SCL*%
X128870000Y-77675000D02*
X129845000Y-76700000D01*
X128870000Y-110825000D02*
X128870000Y-77675000D01*
X130445000Y-112400000D02*
X128870000Y-110825000D01*
%TO.N,/I2C0_SDA*%
X128145000Y-79900000D02*
X126845000Y-81200000D01*
X128145000Y-76800000D02*
X128145000Y-79900000D01*
X122145000Y-106400000D02*
X128345000Y-112600000D01*
X122145000Y-81200000D02*
X122145000Y-106400000D01*
D19*
%TO.N,+3.3V*%
X130045000Y-93100000D02*
X130045000Y-95700000D01*
X130045000Y-95700000D02*
X130045000Y-100100000D01*
X130045000Y-88100000D02*
X130045000Y-93100000D01*
X130045000Y-85500000D02*
X130045000Y-88100000D01*
X130045000Y-80900000D02*
X130045000Y-85500000D01*
X130045000Y-80100000D02*
X130045000Y-80900000D01*
X131445000Y-78300000D02*
X130045000Y-79700000D01*
X130045000Y-79700000D02*
X130045000Y-80100000D01*
X131445000Y-71100000D02*
X131445000Y-78300000D01*
D18*
%TO.N,/RAIN_COUNT*%
X119045000Y-79100000D02*
X119145000Y-79000000D01*
X119045000Y-104200000D02*
X119045000Y-79100000D01*
%TO.N,/RFM69 Radio/RFM69_INTR*%
X143845000Y-128900000D02*
X143945000Y-128800000D01*
X143945000Y-128800000D02*
X143945000Y-105800000D01*
%TO.N,/RFM69 Radio/RFM69_RESET*%
X146445000Y-108500000D02*
X146445000Y-134900000D01*
%TO.N,/RFM69 Radio/RFM69_MOSI*%
X148045000Y-128800000D02*
X148045000Y-110900000D01*
X147945000Y-128900000D02*
X148045000Y-128800000D01*
%TO.N,/RFM69 Radio/RFM69_CLK*%
X149645000Y-113500000D02*
X149645000Y-130800000D01*
%TO.N,/RFM69 Radio/RFM69_CS*%
X151145000Y-118500000D02*
X151145000Y-119200000D01*
X151145000Y-119200000D02*
X151145000Y-132900000D01*
%TO.N,/RFM69 Radio/RFM69_MISO*%
X152245000Y-121600000D02*
X152245000Y-126900000D01*
X152245000Y-121100000D02*
X152245000Y-121600000D01*
D19*
%TO.N,+3.3V*%
X115945000Y-71100000D02*
X114245000Y-72800000D01*
X128845000Y-71100000D02*
X115945000Y-71100000D01*
X152145000Y-71200000D02*
X152045000Y-71100000D01*
X152145000Y-82900000D02*
X152145000Y-71200000D01*
D20*
%TO.N,GND*%
X174365000Y-81070000D02*
X174445000Y-81150000D01*
X174365000Y-77900000D02*
X174365000Y-81070000D01*
%TD*%
%TA.AperFunction,Conductor*%
%TO.N,GND*%
G36*
X182653039Y-69964685D02*
G01*
X182698794Y-70017489D01*
X182710000Y-70069000D01*
X182710000Y-143821000D01*
X182690315Y-143888039D01*
X182637511Y-143933794D01*
X182586000Y-143945000D01*
X112394000Y-143945000D01*
X112326961Y-143925315D01*
X112281206Y-143872511D01*
X112270000Y-143821000D01*
X112270000Y-134900000D01*
X145539540Y-134900000D01*
X145559326Y-135088256D01*
X145559327Y-135088259D01*
X145617818Y-135268277D01*
X145617821Y-135268284D01*
X145712467Y-135432216D01*
X145839129Y-135572888D01*
X145992265Y-135684148D01*
X145992270Y-135684151D01*
X146165192Y-135761142D01*
X146165197Y-135761144D01*
X146350354Y-135800500D01*
X146350355Y-135800500D01*
X146539644Y-135800500D01*
X146539646Y-135800500D01*
X146724803Y-135761144D01*
X146897730Y-135684151D01*
X147050871Y-135572888D01*
X147177533Y-135432216D01*
X147272179Y-135268284D01*
X147330674Y-135088256D01*
X147350460Y-134900000D01*
X147330674Y-134711744D01*
X147272179Y-134531716D01*
X147177533Y-134367784D01*
X147127350Y-134312050D01*
X147097120Y-134249058D01*
X147095500Y-134229078D01*
X147095500Y-129625341D01*
X147115185Y-129558302D01*
X147167989Y-129512547D01*
X147237147Y-129502603D01*
X147300703Y-129531628D01*
X147311645Y-129542364D01*
X147339129Y-129572888D01*
X147492265Y-129684148D01*
X147492270Y-129684151D01*
X147665192Y-129761142D01*
X147665197Y-129761144D01*
X147850354Y-129800500D01*
X147850355Y-129800500D01*
X148039644Y-129800500D01*
X148039646Y-129800500D01*
X148224803Y-129761144D01*
X148397730Y-129684151D01*
X148550871Y-129572888D01*
X148677533Y-129432216D01*
X148763113Y-129283987D01*
X148813679Y-129235771D01*
X148882286Y-129222547D01*
X148947151Y-129248515D01*
X148987680Y-129305429D01*
X148994500Y-129345986D01*
X148994500Y-130129078D01*
X148974815Y-130196117D01*
X148962650Y-130212050D01*
X148912466Y-130267785D01*
X148817821Y-130431715D01*
X148817818Y-130431722D01*
X148759327Y-130611740D01*
X148759326Y-130611744D01*
X148739540Y-130800000D01*
X148759326Y-130988256D01*
X148759327Y-130988259D01*
X148817818Y-131168277D01*
X148817821Y-131168284D01*
X148912467Y-131332216D01*
X149014862Y-131445937D01*
X149039129Y-131472888D01*
X149192265Y-131584148D01*
X149192270Y-131584151D01*
X149365192Y-131661142D01*
X149365197Y-131661144D01*
X149550354Y-131700500D01*
X149550355Y-131700500D01*
X149739644Y-131700500D01*
X149739646Y-131700500D01*
X149924803Y-131661144D01*
X150097730Y-131584151D01*
X150250871Y-131472888D01*
X150278351Y-131442368D01*
X150337836Y-131405721D01*
X150407693Y-131407050D01*
X150465741Y-131445937D01*
X150493551Y-131510033D01*
X150494500Y-131525341D01*
X150494500Y-132229078D01*
X150474815Y-132296117D01*
X150462650Y-132312050D01*
X150412466Y-132367785D01*
X150317821Y-132531715D01*
X150317818Y-132531722D01*
X150259327Y-132711740D01*
X150259326Y-132711744D01*
X150239540Y-132900000D01*
X150259326Y-133088256D01*
X150259327Y-133088259D01*
X150317818Y-133268277D01*
X150317821Y-133268284D01*
X150412467Y-133432216D01*
X150539129Y-133572888D01*
X150692265Y-133684148D01*
X150692270Y-133684151D01*
X150865192Y-133761142D01*
X150865197Y-133761144D01*
X151050354Y-133800500D01*
X151050355Y-133800500D01*
X151239644Y-133800500D01*
X151239646Y-133800500D01*
X151424803Y-133761144D01*
X151597730Y-133684151D01*
X151750871Y-133572888D01*
X151877533Y-133432216D01*
X151972179Y-133268284D01*
X152030674Y-133088256D01*
X152050460Y-132900000D01*
X152030674Y-132711744D01*
X151972179Y-132531716D01*
X151877533Y-132367784D01*
X151827350Y-132312050D01*
X151797120Y-132249058D01*
X151795500Y-132229078D01*
X151795500Y-129973920D01*
X164594499Y-129973920D01*
X164623340Y-130118907D01*
X164623343Y-130118917D01*
X164679913Y-130255490D01*
X164679914Y-130255492D01*
X164704832Y-130292784D01*
X164704833Y-130292786D01*
X164762043Y-130378410D01*
X164762047Y-130378415D01*
X164762048Y-130378416D01*
X165967783Y-131584151D01*
X167158181Y-132774548D01*
X167191666Y-132835871D01*
X167194500Y-132862229D01*
X167194500Y-133665677D01*
X167177887Y-133727677D01*
X167117821Y-133831714D01*
X167071951Y-133972888D01*
X167059326Y-134011744D01*
X167039540Y-134200000D01*
X167059326Y-134388256D01*
X167059327Y-134388259D01*
X167117818Y-134568277D01*
X167117821Y-134568284D01*
X167212467Y-134732216D01*
X167339129Y-134872888D01*
X167492265Y-134984148D01*
X167492270Y-134984151D01*
X167665192Y-135061142D01*
X167665197Y-135061144D01*
X167850354Y-135100500D01*
X167850355Y-135100500D01*
X168039644Y-135100500D01*
X168039646Y-135100500D01*
X168224803Y-135061144D01*
X168397730Y-134984151D01*
X168550871Y-134872888D01*
X168677533Y-134732216D01*
X168772179Y-134568284D01*
X168830674Y-134388256D01*
X168838737Y-134311539D01*
X168865321Y-134246925D01*
X168922618Y-134206939D01*
X168962058Y-134200500D01*
X169039644Y-134200500D01*
X169039646Y-134200500D01*
X169224803Y-134161144D01*
X169397730Y-134084151D01*
X169550871Y-133972888D01*
X169677533Y-133832216D01*
X169772179Y-133668284D01*
X169830674Y-133488256D01*
X169844168Y-133359855D01*
X169870752Y-133295242D01*
X169879799Y-133285145D01*
X172750277Y-130414669D01*
X172821465Y-130308127D01*
X172850350Y-130238393D01*
X172870501Y-130189744D01*
X172884592Y-130118907D01*
X172895500Y-130064071D01*
X172895500Y-124135928D01*
X172870502Y-124010261D01*
X172870501Y-124010260D01*
X172870501Y-124010256D01*
X172821465Y-123891873D01*
X172781604Y-123832216D01*
X172781604Y-123832215D01*
X172750275Y-123785328D01*
X166731819Y-117766872D01*
X166698334Y-117705549D01*
X166695500Y-117679191D01*
X166695500Y-97900000D01*
X168739540Y-97900000D01*
X168759326Y-98088256D01*
X168759327Y-98088259D01*
X168817818Y-98268277D01*
X168817821Y-98268284D01*
X168912466Y-98432215D01*
X168962649Y-98487948D01*
X168992880Y-98550940D01*
X168994500Y-98570921D01*
X168994500Y-116464069D01*
X168994500Y-116464071D01*
X168994499Y-116464071D01*
X169019497Y-116589738D01*
X169019499Y-116589744D01*
X169068534Y-116708125D01*
X169139726Y-116814673D01*
X169139727Y-116814674D01*
X174358181Y-122033127D01*
X174391666Y-122094450D01*
X174394500Y-122120808D01*
X174394500Y-132129078D01*
X174374815Y-132196117D01*
X174362650Y-132212050D01*
X174312466Y-132267785D01*
X174217821Y-132431715D01*
X174217818Y-132431722D01*
X174175105Y-132563181D01*
X174159326Y-132611744D01*
X174139540Y-132800000D01*
X174159326Y-132988256D01*
X174159327Y-132988259D01*
X174217818Y-133168277D01*
X174217821Y-133168284D01*
X174312467Y-133332216D01*
X174344493Y-133367784D01*
X174439129Y-133472888D01*
X174592265Y-133584148D01*
X174592270Y-133584151D01*
X174765192Y-133661142D01*
X174765197Y-133661144D01*
X174950354Y-133700500D01*
X174950355Y-133700500D01*
X175139644Y-133700500D01*
X175139646Y-133700500D01*
X175324803Y-133661144D01*
X175497730Y-133584151D01*
X175650871Y-133472888D01*
X175777533Y-133332216D01*
X175872179Y-133168284D01*
X175930674Y-132988256D01*
X175950460Y-132800000D01*
X175930674Y-132611744D01*
X175872179Y-132431716D01*
X175777533Y-132267784D01*
X175727350Y-132212050D01*
X175697120Y-132149058D01*
X175695500Y-132129078D01*
X175695500Y-121735928D01*
X175670502Y-121610261D01*
X175670501Y-121610260D01*
X175670501Y-121610256D01*
X175629394Y-121511016D01*
X175621466Y-121491875D01*
X175621463Y-121491870D01*
X175608234Y-121472072D01*
X175608233Y-121472069D01*
X175550277Y-121385331D01*
X175550271Y-121385324D01*
X170331819Y-116166872D01*
X170298334Y-116105549D01*
X170295500Y-116079191D01*
X170295500Y-104100000D01*
X176239540Y-104100000D01*
X176259326Y-104288256D01*
X176259327Y-104288259D01*
X176317818Y-104468277D01*
X176317821Y-104468284D01*
X176412467Y-104632216D01*
X176502506Y-104732214D01*
X176539129Y-104772888D01*
X176692265Y-104884148D01*
X176692270Y-104884151D01*
X176865192Y-104961142D01*
X176865197Y-104961144D01*
X177050354Y-105000500D01*
X177050355Y-105000500D01*
X177239644Y-105000500D01*
X177239646Y-105000500D01*
X177424803Y-104961144D01*
X177597730Y-104884151D01*
X177750871Y-104772888D01*
X177877533Y-104632216D01*
X177972179Y-104468284D01*
X178030674Y-104288256D01*
X178050460Y-104100000D01*
X178030674Y-103911744D01*
X177972179Y-103731716D01*
X177877533Y-103567784D01*
X177827350Y-103512050D01*
X177797120Y-103449058D01*
X177795500Y-103429078D01*
X177795500Y-96370921D01*
X177815185Y-96303882D01*
X177827351Y-96287948D01*
X177877533Y-96232216D01*
X177972179Y-96068284D01*
X178030674Y-95888256D01*
X178050460Y-95700000D01*
X178030674Y-95511744D01*
X177972179Y-95331716D01*
X177877533Y-95167784D01*
X177750871Y-95027112D01*
X177750870Y-95027111D01*
X177597734Y-94915851D01*
X177597729Y-94915848D01*
X177424807Y-94838857D01*
X177424802Y-94838855D01*
X177279001Y-94807865D01*
X177239646Y-94799500D01*
X177050354Y-94799500D01*
X177017897Y-94806398D01*
X176865197Y-94838855D01*
X176865192Y-94838857D01*
X176692270Y-94915848D01*
X176692265Y-94915851D01*
X176539129Y-95027111D01*
X176412466Y-95167785D01*
X176317821Y-95331715D01*
X176317818Y-95331722D01*
X176259327Y-95511740D01*
X176259326Y-95511744D01*
X176239540Y-95700000D01*
X176259326Y-95888256D01*
X176259327Y-95888259D01*
X176317818Y-96068277D01*
X176317821Y-96068284D01*
X176412466Y-96232215D01*
X176462649Y-96287948D01*
X176492880Y-96350940D01*
X176494500Y-96370921D01*
X176494500Y-103429078D01*
X176474815Y-103496117D01*
X176462650Y-103512050D01*
X176412466Y-103567785D01*
X176317821Y-103731715D01*
X176317818Y-103731722D01*
X176259327Y-103911740D01*
X176259326Y-103911744D01*
X176239540Y-104100000D01*
X170295500Y-104100000D01*
X170295500Y-98570921D01*
X170315185Y-98503882D01*
X170327351Y-98487948D01*
X170377533Y-98432216D01*
X170472179Y-98268284D01*
X170530674Y-98088256D01*
X170550460Y-97900000D01*
X170530674Y-97711744D01*
X170472179Y-97531716D01*
X170377533Y-97367784D01*
X170250871Y-97227112D01*
X170250870Y-97227111D01*
X170097734Y-97115851D01*
X170097729Y-97115848D01*
X169924807Y-97038857D01*
X169924802Y-97038855D01*
X169779001Y-97007865D01*
X169739646Y-96999500D01*
X169550354Y-96999500D01*
X169517897Y-97006398D01*
X169365197Y-97038855D01*
X169365192Y-97038857D01*
X169192270Y-97115848D01*
X169192265Y-97115851D01*
X169039129Y-97227111D01*
X168912466Y-97367785D01*
X168817821Y-97531715D01*
X168817818Y-97531722D01*
X168759327Y-97711740D01*
X168759326Y-97711744D01*
X168739540Y-97900000D01*
X166695500Y-97900000D01*
X166695500Y-92570921D01*
X166715185Y-92503882D01*
X166727351Y-92487948D01*
X166777533Y-92432216D01*
X166872179Y-92268284D01*
X166930674Y-92088256D01*
X166950460Y-91900000D01*
X166930674Y-91711744D01*
X166872179Y-91531716D01*
X166777533Y-91367784D01*
X166650871Y-91227112D01*
X166650870Y-91227111D01*
X166497734Y-91115851D01*
X166497729Y-91115848D01*
X166324807Y-91038857D01*
X166324802Y-91038855D01*
X166179001Y-91007865D01*
X166139646Y-90999500D01*
X165950354Y-90999500D01*
X165917897Y-91006398D01*
X165765197Y-91038855D01*
X165765192Y-91038857D01*
X165592270Y-91115848D01*
X165592265Y-91115851D01*
X165439129Y-91227111D01*
X165312466Y-91367785D01*
X165217821Y-91531715D01*
X165217818Y-91531722D01*
X165159327Y-91711740D01*
X165159326Y-91711744D01*
X165139540Y-91900000D01*
X165159326Y-92088256D01*
X165159327Y-92088259D01*
X165217818Y-92268277D01*
X165217821Y-92268284D01*
X165312466Y-92432215D01*
X165362649Y-92487948D01*
X165392880Y-92550940D01*
X165394500Y-92570921D01*
X165394500Y-118064069D01*
X165394500Y-118064071D01*
X165394499Y-118064071D01*
X165415982Y-118172067D01*
X165419498Y-118189740D01*
X165419499Y-118189744D01*
X165468534Y-118308125D01*
X165539726Y-118414673D01*
X165539727Y-118414674D01*
X171558181Y-124433127D01*
X171591666Y-124494450D01*
X171594500Y-124520808D01*
X171594500Y-129679192D01*
X171574815Y-129746231D01*
X171558181Y-129766873D01*
X168961873Y-132363181D01*
X168900550Y-132396666D01*
X168874192Y-132399500D01*
X168850351Y-132399500D01*
X168819593Y-132406037D01*
X168749926Y-132400719D01*
X168694193Y-132358580D01*
X168672198Y-132308938D01*
X168666658Y-132281087D01*
X168638062Y-132212050D01*
X168610087Y-132144511D01*
X168610080Y-132144498D01*
X168527952Y-132021585D01*
X168527951Y-132021584D01*
X168423416Y-131917049D01*
X166131819Y-129625451D01*
X166098334Y-129564128D01*
X166095500Y-129537770D01*
X166095500Y-128021288D01*
X166594500Y-128021288D01*
X166626161Y-128261785D01*
X166688947Y-128496104D01*
X166718233Y-128566806D01*
X166781776Y-128720212D01*
X166903064Y-128930289D01*
X166903066Y-128930292D01*
X166903067Y-128930293D01*
X167050733Y-129122736D01*
X167050739Y-129122743D01*
X167222256Y-129294260D01*
X167222262Y-129294265D01*
X167414711Y-129441936D01*
X167624788Y-129563224D01*
X167848900Y-129656054D01*
X168083211Y-129718838D01*
X168263586Y-129742584D01*
X168323711Y-129750500D01*
X168323712Y-129750500D01*
X168566289Y-129750500D01*
X168614388Y-129744167D01*
X168806789Y-129718838D01*
X169041100Y-129656054D01*
X169265212Y-129563224D01*
X169475289Y-129441936D01*
X169667738Y-129294265D01*
X169839265Y-129122738D01*
X169986936Y-128930289D01*
X170108224Y-128720212D01*
X170201054Y-128496100D01*
X170263838Y-128261789D01*
X170295500Y-128021288D01*
X170295500Y-127778712D01*
X170263838Y-127538211D01*
X170201054Y-127303900D01*
X170108224Y-127079788D01*
X169986936Y-126869711D01*
X169839265Y-126677262D01*
X169839260Y-126677256D01*
X169667743Y-126505739D01*
X169667736Y-126505733D01*
X169475293Y-126358067D01*
X169475292Y-126358066D01*
X169475289Y-126358064D01*
X169265212Y-126236776D01*
X169265205Y-126236773D01*
X169041104Y-126143947D01*
X168806785Y-126081161D01*
X168566289Y-126049500D01*
X168566288Y-126049500D01*
X168323712Y-126049500D01*
X168323711Y-126049500D01*
X168083214Y-126081161D01*
X167848895Y-126143947D01*
X167624794Y-126236773D01*
X167624785Y-126236777D01*
X167414706Y-126358067D01*
X167222263Y-126505733D01*
X167222256Y-126505739D01*
X167050739Y-126677256D01*
X167050733Y-126677263D01*
X166903067Y-126869706D01*
X166781777Y-127079785D01*
X166781773Y-127079794D01*
X166688947Y-127303895D01*
X166626161Y-127538214D01*
X166594500Y-127778711D01*
X166594500Y-128021288D01*
X166095500Y-128021288D01*
X166095500Y-125162228D01*
X166115185Y-125095189D01*
X166131815Y-125074551D01*
X166997770Y-124208595D01*
X167059091Y-124175112D01*
X167059427Y-124175039D01*
X167124803Y-124161144D01*
X167297730Y-124084151D01*
X167450871Y-123972888D01*
X167577533Y-123832216D01*
X167672179Y-123668284D01*
X167730674Y-123488256D01*
X167750460Y-123300000D01*
X167730674Y-123111744D01*
X167672179Y-122931716D01*
X167577533Y-122767784D01*
X167450871Y-122627112D01*
X167450870Y-122627111D01*
X167297734Y-122515851D01*
X167297729Y-122515848D01*
X167124807Y-122438857D01*
X167124802Y-122438855D01*
X166979001Y-122407865D01*
X166939646Y-122399500D01*
X166750354Y-122399500D01*
X166717897Y-122406398D01*
X166565197Y-122438855D01*
X166565192Y-122438857D01*
X166392270Y-122515848D01*
X166392265Y-122515851D01*
X166239129Y-122627111D01*
X166112466Y-122767785D01*
X166017821Y-122931715D01*
X166017819Y-122931719D01*
X165962478Y-123102041D01*
X165932228Y-123151403D01*
X164762052Y-124321578D01*
X164762051Y-124321579D01*
X164716507Y-124389743D01*
X164716506Y-124389744D01*
X164679914Y-124444507D01*
X164623343Y-124581082D01*
X164623340Y-124581092D01*
X164594500Y-124726079D01*
X164594500Y-124726082D01*
X164594500Y-129973918D01*
X164594500Y-129973920D01*
X164594499Y-129973920D01*
X151795500Y-129973920D01*
X151795500Y-127876533D01*
X151815185Y-127809494D01*
X151867989Y-127763739D01*
X151937147Y-127753795D01*
X151958724Y-127760024D01*
X151959013Y-127759135D01*
X151965197Y-127761144D01*
X152150354Y-127800500D01*
X152150355Y-127800500D01*
X152339644Y-127800500D01*
X152339646Y-127800500D01*
X152524803Y-127761144D01*
X152697730Y-127684151D01*
X152850871Y-127572888D01*
X152977533Y-127432216D01*
X153072179Y-127268284D01*
X153130674Y-127088256D01*
X153150460Y-126900000D01*
X153130674Y-126711744D01*
X153072179Y-126531716D01*
X152977533Y-126367784D01*
X152927350Y-126312050D01*
X152897120Y-126249058D01*
X152895500Y-126229078D01*
X152895500Y-121770921D01*
X152915185Y-121703882D01*
X152927351Y-121687948D01*
X152973388Y-121636819D01*
X152977533Y-121632216D01*
X153072179Y-121468284D01*
X153130674Y-121288256D01*
X153150460Y-121100000D01*
X153130674Y-120911744D01*
X153072179Y-120731716D01*
X152977533Y-120567784D01*
X152850871Y-120427112D01*
X152829719Y-120411744D01*
X152697734Y-120315851D01*
X152697729Y-120315848D01*
X152524807Y-120238857D01*
X152524802Y-120238855D01*
X152379001Y-120207865D01*
X152339646Y-120199500D01*
X152150354Y-120199500D01*
X152117897Y-120206398D01*
X151965197Y-120238855D01*
X151959010Y-120240866D01*
X151958185Y-120238327D01*
X151900653Y-120246025D01*
X151837384Y-120216380D01*
X151800187Y-120157235D01*
X151795500Y-120123466D01*
X151795500Y-119170921D01*
X151815185Y-119103882D01*
X151827351Y-119087948D01*
X151877533Y-119032216D01*
X151972179Y-118868284D01*
X152030674Y-118688256D01*
X152050460Y-118500000D01*
X152030674Y-118311744D01*
X151972179Y-118131716D01*
X151877533Y-117967784D01*
X151750871Y-117827112D01*
X151750870Y-117827111D01*
X151597734Y-117715851D01*
X151597729Y-117715848D01*
X151424807Y-117638857D01*
X151424802Y-117638855D01*
X151279001Y-117607865D01*
X151239646Y-117599500D01*
X151050354Y-117599500D01*
X151017897Y-117606398D01*
X150865197Y-117638855D01*
X150865192Y-117638857D01*
X150692270Y-117715848D01*
X150692265Y-117715851D01*
X150539129Y-117827111D01*
X150539128Y-117827112D01*
X150511649Y-117857631D01*
X150452162Y-117894279D01*
X150382305Y-117892948D01*
X150324257Y-117854061D01*
X150296448Y-117789964D01*
X150295500Y-117774658D01*
X150295500Y-114170921D01*
X150315185Y-114103882D01*
X150327351Y-114087948D01*
X150364004Y-114047241D01*
X150377533Y-114032216D01*
X150472179Y-113868284D01*
X150530674Y-113688256D01*
X150550460Y-113500000D01*
X150530674Y-113311744D01*
X150476112Y-113143823D01*
X150472181Y-113131722D01*
X150472180Y-113131721D01*
X150472179Y-113131716D01*
X150377533Y-112967784D01*
X150250871Y-112827112D01*
X150250870Y-112827111D01*
X150097734Y-112715851D01*
X150097729Y-112715848D01*
X149924807Y-112638857D01*
X149924802Y-112638855D01*
X149774700Y-112606951D01*
X149739646Y-112599500D01*
X149550354Y-112599500D01*
X149517897Y-112606398D01*
X149365197Y-112638855D01*
X149365192Y-112638857D01*
X149192270Y-112715848D01*
X149192265Y-112715851D01*
X149039129Y-112827111D01*
X148911650Y-112968691D01*
X148852163Y-113005340D01*
X148782306Y-113004009D01*
X148724258Y-112965123D01*
X148696448Y-112901026D01*
X148695500Y-112885719D01*
X148695500Y-111570921D01*
X148715185Y-111503882D01*
X148727351Y-111487948D01*
X148734674Y-111479815D01*
X148777533Y-111432216D01*
X148872179Y-111268284D01*
X148930674Y-111088256D01*
X148950460Y-110900000D01*
X148930674Y-110711744D01*
X148872179Y-110531716D01*
X148777533Y-110367784D01*
X148650871Y-110227112D01*
X148601360Y-110191140D01*
X148497734Y-110115851D01*
X148497729Y-110115848D01*
X148324807Y-110038857D01*
X148324802Y-110038855D01*
X148179001Y-110007865D01*
X148139646Y-109999500D01*
X147950354Y-109999500D01*
X147917897Y-110006398D01*
X147765197Y-110038855D01*
X147765192Y-110038857D01*
X147592270Y-110115848D01*
X147592265Y-110115851D01*
X147439129Y-110227111D01*
X147311650Y-110368691D01*
X147252163Y-110405340D01*
X147182306Y-110404009D01*
X147124258Y-110365123D01*
X147096448Y-110301026D01*
X147095500Y-110285719D01*
X147095500Y-109800000D01*
X162339540Y-109800000D01*
X162359326Y-109988256D01*
X162359327Y-109988259D01*
X162417818Y-110168277D01*
X162417821Y-110168284D01*
X162512467Y-110332216D01*
X162639129Y-110472888D01*
X162792265Y-110584148D01*
X162792270Y-110584151D01*
X162965192Y-110661142D01*
X162965197Y-110661144D01*
X163150354Y-110700500D01*
X163150355Y-110700500D01*
X163339644Y-110700500D01*
X163339646Y-110700500D01*
X163524803Y-110661144D01*
X163697730Y-110584151D01*
X163850871Y-110472888D01*
X163977533Y-110332216D01*
X164072179Y-110168284D01*
X164130674Y-109988256D01*
X164150460Y-109800000D01*
X164130674Y-109611744D01*
X164072179Y-109431716D01*
X164012113Y-109327677D01*
X163995500Y-109265677D01*
X163995500Y-103434321D01*
X164012113Y-103372321D01*
X164072179Y-103268284D01*
X164130674Y-103088256D01*
X164150460Y-102900000D01*
X164130674Y-102711744D01*
X164072179Y-102531716D01*
X164012113Y-102427677D01*
X163995500Y-102365677D01*
X163995500Y-94234321D01*
X164012113Y-94172321D01*
X164072179Y-94068284D01*
X164130674Y-93888256D01*
X164150460Y-93700000D01*
X164130674Y-93511744D01*
X164072179Y-93331716D01*
X164072178Y-93331714D01*
X164012113Y-93227677D01*
X163995500Y-93165677D01*
X163995500Y-86111288D01*
X166594500Y-86111288D01*
X166626161Y-86351785D01*
X166688947Y-86586104D01*
X166781773Y-86810205D01*
X166781776Y-86810212D01*
X166903064Y-87020289D01*
X166903066Y-87020292D01*
X166903067Y-87020293D01*
X167050733Y-87212736D01*
X167050739Y-87212743D01*
X167222256Y-87384260D01*
X167222262Y-87384265D01*
X167414711Y-87531936D01*
X167624788Y-87653224D01*
X167848900Y-87746054D01*
X168083211Y-87808838D01*
X168263586Y-87832584D01*
X168323711Y-87840500D01*
X168323712Y-87840500D01*
X168566289Y-87840500D01*
X168614388Y-87834167D01*
X168806789Y-87808838D01*
X169041100Y-87746054D01*
X169265212Y-87653224D01*
X169475289Y-87531936D01*
X169667738Y-87384265D01*
X169839265Y-87212738D01*
X169986936Y-87020289D01*
X170108224Y-86810212D01*
X170201054Y-86586100D01*
X170263838Y-86351789D01*
X170295500Y-86111288D01*
X170295500Y-85868712D01*
X170263838Y-85628211D01*
X170201054Y-85393900D01*
X170108224Y-85169788D01*
X169986936Y-84959711D01*
X169839265Y-84767262D01*
X169839260Y-84767256D01*
X169667743Y-84595739D01*
X169667736Y-84595733D01*
X169475293Y-84448067D01*
X169475292Y-84448066D01*
X169475289Y-84448064D01*
X169265212Y-84326776D01*
X169265205Y-84326773D01*
X169041104Y-84233947D01*
X168806785Y-84171161D01*
X168566289Y-84139500D01*
X168566288Y-84139500D01*
X168323712Y-84139500D01*
X168323711Y-84139500D01*
X168083214Y-84171161D01*
X167848895Y-84233947D01*
X167624794Y-84326773D01*
X167624785Y-84326777D01*
X167414706Y-84448067D01*
X167222263Y-84595733D01*
X167222256Y-84595739D01*
X167050739Y-84767256D01*
X167050733Y-84767263D01*
X166903067Y-84959706D01*
X166781777Y-85169785D01*
X166781773Y-85169794D01*
X166688947Y-85393895D01*
X166626161Y-85628214D01*
X166594500Y-85868711D01*
X166594500Y-86111288D01*
X163995500Y-86111288D01*
X163995500Y-83534321D01*
X164012113Y-83472321D01*
X164072179Y-83368284D01*
X164130674Y-83188256D01*
X164150460Y-83000000D01*
X164130674Y-82811744D01*
X164072179Y-82631716D01*
X163977533Y-82467784D01*
X163850871Y-82327112D01*
X163775038Y-82272016D01*
X163697734Y-82215851D01*
X163697729Y-82215848D01*
X163524807Y-82138857D01*
X163524802Y-82138855D01*
X163379001Y-82107865D01*
X163339646Y-82099500D01*
X163150354Y-82099500D01*
X163117897Y-82106398D01*
X162965197Y-82138855D01*
X162965192Y-82138857D01*
X162792270Y-82215848D01*
X162792265Y-82215851D01*
X162639129Y-82327111D01*
X162512466Y-82467785D01*
X162417821Y-82631715D01*
X162417818Y-82631722D01*
X162359327Y-82811740D01*
X162359326Y-82811744D01*
X162339540Y-83000000D01*
X162359326Y-83188256D01*
X162359327Y-83188259D01*
X162417818Y-83368277D01*
X162417821Y-83368284D01*
X162477887Y-83472321D01*
X162494500Y-83534321D01*
X162494500Y-93165677D01*
X162477887Y-93227677D01*
X162417821Y-93331714D01*
X162373449Y-93468277D01*
X162359326Y-93511744D01*
X162339540Y-93700000D01*
X162359326Y-93888256D01*
X162359327Y-93888259D01*
X162417818Y-94068277D01*
X162417821Y-94068284D01*
X162477887Y-94172321D01*
X162494500Y-94234321D01*
X162494500Y-102365677D01*
X162477887Y-102427677D01*
X162417821Y-102531714D01*
X162359327Y-102711740D01*
X162359326Y-102711744D01*
X162339540Y-102900000D01*
X162359326Y-103088256D01*
X162359327Y-103088259D01*
X162417818Y-103268277D01*
X162417821Y-103268284D01*
X162477887Y-103372321D01*
X162494500Y-103434321D01*
X162494500Y-109265677D01*
X162477887Y-109327677D01*
X162417821Y-109431714D01*
X162359327Y-109611740D01*
X162359326Y-109611744D01*
X162339540Y-109800000D01*
X147095500Y-109800000D01*
X147095500Y-109170921D01*
X147115185Y-109103882D01*
X147127351Y-109087948D01*
X147177533Y-109032216D01*
X147272179Y-108868284D01*
X147330674Y-108688256D01*
X147350460Y-108500000D01*
X147330674Y-108311744D01*
X147272179Y-108131716D01*
X147177533Y-107967784D01*
X147050871Y-107827112D01*
X147050870Y-107827111D01*
X146897734Y-107715851D01*
X146897729Y-107715848D01*
X146724807Y-107638857D01*
X146724802Y-107638855D01*
X146579001Y-107607865D01*
X146539646Y-107599500D01*
X146350354Y-107599500D01*
X146317897Y-107606398D01*
X146165197Y-107638855D01*
X146165192Y-107638857D01*
X145992270Y-107715848D01*
X145992265Y-107715851D01*
X145839129Y-107827111D01*
X145712466Y-107967785D01*
X145617821Y-108131715D01*
X145617818Y-108131722D01*
X145559327Y-108311740D01*
X145559326Y-108311744D01*
X145539540Y-108500000D01*
X145559326Y-108688256D01*
X145559327Y-108688259D01*
X145617818Y-108868277D01*
X145617821Y-108868284D01*
X145712466Y-109032215D01*
X145762649Y-109087948D01*
X145792880Y-109150940D01*
X145794500Y-109170921D01*
X145794500Y-134229078D01*
X145774815Y-134296117D01*
X145762650Y-134312050D01*
X145712466Y-134367785D01*
X145617821Y-134531715D01*
X145617818Y-134531722D01*
X145559327Y-134711740D01*
X145559326Y-134711744D01*
X145539540Y-134900000D01*
X112270000Y-134900000D01*
X112270000Y-133500000D01*
X126039539Y-133500000D01*
X126059325Y-133688256D01*
X126059326Y-133688259D01*
X126117817Y-133868277D01*
X126117820Y-133868284D01*
X126212466Y-134032216D01*
X126328552Y-134161142D01*
X126339128Y-134172888D01*
X126492264Y-134284148D01*
X126492269Y-134284151D01*
X126665191Y-134361142D01*
X126665196Y-134361144D01*
X126850353Y-134400500D01*
X126850354Y-134400500D01*
X127039643Y-134400500D01*
X127039645Y-134400500D01*
X127224802Y-134361144D01*
X127397729Y-134284151D01*
X127550870Y-134172888D01*
X127677532Y-134032216D01*
X127720129Y-133958434D01*
X127770694Y-133910221D01*
X127839301Y-133896997D01*
X127904166Y-133922965D01*
X127944695Y-133979878D01*
X127950835Y-134007471D01*
X127959326Y-134088256D01*
X127959327Y-134088259D01*
X128017818Y-134268277D01*
X128017821Y-134268284D01*
X128112467Y-134432216D01*
X128202063Y-134531722D01*
X128239129Y-134572888D01*
X128392265Y-134684148D01*
X128392270Y-134684151D01*
X128565192Y-134761142D01*
X128565197Y-134761144D01*
X128750354Y-134800500D01*
X128750355Y-134800500D01*
X128939644Y-134800500D01*
X128939646Y-134800500D01*
X129124803Y-134761144D01*
X129297730Y-134684151D01*
X129450871Y-134572888D01*
X129577533Y-134432216D01*
X129672179Y-134268284D01*
X129730674Y-134088256D01*
X129736576Y-134032092D01*
X129763159Y-133967479D01*
X129772207Y-133957381D01*
X132943729Y-130785860D01*
X132943733Y-130785858D01*
X133030858Y-130698733D01*
X133099311Y-130596286D01*
X133099312Y-130596285D01*
X133099313Y-130596282D01*
X133099315Y-130596279D01*
X133109672Y-130571272D01*
X133146463Y-130482451D01*
X133170500Y-130361607D01*
X133170500Y-130238393D01*
X133170500Y-128900000D01*
X142939540Y-128900000D01*
X142959326Y-129088256D01*
X142959327Y-129088259D01*
X143017818Y-129268277D01*
X143017821Y-129268284D01*
X143112467Y-129432216D01*
X143230429Y-129563226D01*
X143239129Y-129572888D01*
X143392265Y-129684148D01*
X143392270Y-129684151D01*
X143565192Y-129761142D01*
X143565197Y-129761144D01*
X143750354Y-129800500D01*
X143750355Y-129800500D01*
X143939644Y-129800500D01*
X143939646Y-129800500D01*
X144124803Y-129761144D01*
X144297730Y-129684151D01*
X144450871Y-129572888D01*
X144577533Y-129432216D01*
X144672179Y-129268284D01*
X144730674Y-129088256D01*
X144750460Y-128900000D01*
X144730674Y-128711744D01*
X144672179Y-128531716D01*
X144666022Y-128521051D01*
X144612113Y-128427677D01*
X144595500Y-128365677D01*
X144595500Y-106470921D01*
X144615185Y-106403882D01*
X144627351Y-106387948D01*
X144677533Y-106332216D01*
X144772179Y-106168284D01*
X144830674Y-105988256D01*
X144850460Y-105800000D01*
X144830674Y-105611744D01*
X144772179Y-105431716D01*
X144677533Y-105267784D01*
X144550871Y-105127112D01*
X144514243Y-105100500D01*
X144397734Y-105015851D01*
X144397729Y-105015848D01*
X144224807Y-104938857D01*
X144224802Y-104938855D01*
X144079001Y-104907865D01*
X144039646Y-104899500D01*
X143850354Y-104899500D01*
X143817897Y-104906398D01*
X143665197Y-104938855D01*
X143665192Y-104938857D01*
X143492270Y-105015848D01*
X143492265Y-105015851D01*
X143339129Y-105127111D01*
X143212466Y-105267785D01*
X143117821Y-105431715D01*
X143117818Y-105431722D01*
X143059327Y-105611740D01*
X143059326Y-105611744D01*
X143039540Y-105800000D01*
X143059326Y-105988256D01*
X143059327Y-105988259D01*
X143117818Y-106168277D01*
X143117821Y-106168284D01*
X143212466Y-106332215D01*
X143262649Y-106387948D01*
X143292880Y-106450940D01*
X143294500Y-106470921D01*
X143294500Y-128123701D01*
X143274815Y-128190740D01*
X143243390Y-128224016D01*
X143239128Y-128227112D01*
X143112466Y-128367785D01*
X143017821Y-128531715D01*
X143017818Y-128531722D01*
X142959327Y-128711740D01*
X142959326Y-128711744D01*
X142939540Y-128900000D01*
X133170500Y-128900000D01*
X133170500Y-123000000D01*
X135939540Y-123000000D01*
X135959326Y-123188256D01*
X135959327Y-123188259D01*
X136017818Y-123368277D01*
X136017821Y-123368284D01*
X136112467Y-123532216D01*
X136234977Y-123668277D01*
X136239129Y-123672888D01*
X136392265Y-123784148D01*
X136392270Y-123784151D01*
X136565192Y-123861142D01*
X136565197Y-123861144D01*
X136750354Y-123900500D01*
X136750355Y-123900500D01*
X136939644Y-123900500D01*
X136939646Y-123900500D01*
X137124803Y-123861144D01*
X137297730Y-123784151D01*
X137450871Y-123672888D01*
X137577533Y-123532216D01*
X137672179Y-123368284D01*
X137730674Y-123188256D01*
X137750460Y-123000000D01*
X137730674Y-122811744D01*
X137672179Y-122631716D01*
X137577533Y-122467784D01*
X137519847Y-122403717D01*
X137502350Y-122384284D01*
X137472120Y-122321292D01*
X137470500Y-122301312D01*
X137470500Y-120698687D01*
X137490185Y-120631648D01*
X137502350Y-120615715D01*
X137522760Y-120593047D01*
X137577533Y-120532216D01*
X137672179Y-120368284D01*
X137730674Y-120188256D01*
X137750460Y-120000000D01*
X137730674Y-119811744D01*
X137672179Y-119631716D01*
X137577533Y-119467784D01*
X137450871Y-119327112D01*
X137450870Y-119327111D01*
X137297734Y-119215851D01*
X137297729Y-119215848D01*
X137124807Y-119138857D01*
X137124802Y-119138855D01*
X136979001Y-119107865D01*
X136939646Y-119099500D01*
X136750354Y-119099500D01*
X136717897Y-119106398D01*
X136565197Y-119138855D01*
X136565192Y-119138857D01*
X136392270Y-119215848D01*
X136392265Y-119215851D01*
X136239129Y-119327111D01*
X136112466Y-119467785D01*
X136017821Y-119631715D01*
X136017818Y-119631722D01*
X135963304Y-119799500D01*
X135959326Y-119811744D01*
X135939540Y-120000000D01*
X135959326Y-120188256D01*
X135959327Y-120188259D01*
X136017818Y-120368277D01*
X136017821Y-120368284D01*
X136112467Y-120532216D01*
X136144493Y-120567784D01*
X136187650Y-120615715D01*
X136217880Y-120678706D01*
X136219500Y-120698687D01*
X136219500Y-122301312D01*
X136199815Y-122368351D01*
X136187650Y-122384284D01*
X136112466Y-122467784D01*
X136017821Y-122631715D01*
X136017818Y-122631722D01*
X135973609Y-122767785D01*
X135959326Y-122811744D01*
X135939540Y-123000000D01*
X133170500Y-123000000D01*
X133170500Y-121938394D01*
X133146463Y-121817548D01*
X133127964Y-121772888D01*
X133099312Y-121703714D01*
X133051537Y-121632216D01*
X133030858Y-121601267D01*
X133030856Y-121601264D01*
X132940637Y-121511045D01*
X132940606Y-121511016D01*
X132083960Y-120654370D01*
X132050475Y-120593047D01*
X132048323Y-120579671D01*
X132030674Y-120411744D01*
X131972179Y-120231716D01*
X131877533Y-120067784D01*
X131750871Y-119927112D01*
X131735369Y-119915849D01*
X131597734Y-119815851D01*
X131597729Y-119815848D01*
X131424807Y-119738857D01*
X131424802Y-119738855D01*
X131279001Y-119707865D01*
X131239646Y-119699500D01*
X131050354Y-119699500D01*
X131017897Y-119706398D01*
X130865197Y-119738855D01*
X130865192Y-119738857D01*
X130692270Y-119815848D01*
X130692265Y-119815851D01*
X130539129Y-119927111D01*
X130412466Y-120067785D01*
X130317821Y-120231715D01*
X130317818Y-120231722D01*
X130273449Y-120368277D01*
X130259326Y-120411744D01*
X130239540Y-120600000D01*
X130259326Y-120788256D01*
X130259327Y-120788259D01*
X130317818Y-120968277D01*
X130317821Y-120968284D01*
X130412467Y-121132216D01*
X130493648Y-121222376D01*
X130539129Y-121272888D01*
X130692265Y-121384148D01*
X130692270Y-121384151D01*
X130865192Y-121461142D01*
X130865197Y-121461144D01*
X131050354Y-121500500D01*
X131109548Y-121500500D01*
X131176587Y-121520185D01*
X131197229Y-121536819D01*
X131883181Y-122222771D01*
X131916666Y-122284094D01*
X131919500Y-122310452D01*
X131919500Y-129989547D01*
X131899815Y-130056586D01*
X131883181Y-130077228D01*
X128997228Y-132963181D01*
X128935905Y-132996666D01*
X128909547Y-132999500D01*
X128750352Y-132999500D01*
X128626114Y-133025907D01*
X128556447Y-133020591D01*
X128500714Y-132978453D01*
X128476609Y-132912873D01*
X128491786Y-132844672D01*
X128512653Y-132816936D01*
X128690733Y-132638857D01*
X131030858Y-130298733D01*
X131099312Y-130196285D01*
X131146463Y-130082451D01*
X131168052Y-129973918D01*
X131170501Y-129961608D01*
X131170501Y-129833283D01*
X131170500Y-129833257D01*
X131170500Y-122638393D01*
X131170499Y-122638389D01*
X131169172Y-122631716D01*
X131146463Y-122517548D01*
X131122539Y-122459790D01*
X131099312Y-122403714D01*
X131048127Y-122327112D01*
X131030858Y-122301267D01*
X131030855Y-122301263D01*
X130940637Y-122211045D01*
X130940606Y-122211016D01*
X129483960Y-120754370D01*
X129450475Y-120693047D01*
X129448323Y-120679671D01*
X129430674Y-120511744D01*
X129372179Y-120331716D01*
X129277533Y-120167784D01*
X129150871Y-120027112D01*
X129150870Y-120027111D01*
X128997734Y-119915851D01*
X128997729Y-119915848D01*
X128824807Y-119838857D01*
X128824802Y-119838855D01*
X128679001Y-119807865D01*
X128639646Y-119799500D01*
X128450354Y-119799500D01*
X128417897Y-119806398D01*
X128265197Y-119838855D01*
X128265192Y-119838857D01*
X128092270Y-119915848D01*
X128092265Y-119915851D01*
X127939129Y-120027111D01*
X127812466Y-120167785D01*
X127717821Y-120331715D01*
X127717818Y-120331722D01*
X127659327Y-120511740D01*
X127659326Y-120511744D01*
X127639540Y-120700000D01*
X127659326Y-120888256D01*
X127659327Y-120888259D01*
X127717818Y-121068277D01*
X127717821Y-121068284D01*
X127812467Y-121232216D01*
X127939129Y-121372888D01*
X128092265Y-121484148D01*
X128092270Y-121484151D01*
X128265192Y-121561142D01*
X128265197Y-121561144D01*
X128450354Y-121600500D01*
X128509548Y-121600500D01*
X128576587Y-121620185D01*
X128597229Y-121636819D01*
X129883181Y-122922771D01*
X129916666Y-122984094D01*
X129919500Y-123010452D01*
X129919500Y-129589547D01*
X129899815Y-129656586D01*
X129883181Y-129677228D01*
X126997228Y-132563181D01*
X126935905Y-132596666D01*
X126909547Y-132599500D01*
X126850353Y-132599500D01*
X126817896Y-132606398D01*
X126665196Y-132638855D01*
X126665191Y-132638857D01*
X126492269Y-132715848D01*
X126492264Y-132715851D01*
X126339128Y-132827111D01*
X126212465Y-132967785D01*
X126117820Y-133131715D01*
X126117817Y-133131722D01*
X126059326Y-133311740D01*
X126059325Y-133311744D01*
X126039539Y-133500000D01*
X112270000Y-133500000D01*
X112270000Y-81500001D01*
X113044500Y-81500001D01*
X113044501Y-81500019D01*
X113055000Y-81602796D01*
X113055001Y-81602799D01*
X113110185Y-81769331D01*
X113110187Y-81769336D01*
X113202289Y-81918657D01*
X113258181Y-81974549D01*
X113291666Y-82035872D01*
X113294500Y-82062230D01*
X113294500Y-130365677D01*
X113277887Y-130427677D01*
X113217821Y-130531714D01*
X113159327Y-130711740D01*
X113159326Y-130711744D01*
X113139540Y-130900000D01*
X113159326Y-131088256D01*
X113159327Y-131088259D01*
X113217818Y-131268277D01*
X113217821Y-131268284D01*
X113312467Y-131432216D01*
X113439129Y-131572888D01*
X113592265Y-131684148D01*
X113592270Y-131684151D01*
X113765192Y-131761142D01*
X113765197Y-131761144D01*
X113950354Y-131800500D01*
X113950355Y-131800500D01*
X114139644Y-131800500D01*
X114139646Y-131800500D01*
X114324803Y-131761144D01*
X114497730Y-131684151D01*
X114650871Y-131572888D01*
X114777533Y-131432216D01*
X114872179Y-131268284D01*
X114930674Y-131088256D01*
X114950460Y-130900000D01*
X114930674Y-130711744D01*
X114872179Y-130531716D01*
X114814448Y-130431722D01*
X114812113Y-130427677D01*
X114795500Y-130365677D01*
X114795500Y-128021288D01*
X124684500Y-128021288D01*
X124716161Y-128261785D01*
X124778947Y-128496104D01*
X124808233Y-128566806D01*
X124871776Y-128720212D01*
X124993064Y-128930289D01*
X124993066Y-128930292D01*
X124993067Y-128930293D01*
X125140733Y-129122736D01*
X125140739Y-129122743D01*
X125312256Y-129294260D01*
X125312262Y-129294265D01*
X125504711Y-129441936D01*
X125714788Y-129563224D01*
X125938900Y-129656054D01*
X126030975Y-129680725D01*
X126090634Y-129717090D01*
X126121163Y-129779937D01*
X126112868Y-129849313D01*
X126068383Y-129903191D01*
X126001831Y-129924465D01*
X125998880Y-129924500D01*
X125925354Y-129924500D01*
X125892897Y-129931398D01*
X125740197Y-129963855D01*
X125740192Y-129963857D01*
X125567270Y-130040848D01*
X125567265Y-130040851D01*
X125414129Y-130152111D01*
X125287467Y-130292784D01*
X125287466Y-130292784D01*
X125192821Y-130456715D01*
X125192818Y-130456722D01*
X125142450Y-130611740D01*
X125134326Y-130636744D01*
X125114540Y-130825000D01*
X125134326Y-131013256D01*
X125134327Y-131013259D01*
X125192818Y-131193277D01*
X125192821Y-131193284D01*
X125287467Y-131357216D01*
X125367352Y-131445937D01*
X125414129Y-131497888D01*
X125567265Y-131609148D01*
X125567270Y-131609151D01*
X125740192Y-131686142D01*
X125740197Y-131686144D01*
X125925354Y-131725500D01*
X125925355Y-131725500D01*
X126114644Y-131725500D01*
X126114646Y-131725500D01*
X126299803Y-131686144D01*
X126472730Y-131609151D01*
X126625871Y-131497888D01*
X126752533Y-131357216D01*
X126847179Y-131193284D01*
X126905674Y-131013256D01*
X126925460Y-130825000D01*
X126905674Y-130636744D01*
X126847179Y-130456716D01*
X126752533Y-130292784D01*
X126625871Y-130152112D01*
X126625870Y-130152111D01*
X126472734Y-130040851D01*
X126472729Y-130040848D01*
X126352554Y-129987342D01*
X126299317Y-129942092D01*
X126278996Y-129875242D01*
X126298042Y-129808019D01*
X126350408Y-129761764D01*
X126409653Y-129750602D01*
X126409653Y-129750500D01*
X126410197Y-129750500D01*
X126411105Y-129750329D01*
X126413712Y-129750500D01*
X126656289Y-129750500D01*
X126704388Y-129744167D01*
X126896789Y-129718838D01*
X127131100Y-129656054D01*
X127355212Y-129563224D01*
X127565289Y-129441936D01*
X127757738Y-129294265D01*
X127929265Y-129122738D01*
X128076936Y-128930289D01*
X128198224Y-128720212D01*
X128291054Y-128496100D01*
X128353838Y-128261789D01*
X128385500Y-128021288D01*
X128385500Y-127778712D01*
X128353838Y-127538211D01*
X128291054Y-127303900D01*
X128198224Y-127079788D01*
X128076936Y-126869711D01*
X127929265Y-126677262D01*
X127929260Y-126677256D01*
X127757743Y-126505739D01*
X127757736Y-126505733D01*
X127565293Y-126358067D01*
X127565292Y-126358066D01*
X127565289Y-126358064D01*
X127355212Y-126236776D01*
X127355205Y-126236773D01*
X127131104Y-126143947D01*
X126896785Y-126081161D01*
X126656289Y-126049500D01*
X126656288Y-126049500D01*
X126413712Y-126049500D01*
X126413711Y-126049500D01*
X126173214Y-126081161D01*
X125938895Y-126143947D01*
X125714794Y-126236773D01*
X125714785Y-126236777D01*
X125504706Y-126358067D01*
X125312263Y-126505733D01*
X125312256Y-126505739D01*
X125140739Y-126677256D01*
X125140733Y-126677263D01*
X124993067Y-126869706D01*
X124871777Y-127079785D01*
X124871773Y-127079794D01*
X124778947Y-127303895D01*
X124716161Y-127538214D01*
X124684500Y-127778711D01*
X124684500Y-128021288D01*
X114795500Y-128021288D01*
X114795500Y-82215638D01*
X114815185Y-82148599D01*
X114854401Y-82110100D01*
X114963656Y-82042712D01*
X115057319Y-81949049D01*
X115118642Y-81915564D01*
X115188334Y-81920548D01*
X115232681Y-81949049D01*
X115326345Y-82042713D01*
X115349994Y-82057299D01*
X115357988Y-82062230D01*
X115360594Y-82063837D01*
X115407320Y-82115784D01*
X115419500Y-82169377D01*
X115419500Y-121222376D01*
X115402887Y-121284375D01*
X115317823Y-121431710D01*
X115317818Y-121431722D01*
X115275767Y-121561144D01*
X115259326Y-121611744D01*
X115239540Y-121800000D01*
X115259326Y-121988256D01*
X115259327Y-121988259D01*
X115317818Y-122168277D01*
X115317821Y-122168284D01*
X115412467Y-122332216D01*
X115534533Y-122467784D01*
X115539129Y-122472888D01*
X115692265Y-122584148D01*
X115692270Y-122584151D01*
X115865192Y-122661142D01*
X115865197Y-122661144D01*
X116050354Y-122700500D01*
X116050355Y-122700500D01*
X116239644Y-122700500D01*
X116239646Y-122700500D01*
X116424803Y-122661144D01*
X116597730Y-122584151D01*
X116750871Y-122472888D01*
X116877533Y-122332216D01*
X116972179Y-122168284D01*
X117030674Y-121988256D01*
X117050460Y-121800000D01*
X117030674Y-121611744D01*
X116972179Y-121431716D01*
X116877533Y-121267784D01*
X116750871Y-121127112D01*
X116721613Y-121105854D01*
X116678949Y-121050526D01*
X116670500Y-121005538D01*
X116670500Y-82272016D01*
X116690185Y-82204977D01*
X116742989Y-82159222D01*
X116755488Y-82154313D01*
X116814334Y-82134814D01*
X116963656Y-82042712D01*
X117087712Y-81918656D01*
X117179814Y-81769334D01*
X117234999Y-81602797D01*
X117245500Y-81500009D01*
X117245499Y-80499992D01*
X117234999Y-80397203D01*
X117179814Y-80230666D01*
X117087712Y-80081344D01*
X116963656Y-79957288D01*
X116963652Y-79957285D01*
X116879403Y-79905319D01*
X116832678Y-79853371D01*
X116820500Y-79799781D01*
X116820500Y-78889499D01*
X116840185Y-78822460D01*
X116892989Y-78776705D01*
X116944500Y-78765499D01*
X117020581Y-78765499D01*
X117020586Y-78765499D01*
X117105133Y-78755347D01*
X117125191Y-78747436D01*
X117194777Y-78741154D01*
X117216171Y-78747436D01*
X117234985Y-78754855D01*
X117234989Y-78754856D01*
X117319455Y-78765000D01*
X117335000Y-78765000D01*
X117335000Y-78682854D01*
X117354685Y-78615815D01*
X117360189Y-78607938D01*
X117432197Y-78512982D01*
X117488389Y-78471460D01*
X117558111Y-78466909D01*
X117619224Y-78500774D01*
X117652328Y-78562304D01*
X117655000Y-78587909D01*
X117655000Y-78765000D01*
X117670544Y-78765000D01*
X117755011Y-78754856D01*
X117755013Y-78754855D01*
X117889423Y-78701852D01*
X118004548Y-78614548D01*
X118091852Y-78499423D01*
X118144855Y-78365013D01*
X118144856Y-78365011D01*
X118155000Y-78280544D01*
X118155000Y-77805000D01*
X117629499Y-77805000D01*
X117562460Y-77785315D01*
X117516705Y-77732511D01*
X117505499Y-77681000D01*
X117505499Y-77609000D01*
X117525184Y-77541961D01*
X117577988Y-77496206D01*
X117629499Y-77485000D01*
X118155000Y-77485000D01*
X118155000Y-77009459D01*
X118154781Y-77007636D01*
X118154862Y-77007151D01*
X118154779Y-77005762D01*
X118155098Y-77005742D01*
X118166330Y-76938728D01*
X118213300Y-76887002D01*
X118280779Y-76868882D01*
X118347343Y-76890120D01*
X118365577Y-76905167D01*
X119350353Y-77889943D01*
X119383838Y-77951266D01*
X119378854Y-78020958D01*
X119336982Y-78076891D01*
X119271518Y-78101308D01*
X119246168Y-78099558D01*
X119246103Y-78100179D01*
X119239646Y-78099500D01*
X119050354Y-78099500D01*
X119017897Y-78106398D01*
X118865197Y-78138855D01*
X118865192Y-78138857D01*
X118692270Y-78215848D01*
X118692265Y-78215851D01*
X118539129Y-78327111D01*
X118412466Y-78467785D01*
X118317821Y-78631715D01*
X118317818Y-78631722D01*
X118270155Y-78778416D01*
X118259326Y-78811744D01*
X118239540Y-79000000D01*
X118259326Y-79188256D01*
X118259327Y-79188259D01*
X118317818Y-79368277D01*
X118317821Y-79368284D01*
X118377887Y-79472321D01*
X118394500Y-79534321D01*
X118394500Y-103529078D01*
X118374815Y-103596117D01*
X118362650Y-103612050D01*
X118312466Y-103667785D01*
X118217821Y-103831715D01*
X118217818Y-103831722D01*
X118159327Y-104011740D01*
X118159326Y-104011744D01*
X118139540Y-104200000D01*
X118159326Y-104388256D01*
X118159327Y-104388259D01*
X118217818Y-104568277D01*
X118217821Y-104568284D01*
X118312467Y-104732216D01*
X118439129Y-104872888D01*
X118592265Y-104984148D01*
X118592270Y-104984151D01*
X118765192Y-105061142D01*
X118765197Y-105061144D01*
X118950354Y-105100500D01*
X118950355Y-105100500D01*
X119139644Y-105100500D01*
X119139646Y-105100500D01*
X119324803Y-105061144D01*
X119497730Y-104984151D01*
X119650871Y-104872888D01*
X119777533Y-104732216D01*
X119872179Y-104568284D01*
X119930674Y-104388256D01*
X119950460Y-104200000D01*
X119930674Y-104011744D01*
X119872179Y-103831716D01*
X119777533Y-103667784D01*
X119727350Y-103612050D01*
X119697120Y-103549058D01*
X119695500Y-103529078D01*
X119695500Y-81200000D01*
X121239540Y-81200000D01*
X121259326Y-81388256D01*
X121259327Y-81388259D01*
X121317818Y-81568277D01*
X121317821Y-81568284D01*
X121412467Y-81732216D01*
X121455772Y-81780310D01*
X121487650Y-81815715D01*
X121517880Y-81878706D01*
X121519500Y-81898687D01*
X121519500Y-106461611D01*
X121543535Y-106582444D01*
X121543540Y-106582461D01*
X121590685Y-106696280D01*
X121590690Y-106696289D01*
X121624914Y-106747507D01*
X121624915Y-106747509D01*
X121659141Y-106798733D01*
X121750586Y-106890178D01*
X121750608Y-106890198D01*
X127406038Y-112545628D01*
X127439523Y-112606951D01*
X127441678Y-112620347D01*
X127443624Y-112638857D01*
X127459326Y-112788256D01*
X127459327Y-112788259D01*
X127517818Y-112968277D01*
X127517821Y-112968284D01*
X127612467Y-113132216D01*
X127659227Y-113184148D01*
X127739129Y-113272888D01*
X127892265Y-113384148D01*
X127892270Y-113384151D01*
X128065192Y-113461142D01*
X128065197Y-113461144D01*
X128250354Y-113500500D01*
X128250355Y-113500500D01*
X128439644Y-113500500D01*
X128439646Y-113500500D01*
X128624803Y-113461144D01*
X128797730Y-113384151D01*
X128950871Y-113272888D01*
X129077533Y-113132216D01*
X129172179Y-112968284D01*
X129230674Y-112788256D01*
X129250460Y-112600000D01*
X129230674Y-112411744D01*
X129225925Y-112397128D01*
X129223928Y-112327287D01*
X129260008Y-112267453D01*
X129322709Y-112236624D01*
X129392123Y-112244588D01*
X129431536Y-112271127D01*
X129506038Y-112345629D01*
X129539523Y-112406952D01*
X129541678Y-112420348D01*
X129549968Y-112499227D01*
X129559326Y-112588256D01*
X129559327Y-112588259D01*
X129617818Y-112768277D01*
X129617821Y-112768284D01*
X129712467Y-112932216D01*
X129839129Y-113072888D01*
X129992265Y-113184148D01*
X129992270Y-113184151D01*
X130165192Y-113261142D01*
X130165197Y-113261144D01*
X130350354Y-113300500D01*
X130350355Y-113300500D01*
X130539644Y-113300500D01*
X130539646Y-113300500D01*
X130724803Y-113261144D01*
X130897730Y-113184151D01*
X131050871Y-113072888D01*
X131177533Y-112932216D01*
X131272179Y-112768284D01*
X131330674Y-112588256D01*
X131350460Y-112400000D01*
X131330674Y-112211744D01*
X131272179Y-112031716D01*
X131177533Y-111867784D01*
X131050871Y-111727112D01*
X131050870Y-111727111D01*
X130897734Y-111615851D01*
X130897729Y-111615848D01*
X130724807Y-111538857D01*
X130724802Y-111538855D01*
X130579001Y-111507865D01*
X130539646Y-111499500D01*
X130539645Y-111499500D01*
X130480453Y-111499500D01*
X130413414Y-111479815D01*
X130392772Y-111463181D01*
X129531819Y-110602228D01*
X129498334Y-110540905D01*
X129495500Y-110514547D01*
X129495500Y-101432010D01*
X129515185Y-101364971D01*
X129567989Y-101319216D01*
X129637147Y-101309272D01*
X129669936Y-101318731D01*
X129765192Y-101361142D01*
X129765197Y-101361144D01*
X129950354Y-101400500D01*
X129950355Y-101400500D01*
X130139644Y-101400500D01*
X130139646Y-101400500D01*
X130324803Y-101361144D01*
X130497730Y-101284151D01*
X130650871Y-101172888D01*
X130777533Y-101032216D01*
X130872179Y-100868284D01*
X130930674Y-100688256D01*
X130950460Y-100500000D01*
X130930674Y-100311744D01*
X130872179Y-100131716D01*
X130812113Y-100027677D01*
X130795500Y-99965677D01*
X130795500Y-96234321D01*
X130812113Y-96172321D01*
X130872179Y-96068284D01*
X130930674Y-95888256D01*
X130950460Y-95700000D01*
X130930674Y-95511744D01*
X130872179Y-95331716D01*
X130812113Y-95227677D01*
X130795500Y-95165677D01*
X130795500Y-93634321D01*
X130812113Y-93572321D01*
X130847087Y-93511744D01*
X130872179Y-93468284D01*
X130930674Y-93288256D01*
X130950460Y-93100000D01*
X130930674Y-92911744D01*
X130872179Y-92731716D01*
X130812113Y-92627677D01*
X130795500Y-92565677D01*
X130795500Y-88634321D01*
X130812113Y-88572321D01*
X130872179Y-88468284D01*
X130930674Y-88288256D01*
X130950460Y-88100000D01*
X130930674Y-87911744D01*
X130872179Y-87731716D01*
X130872178Y-87731714D01*
X130812113Y-87627677D01*
X130795500Y-87565677D01*
X130795500Y-86034321D01*
X130812113Y-85972321D01*
X130872179Y-85868284D01*
X130930674Y-85688256D01*
X130950460Y-85500000D01*
X130930674Y-85311744D01*
X130872179Y-85131716D01*
X130812113Y-85027677D01*
X130795500Y-84965677D01*
X130795500Y-81434321D01*
X130812113Y-81372321D01*
X130872179Y-81268284D01*
X130930674Y-81088256D01*
X130950460Y-80900000D01*
X130930674Y-80711744D01*
X130872179Y-80531716D01*
X130853867Y-80499998D01*
X130812113Y-80427677D01*
X130795500Y-80365677D01*
X130795500Y-80062230D01*
X130815185Y-79995191D01*
X130831819Y-79974549D01*
X132027947Y-78778421D01*
X132027952Y-78778416D01*
X132099009Y-78672070D01*
X132110084Y-78655495D01*
X132166658Y-78518913D01*
X132176828Y-78467784D01*
X132195500Y-78373920D01*
X132195500Y-71634321D01*
X132212113Y-71572321D01*
X132212491Y-71571666D01*
X132272179Y-71468284D01*
X132330674Y-71288256D01*
X132350460Y-71100000D01*
X151139540Y-71100000D01*
X151159326Y-71288256D01*
X151159327Y-71288259D01*
X151217818Y-71468277D01*
X151217821Y-71468284D01*
X151312466Y-71632215D01*
X151362649Y-71687948D01*
X151392880Y-71750940D01*
X151394500Y-71770921D01*
X151394500Y-82365677D01*
X151377887Y-82427677D01*
X151317821Y-82531714D01*
X151259327Y-82711740D01*
X151259326Y-82711744D01*
X151239540Y-82900000D01*
X151259326Y-83088256D01*
X151259327Y-83088259D01*
X151317818Y-83268277D01*
X151317821Y-83268284D01*
X151412467Y-83432216D01*
X151448578Y-83472321D01*
X151539129Y-83572888D01*
X151692265Y-83684148D01*
X151692270Y-83684151D01*
X151865192Y-83761142D01*
X151865197Y-83761144D01*
X152050354Y-83800500D01*
X152050355Y-83800500D01*
X152239644Y-83800500D01*
X152239646Y-83800500D01*
X152424803Y-83761144D01*
X152597730Y-83684151D01*
X152750871Y-83572888D01*
X152877533Y-83432216D01*
X152972179Y-83268284D01*
X153030674Y-83088256D01*
X153050460Y-82900000D01*
X153030674Y-82711744D01*
X152972179Y-82531716D01*
X152912113Y-82427677D01*
X152895500Y-82365677D01*
X152895500Y-76257870D01*
X173014500Y-76257870D01*
X173014501Y-76257876D01*
X173020908Y-76317483D01*
X173071202Y-76452328D01*
X173071206Y-76452335D01*
X173157452Y-76567544D01*
X173157455Y-76567547D01*
X173272664Y-76653793D01*
X173272671Y-76653797D01*
X173272674Y-76653798D01*
X173404598Y-76703002D01*
X173460531Y-76744873D01*
X173484949Y-76810337D01*
X173470098Y-76878610D01*
X173448947Y-76906865D01*
X173326886Y-77028926D01*
X173191400Y-77222420D01*
X173191399Y-77222422D01*
X173091570Y-77436507D01*
X173091567Y-77436513D01*
X173034364Y-77649999D01*
X173034364Y-77650000D01*
X173931988Y-77650000D01*
X173899075Y-77707007D01*
X173865000Y-77834174D01*
X173865000Y-77965826D01*
X173899075Y-78092993D01*
X173931988Y-78150000D01*
X173034364Y-78150000D01*
X173091567Y-78363486D01*
X173091570Y-78363492D01*
X173191399Y-78577578D01*
X173326894Y-78771082D01*
X173493917Y-78938105D01*
X173687421Y-79073600D01*
X173901507Y-79173429D01*
X173901516Y-79173433D01*
X174115000Y-79230634D01*
X174115000Y-78333012D01*
X174172007Y-78365925D01*
X174299174Y-78400000D01*
X174430826Y-78400000D01*
X174557993Y-78365925D01*
X174615000Y-78333012D01*
X174615000Y-79230633D01*
X174828483Y-79173433D01*
X174828492Y-79173429D01*
X175042578Y-79073600D01*
X175236082Y-78938105D01*
X175403105Y-78771082D01*
X175533119Y-78585405D01*
X175587696Y-78541781D01*
X175657195Y-78534588D01*
X175719549Y-78566110D01*
X175736269Y-78585405D01*
X175866505Y-78771401D01*
X176033599Y-78938495D01*
X176121437Y-79000000D01*
X176227165Y-79074032D01*
X176227167Y-79074033D01*
X176227170Y-79074035D01*
X176441337Y-79173903D01*
X176669592Y-79235063D01*
X176857918Y-79251539D01*
X176904999Y-79255659D01*
X176905000Y-79255659D01*
X176905001Y-79255659D01*
X176944234Y-79252226D01*
X177140408Y-79235063D01*
X177368663Y-79173903D01*
X177582830Y-79074035D01*
X177776401Y-78938495D01*
X177943495Y-78771401D01*
X178073425Y-78585842D01*
X178128002Y-78542217D01*
X178197500Y-78535023D01*
X178259855Y-78566546D01*
X178276575Y-78585842D01*
X178406500Y-78771395D01*
X178406505Y-78771401D01*
X178573599Y-78938495D01*
X178661437Y-79000000D01*
X178767165Y-79074032D01*
X178767167Y-79074033D01*
X178767170Y-79074035D01*
X178981337Y-79173903D01*
X179209592Y-79235063D01*
X179397918Y-79251539D01*
X179444999Y-79255659D01*
X179445000Y-79255659D01*
X179445001Y-79255659D01*
X179484234Y-79252226D01*
X179680408Y-79235063D01*
X179908663Y-79173903D01*
X180122830Y-79074035D01*
X180316401Y-78938495D01*
X180483495Y-78771401D01*
X180619035Y-78577830D01*
X180718903Y-78363663D01*
X180780063Y-78135408D01*
X180800659Y-77900000D01*
X180780063Y-77664592D01*
X180718903Y-77436337D01*
X180619035Y-77222171D01*
X180613731Y-77214595D01*
X180483494Y-77028597D01*
X180316402Y-76861506D01*
X180316396Y-76861501D01*
X180130842Y-76731575D01*
X180087217Y-76676998D01*
X180080023Y-76607500D01*
X180111546Y-76545145D01*
X180130842Y-76528425D01*
X180153026Y-76512891D01*
X180316401Y-76398495D01*
X180483495Y-76231401D01*
X180619035Y-76037830D01*
X180718903Y-75823663D01*
X180780063Y-75595408D01*
X180800659Y-75360000D01*
X180780063Y-75124592D01*
X180718903Y-74896337D01*
X180619035Y-74682171D01*
X180613731Y-74674595D01*
X180483494Y-74488597D01*
X180316402Y-74321506D01*
X180316395Y-74321501D01*
X180122834Y-74185967D01*
X180122830Y-74185965D01*
X180116319Y-74182929D01*
X179908663Y-74086097D01*
X179908659Y-74086096D01*
X179908655Y-74086094D01*
X179680413Y-74024938D01*
X179680403Y-74024936D01*
X179445001Y-74004341D01*
X179444999Y-74004341D01*
X179209596Y-74024936D01*
X179209586Y-74024938D01*
X178981344Y-74086094D01*
X178981335Y-74086098D01*
X178767171Y-74185964D01*
X178767169Y-74185965D01*
X178573597Y-74321505D01*
X178406508Y-74488594D01*
X178276269Y-74674595D01*
X178221692Y-74718219D01*
X178152193Y-74725412D01*
X178089839Y-74693890D01*
X178073119Y-74674594D01*
X177943113Y-74488926D01*
X177943108Y-74488920D01*
X177776082Y-74321894D01*
X177582578Y-74186399D01*
X177368492Y-74086570D01*
X177368486Y-74086567D01*
X177155000Y-74029364D01*
X177155000Y-74926988D01*
X177097993Y-74894075D01*
X176970826Y-74860000D01*
X176839174Y-74860000D01*
X176712007Y-74894075D01*
X176655000Y-74926988D01*
X176655000Y-74029364D01*
X176654999Y-74029364D01*
X176441513Y-74086567D01*
X176441507Y-74086570D01*
X176227422Y-74186399D01*
X176227420Y-74186400D01*
X176033926Y-74321886D01*
X175911865Y-74443947D01*
X175850542Y-74477431D01*
X175780850Y-74472447D01*
X175724917Y-74430575D01*
X175708002Y-74399598D01*
X175658797Y-74267671D01*
X175658793Y-74267664D01*
X175572547Y-74152455D01*
X175572544Y-74152452D01*
X175457335Y-74066206D01*
X175457328Y-74066202D01*
X175322482Y-74015908D01*
X175322483Y-74015908D01*
X175262883Y-74009501D01*
X175262881Y-74009500D01*
X175262873Y-74009500D01*
X175262864Y-74009500D01*
X173467129Y-74009500D01*
X173467123Y-74009501D01*
X173407516Y-74015908D01*
X173272671Y-74066202D01*
X173272664Y-74066206D01*
X173157455Y-74152452D01*
X173157452Y-74152455D01*
X173071206Y-74267664D01*
X173071202Y-74267671D01*
X173020908Y-74402517D01*
X173014501Y-74462116D01*
X173014500Y-74462135D01*
X173014500Y-76257870D01*
X152895500Y-76257870D01*
X152895500Y-71416149D01*
X152901569Y-71377831D01*
X152903407Y-71372171D01*
X152930674Y-71288256D01*
X152950460Y-71100000D01*
X152930674Y-70911744D01*
X152872179Y-70731716D01*
X152777533Y-70567784D01*
X152650871Y-70427112D01*
X152583745Y-70378342D01*
X152497734Y-70315851D01*
X152497729Y-70315848D01*
X152324807Y-70238857D01*
X152324802Y-70238855D01*
X152179001Y-70207865D01*
X152139646Y-70199500D01*
X151950354Y-70199500D01*
X151917897Y-70206398D01*
X151765197Y-70238855D01*
X151765192Y-70238857D01*
X151592270Y-70315848D01*
X151592265Y-70315851D01*
X151439129Y-70427111D01*
X151312466Y-70567785D01*
X151217821Y-70731715D01*
X151217818Y-70731722D01*
X151159327Y-70911740D01*
X151159326Y-70911744D01*
X151139540Y-71100000D01*
X132350460Y-71100000D01*
X132330674Y-70911744D01*
X132272179Y-70731716D01*
X132177533Y-70567784D01*
X132050871Y-70427112D01*
X131983745Y-70378342D01*
X131897734Y-70315851D01*
X131897729Y-70315848D01*
X131724807Y-70238857D01*
X131724802Y-70238855D01*
X131579001Y-70207865D01*
X131539646Y-70199500D01*
X131350354Y-70199500D01*
X131317897Y-70206398D01*
X131165197Y-70238855D01*
X131165192Y-70238857D01*
X130992270Y-70315848D01*
X130992265Y-70315851D01*
X130839129Y-70427111D01*
X130712466Y-70567785D01*
X130617821Y-70731715D01*
X130617818Y-70731722D01*
X130559327Y-70911740D01*
X130559326Y-70911744D01*
X130539540Y-71100000D01*
X130559326Y-71288256D01*
X130559327Y-71288259D01*
X130617818Y-71468277D01*
X130617821Y-71468284D01*
X130677887Y-71572321D01*
X130694500Y-71634321D01*
X130694500Y-75974658D01*
X130674815Y-76041697D01*
X130622011Y-76087452D01*
X130552853Y-76097396D01*
X130489297Y-76068371D01*
X130478351Y-76057631D01*
X130450871Y-76027112D01*
X130450870Y-76027111D01*
X130297734Y-75915851D01*
X130297729Y-75915848D01*
X130124807Y-75838857D01*
X130124802Y-75838855D01*
X129979001Y-75807865D01*
X129939646Y-75799500D01*
X129750354Y-75799500D01*
X129717897Y-75806398D01*
X129565197Y-75838855D01*
X129565192Y-75838857D01*
X129392270Y-75915848D01*
X129392265Y-75915851D01*
X129239129Y-76027111D01*
X129112467Y-76167783D01*
X129070836Y-76239890D01*
X129020268Y-76288105D01*
X128951661Y-76301327D01*
X128886797Y-76275359D01*
X128871299Y-76260861D01*
X128868611Y-76257876D01*
X128750871Y-76127112D01*
X128750870Y-76127111D01*
X128597734Y-76015851D01*
X128597729Y-76015848D01*
X128424807Y-75938857D01*
X128424802Y-75938855D01*
X128279001Y-75907865D01*
X128239646Y-75899500D01*
X128239645Y-75899500D01*
X128180452Y-75899500D01*
X128113413Y-75879815D01*
X128092771Y-75863181D01*
X126335198Y-74105608D01*
X126335178Y-74105586D01*
X126243733Y-74014141D01*
X126192509Y-73979915D01*
X126179538Y-73971248D01*
X126141286Y-73945688D01*
X126141283Y-73945686D01*
X126141280Y-73945685D01*
X126060792Y-73912347D01*
X126027453Y-73898537D01*
X126017427Y-73896543D01*
X125967029Y-73886518D01*
X125906610Y-73874500D01*
X125906607Y-73874500D01*
X125906606Y-73874500D01*
X125448748Y-73874500D01*
X125381709Y-73854815D01*
X125356600Y-73833474D01*
X125350873Y-73827114D01*
X125350869Y-73827110D01*
X125197734Y-73715851D01*
X125197729Y-73715848D01*
X125024807Y-73638857D01*
X125024802Y-73638855D01*
X124879001Y-73607865D01*
X124839646Y-73599500D01*
X124650354Y-73599500D01*
X124617897Y-73606398D01*
X124465197Y-73638855D01*
X124465192Y-73638857D01*
X124292270Y-73715848D01*
X124292265Y-73715851D01*
X124139129Y-73827111D01*
X124012466Y-73967785D01*
X123917821Y-74131715D01*
X123917818Y-74131722D01*
X123873646Y-74267671D01*
X123859326Y-74311744D01*
X123839540Y-74500000D01*
X123859326Y-74688256D01*
X123859327Y-74688259D01*
X123917818Y-74868277D01*
X123917820Y-74868282D01*
X123917821Y-74868284D01*
X124012467Y-75032216D01*
X124114185Y-75145185D01*
X124139129Y-75172888D01*
X124292265Y-75284148D01*
X124292270Y-75284151D01*
X124465192Y-75361142D01*
X124465197Y-75361144D01*
X124650354Y-75400500D01*
X124650355Y-75400500D01*
X124839644Y-75400500D01*
X124839646Y-75400500D01*
X125024803Y-75361144D01*
X125197730Y-75284151D01*
X125350871Y-75172888D01*
X125353788Y-75169647D01*
X125356600Y-75166526D01*
X125416087Y-75129879D01*
X125448748Y-75125500D01*
X125534548Y-75125500D01*
X125601587Y-75145185D01*
X125622229Y-75161819D01*
X127206038Y-76745628D01*
X127239523Y-76806951D01*
X127241678Y-76820347D01*
X127247737Y-76877989D01*
X127259326Y-76988256D01*
X127259327Y-76988259D01*
X127317818Y-77168277D01*
X127317821Y-77168284D01*
X127412467Y-77332216D01*
X127424822Y-77345937D01*
X127487650Y-77415715D01*
X127517880Y-77478706D01*
X127519500Y-77498687D01*
X127519500Y-79589547D01*
X127499815Y-79656586D01*
X127483181Y-79677228D01*
X126897229Y-80263181D01*
X126835906Y-80296666D01*
X126809548Y-80299500D01*
X126750354Y-80299500D01*
X126717897Y-80306398D01*
X126565197Y-80338855D01*
X126565192Y-80338857D01*
X126392270Y-80415848D01*
X126392265Y-80415851D01*
X126239129Y-80527111D01*
X126112466Y-80667785D01*
X126017821Y-80831715D01*
X126017818Y-80831722D01*
X125959327Y-81011740D01*
X125959326Y-81011744D01*
X125939540Y-81200000D01*
X125959326Y-81388256D01*
X125959327Y-81388259D01*
X126017818Y-81568277D01*
X126017821Y-81568284D01*
X126112467Y-81732216D01*
X126187650Y-81815715D01*
X126239129Y-81872888D01*
X126392265Y-81984148D01*
X126392270Y-81984151D01*
X126565192Y-82061142D01*
X126565197Y-82061144D01*
X126750354Y-82100500D01*
X126750355Y-82100500D01*
X126939644Y-82100500D01*
X126939646Y-82100500D01*
X127124803Y-82061144D01*
X127297730Y-81984151D01*
X127450871Y-81872888D01*
X127577533Y-81732216D01*
X127672179Y-81568284D01*
X127730674Y-81388256D01*
X127748321Y-81220344D01*
X127774904Y-81155734D01*
X127783951Y-81145638D01*
X128032819Y-80896771D01*
X128094142Y-80863286D01*
X128163834Y-80868270D01*
X128219767Y-80910142D01*
X128244184Y-80975606D01*
X128244500Y-80984452D01*
X128244500Y-84812792D01*
X128224815Y-84879831D01*
X128172011Y-84925586D01*
X128102853Y-84935530D01*
X128039297Y-84906505D01*
X128022124Y-84888278D01*
X127929266Y-84767263D01*
X127929260Y-84767256D01*
X127757743Y-84595739D01*
X127757736Y-84595733D01*
X127565293Y-84448067D01*
X127565292Y-84448066D01*
X127565289Y-84448064D01*
X127355212Y-84326776D01*
X127355205Y-84326773D01*
X127131104Y-84233947D01*
X126896785Y-84171161D01*
X126656289Y-84139500D01*
X126656288Y-84139500D01*
X126413712Y-84139500D01*
X126413711Y-84139500D01*
X126173214Y-84171161D01*
X125938895Y-84233947D01*
X125714794Y-84326773D01*
X125714785Y-84326777D01*
X125504706Y-84448067D01*
X125312263Y-84595733D01*
X125312256Y-84595739D01*
X125140739Y-84767256D01*
X125140733Y-84767263D01*
X124993067Y-84959706D01*
X124871777Y-85169785D01*
X124871773Y-85169794D01*
X124778947Y-85393895D01*
X124716161Y-85628214D01*
X124684500Y-85868711D01*
X124684500Y-86111288D01*
X124716161Y-86351785D01*
X124778947Y-86586104D01*
X124871773Y-86810205D01*
X124871776Y-86810212D01*
X124993064Y-87020289D01*
X124993066Y-87020292D01*
X124993067Y-87020293D01*
X125140733Y-87212736D01*
X125140739Y-87212743D01*
X125312256Y-87384260D01*
X125312262Y-87384265D01*
X125504711Y-87531936D01*
X125714788Y-87653224D01*
X125938900Y-87746054D01*
X126173211Y-87808838D01*
X126353586Y-87832584D01*
X126413711Y-87840500D01*
X126413712Y-87840500D01*
X126656289Y-87840500D01*
X126704388Y-87834167D01*
X126896789Y-87808838D01*
X127131100Y-87746054D01*
X127355212Y-87653224D01*
X127565289Y-87531936D01*
X127757738Y-87384265D01*
X127929265Y-87212738D01*
X128022124Y-87091720D01*
X128078551Y-87050518D01*
X128148297Y-87046363D01*
X128209218Y-87080575D01*
X128241971Y-87142292D01*
X128244500Y-87167207D01*
X128244500Y-110886611D01*
X128268535Y-111007444D01*
X128268540Y-111007461D01*
X128315685Y-111121280D01*
X128315690Y-111121289D01*
X128349914Y-111172507D01*
X128349915Y-111172509D01*
X128384140Y-111223731D01*
X128384141Y-111223732D01*
X128384142Y-111223733D01*
X128471267Y-111310858D01*
X128471268Y-111310858D01*
X128478335Y-111317925D01*
X128478334Y-111317925D01*
X128478338Y-111317928D01*
X128677346Y-111516936D01*
X128710831Y-111578259D01*
X128705847Y-111647951D01*
X128663975Y-111703884D01*
X128598511Y-111728301D01*
X128563885Y-111725907D01*
X128439647Y-111699500D01*
X128439646Y-111699500D01*
X128380452Y-111699500D01*
X128313413Y-111679815D01*
X128292771Y-111663181D01*
X126951745Y-110322155D01*
X126918260Y-110260832D01*
X126923244Y-110191140D01*
X126965116Y-110135207D01*
X126966420Y-110134244D01*
X127050871Y-110072888D01*
X127177533Y-109932216D01*
X127272179Y-109768284D01*
X127330674Y-109588256D01*
X127350460Y-109400000D01*
X127330674Y-109211744D01*
X127272179Y-109031716D01*
X127212113Y-108927677D01*
X127195500Y-108865677D01*
X127195500Y-101034321D01*
X127212113Y-100972321D01*
X127272179Y-100868284D01*
X127330674Y-100688256D01*
X127350460Y-100500000D01*
X127330674Y-100311744D01*
X127272179Y-100131716D01*
X127177533Y-99967784D01*
X127050871Y-99827112D01*
X127050870Y-99827111D01*
X126897734Y-99715851D01*
X126897729Y-99715848D01*
X126724807Y-99638857D01*
X126724802Y-99638855D01*
X126579001Y-99607865D01*
X126539646Y-99599500D01*
X126350354Y-99599500D01*
X126317897Y-99606398D01*
X126165197Y-99638855D01*
X126165192Y-99638857D01*
X125992270Y-99715848D01*
X125992265Y-99715851D01*
X125839129Y-99827111D01*
X125712466Y-99967785D01*
X125617821Y-100131715D01*
X125617818Y-100131722D01*
X125559327Y-100311740D01*
X125559326Y-100311744D01*
X125539540Y-100500000D01*
X125559326Y-100688256D01*
X125559327Y-100688259D01*
X125617818Y-100868277D01*
X125617821Y-100868284D01*
X125677887Y-100972321D01*
X125694500Y-101034321D01*
X125694500Y-108765548D01*
X125674815Y-108832587D01*
X125622011Y-108878342D01*
X125552853Y-108888286D01*
X125489297Y-108859261D01*
X125482819Y-108853229D01*
X122806819Y-106177229D01*
X122773334Y-106115906D01*
X122770500Y-106089548D01*
X122770500Y-81898687D01*
X122790185Y-81831648D01*
X122802350Y-81815715D01*
X122820891Y-81795122D01*
X122877533Y-81732216D01*
X122972179Y-81568284D01*
X123030674Y-81388256D01*
X123050460Y-81200000D01*
X123030674Y-81011744D01*
X122972179Y-80831716D01*
X122877533Y-80667784D01*
X122750871Y-80527112D01*
X122713552Y-80499998D01*
X122597734Y-80415851D01*
X122597729Y-80415848D01*
X122424807Y-80338857D01*
X122424802Y-80338855D01*
X122279001Y-80307865D01*
X122239646Y-80299500D01*
X122050354Y-80299500D01*
X122017897Y-80306398D01*
X121865197Y-80338855D01*
X121865192Y-80338857D01*
X121692270Y-80415848D01*
X121692265Y-80415851D01*
X121539129Y-80527111D01*
X121412466Y-80667785D01*
X121317821Y-80831715D01*
X121317818Y-80831722D01*
X121259327Y-81011740D01*
X121259326Y-81011744D01*
X121239540Y-81200000D01*
X119695500Y-81200000D01*
X119695500Y-79776298D01*
X119715185Y-79709259D01*
X119746619Y-79675977D01*
X119750871Y-79672888D01*
X119877533Y-79532216D01*
X119972179Y-79368284D01*
X120030674Y-79188256D01*
X120036080Y-79136811D01*
X120062664Y-79072199D01*
X120119962Y-79032214D01*
X120189781Y-79029554D01*
X120209835Y-79036495D01*
X120265197Y-79061144D01*
X120450354Y-79100500D01*
X120450355Y-79100500D01*
X120639644Y-79100500D01*
X120639646Y-79100500D01*
X120824803Y-79061144D01*
X120997730Y-78984151D01*
X121150871Y-78872888D01*
X121277533Y-78732216D01*
X121372179Y-78568284D01*
X121430674Y-78388256D01*
X121450460Y-78200000D01*
X121430674Y-78011744D01*
X121372179Y-77831716D01*
X121277533Y-77667784D01*
X121150871Y-77527112D01*
X121150870Y-77527111D01*
X120997734Y-77415851D01*
X120997729Y-77415848D01*
X120824807Y-77338857D01*
X120824802Y-77338855D01*
X120675166Y-77307050D01*
X120639646Y-77299500D01*
X120639645Y-77299500D01*
X120580452Y-77299500D01*
X120513413Y-77279815D01*
X120492771Y-77263181D01*
X118990198Y-75760608D01*
X118990178Y-75760586D01*
X118898733Y-75669141D01*
X118847509Y-75634915D01*
X118796287Y-75600689D01*
X118796286Y-75600688D01*
X118796283Y-75600686D01*
X118796280Y-75600685D01*
X118715792Y-75567347D01*
X118682454Y-75553538D01*
X118682455Y-75553538D01*
X118682452Y-75553537D01*
X118682448Y-75553536D01*
X118682444Y-75553535D01*
X118588835Y-75534915D01*
X118588832Y-75534915D01*
X118561609Y-75529500D01*
X118561607Y-75529500D01*
X118561606Y-75529500D01*
X118265824Y-75529500D01*
X118198785Y-75509815D01*
X118153030Y-75457011D01*
X118145605Y-75435889D01*
X118145347Y-75434868D01*
X118144220Y-75432011D01*
X118092292Y-75300329D01*
X118092291Y-75300328D01*
X118092291Y-75300327D01*
X118004906Y-75185093D01*
X117889672Y-75097708D01*
X117833435Y-75075531D01*
X117755133Y-75044653D01*
X117755130Y-75044652D01*
X117755124Y-75044650D01*
X117752782Y-75044058D01*
X117751090Y-75043059D01*
X117747737Y-75041737D01*
X117747947Y-75041204D01*
X117692613Y-75008541D01*
X117661197Y-74946133D01*
X117668509Y-74876647D01*
X117669904Y-74873391D01*
X117672174Y-74868292D01*
X117672179Y-74868284D01*
X117730674Y-74688256D01*
X117750460Y-74500000D01*
X117730674Y-74311744D01*
X117672179Y-74131716D01*
X117577533Y-73967784D01*
X117450871Y-73827112D01*
X117450870Y-73827111D01*
X117369359Y-73767890D01*
X117326693Y-73712560D01*
X117320714Y-73642947D01*
X117336706Y-73602473D01*
X117341857Y-73594121D01*
X117341858Y-73594119D01*
X117397005Y-73427697D01*
X117397006Y-73427690D01*
X117407499Y-73324986D01*
X117407500Y-73324973D01*
X117407500Y-73050000D01*
X116194000Y-73050000D01*
X116126961Y-73030315D01*
X116081206Y-72977511D01*
X116070000Y-72926000D01*
X116070000Y-72674000D01*
X116089685Y-72606961D01*
X116142489Y-72561206D01*
X116194000Y-72550000D01*
X117407499Y-72550000D01*
X117407499Y-72275028D01*
X117407498Y-72275013D01*
X117397005Y-72172302D01*
X117344385Y-72013504D01*
X117341983Y-71943676D01*
X117377715Y-71883634D01*
X117440235Y-71852441D01*
X117462091Y-71850500D01*
X128305663Y-71850500D01*
X128372702Y-71870185D01*
X128378548Y-71874182D01*
X128392265Y-71884148D01*
X128392270Y-71884151D01*
X128565192Y-71961142D01*
X128565197Y-71961144D01*
X128750354Y-72000500D01*
X128750355Y-72000500D01*
X128939644Y-72000500D01*
X128939646Y-72000500D01*
X129124803Y-71961144D01*
X129297730Y-71884151D01*
X129450871Y-71772888D01*
X129577533Y-71632216D01*
X129672179Y-71468284D01*
X129730674Y-71288256D01*
X129750460Y-71100000D01*
X129730674Y-70911744D01*
X129672179Y-70731716D01*
X129577533Y-70567784D01*
X129450871Y-70427112D01*
X129383745Y-70378342D01*
X129297734Y-70315851D01*
X129297729Y-70315848D01*
X129124807Y-70238857D01*
X129124802Y-70238855D01*
X128979001Y-70207865D01*
X128939646Y-70199500D01*
X128750354Y-70199500D01*
X128717897Y-70206398D01*
X128565197Y-70238855D01*
X128565192Y-70238857D01*
X128392270Y-70315848D01*
X128392265Y-70315851D01*
X128378548Y-70325818D01*
X128312742Y-70349298D01*
X128305663Y-70349500D01*
X115871080Y-70349500D01*
X115726092Y-70378340D01*
X115726086Y-70378342D01*
X115589508Y-70434914D01*
X115589496Y-70434921D01*
X115540270Y-70467811D01*
X115540271Y-70467812D01*
X115466581Y-70517049D01*
X114445449Y-71538181D01*
X114384126Y-71571666D01*
X114357768Y-71574500D01*
X113857498Y-71574500D01*
X113857480Y-71574501D01*
X113754703Y-71585000D01*
X113754700Y-71585001D01*
X113588168Y-71640185D01*
X113588163Y-71640187D01*
X113438842Y-71732289D01*
X113314789Y-71856342D01*
X113222687Y-72005663D01*
X113222685Y-72005668D01*
X113194849Y-72089670D01*
X113167501Y-72172203D01*
X113167501Y-72172204D01*
X113167500Y-72172204D01*
X113157000Y-72274983D01*
X113157000Y-73325001D01*
X113157001Y-73325019D01*
X113167500Y-73427796D01*
X113167501Y-73427799D01*
X113222615Y-73594119D01*
X113222686Y-73594334D01*
X113312749Y-73740351D01*
X113314789Y-73743657D01*
X113438845Y-73867713D01*
X113444513Y-73872195D01*
X113443070Y-73874019D01*
X113482320Y-73917654D01*
X113494500Y-73971248D01*
X113494500Y-79784362D01*
X113474815Y-79851401D01*
X113435598Y-79889899D01*
X113410600Y-79905319D01*
X113326342Y-79957289D01*
X113202289Y-80081342D01*
X113110187Y-80230663D01*
X113110185Y-80230668D01*
X113088316Y-80296666D01*
X113055001Y-80397203D01*
X113055001Y-80397204D01*
X113055000Y-80397204D01*
X113044500Y-80499983D01*
X113044500Y-81500001D01*
X112270000Y-81500001D01*
X112270000Y-70069000D01*
X112289685Y-70001961D01*
X112342489Y-69956206D01*
X112394000Y-69945000D01*
X182586000Y-69945000D01*
X182653039Y-69964685D01*
G37*
%TD.AperFunction*%
%TD*%
M02*
