M48
; DRILL file {KiCad 8.0.1} date 2024-04-03T12:02:40-0600
; FORMAT={-:-/ absolute / inch / decimal}
; #@! TF.CreationDate,2024-04-03T12:02:40-06:00
; #@! TF.GenerationSoftware,Kicad,Pcbnew,8.0.1
; #@! TF.FileFunction,MixedPlating,1,2
FMAT,2
INCH
; #@! TA.AperFunction,Plated,PTH,ViaDrill
T1C0.0157
; #@! TA.AperFunction,Plated,PTH,ViaDrill
T2C0.0236
; #@! TA.AperFunction,Plated,PTH,ComponentDrill
T3C0.0394
; #@! TA.AperFunction,NonPlated,NPTH,ComponentDrill
T4C0.1260
%
G90
G05
T1
X3.9939Y-4.2756
X4.0372Y-4.1299
X4.0884Y-3.8504
X4.1081Y-3.9449
X4.1553Y-3.7756
X4.1947Y-4.0236
X4.2026Y-4.0827
X4.2026Y-4.315
X4.2695Y-4.4961
X4.3285Y-4.6181
X4.3561Y-3.4016
X4.3837Y-3.0512
X4.3955Y-3.2008
X4.4309Y-3.0866
X4.4309Y-3.4173
X4.486Y-4.5591
X4.4939Y-3.1496
X4.5333Y-4.2244
X4.5844Y-3.8858
X4.6159Y-3.5433
X4.6514Y-4.7717
X4.6514Y-5.0866
X4.7656Y-3.9449
X4.7734Y-4.3583
X4.801Y-4.7008
X4.801Y-5.1614
X4.8049Y-3.4567
X4.8837Y-3.4567
X4.8837Y-4.0236
X4.9388Y-3.2559
X4.9663Y-3.6181
X4.9939Y-5.2402
X5.0333Y-5.1929
X5.0687Y-3.0118
X5.0687Y-3.4252
X5.0687Y-3.5472
X5.0687Y-3.6969
X5.0687Y-4.1693
X5.0687Y-4.8976
X5.0687Y-5.0039
X5.0687Y-5.0866
X5.1002Y-5.4449
X5.1356Y-3.563
X5.1474Y-2.5354
X5.2144Y-3.5433
X5.2222Y-4.0827
X5.2222Y-4.6378
X5.2262Y-2.9409
X5.2301Y-3.937
X5.3364Y-2.8661
X5.3364Y-3.0118
X5.3364Y-3.8661
X5.3364Y-4.0118
X5.3797Y-4.437
X5.4388Y-3.937
X5.4467Y-2.9409
X5.4703Y-5.4646
X5.4742Y-4.374
X5.4781Y-4.4961
X5.612Y-3.5906
X5.612Y-4.5394
X5.6868Y-5.0118
X5.6947Y-4.0433
X5.7419Y-4.1417
X5.7419Y-5.248
X5.8049Y-4.3386
X5.8049Y-5.0906
X5.8719Y-4.5394
X5.8719Y-5.1693
X5.9152Y-2.5354
X5.9191Y-3.1417
X5.9191Y-4.6417
X5.923Y-4.9252
X5.9309Y-3.9409
X5.9467Y-4.2441
X5.9506Y-5.0118
X6.0372Y-2.8465
X6.0372Y-3.8661
X6.0411Y-3.0276
X6.0608Y-4.4409
X6.1356Y-2.9409
X6.1396Y-3.937
X6.1789Y-4.3661
X6.2892Y-4.4409
X6.4837Y-3.6394
X6.5096Y-4.0945
X6.7498Y-3.7205
X6.7498Y-3.8543
X6.7498Y-3.9528
X6.8049Y-4.3701
X7.0648Y-4.5827
X7.0687Y-4.2205
X7.3049Y-4.3661
T2
X6.9703Y-2.8898
X7.1868Y-3.2047
T3
X6.8719Y-2.9882
X6.8719Y-3.0882
X6.9719Y-2.9882
X6.9719Y-3.0882
X7.0719Y-2.9882
X7.0719Y-3.0882
T4
X4.976Y-4.3744
X4.981Y-2.7306
X6.626Y-2.7244
X6.626Y-4.3694
M30
