%TF.GenerationSoftware,KiCad,Pcbnew,8.0.1*%
%TF.CreationDate,2024-03-27T22:20:37-06:00*%
%TF.ProjectId,weather-station-receiver,77656174-6865-4722-9d73-746174696f6e,rev?*%
%TF.SameCoordinates,Original*%
%TF.FileFunction,Paste,Top*%
%TF.FilePolarity,Positive*%
%FSLAX46Y46*%
G04 Gerber Fmt 4.6, Leading zero omitted, Abs format (unit mm)*
G04 Created by KiCad (PCBNEW 8.0.1) date 2024-03-27 22:20:37*
%MOMM*%
%LPD*%
G01*
G04 APERTURE LIST*
G04 Aperture macros list*
%AMRoundRect*
0 Rectangle with rounded corners*
0 $1 Rounding radius*
0 $2 $3 $4 $5 $6 $7 $8 $9 X,Y pos of 4 corners*
0 Add a 4 corners polygon primitive as box body*
4,1,4,$2,$3,$4,$5,$6,$7,$8,$9,$2,$3,0*
0 Add four circle primitives for the rounded corners*
1,1,$1+$1,$2,$3*
1,1,$1+$1,$4,$5*
1,1,$1+$1,$6,$7*
1,1,$1+$1,$8,$9*
0 Add four rect primitives between the rounded corners*
20,1,$1+$1,$2,$3,$4,$5,0*
20,1,$1+$1,$4,$5,$6,$7,0*
20,1,$1+$1,$6,$7,$8,$9,0*
20,1,$1+$1,$8,$9,$2,$3,0*%
G04 Aperture macros list end*
%ADD10RoundRect,0.250000X0.450000X-0.350000X0.450000X0.350000X-0.450000X0.350000X-0.450000X-0.350000X0*%
%ADD11RoundRect,0.250000X-0.450000X0.350000X-0.450000X-0.350000X0.450000X-0.350000X0.450000X0.350000X0*%
%ADD12RoundRect,0.250000X0.475000X-0.337500X0.475000X0.337500X-0.475000X0.337500X-0.475000X-0.337500X0*%
%ADD13RoundRect,0.250000X-0.475000X0.337500X-0.475000X-0.337500X0.475000X-0.337500X0.475000X0.337500X0*%
%ADD14R,3.000000X1.200000*%
%ADD15RoundRect,0.025600X-0.594400X-0.134400X0.594400X-0.134400X0.594400X0.134400X-0.594400X0.134400X0*%
%ADD16RoundRect,0.027000X0.218000X0.198000X-0.218000X0.198000X-0.218000X-0.198000X0.218000X-0.198000X0*%
%ADD17R,1.050000X1.000000*%
%ADD18R,2.200000X1.050000*%
G04 APERTURE END LIST*
D10*
%TO.C,R3*%
X157429200Y-94437200D03*
X157429200Y-92437200D03*
%TD*%
%TO.C,R2*%
X155549600Y-88360000D03*
X155549600Y-86360000D03*
%TD*%
D11*
%TO.C,R1*%
X155549600Y-82226400D03*
X155549600Y-84226400D03*
%TD*%
D12*
%TO.C,C3*%
X164490400Y-77694700D03*
X164490400Y-75619700D03*
%TD*%
D13*
%TO.C,C2*%
X164642800Y-82049800D03*
X164642800Y-84124800D03*
%TD*%
D12*
%TO.C,C1*%
X164490400Y-73478300D03*
X164490400Y-71403300D03*
%TD*%
D14*
%TO.C,U1*%
X152491000Y-100543600D03*
X152491000Y-102543600D03*
X152491000Y-104543600D03*
X152491000Y-106543600D03*
X152491000Y-108543600D03*
X152491000Y-110543600D03*
X152491000Y-112543600D03*
X152491000Y-114543600D03*
X167491000Y-114543600D03*
X167491000Y-112543600D03*
X167491000Y-110543600D03*
X167491000Y-108543600D03*
X167491000Y-106543600D03*
X167491000Y-104543600D03*
X167491000Y-102543600D03*
X167491000Y-100543600D03*
%TD*%
D15*
%TO.C,U3*%
X159647600Y-80934800D03*
X159647600Y-81584800D03*
X159647600Y-82234800D03*
X161137600Y-82234800D03*
X161137600Y-81584800D03*
X161137600Y-80934800D03*
%TD*%
D16*
%TO.C,U4*%
X159035900Y-75295400D03*
X159035900Y-74645400D03*
X159035900Y-73995400D03*
X159035900Y-73345400D03*
X160975900Y-73345400D03*
X160975900Y-73995400D03*
X160975900Y-74645400D03*
X160975900Y-75295400D03*
%TD*%
D17*
%TO.C,J1*%
X161584800Y-118465600D03*
D18*
X160059800Y-119940600D03*
X160059800Y-116990600D03*
%TD*%
M02*
