%TF.GenerationSoftware,KiCad,Pcbnew,8.0.1*%
%TF.CreationDate,2024-03-27T22:20:37-06:00*%
%TF.ProjectId,weather-station-receiver,77656174-6865-4722-9d73-746174696f6e,rev?*%
%TF.SameCoordinates,Original*%
%TF.FileFunction,Legend,Bot*%
%TF.FilePolarity,Positive*%
%FSLAX46Y46*%
G04 Gerber Fmt 4.6, Leading zero omitted, Abs format (unit mm)*
G04 Created by KiCad (PCBNEW 8.0.1) date 2024-03-27 22:20:37*
%MOMM*%
%LPD*%
G01*
G04 APERTURE LIST*
%ADD10C,0.150000*%
%ADD11C,0.200000*%
G04 APERTURE END LIST*
D10*
X170283804Y-68644419D02*
X170283804Y-69453942D01*
X170283804Y-69453942D02*
X170236185Y-69549180D01*
X170236185Y-69549180D02*
X170188566Y-69596800D01*
X170188566Y-69596800D02*
X170093328Y-69644419D01*
X170093328Y-69644419D02*
X169902852Y-69644419D01*
X169902852Y-69644419D02*
X169807614Y-69596800D01*
X169807614Y-69596800D02*
X169759995Y-69549180D01*
X169759995Y-69549180D02*
X169712376Y-69453942D01*
X169712376Y-69453942D02*
X169712376Y-68644419D01*
X169283804Y-68739657D02*
X169236185Y-68692038D01*
X169236185Y-68692038D02*
X169140947Y-68644419D01*
X169140947Y-68644419D02*
X168902852Y-68644419D01*
X168902852Y-68644419D02*
X168807614Y-68692038D01*
X168807614Y-68692038D02*
X168759995Y-68739657D01*
X168759995Y-68739657D02*
X168712376Y-68834895D01*
X168712376Y-68834895D02*
X168712376Y-68930133D01*
X168712376Y-68930133D02*
X168759995Y-69072990D01*
X168759995Y-69072990D02*
X169331423Y-69644419D01*
X169331423Y-69644419D02*
X168712376Y-69644419D01*
D11*
%TO.C,U2*%
X149709900Y-73409600D02*
X149709900Y-70459600D01*
X152249900Y-70459600D02*
X149709900Y-70459600D01*
X152249900Y-118309600D02*
X152249900Y-121259600D01*
X152249900Y-121259600D02*
X149709900Y-121259600D01*
X167489900Y-73409600D02*
X167489900Y-70459600D01*
X170029900Y-70459600D02*
X167489900Y-70459600D01*
X170029900Y-118309600D02*
X170029900Y-121259600D01*
X170029900Y-121259600D02*
X167489900Y-121259600D01*
X172174900Y-71219600D02*
G75*
G02*
X171974900Y-71219600I-100000J0D01*
G01*
X171974900Y-71219600D02*
G75*
G02*
X172174900Y-71219600I100000J0D01*
G01*
%TD*%
M02*
