%TF.GenerationSoftware,KiCad,Pcbnew,8.0.1*%
%TF.CreationDate,2024-03-27T22:20:37-06:00*%
%TF.ProjectId,weather-station-receiver,77656174-6865-4722-9d73-746174696f6e,rev?*%
%TF.SameCoordinates,Original*%
%TF.FileFunction,Soldermask,Bot*%
%TF.FilePolarity,Negative*%
%FSLAX46Y46*%
G04 Gerber Fmt 4.6, Leading zero omitted, Abs format (unit mm)*
G04 Created by KiCad (PCBNEW 8.0.1) date 2024-03-27 22:20:37*
%MOMM*%
%LPD*%
G01*
G04 APERTURE LIST*
G04 Aperture macros list*
%AMRoundRect*
0 Rectangle with rounded corners*
0 $1 Rounding radius*
0 $2 $3 $4 $5 $6 $7 $8 $9 X,Y pos of 4 corners*
0 Add a 4 corners polygon primitive as box body*
4,1,4,$2,$3,$4,$5,$6,$7,$8,$9,$2,$3,0*
0 Add four circle primitives for the rounded corners*
1,1,$1+$1,$2,$3*
1,1,$1+$1,$4,$5*
1,1,$1+$1,$6,$7*
1,1,$1+$1,$8,$9*
0 Add four rect primitives between the rounded corners*
20,1,$1+$1,$2,$3,$4,$5,0*
20,1,$1+$1,$4,$5,$6,$7,0*
20,1,$1+$1,$6,$7,$8,$9,0*
20,1,$1+$1,$8,$9,$2,$3,0*%
G04 Aperture macros list end*
%ADD10C,1.020000*%
%ADD11RoundRect,0.102000X0.952500X-0.510000X0.952500X0.510000X-0.952500X0.510000X-0.952500X-0.510000X0*%
G04 APERTURE END LIST*
D10*
%TO.C,U2*%
X168759900Y-117449600D03*
X168759900Y-74269600D03*
X150979900Y-117449600D03*
X150979900Y-74269600D03*
D11*
X152582400Y-71729600D03*
X149377400Y-74269600D03*
X152582400Y-76809600D03*
X149377400Y-79349600D03*
X152582400Y-81889600D03*
X149377400Y-84429600D03*
X152582400Y-86969600D03*
X149377400Y-89509600D03*
X152582400Y-92049600D03*
X149377400Y-94589600D03*
X152582400Y-97129600D03*
X149377400Y-99669600D03*
X152582400Y-102209600D03*
X149377400Y-104749600D03*
X152582400Y-107289600D03*
X149377400Y-109829600D03*
X152582400Y-112369600D03*
X149377400Y-114909600D03*
X152582400Y-117449600D03*
X149377400Y-119989600D03*
X167157400Y-119989600D03*
X170362400Y-117449600D03*
X167157400Y-114909600D03*
X170362400Y-112369600D03*
X167157400Y-109829600D03*
X170362400Y-107289600D03*
X167157400Y-104749600D03*
X170362400Y-102209600D03*
X167157400Y-99669600D03*
X170362400Y-97129600D03*
X167157400Y-94589600D03*
X170362400Y-92049600D03*
X167157400Y-89509600D03*
X170362400Y-86969600D03*
X167157400Y-84429600D03*
X170362400Y-81889600D03*
X167157400Y-79349600D03*
X170362400Y-76809600D03*
X167157400Y-74269600D03*
X170362400Y-71729600D03*
%TD*%
M02*
