%TF.GenerationSoftware,KiCad,Pcbnew,8.0.1*%
%TF.CreationDate,2024-03-27T22:20:37-06:00*%
%TF.ProjectId,weather-station-receiver,77656174-6865-4722-9d73-746174696f6e,rev?*%
%TF.SameCoordinates,Original*%
%TF.FileFunction,Copper,L2,Bot*%
%TF.FilePolarity,Positive*%
%FSLAX46Y46*%
G04 Gerber Fmt 4.6, Leading zero omitted, Abs format (unit mm)*
G04 Created by KiCad (PCBNEW 8.0.1) date 2024-03-27 22:20:37*
%MOMM*%
%LPD*%
G01*
G04 APERTURE LIST*
%TA.AperFunction,SMDPad,CuDef*%
%ADD10R,1.905000X1.020000*%
%TD*%
%TA.AperFunction,ViaPad*%
%ADD11C,0.600000*%
%TD*%
%TA.AperFunction,Conductor*%
%ADD12C,0.300000*%
%TD*%
%TA.AperFunction,Conductor*%
%ADD13C,0.600000*%
%TD*%
%TA.AperFunction,Conductor*%
%ADD14C,0.200000*%
%TD*%
G04 APERTURE END LIST*
D10*
%TO.P,U2,1,GP0*%
%TO.N,unconnected-(U2-GP0-Pad1)*%
X152582400Y-71729600D03*
%TO.P,U2,2,GP1*%
%TO.N,unconnected-(U2-GP1-Pad2)*%
X149377400Y-74269600D03*
%TO.P,U2,3,GND*%
%TO.N,GND*%
X152582400Y-76809600D03*
%TO.P,U2,4,GP2*%
%TO.N,unconnected-(U2-GP2-Pad4)*%
X149377400Y-79349600D03*
%TO.P,U2,5,GP3*%
%TO.N,unconnected-(U2-GP3-Pad5)*%
X152582400Y-81889600D03*
%TO.P,U2,6,GP4*%
%TO.N,/I2C0_SDA*%
X149377400Y-84429600D03*
%TO.P,U2,7,GP5*%
%TO.N,/I2C0_SCL*%
X152582400Y-86969600D03*
%TO.P,U2,8,GND__1*%
%TO.N,GND*%
X149377400Y-89509600D03*
%TO.P,U2,9,GP6*%
%TO.N,/APDS_INTR*%
X152582400Y-92049600D03*
%TO.P,U2,10,GP7*%
%TO.N,unconnected-(U2-GP7-Pad10)*%
X149377400Y-94589600D03*
%TO.P,U2,11,GP8*%
%TO.N,unconnected-(U2-GP8-Pad11)*%
X152582400Y-97129600D03*
%TO.P,U2,12,GP9*%
%TO.N,unconnected-(U2-GP9-Pad12)*%
X149377400Y-99669600D03*
%TO.P,U2,13,GND__2*%
%TO.N,GND*%
X152582400Y-102209600D03*
%TO.P,U2,14,GP10*%
%TO.N,unconnected-(U2-GP10-Pad14)*%
X149377400Y-104749600D03*
%TO.P,U2,15,GP11*%
%TO.N,unconnected-(U2-GP11-Pad15)*%
X152582400Y-107289600D03*
%TO.P,U2,16,GP12*%
%TO.N,unconnected-(U2-GP12-Pad16)*%
X149377400Y-109829600D03*
%TO.P,U2,17,GP13*%
%TO.N,unconnected-(U2-GP13-Pad17)*%
X152582400Y-112369600D03*
%TO.P,U2,18,GND__3*%
%TO.N,GND*%
X149377400Y-114909600D03*
%TO.P,U2,19,GP14*%
%TO.N,unconnected-(U2-GP14-Pad19)*%
X152582400Y-117449600D03*
%TO.P,U2,20,GP15*%
%TO.N,unconnected-(U2-GP15-Pad20)*%
X149377400Y-119989600D03*
%TO.P,U2,21,GP16*%
%TO.N,/SPI0_MISO*%
X167157400Y-119989600D03*
%TO.P,U2,22,GP17*%
%TO.N,/RFM69_CS*%
X170362400Y-117449600D03*
%TO.P,U2,23,GND__4*%
%TO.N,GND*%
X167157400Y-114909600D03*
%TO.P,U2,24,GP18*%
%TO.N,/SPI0_CLK*%
X170362400Y-112369600D03*
%TO.P,U2,25,GP19*%
%TO.N,/SPI0_MOSI*%
X167157400Y-109829600D03*
%TO.P,U2,26,GP20*%
%TO.N,/RFM69_RESET*%
X170362400Y-107289600D03*
%TO.P,U2,27,GP21*%
%TO.N,/RFM69_INTR*%
X167157400Y-104749600D03*
%TO.P,U2,28,GND__5*%
%TO.N,GND*%
X170362400Y-102209600D03*
%TO.P,U2,29,GP22*%
%TO.N,unconnected-(U2-GP22-Pad29)*%
X167157400Y-99669600D03*
%TO.P,U2,30,~{RUN}*%
%TO.N,unconnected-(U2-~{RUN}-Pad30)*%
X170362400Y-97129600D03*
%TO.P,U2,31,GP26*%
%TO.N,unconnected-(U2-GP26-Pad31)*%
X167157400Y-94589600D03*
%TO.P,U2,32,GP27*%
%TO.N,unconnected-(U2-GP27-Pad32)*%
X170362400Y-92049600D03*
%TO.P,U2,33,AGND*%
%TO.N,GND*%
X167157400Y-89509600D03*
%TO.P,U2,34,GP28*%
%TO.N,unconnected-(U2-GP28-Pad34)*%
X170362400Y-86969600D03*
%TO.P,U2,35,ADC_VREF*%
%TO.N,unconnected-(U2-ADC_VREF-Pad35)*%
X167157400Y-84429600D03*
%TO.P,U2,36,3V3_OUT*%
%TO.N,+3.3V*%
X170362400Y-81889600D03*
%TO.P,U2,37,3V3_EN*%
%TO.N,unconnected-(U2-3V3_EN-Pad37)*%
X167157400Y-79349600D03*
%TO.P,U2,38,GND__6*%
%TO.N,GND*%
X170362400Y-76809600D03*
%TO.P,U2,39,VSYS*%
%TO.N,unconnected-(U2-VSYS-Pad39)*%
X167157400Y-74269600D03*
%TO.P,U2,40,VBUS*%
%TO.N,unconnected-(U2-VBUS-Pad40)*%
X170362400Y-71729600D03*
%TD*%
D11*
%TO.N,/APDS_INTR*%
X157022800Y-90576400D03*
%TO.N,/I2C0_SDA*%
X157022800Y-77368400D03*
%TO.N,/I2C0_SCL*%
X158140400Y-80834800D03*
X158140400Y-82600800D03*
X154025600Y-86461600D03*
%TO.N,/I2C0_SDA*%
X153568400Y-84429600D03*
%TO.N,+3.3V*%
X167640000Y-81889600D03*
%TO.N,/SPI0_MOSI*%
X164947600Y-109880400D03*
%TO.N,/RFM69_RESET*%
X159512000Y-110540800D03*
%TO.N,/RFM69_CS*%
X165303200Y-113639600D03*
%TO.N,/SPI0_MISO*%
X155651200Y-102819200D03*
%TO.N,/SPI0_CLK*%
X165490998Y-112318800D03*
%TD*%
D12*
%TO.N,/APDS_INTR*%
X152582400Y-92049600D02*
X155549600Y-92049600D01*
X155549600Y-92049600D02*
X157022800Y-90576400D01*
%TO.N,/I2C0_SDA*%
X154178000Y-80213200D02*
X157022800Y-77368400D01*
X150876000Y-80213200D02*
X152755600Y-80213200D01*
X150164800Y-80924400D02*
X150876000Y-80213200D01*
X152755600Y-80213200D02*
X154178000Y-80213200D01*
X149377400Y-81711800D02*
X150164800Y-80924400D01*
X149377400Y-84429600D02*
X149377400Y-81711800D01*
%TO.N,/I2C0_SCL*%
X158140400Y-82600800D02*
X158140400Y-80834800D01*
X153517600Y-86969600D02*
X154025600Y-86461600D01*
X152582400Y-86969600D02*
X153517600Y-86969600D01*
%TO.N,/I2C0_SDA*%
X149377400Y-84429600D02*
X153568400Y-84429600D01*
D13*
%TO.N,+3.3V*%
X170362400Y-81889600D02*
X167640000Y-81889600D01*
D14*
%TO.N,/SPI0_MOSI*%
X165354000Y-109829600D02*
X167157400Y-109829600D01*
X164947600Y-109880400D02*
X165303200Y-109880400D01*
X165303200Y-109880400D02*
X165354000Y-109829600D01*
%TO.N,/RFM69_RESET*%
X162763200Y-107289600D02*
X170362400Y-107289600D01*
X159512000Y-110540800D02*
X162763200Y-107289600D01*
%TO.N,/RFM69_CS*%
X169824400Y-113639600D02*
X170362400Y-114177600D01*
X165303200Y-113639600D02*
X169824400Y-113639600D01*
X170362400Y-114177600D02*
X170362400Y-117449600D01*
%TO.N,/SPI0_MISO*%
X155651200Y-108483400D02*
X155651200Y-102819200D01*
X167157400Y-119989600D02*
X155651200Y-108483400D01*
%TO.N,/SPI0_CLK*%
X165490998Y-112318800D02*
X166522400Y-112318800D01*
X166573200Y-112369600D02*
X170362400Y-112369600D01*
X166522400Y-112318800D02*
X166573200Y-112369600D01*
%TD*%
%TA.AperFunction,Conductor*%
%TO.N,GND*%
G36*
X171705339Y-70471785D02*
G01*
X171751094Y-70524589D01*
X171762300Y-70576100D01*
X171762300Y-70681596D01*
X171742615Y-70748635D01*
X171689811Y-70794390D01*
X171620653Y-70804334D01*
X171563989Y-70780863D01*
X171557231Y-70775804D01*
X171557228Y-70775802D01*
X171422382Y-70725508D01*
X171422383Y-70725508D01*
X171362783Y-70719101D01*
X171362781Y-70719100D01*
X171362773Y-70719100D01*
X171362764Y-70719100D01*
X169362029Y-70719100D01*
X169362023Y-70719101D01*
X169302416Y-70725508D01*
X169167571Y-70775802D01*
X169167564Y-70775806D01*
X169052355Y-70862052D01*
X169052352Y-70862055D01*
X168966106Y-70977264D01*
X168966102Y-70977271D01*
X168915808Y-71112117D01*
X168909401Y-71171716D01*
X168909401Y-71171723D01*
X168909400Y-71171735D01*
X168909400Y-72287470D01*
X168909401Y-72287476D01*
X168915808Y-72347083D01*
X168966102Y-72481928D01*
X168966106Y-72481935D01*
X169052352Y-72597144D01*
X169052355Y-72597147D01*
X169167564Y-72683393D01*
X169167571Y-72683397D01*
X169302417Y-72733691D01*
X169302416Y-72733691D01*
X169309344Y-72734435D01*
X169362027Y-72740100D01*
X171362772Y-72740099D01*
X171422383Y-72733691D01*
X171557231Y-72683396D01*
X171563987Y-72678338D01*
X171629448Y-72653919D01*
X171697722Y-72668768D01*
X171747129Y-72718171D01*
X171762300Y-72777603D01*
X171762300Y-75762220D01*
X171742615Y-75829259D01*
X171689811Y-75875014D01*
X171620653Y-75884958D01*
X171563990Y-75861488D01*
X171556988Y-75856246D01*
X171556986Y-75856245D01*
X171422279Y-75806003D01*
X171422272Y-75806001D01*
X171362744Y-75799600D01*
X170612400Y-75799600D01*
X170612400Y-77819600D01*
X171362728Y-77819600D01*
X171362744Y-77819599D01*
X171422272Y-77813198D01*
X171422279Y-77813196D01*
X171556986Y-77762954D01*
X171556990Y-77762951D01*
X171563986Y-77757715D01*
X171629449Y-77733295D01*
X171697723Y-77748144D01*
X171747130Y-77797548D01*
X171762300Y-77856979D01*
X171762300Y-80841596D01*
X171742615Y-80908635D01*
X171689811Y-80954390D01*
X171620653Y-80964334D01*
X171563989Y-80940863D01*
X171557231Y-80935804D01*
X171557228Y-80935802D01*
X171422382Y-80885508D01*
X171422383Y-80885508D01*
X171362783Y-80879101D01*
X171362781Y-80879100D01*
X171362773Y-80879100D01*
X171362764Y-80879100D01*
X169362029Y-80879100D01*
X169362023Y-80879101D01*
X169302416Y-80885508D01*
X169167571Y-80935802D01*
X169167564Y-80935806D01*
X169052357Y-81022051D01*
X169052353Y-81022054D01*
X169045119Y-81031718D01*
X169039360Y-81039411D01*
X168983428Y-81081281D01*
X168940094Y-81089100D01*
X167691915Y-81089100D01*
X167678031Y-81088320D01*
X167640002Y-81084035D01*
X167639998Y-81084035D01*
X167601969Y-81088320D01*
X167588085Y-81089100D01*
X167561152Y-81089100D01*
X167521994Y-81096888D01*
X167511696Y-81098490D01*
X167460742Y-81104232D01*
X167460735Y-81104234D01*
X167436898Y-81112575D01*
X167420140Y-81117150D01*
X167406502Y-81119863D01*
X167406496Y-81119864D01*
X167357631Y-81140104D01*
X167351140Y-81142582D01*
X167290477Y-81163810D01*
X167290474Y-81163812D01*
X167280127Y-81170313D01*
X167261639Y-81179866D01*
X167260832Y-81180200D01*
X167260824Y-81180204D01*
X167206047Y-81216804D01*
X167203132Y-81218692D01*
X167137742Y-81259780D01*
X167137735Y-81259786D01*
X167010186Y-81387335D01*
X167010180Y-81387342D01*
X166969092Y-81452732D01*
X166967204Y-81455647D01*
X166930604Y-81510424D01*
X166930600Y-81510432D01*
X166930266Y-81511239D01*
X166920713Y-81529727D01*
X166914212Y-81540074D01*
X166914210Y-81540077D01*
X166892982Y-81600740D01*
X166890504Y-81607231D01*
X166870264Y-81656096D01*
X166870263Y-81656102D01*
X166867550Y-81669740D01*
X166862975Y-81686498D01*
X166854634Y-81710335D01*
X166854632Y-81710342D01*
X166848890Y-81761296D01*
X166847288Y-81771594D01*
X166839500Y-81810752D01*
X166839500Y-81837685D01*
X166838720Y-81851569D01*
X166834435Y-81889598D01*
X166834435Y-81889601D01*
X166838720Y-81927629D01*
X166839500Y-81941514D01*
X166839500Y-81968444D01*
X166847288Y-82007603D01*
X166848890Y-82017903D01*
X166854632Y-82068852D01*
X166854633Y-82068860D01*
X166862976Y-82092704D01*
X166867550Y-82109460D01*
X166870262Y-82123096D01*
X166890509Y-82171977D01*
X166892988Y-82178472D01*
X166914212Y-82239124D01*
X166920709Y-82249465D01*
X166930268Y-82267965D01*
X166930603Y-82268773D01*
X166930605Y-82268779D01*
X166967223Y-82323582D01*
X166969114Y-82326500D01*
X167010180Y-82391857D01*
X167010182Y-82391860D01*
X167010184Y-82391862D01*
X167137738Y-82519416D01*
X167203131Y-82560505D01*
X167206040Y-82562390D01*
X167260821Y-82598994D01*
X167261606Y-82599319D01*
X167280134Y-82608889D01*
X167290478Y-82615389D01*
X167351175Y-82636628D01*
X167357607Y-82639084D01*
X167386021Y-82650853D01*
X167406497Y-82659335D01*
X167406498Y-82659335D01*
X167406503Y-82659337D01*
X167420139Y-82662049D01*
X167436898Y-82666623D01*
X167460745Y-82674968D01*
X167511714Y-82680710D01*
X167521992Y-82682309D01*
X167549140Y-82687709D01*
X167561157Y-82690100D01*
X167561158Y-82690100D01*
X167588085Y-82690100D01*
X167601969Y-82690880D01*
X167639998Y-82695165D01*
X167640000Y-82695165D01*
X167640002Y-82695165D01*
X167678031Y-82690880D01*
X167691915Y-82690100D01*
X168940094Y-82690100D01*
X169007133Y-82709785D01*
X169039359Y-82739787D01*
X169049234Y-82752979D01*
X169052352Y-82757144D01*
X169052354Y-82757146D01*
X169052357Y-82757148D01*
X169167564Y-82843393D01*
X169167571Y-82843397D01*
X169302417Y-82893691D01*
X169302416Y-82893691D01*
X169309344Y-82894435D01*
X169362027Y-82900100D01*
X171362772Y-82900099D01*
X171422383Y-82893691D01*
X171557231Y-82843396D01*
X171563987Y-82838338D01*
X171629448Y-82813919D01*
X171697722Y-82828768D01*
X171747129Y-82878171D01*
X171762300Y-82937603D01*
X171762300Y-85921596D01*
X171742615Y-85988635D01*
X171689811Y-86034390D01*
X171620653Y-86044334D01*
X171563989Y-86020863D01*
X171557231Y-86015804D01*
X171557228Y-86015802D01*
X171422382Y-85965508D01*
X171422383Y-85965508D01*
X171362783Y-85959101D01*
X171362781Y-85959100D01*
X171362773Y-85959100D01*
X171362764Y-85959100D01*
X169362029Y-85959100D01*
X169362023Y-85959101D01*
X169302416Y-85965508D01*
X169167571Y-86015802D01*
X169167564Y-86015806D01*
X169052355Y-86102052D01*
X169052352Y-86102055D01*
X168966106Y-86217264D01*
X168966102Y-86217271D01*
X168915808Y-86352117D01*
X168909401Y-86411716D01*
X168909400Y-86411735D01*
X168909400Y-87527470D01*
X168909401Y-87527476D01*
X168915808Y-87587083D01*
X168966102Y-87721928D01*
X168966106Y-87721935D01*
X169052352Y-87837144D01*
X169052355Y-87837147D01*
X169167564Y-87923393D01*
X169167571Y-87923397D01*
X169302417Y-87973691D01*
X169302416Y-87973691D01*
X169309344Y-87974435D01*
X169362027Y-87980100D01*
X171362772Y-87980099D01*
X171422383Y-87973691D01*
X171557231Y-87923396D01*
X171563987Y-87918338D01*
X171629448Y-87893919D01*
X171697722Y-87908768D01*
X171747129Y-87958171D01*
X171762300Y-88017603D01*
X171762300Y-91001596D01*
X171742615Y-91068635D01*
X171689811Y-91114390D01*
X171620653Y-91124334D01*
X171563989Y-91100863D01*
X171557231Y-91095804D01*
X171557228Y-91095802D01*
X171422382Y-91045508D01*
X171422383Y-91045508D01*
X171362783Y-91039101D01*
X171362781Y-91039100D01*
X171362773Y-91039100D01*
X171362764Y-91039100D01*
X169362029Y-91039100D01*
X169362023Y-91039101D01*
X169302416Y-91045508D01*
X169167571Y-91095802D01*
X169167564Y-91095806D01*
X169052355Y-91182052D01*
X169052352Y-91182055D01*
X168966106Y-91297264D01*
X168966102Y-91297271D01*
X168915808Y-91432117D01*
X168909401Y-91491716D01*
X168909400Y-91491735D01*
X168909400Y-92607470D01*
X168909401Y-92607474D01*
X168915808Y-92667083D01*
X168966102Y-92801928D01*
X168966106Y-92801935D01*
X169052352Y-92917144D01*
X169052355Y-92917147D01*
X169167564Y-93003393D01*
X169167571Y-93003397D01*
X169302417Y-93053691D01*
X169302416Y-93053691D01*
X169309344Y-93054435D01*
X169362027Y-93060100D01*
X171362772Y-93060099D01*
X171422383Y-93053691D01*
X171557231Y-93003396D01*
X171563987Y-92998338D01*
X171629448Y-92973919D01*
X171697722Y-92988768D01*
X171747129Y-93038171D01*
X171762300Y-93097603D01*
X171762300Y-96081596D01*
X171742615Y-96148635D01*
X171689811Y-96194390D01*
X171620653Y-96204334D01*
X171563989Y-96180863D01*
X171557231Y-96175804D01*
X171557228Y-96175802D01*
X171422382Y-96125508D01*
X171422383Y-96125508D01*
X171362783Y-96119101D01*
X171362781Y-96119100D01*
X171362773Y-96119100D01*
X171362764Y-96119100D01*
X169362029Y-96119100D01*
X169362023Y-96119101D01*
X169302416Y-96125508D01*
X169167571Y-96175802D01*
X169167564Y-96175806D01*
X169052355Y-96262052D01*
X169052352Y-96262055D01*
X168966106Y-96377264D01*
X168966102Y-96377271D01*
X168915808Y-96512117D01*
X168909401Y-96571716D01*
X168909401Y-96571723D01*
X168909400Y-96571735D01*
X168909400Y-97687470D01*
X168909401Y-97687476D01*
X168915808Y-97747083D01*
X168966102Y-97881928D01*
X168966106Y-97881935D01*
X169052352Y-97997144D01*
X169052355Y-97997147D01*
X169167564Y-98083393D01*
X169167571Y-98083397D01*
X169302417Y-98133691D01*
X169302416Y-98133691D01*
X169309344Y-98134435D01*
X169362027Y-98140100D01*
X171362772Y-98140099D01*
X171422383Y-98133691D01*
X171557231Y-98083396D01*
X171563987Y-98078338D01*
X171629448Y-98053919D01*
X171697722Y-98068768D01*
X171747129Y-98118171D01*
X171762300Y-98177603D01*
X171762300Y-101162220D01*
X171742615Y-101229259D01*
X171689811Y-101275014D01*
X171620653Y-101284958D01*
X171563990Y-101261488D01*
X171556988Y-101256246D01*
X171556986Y-101256245D01*
X171422279Y-101206003D01*
X171422272Y-101206001D01*
X171362744Y-101199600D01*
X170612400Y-101199600D01*
X170612400Y-103219600D01*
X171362728Y-103219600D01*
X171362744Y-103219599D01*
X171422272Y-103213198D01*
X171422279Y-103213196D01*
X171556986Y-103162954D01*
X171556990Y-103162951D01*
X171563986Y-103157715D01*
X171629449Y-103133295D01*
X171697723Y-103148144D01*
X171747130Y-103197548D01*
X171762300Y-103256979D01*
X171762300Y-106241596D01*
X171742615Y-106308635D01*
X171689811Y-106354390D01*
X171620653Y-106364334D01*
X171563989Y-106340863D01*
X171557231Y-106335804D01*
X171557228Y-106335802D01*
X171422382Y-106285508D01*
X171422383Y-106285508D01*
X171362783Y-106279101D01*
X171362781Y-106279100D01*
X171362773Y-106279100D01*
X171362764Y-106279100D01*
X169362029Y-106279100D01*
X169362023Y-106279101D01*
X169302416Y-106285508D01*
X169167571Y-106335802D01*
X169167564Y-106335806D01*
X169052355Y-106422052D01*
X169052352Y-106422055D01*
X168966106Y-106537264D01*
X168966102Y-106537271D01*
X168939561Y-106608433D01*
X168897690Y-106664367D01*
X168832225Y-106688784D01*
X168823379Y-106689100D01*
X162842257Y-106689100D01*
X162684143Y-106689100D01*
X162531415Y-106730023D01*
X162531414Y-106730023D01*
X162531412Y-106730024D01*
X162531409Y-106730025D01*
X162481296Y-106758959D01*
X162481295Y-106758960D01*
X162437889Y-106784020D01*
X162394485Y-106809079D01*
X162394482Y-106809081D01*
X162282678Y-106920886D01*
X159493465Y-109710098D01*
X159432142Y-109743583D01*
X159419668Y-109745637D01*
X159332750Y-109755430D01*
X159162478Y-109815010D01*
X159009737Y-109910984D01*
X158882184Y-110038537D01*
X158786211Y-110191276D01*
X158726631Y-110361545D01*
X158726630Y-110361549D01*
X158720216Y-110418483D01*
X158693149Y-110482897D01*
X158635555Y-110522452D01*
X158565718Y-110524589D01*
X158509315Y-110492280D01*
X156288019Y-108270984D01*
X156254534Y-108209661D01*
X156251700Y-108183303D01*
X156251700Y-105307470D01*
X165704400Y-105307470D01*
X165704401Y-105307476D01*
X165710808Y-105367083D01*
X165761102Y-105501928D01*
X165761106Y-105501935D01*
X165847352Y-105617144D01*
X165847355Y-105617147D01*
X165962564Y-105703393D01*
X165962571Y-105703397D01*
X166097417Y-105753691D01*
X166097416Y-105753691D01*
X166104344Y-105754435D01*
X166157027Y-105760100D01*
X168157772Y-105760099D01*
X168217383Y-105753691D01*
X168352231Y-105703396D01*
X168467446Y-105617146D01*
X168553696Y-105501931D01*
X168603991Y-105367083D01*
X168610400Y-105307473D01*
X168610399Y-104191728D01*
X168603991Y-104132117D01*
X168553696Y-103997269D01*
X168553695Y-103997268D01*
X168553693Y-103997264D01*
X168467447Y-103882055D01*
X168467444Y-103882052D01*
X168352235Y-103795806D01*
X168352228Y-103795802D01*
X168217382Y-103745508D01*
X168217383Y-103745508D01*
X168157783Y-103739101D01*
X168157781Y-103739100D01*
X168157773Y-103739100D01*
X168157764Y-103739100D01*
X166157029Y-103739100D01*
X166157023Y-103739101D01*
X166097416Y-103745508D01*
X165962571Y-103795802D01*
X165962564Y-103795806D01*
X165847355Y-103882052D01*
X165847352Y-103882055D01*
X165761106Y-103997264D01*
X165761102Y-103997271D01*
X165710808Y-104132117D01*
X165704401Y-104191716D01*
X165704401Y-104191723D01*
X165704400Y-104191735D01*
X165704400Y-105307470D01*
X156251700Y-105307470D01*
X156251700Y-103401612D01*
X156271385Y-103334573D01*
X156278755Y-103324297D01*
X156281010Y-103321467D01*
X156281016Y-103321462D01*
X156376989Y-103168722D01*
X156436568Y-102998455D01*
X156455889Y-102826979D01*
X156456765Y-102819203D01*
X156456765Y-102819196D01*
X156436569Y-102639950D01*
X156436568Y-102639945D01*
X156376988Y-102469676D01*
X156370657Y-102459600D01*
X168909900Y-102459600D01*
X168909900Y-102767444D01*
X168916301Y-102826972D01*
X168916303Y-102826979D01*
X168966545Y-102961686D01*
X168966549Y-102961693D01*
X169052709Y-103076787D01*
X169052712Y-103076790D01*
X169167806Y-103162950D01*
X169167813Y-103162954D01*
X169302520Y-103213196D01*
X169302527Y-103213198D01*
X169362055Y-103219599D01*
X169362072Y-103219600D01*
X170112400Y-103219600D01*
X170112400Y-102459600D01*
X168909900Y-102459600D01*
X156370657Y-102459600D01*
X156281015Y-102316937D01*
X156153462Y-102189384D01*
X156000723Y-102093411D01*
X155830454Y-102033831D01*
X155830449Y-102033830D01*
X155651204Y-102013635D01*
X155651196Y-102013635D01*
X155471950Y-102033830D01*
X155471945Y-102033831D01*
X155301676Y-102093411D01*
X155148937Y-102189384D01*
X155021384Y-102316937D01*
X154925411Y-102469676D01*
X154865831Y-102639945D01*
X154865830Y-102639950D01*
X154845635Y-102819196D01*
X154845635Y-102819203D01*
X154865830Y-102998449D01*
X154865831Y-102998454D01*
X154925411Y-103168723D01*
X155021385Y-103321463D01*
X155023645Y-103324297D01*
X155024534Y-103326475D01*
X155025089Y-103327358D01*
X155024934Y-103327455D01*
X155050055Y-103388983D01*
X155050700Y-103401612D01*
X155050700Y-108396730D01*
X155050699Y-108396748D01*
X155050699Y-108562454D01*
X155050698Y-108562454D01*
X155091623Y-108715185D01*
X155120558Y-108765300D01*
X155120559Y-108765304D01*
X155120560Y-108765304D01*
X155170679Y-108852114D01*
X155170681Y-108852117D01*
X155289549Y-108970985D01*
X155289555Y-108970990D01*
X165668081Y-119349516D01*
X165701566Y-119410839D01*
X165704400Y-119437197D01*
X165704400Y-120547470D01*
X165704401Y-120547476D01*
X165710808Y-120607083D01*
X165761102Y-120741928D01*
X165761106Y-120741935D01*
X165847352Y-120857144D01*
X165847355Y-120857147D01*
X165962564Y-120943393D01*
X165962571Y-120943397D01*
X166097417Y-120993691D01*
X166097416Y-120993691D01*
X166104344Y-120994435D01*
X166157027Y-121000100D01*
X168157772Y-121000099D01*
X168217383Y-120993691D01*
X168352231Y-120943396D01*
X168467446Y-120857146D01*
X168553696Y-120741931D01*
X168603991Y-120607083D01*
X168610400Y-120547473D01*
X168610399Y-119431728D01*
X168603991Y-119372117D01*
X168595561Y-119349516D01*
X168553697Y-119237271D01*
X168553693Y-119237264D01*
X168467447Y-119122055D01*
X168467444Y-119122052D01*
X168352235Y-119035806D01*
X168352228Y-119035802D01*
X168217382Y-118985508D01*
X168217383Y-118985508D01*
X168157783Y-118979101D01*
X168157781Y-118979100D01*
X168157773Y-118979100D01*
X168157765Y-118979100D01*
X167047497Y-118979100D01*
X166980458Y-118959415D01*
X166959816Y-118942781D01*
X163176635Y-115159600D01*
X165704900Y-115159600D01*
X165704900Y-115467444D01*
X165711301Y-115526972D01*
X165711303Y-115526979D01*
X165761545Y-115661686D01*
X165761549Y-115661693D01*
X165847709Y-115776787D01*
X165847712Y-115776790D01*
X165962806Y-115862950D01*
X165962813Y-115862954D01*
X166097520Y-115913196D01*
X166097527Y-115913198D01*
X166157055Y-115919599D01*
X166157072Y-115919600D01*
X166907400Y-115919600D01*
X166907400Y-115159600D01*
X167407400Y-115159600D01*
X167407400Y-115919600D01*
X168157728Y-115919600D01*
X168157744Y-115919599D01*
X168217272Y-115913198D01*
X168217279Y-115913196D01*
X168351986Y-115862954D01*
X168351993Y-115862950D01*
X168467087Y-115776790D01*
X168467090Y-115776787D01*
X168553250Y-115661693D01*
X168553254Y-115661686D01*
X168603496Y-115526979D01*
X168603498Y-115526972D01*
X168609899Y-115467444D01*
X168609900Y-115467427D01*
X168609900Y-115159600D01*
X167407400Y-115159600D01*
X166907400Y-115159600D01*
X165704900Y-115159600D01*
X163176635Y-115159600D01*
X159560519Y-111543484D01*
X159527034Y-111482161D01*
X159532018Y-111412469D01*
X159573890Y-111356536D01*
X159634313Y-111332583D01*
X159691255Y-111326168D01*
X159861522Y-111266589D01*
X160014262Y-111170616D01*
X160141816Y-111043062D01*
X160237789Y-110890322D01*
X160297368Y-110720055D01*
X160307161Y-110633129D01*
X160334226Y-110568718D01*
X160342690Y-110559343D01*
X161021631Y-109880403D01*
X164142035Y-109880403D01*
X164162230Y-110059649D01*
X164162231Y-110059654D01*
X164221811Y-110229923D01*
X164304515Y-110361545D01*
X164317784Y-110382662D01*
X164445338Y-110510216D01*
X164494012Y-110540800D01*
X164559471Y-110581931D01*
X164598078Y-110606189D01*
X164675080Y-110633133D01*
X164768345Y-110665768D01*
X164768350Y-110665769D01*
X164947596Y-110685965D01*
X164947600Y-110685965D01*
X164947604Y-110685965D01*
X165126849Y-110665769D01*
X165126852Y-110665768D01*
X165126855Y-110665768D01*
X165297122Y-110606189D01*
X165449862Y-110510216D01*
X165492134Y-110467943D01*
X165532398Y-110441048D01*
X165536078Y-110439525D01*
X165583496Y-110430100D01*
X165618379Y-110430100D01*
X165685418Y-110449785D01*
X165731173Y-110502589D01*
X165734561Y-110510767D01*
X165761102Y-110581928D01*
X165761106Y-110581935D01*
X165847352Y-110697144D01*
X165847355Y-110697147D01*
X165962564Y-110783393D01*
X165962571Y-110783397D01*
X166097417Y-110833691D01*
X166097416Y-110833691D01*
X166104344Y-110834435D01*
X166157027Y-110840100D01*
X168157772Y-110840099D01*
X168217383Y-110833691D01*
X168352231Y-110783396D01*
X168467446Y-110697146D01*
X168553696Y-110581931D01*
X168603991Y-110447083D01*
X168610400Y-110387473D01*
X168610399Y-109271728D01*
X168603991Y-109212117D01*
X168601100Y-109204367D01*
X168553697Y-109077271D01*
X168553693Y-109077264D01*
X168467447Y-108962055D01*
X168467444Y-108962052D01*
X168352235Y-108875806D01*
X168352228Y-108875802D01*
X168217382Y-108825508D01*
X168217383Y-108825508D01*
X168157783Y-108819101D01*
X168157781Y-108819100D01*
X168157773Y-108819100D01*
X168157764Y-108819100D01*
X166157029Y-108819100D01*
X166157023Y-108819101D01*
X166097416Y-108825508D01*
X165962571Y-108875802D01*
X165962564Y-108875806D01*
X165847355Y-108962052D01*
X165847352Y-108962055D01*
X165761106Y-109077264D01*
X165761102Y-109077271D01*
X165734561Y-109148433D01*
X165692690Y-109204367D01*
X165627225Y-109228784D01*
X165618379Y-109229100D01*
X165451394Y-109229100D01*
X165385421Y-109210093D01*
X165297124Y-109154611D01*
X165126854Y-109095031D01*
X165126849Y-109095030D01*
X164947604Y-109074835D01*
X164947596Y-109074835D01*
X164768350Y-109095030D01*
X164768345Y-109095031D01*
X164598076Y-109154611D01*
X164445337Y-109250584D01*
X164317784Y-109378137D01*
X164221811Y-109530876D01*
X164162231Y-109701145D01*
X164162230Y-109701150D01*
X164142035Y-109880396D01*
X164142035Y-109880403D01*
X161021631Y-109880403D01*
X162975616Y-107926419D01*
X163036939Y-107892934D01*
X163063297Y-107890100D01*
X168823379Y-107890100D01*
X168890418Y-107909785D01*
X168936173Y-107962589D01*
X168939561Y-107970767D01*
X168966102Y-108041928D01*
X168966106Y-108041935D01*
X169052352Y-108157144D01*
X169052355Y-108157147D01*
X169167564Y-108243393D01*
X169167571Y-108243397D01*
X169302417Y-108293691D01*
X169302416Y-108293691D01*
X169309344Y-108294435D01*
X169362027Y-108300100D01*
X171362772Y-108300099D01*
X171422383Y-108293691D01*
X171557231Y-108243396D01*
X171563987Y-108238338D01*
X171629448Y-108213919D01*
X171697722Y-108228768D01*
X171747129Y-108278171D01*
X171762300Y-108337603D01*
X171762300Y-111321596D01*
X171742615Y-111388635D01*
X171689811Y-111434390D01*
X171620653Y-111444334D01*
X171563989Y-111420863D01*
X171557231Y-111415804D01*
X171557228Y-111415802D01*
X171422382Y-111365508D01*
X171422383Y-111365508D01*
X171362783Y-111359101D01*
X171362781Y-111359100D01*
X171362773Y-111359100D01*
X171362764Y-111359100D01*
X169362029Y-111359100D01*
X169362023Y-111359101D01*
X169302416Y-111365508D01*
X169167571Y-111415802D01*
X169167564Y-111415806D01*
X169052355Y-111502052D01*
X169052352Y-111502055D01*
X168966106Y-111617264D01*
X168966102Y-111617271D01*
X168939561Y-111688433D01*
X168897690Y-111744367D01*
X168832225Y-111768784D01*
X168823379Y-111769100D01*
X166802695Y-111769100D01*
X166762116Y-111761028D01*
X166762036Y-111761327D01*
X166757473Y-111760104D01*
X166755239Y-111759660D01*
X166754187Y-111759224D01*
X166754185Y-111759223D01*
X166601457Y-111718299D01*
X166443343Y-111718299D01*
X166435747Y-111718299D01*
X166435731Y-111718300D01*
X166073410Y-111718300D01*
X166006371Y-111698615D01*
X165996095Y-111691245D01*
X165993261Y-111688985D01*
X165993260Y-111688984D01*
X165936494Y-111653315D01*
X165840521Y-111593011D01*
X165670252Y-111533431D01*
X165670247Y-111533430D01*
X165491002Y-111513235D01*
X165490994Y-111513235D01*
X165311748Y-111533430D01*
X165311743Y-111533431D01*
X165141474Y-111593011D01*
X164988735Y-111688984D01*
X164861182Y-111816537D01*
X164765209Y-111969276D01*
X164705629Y-112139545D01*
X164705628Y-112139550D01*
X164685433Y-112318796D01*
X164685433Y-112318803D01*
X164705628Y-112498049D01*
X164705629Y-112498054D01*
X164765209Y-112668324D01*
X164863173Y-112824230D01*
X164882174Y-112891467D01*
X164861807Y-112958302D01*
X164824154Y-112995195D01*
X164800942Y-113009780D01*
X164800937Y-113009784D01*
X164673384Y-113137337D01*
X164577411Y-113290076D01*
X164517831Y-113460345D01*
X164517830Y-113460350D01*
X164497635Y-113639596D01*
X164497635Y-113639603D01*
X164517830Y-113818849D01*
X164517831Y-113818854D01*
X164577411Y-113989123D01*
X164610001Y-114040989D01*
X164673384Y-114141862D01*
X164800938Y-114269416D01*
X164844935Y-114297061D01*
X164951626Y-114364100D01*
X164953678Y-114365389D01*
X165066457Y-114404852D01*
X165123945Y-114424968D01*
X165123950Y-114424969D01*
X165303196Y-114445165D01*
X165303200Y-114445165D01*
X165303204Y-114445165D01*
X165482449Y-114424969D01*
X165482451Y-114424968D01*
X165482455Y-114424968D01*
X165482458Y-114424966D01*
X165482462Y-114424966D01*
X165539945Y-114404852D01*
X165609724Y-114401290D01*
X165670351Y-114436018D01*
X165702579Y-114498011D01*
X165704900Y-114521893D01*
X165704900Y-114659600D01*
X168609900Y-114659600D01*
X168609900Y-114364100D01*
X168629585Y-114297061D01*
X168682389Y-114251306D01*
X168733900Y-114240100D01*
X169524303Y-114240100D01*
X169591342Y-114259785D01*
X169611984Y-114276419D01*
X169725581Y-114390016D01*
X169759066Y-114451339D01*
X169761900Y-114477697D01*
X169761900Y-116315100D01*
X169742215Y-116382139D01*
X169689411Y-116427894D01*
X169637900Y-116439100D01*
X169362030Y-116439100D01*
X169362023Y-116439101D01*
X169302416Y-116445508D01*
X169167571Y-116495802D01*
X169167564Y-116495806D01*
X169052355Y-116582052D01*
X169001233Y-116650342D01*
X168945299Y-116692212D01*
X168877777Y-116697647D01*
X168834803Y-116689100D01*
X168684997Y-116689100D01*
X168684992Y-116689100D01*
X168538077Y-116718323D01*
X168538069Y-116718325D01*
X168399670Y-116775651D01*
X168399661Y-116775656D01*
X168275109Y-116858880D01*
X168275105Y-116858883D01*
X168169183Y-116964805D01*
X168169180Y-116964809D01*
X168085956Y-117089361D01*
X168085951Y-117089370D01*
X168028625Y-117227769D01*
X168028623Y-117227777D01*
X167999400Y-117374692D01*
X167999400Y-117524507D01*
X168028623Y-117671422D01*
X168028625Y-117671430D01*
X168085951Y-117809829D01*
X168085956Y-117809838D01*
X168169180Y-117934390D01*
X168169183Y-117934394D01*
X168275105Y-118040316D01*
X168275109Y-118040319D01*
X168399661Y-118123543D01*
X168399667Y-118123546D01*
X168399668Y-118123547D01*
X168538070Y-118180875D01*
X168673323Y-118207778D01*
X168684992Y-118210099D01*
X168684996Y-118210100D01*
X168684997Y-118210100D01*
X168834804Y-118210100D01*
X168847816Y-118207511D01*
X168877775Y-118201552D01*
X168947365Y-118207778D01*
X169001233Y-118248858D01*
X169052352Y-118317144D01*
X169052355Y-118317147D01*
X169167564Y-118403393D01*
X169167571Y-118403397D01*
X169302417Y-118453691D01*
X169302416Y-118453691D01*
X169309344Y-118454435D01*
X169362027Y-118460100D01*
X171362772Y-118460099D01*
X171422383Y-118453691D01*
X171557231Y-118403396D01*
X171563987Y-118398338D01*
X171629448Y-118373919D01*
X171697722Y-118388768D01*
X171747129Y-118438171D01*
X171762300Y-118497603D01*
X171762300Y-121651100D01*
X171742615Y-121718139D01*
X171689811Y-121763894D01*
X171638300Y-121775100D01*
X147995300Y-121775100D01*
X147928261Y-121755415D01*
X147882506Y-121702611D01*
X147871300Y-121651100D01*
X147871300Y-120958101D01*
X147890985Y-120891062D01*
X147943789Y-120845307D01*
X148012947Y-120835363D01*
X148069607Y-120858833D01*
X148182565Y-120943393D01*
X148182568Y-120943395D01*
X148182571Y-120943397D01*
X148317417Y-120993691D01*
X148317416Y-120993691D01*
X148324344Y-120994435D01*
X148377027Y-121000100D01*
X150377772Y-121000099D01*
X150437383Y-120993691D01*
X150572231Y-120943396D01*
X150687446Y-120857146D01*
X150773696Y-120741931D01*
X150823991Y-120607083D01*
X150830400Y-120547473D01*
X150830399Y-119431728D01*
X150823991Y-119372117D01*
X150815561Y-119349516D01*
X150773697Y-119237271D01*
X150773693Y-119237264D01*
X150687447Y-119122055D01*
X150687444Y-119122052D01*
X150572235Y-119035806D01*
X150572228Y-119035802D01*
X150437382Y-118985508D01*
X150437383Y-118985508D01*
X150377783Y-118979101D01*
X150377781Y-118979100D01*
X150377773Y-118979100D01*
X150377764Y-118979100D01*
X148377029Y-118979100D01*
X148377023Y-118979101D01*
X148317416Y-118985508D01*
X148182571Y-119035802D01*
X148182564Y-119035806D01*
X148069611Y-119120364D01*
X148004147Y-119144782D01*
X147935874Y-119129931D01*
X147886468Y-119080526D01*
X147871300Y-119021098D01*
X147871300Y-117524507D01*
X150219400Y-117524507D01*
X150248623Y-117671422D01*
X150248625Y-117671430D01*
X150305951Y-117809829D01*
X150305956Y-117809838D01*
X150389180Y-117934390D01*
X150389183Y-117934394D01*
X150495105Y-118040316D01*
X150495109Y-118040319D01*
X150619661Y-118123543D01*
X150619667Y-118123546D01*
X150619668Y-118123547D01*
X150758070Y-118180875D01*
X150893323Y-118207778D01*
X150904992Y-118210099D01*
X150904996Y-118210100D01*
X150904997Y-118210100D01*
X151054804Y-118210100D01*
X151067816Y-118207511D01*
X151097775Y-118201552D01*
X151167365Y-118207778D01*
X151221233Y-118248858D01*
X151272352Y-118317144D01*
X151272355Y-118317147D01*
X151387564Y-118403393D01*
X151387571Y-118403397D01*
X151522417Y-118453691D01*
X151522416Y-118453691D01*
X151529344Y-118454435D01*
X151582027Y-118460100D01*
X153582772Y-118460099D01*
X153642383Y-118453691D01*
X153777231Y-118403396D01*
X153892446Y-118317146D01*
X153978696Y-118201931D01*
X154028991Y-118067083D01*
X154035400Y-118007473D01*
X154035399Y-116891728D01*
X154028991Y-116832117D01*
X154007932Y-116775656D01*
X153978697Y-116697271D01*
X153978693Y-116697264D01*
X153892447Y-116582055D01*
X153892444Y-116582052D01*
X153777235Y-116495806D01*
X153777228Y-116495802D01*
X153642382Y-116445508D01*
X153642383Y-116445508D01*
X153582783Y-116439101D01*
X153582781Y-116439100D01*
X153582773Y-116439100D01*
X153582764Y-116439100D01*
X151582029Y-116439100D01*
X151582023Y-116439101D01*
X151522416Y-116445508D01*
X151387571Y-116495802D01*
X151387564Y-116495806D01*
X151272355Y-116582052D01*
X151221233Y-116650342D01*
X151165299Y-116692212D01*
X151097777Y-116697647D01*
X151054803Y-116689100D01*
X150904997Y-116689100D01*
X150904992Y-116689100D01*
X150758077Y-116718323D01*
X150758069Y-116718325D01*
X150619670Y-116775651D01*
X150619661Y-116775656D01*
X150495109Y-116858880D01*
X150495105Y-116858883D01*
X150389183Y-116964805D01*
X150389180Y-116964809D01*
X150305956Y-117089361D01*
X150305951Y-117089370D01*
X150248625Y-117227769D01*
X150248623Y-117227777D01*
X150219400Y-117374692D01*
X150219400Y-117524507D01*
X147871300Y-117524507D01*
X147871300Y-115877477D01*
X147890985Y-115810438D01*
X147943789Y-115764683D01*
X148012947Y-115754739D01*
X148069612Y-115778211D01*
X148182810Y-115862952D01*
X148182813Y-115862954D01*
X148317520Y-115913196D01*
X148317527Y-115913198D01*
X148377055Y-115919599D01*
X148377072Y-115919600D01*
X149127400Y-115919600D01*
X149127400Y-115159600D01*
X149627400Y-115159600D01*
X149627400Y-115919600D01*
X150377728Y-115919600D01*
X150377744Y-115919599D01*
X150437272Y-115913198D01*
X150437279Y-115913196D01*
X150571986Y-115862954D01*
X150571993Y-115862950D01*
X150687087Y-115776790D01*
X150687090Y-115776787D01*
X150773250Y-115661693D01*
X150773254Y-115661686D01*
X150823496Y-115526979D01*
X150823498Y-115526972D01*
X150829899Y-115467444D01*
X150829900Y-115467427D01*
X150829900Y-115159600D01*
X149627400Y-115159600D01*
X149127400Y-115159600D01*
X149127400Y-113899600D01*
X149627400Y-113899600D01*
X149627400Y-114659600D01*
X150829900Y-114659600D01*
X150829900Y-114351772D01*
X150829899Y-114351755D01*
X150823498Y-114292227D01*
X150823496Y-114292220D01*
X150773254Y-114157513D01*
X150773250Y-114157506D01*
X150687090Y-114042412D01*
X150687087Y-114042409D01*
X150571993Y-113956249D01*
X150571986Y-113956245D01*
X150437279Y-113906003D01*
X150437272Y-113906001D01*
X150377744Y-113899600D01*
X149627400Y-113899600D01*
X149127400Y-113899600D01*
X148377055Y-113899600D01*
X148317527Y-113906001D01*
X148317520Y-113906003D01*
X148182813Y-113956245D01*
X148182811Y-113956246D01*
X148069611Y-114040989D01*
X148004147Y-114065406D01*
X147935874Y-114050555D01*
X147886468Y-114001150D01*
X147871300Y-113941722D01*
X147871300Y-112927470D01*
X151129400Y-112927470D01*
X151129401Y-112927476D01*
X151135808Y-112987083D01*
X151186102Y-113121928D01*
X151186106Y-113121935D01*
X151272352Y-113237144D01*
X151272355Y-113237147D01*
X151387564Y-113323393D01*
X151387571Y-113323397D01*
X151522417Y-113373691D01*
X151522416Y-113373691D01*
X151529344Y-113374435D01*
X151582027Y-113380100D01*
X153582772Y-113380099D01*
X153642383Y-113373691D01*
X153777231Y-113323396D01*
X153892446Y-113237146D01*
X153978696Y-113121931D01*
X154028991Y-112987083D01*
X154035400Y-112927473D01*
X154035399Y-111811728D01*
X154028991Y-111752117D01*
X154026100Y-111744367D01*
X153978697Y-111617271D01*
X153978693Y-111617264D01*
X153892447Y-111502055D01*
X153892444Y-111502052D01*
X153777235Y-111415806D01*
X153777228Y-111415802D01*
X153642382Y-111365508D01*
X153642383Y-111365508D01*
X153582783Y-111359101D01*
X153582781Y-111359100D01*
X153582773Y-111359100D01*
X153582764Y-111359100D01*
X151582029Y-111359100D01*
X151582023Y-111359101D01*
X151522416Y-111365508D01*
X151387571Y-111415802D01*
X151387564Y-111415806D01*
X151272355Y-111502052D01*
X151272352Y-111502055D01*
X151186106Y-111617264D01*
X151186102Y-111617271D01*
X151135808Y-111752117D01*
X151129401Y-111811716D01*
X151129401Y-111811723D01*
X151129400Y-111811735D01*
X151129400Y-112927470D01*
X147871300Y-112927470D01*
X147871300Y-110798101D01*
X147890985Y-110731062D01*
X147943789Y-110685307D01*
X148012947Y-110675363D01*
X148069607Y-110698833D01*
X148182565Y-110783393D01*
X148182568Y-110783395D01*
X148182571Y-110783397D01*
X148317417Y-110833691D01*
X148317416Y-110833691D01*
X148324344Y-110834435D01*
X148377027Y-110840100D01*
X150377772Y-110840099D01*
X150437383Y-110833691D01*
X150572231Y-110783396D01*
X150687446Y-110697146D01*
X150773696Y-110581931D01*
X150823991Y-110447083D01*
X150830400Y-110387473D01*
X150830399Y-109271728D01*
X150823991Y-109212117D01*
X150821100Y-109204367D01*
X150773697Y-109077271D01*
X150773693Y-109077264D01*
X150687447Y-108962055D01*
X150687444Y-108962052D01*
X150572235Y-108875806D01*
X150572228Y-108875802D01*
X150437382Y-108825508D01*
X150437383Y-108825508D01*
X150377783Y-108819101D01*
X150377781Y-108819100D01*
X150377773Y-108819100D01*
X150377764Y-108819100D01*
X148377029Y-108819100D01*
X148377023Y-108819101D01*
X148317416Y-108825508D01*
X148182571Y-108875802D01*
X148182564Y-108875806D01*
X148069611Y-108960364D01*
X148004147Y-108984782D01*
X147935874Y-108969931D01*
X147886468Y-108920526D01*
X147871300Y-108861098D01*
X147871300Y-107847470D01*
X151129400Y-107847470D01*
X151129401Y-107847476D01*
X151135808Y-107907083D01*
X151186102Y-108041928D01*
X151186106Y-108041935D01*
X151272352Y-108157144D01*
X151272355Y-108157147D01*
X151387564Y-108243393D01*
X151387571Y-108243397D01*
X151522417Y-108293691D01*
X151522416Y-108293691D01*
X151529344Y-108294435D01*
X151582027Y-108300100D01*
X153582772Y-108300099D01*
X153642383Y-108293691D01*
X153777231Y-108243396D01*
X153892446Y-108157146D01*
X153978696Y-108041931D01*
X154028991Y-107907083D01*
X154035400Y-107847473D01*
X154035399Y-106731728D01*
X154028991Y-106672117D01*
X154026100Y-106664367D01*
X153978697Y-106537271D01*
X153978693Y-106537264D01*
X153892447Y-106422055D01*
X153892444Y-106422052D01*
X153777235Y-106335806D01*
X153777228Y-106335802D01*
X153642382Y-106285508D01*
X153642383Y-106285508D01*
X153582783Y-106279101D01*
X153582781Y-106279100D01*
X153582773Y-106279100D01*
X153582764Y-106279100D01*
X151582029Y-106279100D01*
X151582023Y-106279101D01*
X151522416Y-106285508D01*
X151387571Y-106335802D01*
X151387564Y-106335806D01*
X151272355Y-106422052D01*
X151272352Y-106422055D01*
X151186106Y-106537264D01*
X151186102Y-106537271D01*
X151135808Y-106672117D01*
X151129583Y-106730023D01*
X151129401Y-106731723D01*
X151129400Y-106731735D01*
X151129400Y-107847470D01*
X147871300Y-107847470D01*
X147871300Y-105718101D01*
X147890985Y-105651062D01*
X147943789Y-105605307D01*
X148012947Y-105595363D01*
X148069607Y-105618833D01*
X148182565Y-105703393D01*
X148182568Y-105703395D01*
X148182571Y-105703397D01*
X148317417Y-105753691D01*
X148317416Y-105753691D01*
X148324344Y-105754435D01*
X148377027Y-105760100D01*
X150377772Y-105760099D01*
X150437383Y-105753691D01*
X150572231Y-105703396D01*
X150687446Y-105617146D01*
X150773696Y-105501931D01*
X150823991Y-105367083D01*
X150830400Y-105307473D01*
X150830399Y-104191728D01*
X150823991Y-104132117D01*
X150773696Y-103997269D01*
X150773695Y-103997268D01*
X150773693Y-103997264D01*
X150687447Y-103882055D01*
X150687444Y-103882052D01*
X150572235Y-103795806D01*
X150572228Y-103795802D01*
X150437382Y-103745508D01*
X150437383Y-103745508D01*
X150377783Y-103739101D01*
X150377781Y-103739100D01*
X150377773Y-103739100D01*
X150377764Y-103739100D01*
X148377029Y-103739100D01*
X148377023Y-103739101D01*
X148317416Y-103745508D01*
X148182571Y-103795802D01*
X148182564Y-103795806D01*
X148069611Y-103880364D01*
X148004147Y-103904782D01*
X147935874Y-103889931D01*
X147886468Y-103840526D01*
X147871300Y-103781098D01*
X147871300Y-102459600D01*
X151129900Y-102459600D01*
X151129900Y-102767444D01*
X151136301Y-102826972D01*
X151136303Y-102826979D01*
X151186545Y-102961686D01*
X151186549Y-102961693D01*
X151272709Y-103076787D01*
X151272712Y-103076790D01*
X151387806Y-103162950D01*
X151387813Y-103162954D01*
X151522520Y-103213196D01*
X151522527Y-103213198D01*
X151582055Y-103219599D01*
X151582072Y-103219600D01*
X152332400Y-103219600D01*
X152332400Y-102459600D01*
X152832400Y-102459600D01*
X152832400Y-103219600D01*
X153582728Y-103219600D01*
X153582744Y-103219599D01*
X153642272Y-103213198D01*
X153642279Y-103213196D01*
X153776986Y-103162954D01*
X153776993Y-103162950D01*
X153892087Y-103076790D01*
X153892090Y-103076787D01*
X153978250Y-102961693D01*
X153978254Y-102961686D01*
X154028496Y-102826979D01*
X154028498Y-102826972D01*
X154034899Y-102767444D01*
X154034900Y-102767427D01*
X154034900Y-102459600D01*
X152832400Y-102459600D01*
X152332400Y-102459600D01*
X151129900Y-102459600D01*
X147871300Y-102459600D01*
X147871300Y-101959600D01*
X151129900Y-101959600D01*
X152332400Y-101959600D01*
X152332400Y-101199600D01*
X152832400Y-101199600D01*
X152832400Y-101959600D01*
X154034900Y-101959600D01*
X168909900Y-101959600D01*
X170112400Y-101959600D01*
X170112400Y-101199600D01*
X169362055Y-101199600D01*
X169302527Y-101206001D01*
X169302520Y-101206003D01*
X169167813Y-101256245D01*
X169167806Y-101256249D01*
X169052712Y-101342409D01*
X169052709Y-101342412D01*
X168966549Y-101457506D01*
X168966545Y-101457513D01*
X168916303Y-101592220D01*
X168916301Y-101592227D01*
X168909900Y-101651755D01*
X168909900Y-101959600D01*
X154034900Y-101959600D01*
X154034900Y-101651772D01*
X154034899Y-101651755D01*
X154028498Y-101592227D01*
X154028496Y-101592220D01*
X153978254Y-101457513D01*
X153978250Y-101457506D01*
X153892090Y-101342412D01*
X153892087Y-101342409D01*
X153776993Y-101256249D01*
X153776986Y-101256245D01*
X153642279Y-101206003D01*
X153642272Y-101206001D01*
X153582744Y-101199600D01*
X152832400Y-101199600D01*
X152332400Y-101199600D01*
X151582055Y-101199600D01*
X151522527Y-101206001D01*
X151522520Y-101206003D01*
X151387813Y-101256245D01*
X151387806Y-101256249D01*
X151272712Y-101342409D01*
X151272709Y-101342412D01*
X151186549Y-101457506D01*
X151186545Y-101457513D01*
X151136303Y-101592220D01*
X151136301Y-101592227D01*
X151129900Y-101651755D01*
X151129900Y-101959600D01*
X147871300Y-101959600D01*
X147871300Y-100638101D01*
X147890985Y-100571062D01*
X147943789Y-100525307D01*
X148012947Y-100515363D01*
X148069607Y-100538833D01*
X148182565Y-100623393D01*
X148182568Y-100623395D01*
X148182571Y-100623397D01*
X148317417Y-100673691D01*
X148317416Y-100673691D01*
X148324344Y-100674435D01*
X148377027Y-100680100D01*
X150377772Y-100680099D01*
X150437383Y-100673691D01*
X150572231Y-100623396D01*
X150687446Y-100537146D01*
X150773696Y-100421931D01*
X150823991Y-100287083D01*
X150830400Y-100227473D01*
X150830400Y-100227470D01*
X165704400Y-100227470D01*
X165704401Y-100227476D01*
X165710808Y-100287083D01*
X165761102Y-100421928D01*
X165761106Y-100421935D01*
X165847352Y-100537144D01*
X165847355Y-100537147D01*
X165962564Y-100623393D01*
X165962571Y-100623397D01*
X166097417Y-100673691D01*
X166097416Y-100673691D01*
X166104344Y-100674435D01*
X166157027Y-100680100D01*
X168157772Y-100680099D01*
X168217383Y-100673691D01*
X168352231Y-100623396D01*
X168467446Y-100537146D01*
X168553696Y-100421931D01*
X168603991Y-100287083D01*
X168610400Y-100227473D01*
X168610399Y-99111728D01*
X168603991Y-99052117D01*
X168553696Y-98917269D01*
X168553695Y-98917268D01*
X168553693Y-98917264D01*
X168467447Y-98802055D01*
X168467444Y-98802052D01*
X168352235Y-98715806D01*
X168352228Y-98715802D01*
X168217382Y-98665508D01*
X168217383Y-98665508D01*
X168157783Y-98659101D01*
X168157781Y-98659100D01*
X168157773Y-98659100D01*
X168157764Y-98659100D01*
X166157029Y-98659100D01*
X166157023Y-98659101D01*
X166097416Y-98665508D01*
X165962571Y-98715802D01*
X165962564Y-98715806D01*
X165847355Y-98802052D01*
X165847352Y-98802055D01*
X165761106Y-98917264D01*
X165761102Y-98917271D01*
X165710808Y-99052117D01*
X165704401Y-99111716D01*
X165704401Y-99111723D01*
X165704400Y-99111735D01*
X165704400Y-100227470D01*
X150830400Y-100227470D01*
X150830399Y-99111728D01*
X150823991Y-99052117D01*
X150773696Y-98917269D01*
X150773695Y-98917268D01*
X150773693Y-98917264D01*
X150687447Y-98802055D01*
X150687444Y-98802052D01*
X150572235Y-98715806D01*
X150572228Y-98715802D01*
X150437382Y-98665508D01*
X150437383Y-98665508D01*
X150377783Y-98659101D01*
X150377781Y-98659100D01*
X150377773Y-98659100D01*
X150377764Y-98659100D01*
X148377029Y-98659100D01*
X148377023Y-98659101D01*
X148317416Y-98665508D01*
X148182571Y-98715802D01*
X148182564Y-98715806D01*
X148069611Y-98800364D01*
X148004147Y-98824782D01*
X147935874Y-98809931D01*
X147886468Y-98760526D01*
X147871300Y-98701098D01*
X147871300Y-97687470D01*
X151129400Y-97687470D01*
X151129401Y-97687476D01*
X151135808Y-97747083D01*
X151186102Y-97881928D01*
X151186106Y-97881935D01*
X151272352Y-97997144D01*
X151272355Y-97997147D01*
X151387564Y-98083393D01*
X151387571Y-98083397D01*
X151522417Y-98133691D01*
X151522416Y-98133691D01*
X151529344Y-98134435D01*
X151582027Y-98140100D01*
X153582772Y-98140099D01*
X153642383Y-98133691D01*
X153777231Y-98083396D01*
X153892446Y-97997146D01*
X153978696Y-97881931D01*
X154028991Y-97747083D01*
X154035400Y-97687473D01*
X154035399Y-96571728D01*
X154028991Y-96512117D01*
X153978696Y-96377269D01*
X153978695Y-96377268D01*
X153978693Y-96377264D01*
X153892447Y-96262055D01*
X153892444Y-96262052D01*
X153777235Y-96175806D01*
X153777228Y-96175802D01*
X153642382Y-96125508D01*
X153642383Y-96125508D01*
X153582783Y-96119101D01*
X153582781Y-96119100D01*
X153582773Y-96119100D01*
X153582764Y-96119100D01*
X151582029Y-96119100D01*
X151582023Y-96119101D01*
X151522416Y-96125508D01*
X151387571Y-96175802D01*
X151387564Y-96175806D01*
X151272355Y-96262052D01*
X151272352Y-96262055D01*
X151186106Y-96377264D01*
X151186102Y-96377271D01*
X151135808Y-96512117D01*
X151129401Y-96571716D01*
X151129401Y-96571723D01*
X151129400Y-96571735D01*
X151129400Y-97687470D01*
X147871300Y-97687470D01*
X147871300Y-95558101D01*
X147890985Y-95491062D01*
X147943789Y-95445307D01*
X148012947Y-95435363D01*
X148069607Y-95458833D01*
X148182565Y-95543393D01*
X148182568Y-95543395D01*
X148182571Y-95543397D01*
X148317417Y-95593691D01*
X148317416Y-95593691D01*
X148324344Y-95594435D01*
X148377027Y-95600100D01*
X150377772Y-95600099D01*
X150437383Y-95593691D01*
X150572231Y-95543396D01*
X150687446Y-95457146D01*
X150773696Y-95341931D01*
X150823991Y-95207083D01*
X150830400Y-95147473D01*
X150830400Y-95147470D01*
X165704400Y-95147470D01*
X165704401Y-95147476D01*
X165710808Y-95207083D01*
X165761102Y-95341928D01*
X165761106Y-95341935D01*
X165847352Y-95457144D01*
X165847355Y-95457147D01*
X165962564Y-95543393D01*
X165962571Y-95543397D01*
X166097417Y-95593691D01*
X166097416Y-95593691D01*
X166104344Y-95594435D01*
X166157027Y-95600100D01*
X168157772Y-95600099D01*
X168217383Y-95593691D01*
X168352231Y-95543396D01*
X168467446Y-95457146D01*
X168553696Y-95341931D01*
X168603991Y-95207083D01*
X168610400Y-95147473D01*
X168610399Y-94031728D01*
X168603991Y-93972117D01*
X168553696Y-93837269D01*
X168553695Y-93837268D01*
X168553693Y-93837264D01*
X168467447Y-93722055D01*
X168467444Y-93722052D01*
X168352235Y-93635806D01*
X168352228Y-93635802D01*
X168217382Y-93585508D01*
X168217383Y-93585508D01*
X168157783Y-93579101D01*
X168157781Y-93579100D01*
X168157773Y-93579100D01*
X168157764Y-93579100D01*
X166157029Y-93579100D01*
X166157023Y-93579101D01*
X166097416Y-93585508D01*
X165962571Y-93635802D01*
X165962564Y-93635806D01*
X165847355Y-93722052D01*
X165847352Y-93722055D01*
X165761106Y-93837264D01*
X165761102Y-93837271D01*
X165710808Y-93972117D01*
X165704401Y-94031716D01*
X165704401Y-94031723D01*
X165704400Y-94031735D01*
X165704400Y-95147470D01*
X150830400Y-95147470D01*
X150830399Y-94031728D01*
X150823991Y-93972117D01*
X150773696Y-93837269D01*
X150773695Y-93837268D01*
X150773693Y-93837264D01*
X150687447Y-93722055D01*
X150687444Y-93722052D01*
X150572235Y-93635806D01*
X150572228Y-93635802D01*
X150437382Y-93585508D01*
X150437383Y-93585508D01*
X150377783Y-93579101D01*
X150377781Y-93579100D01*
X150377773Y-93579100D01*
X150377764Y-93579100D01*
X148377029Y-93579100D01*
X148377023Y-93579101D01*
X148317416Y-93585508D01*
X148182571Y-93635802D01*
X148182564Y-93635806D01*
X148069611Y-93720364D01*
X148004147Y-93744782D01*
X147935874Y-93729931D01*
X147886468Y-93680526D01*
X147871300Y-93621098D01*
X147871300Y-92607470D01*
X151129400Y-92607470D01*
X151129401Y-92607474D01*
X151135808Y-92667083D01*
X151186102Y-92801928D01*
X151186106Y-92801935D01*
X151272352Y-92917144D01*
X151272355Y-92917147D01*
X151387564Y-93003393D01*
X151387571Y-93003397D01*
X151522417Y-93053691D01*
X151522416Y-93053691D01*
X151529344Y-93054435D01*
X151582027Y-93060100D01*
X153582772Y-93060099D01*
X153642383Y-93053691D01*
X153777231Y-93003396D01*
X153892446Y-92917146D01*
X153978696Y-92801931D01*
X153986590Y-92780767D01*
X154028461Y-92724833D01*
X154093925Y-92700416D01*
X154102772Y-92700100D01*
X155613671Y-92700100D01*
X155698215Y-92683282D01*
X155739344Y-92675101D01*
X155857727Y-92626065D01*
X155885551Y-92607474D01*
X155885552Y-92607474D01*
X155944455Y-92568115D01*
X155964269Y-92554877D01*
X157121024Y-91398120D01*
X157182345Y-91364637D01*
X157194819Y-91362583D01*
X157202055Y-91361768D01*
X157372322Y-91302189D01*
X157525062Y-91206216D01*
X157652616Y-91078662D01*
X157748589Y-90925922D01*
X157808168Y-90755655D01*
X157828365Y-90576400D01*
X157821965Y-90519600D01*
X157808169Y-90397150D01*
X157808168Y-90397145D01*
X157748588Y-90226876D01*
X157652615Y-90074137D01*
X157525062Y-89946584D01*
X157372323Y-89850611D01*
X157202054Y-89791031D01*
X157202049Y-89791030D01*
X157022804Y-89770835D01*
X157022796Y-89770835D01*
X156843550Y-89791030D01*
X156843545Y-89791031D01*
X156673276Y-89850611D01*
X156520537Y-89946584D01*
X156392984Y-90074137D01*
X156297010Y-90226878D01*
X156237432Y-90397144D01*
X156237430Y-90397152D01*
X156236615Y-90404388D01*
X156209543Y-90468800D01*
X156201077Y-90478175D01*
X155316473Y-91362781D01*
X155255150Y-91396266D01*
X155228792Y-91399100D01*
X154102772Y-91399100D01*
X154035733Y-91379415D01*
X153989978Y-91326611D01*
X153986590Y-91318433D01*
X153978697Y-91297271D01*
X153978693Y-91297264D01*
X153892447Y-91182055D01*
X153892444Y-91182052D01*
X153777235Y-91095806D01*
X153777228Y-91095802D01*
X153642382Y-91045508D01*
X153642383Y-91045508D01*
X153582783Y-91039101D01*
X153582781Y-91039100D01*
X153582773Y-91039100D01*
X153582764Y-91039100D01*
X151582029Y-91039100D01*
X151582023Y-91039101D01*
X151522416Y-91045508D01*
X151387571Y-91095802D01*
X151387564Y-91095806D01*
X151272355Y-91182052D01*
X151272352Y-91182055D01*
X151186106Y-91297264D01*
X151186102Y-91297271D01*
X151135808Y-91432117D01*
X151129401Y-91491716D01*
X151129400Y-91491735D01*
X151129400Y-92607470D01*
X147871300Y-92607470D01*
X147871300Y-90477477D01*
X147890985Y-90410438D01*
X147943789Y-90364683D01*
X148012947Y-90354739D01*
X148069612Y-90378211D01*
X148182810Y-90462952D01*
X148182813Y-90462954D01*
X148317520Y-90513196D01*
X148317527Y-90513198D01*
X148377055Y-90519599D01*
X148377072Y-90519600D01*
X149127400Y-90519600D01*
X149127400Y-89759600D01*
X149627400Y-89759600D01*
X149627400Y-90519600D01*
X150377728Y-90519600D01*
X150377744Y-90519599D01*
X150437272Y-90513198D01*
X150437279Y-90513196D01*
X150571986Y-90462954D01*
X150571993Y-90462950D01*
X150687087Y-90376790D01*
X150687090Y-90376787D01*
X150773250Y-90261693D01*
X150773254Y-90261686D01*
X150823496Y-90126979D01*
X150823498Y-90126972D01*
X150829899Y-90067444D01*
X150829900Y-90067427D01*
X150829900Y-89759600D01*
X165704900Y-89759600D01*
X165704900Y-90067444D01*
X165711301Y-90126972D01*
X165711303Y-90126979D01*
X165761545Y-90261686D01*
X165761549Y-90261693D01*
X165847709Y-90376787D01*
X165847712Y-90376790D01*
X165962806Y-90462950D01*
X165962813Y-90462954D01*
X166097520Y-90513196D01*
X166097527Y-90513198D01*
X166157055Y-90519599D01*
X166157072Y-90519600D01*
X166907400Y-90519600D01*
X166907400Y-89759600D01*
X167407400Y-89759600D01*
X167407400Y-90519600D01*
X168157728Y-90519600D01*
X168157744Y-90519599D01*
X168217272Y-90513198D01*
X168217279Y-90513196D01*
X168351986Y-90462954D01*
X168351993Y-90462950D01*
X168467087Y-90376790D01*
X168467090Y-90376787D01*
X168553250Y-90261693D01*
X168553254Y-90261686D01*
X168603496Y-90126979D01*
X168603498Y-90126972D01*
X168609899Y-90067444D01*
X168609900Y-90067427D01*
X168609900Y-89759600D01*
X167407400Y-89759600D01*
X166907400Y-89759600D01*
X165704900Y-89759600D01*
X150829900Y-89759600D01*
X149627400Y-89759600D01*
X149127400Y-89759600D01*
X149127400Y-88499600D01*
X149627400Y-88499600D01*
X149627400Y-89259600D01*
X150829900Y-89259600D01*
X165704900Y-89259600D01*
X166907400Y-89259600D01*
X166907400Y-88499600D01*
X167407400Y-88499600D01*
X167407400Y-89259600D01*
X168609900Y-89259600D01*
X168609900Y-88951772D01*
X168609899Y-88951755D01*
X168603498Y-88892227D01*
X168603496Y-88892220D01*
X168553254Y-88757513D01*
X168553250Y-88757506D01*
X168467090Y-88642412D01*
X168467087Y-88642409D01*
X168351993Y-88556249D01*
X168351986Y-88556245D01*
X168217279Y-88506003D01*
X168217272Y-88506001D01*
X168157744Y-88499600D01*
X167407400Y-88499600D01*
X166907400Y-88499600D01*
X166157055Y-88499600D01*
X166097527Y-88506001D01*
X166097520Y-88506003D01*
X165962813Y-88556245D01*
X165962806Y-88556249D01*
X165847712Y-88642409D01*
X165847709Y-88642412D01*
X165761549Y-88757506D01*
X165761545Y-88757513D01*
X165711303Y-88892220D01*
X165711301Y-88892227D01*
X165704900Y-88951755D01*
X165704900Y-89259600D01*
X150829900Y-89259600D01*
X150829900Y-88951772D01*
X150829899Y-88951755D01*
X150823498Y-88892227D01*
X150823496Y-88892220D01*
X150773254Y-88757513D01*
X150773250Y-88757506D01*
X150687090Y-88642412D01*
X150687087Y-88642409D01*
X150571993Y-88556249D01*
X150571986Y-88556245D01*
X150437279Y-88506003D01*
X150437272Y-88506001D01*
X150377744Y-88499600D01*
X149627400Y-88499600D01*
X149127400Y-88499600D01*
X148377055Y-88499600D01*
X148317527Y-88506001D01*
X148317520Y-88506003D01*
X148182813Y-88556245D01*
X148182811Y-88556246D01*
X148069611Y-88640989D01*
X148004147Y-88665406D01*
X147935874Y-88650555D01*
X147886468Y-88601150D01*
X147871300Y-88541722D01*
X147871300Y-87527470D01*
X151129400Y-87527470D01*
X151129401Y-87527476D01*
X151135808Y-87587083D01*
X151186102Y-87721928D01*
X151186106Y-87721935D01*
X151272352Y-87837144D01*
X151272355Y-87837147D01*
X151387564Y-87923393D01*
X151387571Y-87923397D01*
X151522417Y-87973691D01*
X151522416Y-87973691D01*
X151529344Y-87974435D01*
X151582027Y-87980100D01*
X153582772Y-87980099D01*
X153642383Y-87973691D01*
X153777231Y-87923396D01*
X153892446Y-87837146D01*
X153978696Y-87721931D01*
X154028991Y-87587083D01*
X154035400Y-87527473D01*
X154035399Y-87423106D01*
X154055083Y-87356069D01*
X154071713Y-87335431D01*
X154123824Y-87283320D01*
X154185145Y-87249837D01*
X154197619Y-87247783D01*
X154204855Y-87246968D01*
X154375122Y-87187389D01*
X154527862Y-87091416D01*
X154655416Y-86963862D01*
X154751389Y-86811122D01*
X154810968Y-86640855D01*
X154831165Y-86461600D01*
X154825544Y-86411716D01*
X154810969Y-86282350D01*
X154810968Y-86282345D01*
X154751388Y-86112076D01*
X154690895Y-86015802D01*
X154655416Y-85959338D01*
X154527862Y-85831784D01*
X154375123Y-85735811D01*
X154204854Y-85676231D01*
X154204849Y-85676230D01*
X154025604Y-85656035D01*
X154025596Y-85656035D01*
X153846350Y-85676230D01*
X153846345Y-85676231D01*
X153676076Y-85735811D01*
X153523337Y-85831784D01*
X153432339Y-85922782D01*
X153371015Y-85956266D01*
X153344658Y-85959100D01*
X151582029Y-85959100D01*
X151582023Y-85959101D01*
X151522416Y-85965508D01*
X151387571Y-86015802D01*
X151387564Y-86015806D01*
X151272355Y-86102052D01*
X151272352Y-86102055D01*
X151186106Y-86217264D01*
X151186102Y-86217271D01*
X151135808Y-86352117D01*
X151129401Y-86411716D01*
X151129400Y-86411735D01*
X151129400Y-87527470D01*
X147871300Y-87527470D01*
X147871300Y-85398101D01*
X147890985Y-85331062D01*
X147943789Y-85285307D01*
X148012947Y-85275363D01*
X148069607Y-85298833D01*
X148182565Y-85383393D01*
X148182568Y-85383395D01*
X148182571Y-85383397D01*
X148317417Y-85433691D01*
X148317416Y-85433691D01*
X148324344Y-85434435D01*
X148377027Y-85440100D01*
X150377772Y-85440099D01*
X150437383Y-85433691D01*
X150572231Y-85383396D01*
X150687446Y-85297146D01*
X150773696Y-85181931D01*
X150781590Y-85160767D01*
X150823461Y-85104833D01*
X150888925Y-85080416D01*
X150897772Y-85080100D01*
X153063332Y-85080100D01*
X153129304Y-85099106D01*
X153218877Y-85155389D01*
X153218881Y-85155390D01*
X153389137Y-85214966D01*
X153389143Y-85214967D01*
X153389145Y-85214968D01*
X153389146Y-85214968D01*
X153389150Y-85214969D01*
X153568396Y-85235165D01*
X153568400Y-85235165D01*
X153568404Y-85235165D01*
X153747649Y-85214969D01*
X153747652Y-85214968D01*
X153747655Y-85214968D01*
X153917922Y-85155389D01*
X154070662Y-85059416D01*
X154142608Y-84987470D01*
X165704400Y-84987470D01*
X165704401Y-84987476D01*
X165710808Y-85047083D01*
X165761102Y-85181928D01*
X165761106Y-85181935D01*
X165847352Y-85297144D01*
X165847355Y-85297147D01*
X165962564Y-85383393D01*
X165962571Y-85383397D01*
X166097417Y-85433691D01*
X166097416Y-85433691D01*
X166104344Y-85434435D01*
X166157027Y-85440100D01*
X168157772Y-85440099D01*
X168217383Y-85433691D01*
X168352231Y-85383396D01*
X168467446Y-85297146D01*
X168553696Y-85181931D01*
X168603991Y-85047083D01*
X168610400Y-84987473D01*
X168610399Y-83871728D01*
X168603991Y-83812117D01*
X168591676Y-83779100D01*
X168553697Y-83677271D01*
X168553693Y-83677264D01*
X168467447Y-83562055D01*
X168467444Y-83562052D01*
X168352235Y-83475806D01*
X168352228Y-83475802D01*
X168217382Y-83425508D01*
X168217383Y-83425508D01*
X168157783Y-83419101D01*
X168157781Y-83419100D01*
X168157773Y-83419100D01*
X168157764Y-83419100D01*
X166157029Y-83419100D01*
X166157023Y-83419101D01*
X166097416Y-83425508D01*
X165962571Y-83475802D01*
X165962564Y-83475806D01*
X165847355Y-83562052D01*
X165847352Y-83562055D01*
X165761106Y-83677264D01*
X165761102Y-83677271D01*
X165710808Y-83812117D01*
X165704401Y-83871716D01*
X165704401Y-83871723D01*
X165704400Y-83871735D01*
X165704400Y-84987470D01*
X154142608Y-84987470D01*
X154198216Y-84931862D01*
X154294189Y-84779122D01*
X154353768Y-84608855D01*
X154373965Y-84429600D01*
X154353768Y-84250345D01*
X154294189Y-84080078D01*
X154198216Y-83927338D01*
X154070662Y-83799784D01*
X154007496Y-83760094D01*
X153917923Y-83703811D01*
X153747654Y-83644231D01*
X153747649Y-83644230D01*
X153568404Y-83624035D01*
X153568396Y-83624035D01*
X153389150Y-83644230D01*
X153389137Y-83644233D01*
X153218881Y-83703809D01*
X153218877Y-83703810D01*
X153129304Y-83760094D01*
X153063332Y-83779100D01*
X150897772Y-83779100D01*
X150830733Y-83759415D01*
X150784978Y-83706611D01*
X150781590Y-83698433D01*
X150773697Y-83677271D01*
X150773693Y-83677264D01*
X150687447Y-83562055D01*
X150687444Y-83562052D01*
X150572235Y-83475806D01*
X150572228Y-83475802D01*
X150437382Y-83425508D01*
X150437383Y-83425508D01*
X150377783Y-83419101D01*
X150377781Y-83419100D01*
X150377773Y-83419100D01*
X150377765Y-83419100D01*
X150151900Y-83419100D01*
X150084861Y-83399415D01*
X150039106Y-83346611D01*
X150027900Y-83295100D01*
X150027900Y-82032608D01*
X150047585Y-81965569D01*
X150064219Y-81944927D01*
X150670077Y-81339069D01*
X150792342Y-81216804D01*
X150969959Y-81039186D01*
X151031280Y-81005703D01*
X151100971Y-81010687D01*
X151156905Y-81052558D01*
X151181322Y-81118023D01*
X151173820Y-81170201D01*
X151135809Y-81272114D01*
X151135808Y-81272116D01*
X151129401Y-81331716D01*
X151129401Y-81331723D01*
X151129400Y-81331735D01*
X151129400Y-82447470D01*
X151129401Y-82447476D01*
X151135808Y-82507083D01*
X151186102Y-82641928D01*
X151186106Y-82641935D01*
X151272352Y-82757144D01*
X151272355Y-82757147D01*
X151387564Y-82843393D01*
X151387571Y-82843397D01*
X151522417Y-82893691D01*
X151522416Y-82893691D01*
X151529344Y-82894435D01*
X151582027Y-82900100D01*
X153582772Y-82900099D01*
X153642383Y-82893691D01*
X153777231Y-82843396D01*
X153892446Y-82757146D01*
X153978696Y-82641931D01*
X153994036Y-82600803D01*
X157334835Y-82600803D01*
X157355030Y-82780049D01*
X157355031Y-82780054D01*
X157414611Y-82950323D01*
X157510584Y-83103062D01*
X157638138Y-83230616D01*
X157790878Y-83326589D01*
X157848098Y-83346611D01*
X157961145Y-83386168D01*
X157961150Y-83386169D01*
X158140396Y-83406365D01*
X158140400Y-83406365D01*
X158140404Y-83406365D01*
X158319649Y-83386169D01*
X158319652Y-83386168D01*
X158319655Y-83386168D01*
X158489922Y-83326589D01*
X158642662Y-83230616D01*
X158770216Y-83103062D01*
X158866189Y-82950322D01*
X158925768Y-82780055D01*
X158928349Y-82757147D01*
X158945965Y-82600803D01*
X158945965Y-82600796D01*
X158925769Y-82421550D01*
X158925766Y-82421537D01*
X158866190Y-82251281D01*
X158866189Y-82251278D01*
X158820442Y-82178472D01*
X158809906Y-82161703D01*
X158790900Y-82095731D01*
X158790900Y-81339867D01*
X158809907Y-81273894D01*
X158866188Y-81184324D01*
X158871130Y-81170201D01*
X158925768Y-81014055D01*
X158925769Y-81014049D01*
X158945965Y-80834803D01*
X158945965Y-80834796D01*
X158925769Y-80655550D01*
X158925768Y-80655545D01*
X158896457Y-80571780D01*
X158866189Y-80485278D01*
X158770216Y-80332538D01*
X158642662Y-80204984D01*
X158627350Y-80195363D01*
X158489923Y-80109011D01*
X158319654Y-80049431D01*
X158319649Y-80049430D01*
X158140404Y-80029235D01*
X158140396Y-80029235D01*
X157961150Y-80049430D01*
X157961145Y-80049431D01*
X157790876Y-80109011D01*
X157638137Y-80204984D01*
X157510584Y-80332537D01*
X157414611Y-80485276D01*
X157355031Y-80655545D01*
X157355030Y-80655550D01*
X157334835Y-80834796D01*
X157334835Y-80834803D01*
X157355030Y-81014049D01*
X157355031Y-81014054D01*
X157414611Y-81184324D01*
X157470893Y-81273894D01*
X157489900Y-81339867D01*
X157489900Y-82095731D01*
X157470894Y-82161703D01*
X157414611Y-82251277D01*
X157414609Y-82251281D01*
X157355033Y-82421537D01*
X157355030Y-82421550D01*
X157334835Y-82600796D01*
X157334835Y-82600803D01*
X153994036Y-82600803D01*
X154028991Y-82507083D01*
X154035400Y-82447473D01*
X154035399Y-81331728D01*
X154028991Y-81272117D01*
X153996246Y-81184324D01*
X153978697Y-81137271D01*
X153978695Y-81137268D01*
X153922357Y-81062010D01*
X153897940Y-80996548D01*
X153912791Y-80928274D01*
X153962196Y-80878869D01*
X154021624Y-80863700D01*
X154242071Y-80863700D01*
X154353190Y-80841596D01*
X154367744Y-80838701D01*
X154486127Y-80789665D01*
X154514464Y-80770731D01*
X154592669Y-80718477D01*
X155403675Y-79907470D01*
X165704400Y-79907470D01*
X165704401Y-79907476D01*
X165710808Y-79967083D01*
X165761102Y-80101928D01*
X165761106Y-80101935D01*
X165847352Y-80217144D01*
X165847355Y-80217147D01*
X165962564Y-80303393D01*
X165962571Y-80303397D01*
X166097417Y-80353691D01*
X166097416Y-80353691D01*
X166104344Y-80354435D01*
X166157027Y-80360100D01*
X168157772Y-80360099D01*
X168217383Y-80353691D01*
X168352231Y-80303396D01*
X168467446Y-80217146D01*
X168553696Y-80101931D01*
X168603991Y-79967083D01*
X168610400Y-79907473D01*
X168610399Y-78791728D01*
X168603991Y-78732117D01*
X168553696Y-78597269D01*
X168553695Y-78597268D01*
X168553693Y-78597264D01*
X168467447Y-78482055D01*
X168467444Y-78482052D01*
X168352235Y-78395806D01*
X168352228Y-78395802D01*
X168217382Y-78345508D01*
X168217383Y-78345508D01*
X168157783Y-78339101D01*
X168157781Y-78339100D01*
X168157773Y-78339100D01*
X168157764Y-78339100D01*
X166157029Y-78339100D01*
X166157023Y-78339101D01*
X166097416Y-78345508D01*
X165962571Y-78395802D01*
X165962564Y-78395806D01*
X165847355Y-78482052D01*
X165847352Y-78482055D01*
X165761106Y-78597264D01*
X165761102Y-78597271D01*
X165710808Y-78732117D01*
X165704401Y-78791716D01*
X165704401Y-78791723D01*
X165704400Y-78791735D01*
X165704400Y-79907470D01*
X155403675Y-79907470D01*
X157121024Y-78190120D01*
X157182345Y-78156637D01*
X157194819Y-78154583D01*
X157202055Y-78153768D01*
X157372322Y-78094189D01*
X157525062Y-77998216D01*
X157652616Y-77870662D01*
X157748589Y-77717922D01*
X157808168Y-77547655D01*
X157828365Y-77368400D01*
X157828257Y-77367444D01*
X157808169Y-77189150D01*
X157808168Y-77189145D01*
X157762838Y-77059600D01*
X168909900Y-77059600D01*
X168909900Y-77367444D01*
X168916301Y-77426972D01*
X168916303Y-77426979D01*
X168966545Y-77561686D01*
X168966549Y-77561693D01*
X169052709Y-77676787D01*
X169052712Y-77676790D01*
X169167806Y-77762950D01*
X169167813Y-77762954D01*
X169302520Y-77813196D01*
X169302527Y-77813198D01*
X169362055Y-77819599D01*
X169362072Y-77819600D01*
X170112400Y-77819600D01*
X170112400Y-77059600D01*
X168909900Y-77059600D01*
X157762838Y-77059600D01*
X157748588Y-77018876D01*
X157652615Y-76866137D01*
X157525062Y-76738584D01*
X157372323Y-76642611D01*
X157202054Y-76583031D01*
X157202049Y-76583030D01*
X157022804Y-76562835D01*
X157022796Y-76562835D01*
X156843550Y-76583030D01*
X156843545Y-76583031D01*
X156673276Y-76642611D01*
X156520537Y-76738584D01*
X156392984Y-76866137D01*
X156297010Y-77018878D01*
X156237432Y-77189144D01*
X156237430Y-77189152D01*
X156236615Y-77196388D01*
X156209543Y-77260800D01*
X156201077Y-77270175D01*
X153944873Y-79526381D01*
X153883550Y-79559866D01*
X153857192Y-79562700D01*
X150954400Y-79562700D01*
X150887361Y-79543015D01*
X150841606Y-79490211D01*
X150830400Y-79438700D01*
X150830399Y-78791729D01*
X150830398Y-78791723D01*
X150830397Y-78791716D01*
X150823991Y-78732117D01*
X150773696Y-78597269D01*
X150773695Y-78597268D01*
X150773693Y-78597264D01*
X150687447Y-78482055D01*
X150687444Y-78482052D01*
X150572235Y-78395806D01*
X150572228Y-78395802D01*
X150437382Y-78345508D01*
X150437383Y-78345508D01*
X150377783Y-78339101D01*
X150377781Y-78339100D01*
X150377773Y-78339100D01*
X150377764Y-78339100D01*
X148377029Y-78339100D01*
X148377023Y-78339101D01*
X148317416Y-78345508D01*
X148182571Y-78395802D01*
X148182564Y-78395806D01*
X148069611Y-78480364D01*
X148004147Y-78504782D01*
X147935874Y-78489931D01*
X147886468Y-78440526D01*
X147871300Y-78381098D01*
X147871300Y-77059600D01*
X151129900Y-77059600D01*
X151129900Y-77367444D01*
X151136301Y-77426972D01*
X151136303Y-77426979D01*
X151186545Y-77561686D01*
X151186549Y-77561693D01*
X151272709Y-77676787D01*
X151272712Y-77676790D01*
X151387806Y-77762950D01*
X151387813Y-77762954D01*
X151522520Y-77813196D01*
X151522527Y-77813198D01*
X151582055Y-77819599D01*
X151582072Y-77819600D01*
X152332400Y-77819600D01*
X152332400Y-77059600D01*
X152832400Y-77059600D01*
X152832400Y-77819600D01*
X153582728Y-77819600D01*
X153582744Y-77819599D01*
X153642272Y-77813198D01*
X153642279Y-77813196D01*
X153776986Y-77762954D01*
X153776993Y-77762950D01*
X153892087Y-77676790D01*
X153892090Y-77676787D01*
X153978250Y-77561693D01*
X153978254Y-77561686D01*
X154028496Y-77426979D01*
X154028498Y-77426972D01*
X154034899Y-77367444D01*
X154034900Y-77367427D01*
X154034900Y-77059600D01*
X152832400Y-77059600D01*
X152332400Y-77059600D01*
X151129900Y-77059600D01*
X147871300Y-77059600D01*
X147871300Y-76559600D01*
X151129900Y-76559600D01*
X152332400Y-76559600D01*
X152332400Y-75799600D01*
X152832400Y-75799600D01*
X152832400Y-76559600D01*
X154034900Y-76559600D01*
X168909900Y-76559600D01*
X170112400Y-76559600D01*
X170112400Y-75799600D01*
X169362055Y-75799600D01*
X169302527Y-75806001D01*
X169302520Y-75806003D01*
X169167813Y-75856245D01*
X169167806Y-75856249D01*
X169052712Y-75942409D01*
X169052709Y-75942412D01*
X168966549Y-76057506D01*
X168966545Y-76057513D01*
X168916303Y-76192220D01*
X168916301Y-76192227D01*
X168909900Y-76251755D01*
X168909900Y-76559600D01*
X154034900Y-76559600D01*
X154034900Y-76251772D01*
X154034899Y-76251755D01*
X154028498Y-76192227D01*
X154028496Y-76192220D01*
X153978254Y-76057513D01*
X153978250Y-76057506D01*
X153892090Y-75942412D01*
X153892087Y-75942409D01*
X153776993Y-75856249D01*
X153776986Y-75856245D01*
X153642279Y-75806003D01*
X153642272Y-75806001D01*
X153582744Y-75799600D01*
X152832400Y-75799600D01*
X152332400Y-75799600D01*
X151582055Y-75799600D01*
X151522527Y-75806001D01*
X151522520Y-75806003D01*
X151387813Y-75856245D01*
X151387806Y-75856249D01*
X151272712Y-75942409D01*
X151272709Y-75942412D01*
X151186549Y-76057506D01*
X151186545Y-76057513D01*
X151136303Y-76192220D01*
X151136301Y-76192227D01*
X151129900Y-76251755D01*
X151129900Y-76559600D01*
X147871300Y-76559600D01*
X147871300Y-75238101D01*
X147890985Y-75171062D01*
X147943789Y-75125307D01*
X148012947Y-75115363D01*
X148069607Y-75138833D01*
X148182565Y-75223393D01*
X148182568Y-75223395D01*
X148182571Y-75223397D01*
X148317417Y-75273691D01*
X148317416Y-75273691D01*
X148324344Y-75274435D01*
X148377027Y-75280100D01*
X150377772Y-75280099D01*
X150437383Y-75273691D01*
X150572231Y-75223396D01*
X150687446Y-75137146D01*
X150738566Y-75068857D01*
X150794498Y-75026987D01*
X150862023Y-75021552D01*
X150888754Y-75026869D01*
X150904996Y-75030100D01*
X150904997Y-75030100D01*
X151054804Y-75030100D01*
X151054805Y-75030099D01*
X151201730Y-75000875D01*
X151340132Y-74943547D01*
X151464691Y-74860319D01*
X151497540Y-74827470D01*
X165704400Y-74827470D01*
X165704401Y-74827476D01*
X165710808Y-74887083D01*
X165761102Y-75021928D01*
X165761106Y-75021935D01*
X165847352Y-75137144D01*
X165847355Y-75137147D01*
X165962564Y-75223393D01*
X165962571Y-75223397D01*
X166097417Y-75273691D01*
X166097416Y-75273691D01*
X166104344Y-75274435D01*
X166157027Y-75280100D01*
X168157772Y-75280099D01*
X168217383Y-75273691D01*
X168352231Y-75223396D01*
X168467446Y-75137146D01*
X168518566Y-75068857D01*
X168574498Y-75026987D01*
X168642023Y-75021552D01*
X168668754Y-75026869D01*
X168684996Y-75030100D01*
X168684997Y-75030100D01*
X168834804Y-75030100D01*
X168834805Y-75030099D01*
X168981730Y-75000875D01*
X169120132Y-74943547D01*
X169244691Y-74860319D01*
X169350619Y-74754391D01*
X169433847Y-74629832D01*
X169491175Y-74491430D01*
X169520400Y-74344503D01*
X169520400Y-74194697D01*
X169491175Y-74047770D01*
X169433847Y-73909368D01*
X169433846Y-73909367D01*
X169433843Y-73909361D01*
X169350619Y-73784809D01*
X169350616Y-73784805D01*
X169244694Y-73678883D01*
X169244690Y-73678880D01*
X169120138Y-73595656D01*
X169120129Y-73595651D01*
X168981730Y-73538325D01*
X168981722Y-73538323D01*
X168834807Y-73509100D01*
X168834803Y-73509100D01*
X168684997Y-73509100D01*
X168642020Y-73517648D01*
X168572429Y-73511419D01*
X168518566Y-73470341D01*
X168467446Y-73402054D01*
X168467445Y-73402053D01*
X168467444Y-73402052D01*
X168352235Y-73315806D01*
X168352228Y-73315802D01*
X168217382Y-73265508D01*
X168217383Y-73265508D01*
X168157783Y-73259101D01*
X168157781Y-73259100D01*
X168157773Y-73259100D01*
X168157764Y-73259100D01*
X166157029Y-73259100D01*
X166157023Y-73259101D01*
X166097416Y-73265508D01*
X165962571Y-73315802D01*
X165962564Y-73315806D01*
X165847355Y-73402052D01*
X165847352Y-73402055D01*
X165761106Y-73517264D01*
X165761102Y-73517271D01*
X165710808Y-73652117D01*
X165704401Y-73711716D01*
X165704400Y-73711735D01*
X165704400Y-74827470D01*
X151497540Y-74827470D01*
X151570619Y-74754391D01*
X151653847Y-74629832D01*
X151711175Y-74491430D01*
X151740400Y-74344503D01*
X151740400Y-74194697D01*
X151711175Y-74047770D01*
X151653847Y-73909368D01*
X151653846Y-73909367D01*
X151653843Y-73909361D01*
X151570619Y-73784809D01*
X151570616Y-73784805D01*
X151464694Y-73678883D01*
X151464690Y-73678880D01*
X151340138Y-73595656D01*
X151340129Y-73595651D01*
X151201730Y-73538325D01*
X151201722Y-73538323D01*
X151054807Y-73509100D01*
X151054803Y-73509100D01*
X150904997Y-73509100D01*
X150862020Y-73517648D01*
X150792429Y-73511419D01*
X150738566Y-73470341D01*
X150687446Y-73402054D01*
X150687445Y-73402053D01*
X150687444Y-73402052D01*
X150572235Y-73315806D01*
X150572228Y-73315802D01*
X150437382Y-73265508D01*
X150437383Y-73265508D01*
X150377783Y-73259101D01*
X150377781Y-73259100D01*
X150377773Y-73259100D01*
X150377764Y-73259100D01*
X148377029Y-73259100D01*
X148377023Y-73259101D01*
X148317416Y-73265508D01*
X148182571Y-73315802D01*
X148182564Y-73315806D01*
X148069611Y-73400364D01*
X148004147Y-73424782D01*
X147935874Y-73409931D01*
X147886468Y-73360526D01*
X147871300Y-73301098D01*
X147871300Y-72287470D01*
X151129400Y-72287470D01*
X151129401Y-72287476D01*
X151135808Y-72347083D01*
X151186102Y-72481928D01*
X151186106Y-72481935D01*
X151272352Y-72597144D01*
X151272355Y-72597147D01*
X151387564Y-72683393D01*
X151387571Y-72683397D01*
X151522417Y-72733691D01*
X151522416Y-72733691D01*
X151529344Y-72734435D01*
X151582027Y-72740100D01*
X153582772Y-72740099D01*
X153642383Y-72733691D01*
X153777231Y-72683396D01*
X153892446Y-72597146D01*
X153978696Y-72481931D01*
X154028991Y-72347083D01*
X154035400Y-72287473D01*
X154035399Y-71171728D01*
X154028991Y-71112117D01*
X153978696Y-70977269D01*
X153978695Y-70977268D01*
X153978693Y-70977264D01*
X153892447Y-70862055D01*
X153892444Y-70862052D01*
X153777235Y-70775806D01*
X153777228Y-70775802D01*
X153642382Y-70725508D01*
X153642383Y-70725508D01*
X153582783Y-70719101D01*
X153582781Y-70719100D01*
X153582773Y-70719100D01*
X153582764Y-70719100D01*
X151582029Y-70719100D01*
X151582023Y-70719101D01*
X151522416Y-70725508D01*
X151387571Y-70775802D01*
X151387564Y-70775806D01*
X151272355Y-70862052D01*
X151272352Y-70862055D01*
X151186106Y-70977264D01*
X151186102Y-70977271D01*
X151135808Y-71112117D01*
X151129401Y-71171716D01*
X151129401Y-71171723D01*
X151129400Y-71171735D01*
X151129400Y-72287470D01*
X147871300Y-72287470D01*
X147871300Y-70576100D01*
X147890985Y-70509061D01*
X147943789Y-70463306D01*
X147995300Y-70452100D01*
X171638300Y-70452100D01*
X171705339Y-70471785D01*
G37*
%TD.AperFunction*%
%TD*%
M02*
